<svg width="816" height="733" viewBox="0 0 816 733" fill="none" xmlns="http://www.w3.org/2000/svg">
<path opacity="0.0507143" d="M753.031 701.296L327.915 564.19L274.54 256.42L0.620192 63.0365" stroke="url(#paint0_linear_863_4040)"/>
<path opacity="0.101429" d="M761.771 700.966L355.854 546.162L319.501 244.988L63.2348 43.3896" stroke="url(#paint1_linear_863_4040)"/>
<path opacity="0.152143" d="M770.511 700.636L384.449 529.757L364.279 236.092L125.756 27.5797" stroke="url(#paint2_linear_863_4040)"/>
<path opacity="0.202857" d="M779.251 700.306L413.583 514.991L408.71 229.68L187.932 15.5415" stroke="url(#paint3_linear_863_4040)"/>
<path opacity="0.253571" d="M787.991 699.976L443.141 501.877L452.635 225.691L249.519 7.19392" stroke="url(#paint4_linear_863_4040)"/>
<path opacity="0.304286" d="M796.732 699.646L473.005 490.417L495.899 224.054L310.28 2.44084" stroke="url(#paint5_linear_863_4040)"/>
<path opacity="0.355" d="M805.472 699.317L503.061 480.607L538.356 224.687L369.987 1.17133" stroke="url(#paint6_linear_863_4040)"/>
<path opacity="0.405714" d="M814.212 698.987L533.194 472.435L579.865 227.502L428.421 3.26108" stroke="url(#paint7_linear_863_4040)"/>
<path opacity="0.456429" d="M822.952 698.657L563.294 465.881L620.291 232.401L485.374 8.57234" stroke="url(#paint8_linear_863_4040)"/>
<path opacity="0.507143" d="M831.692 698.327L593.249 460.92L659.509 239.277L540.647 16.9551" stroke="url(#paint9_linear_863_4040)"/>
<path opacity="0.557857" d="M840.433 697.997L622.954 457.518L697.402 248.02L594.057 28.2473" stroke="url(#paint10_linear_863_4040)"/>
<path opacity="0.608571" d="M849.173 697.667L652.305 455.635L733.86 258.507L645.429 42.2761" stroke="url(#paint11_linear_863_4040)"/>
<path opacity="0.659286" d="M857.913 697.338L681.2 455.224L768.782 270.614L694.602 58.8599" stroke="url(#paint12_linear_863_4040)"/>
<path opacity="0.71" d="M866.653 697.008L709.545 456.232L802.079 284.209L741.431 77.8064" stroke="url(#paint13_linear_863_4040)"/>
<defs>
<linearGradient id="paint0_linear_863_4040" x1="-12.0919" y1="102.452" x2="653.632" y2="796.621" gradientUnits="userSpaceOnUse">
<stop stop-color="#01B091"/>
<stop offset="1" stop-color="#00B2C8"/>
</linearGradient>
<linearGradient id="paint1_linear_863_4040" x1="48.9084" y1="80.9555" x2="659.357" y2="789.234" gradientUnits="userSpaceOnUse">
<stop stop-color="#01B091"/>
<stop offset="1" stop-color="#00B2C8"/>
</linearGradient>
<linearGradient id="paint2_linear_863_4040" x1="109.973" y1="63.2379" x2="665.54" y2="781.796" gradientUnits="userSpaceOnUse">
<stop stop-color="#01B091"/>
<stop offset="1" stop-color="#00B2C8"/>
</linearGradient>
<linearGradient id="paint3_linear_863_4040" x1="170.851" y1="49.2455" x2="672.178" y2="774.336" gradientUnits="userSpaceOnUse">
<stop stop-color="#01B091"/>
<stop offset="1" stop-color="#00B2C8"/>
</linearGradient>
<linearGradient id="paint4_linear_863_4040" x1="231.3" y1="38.9086" x2="679.266" y2="766.881" gradientUnits="userSpaceOnUse">
<stop stop-color="#01B091"/>
<stop offset="1" stop-color="#00B2C8"/>
</linearGradient>
<linearGradient id="paint5_linear_863_4040" x1="291.083" y1="32.1423" x2="686.798" y2="759.459" gradientUnits="userSpaceOnUse">
<stop stop-color="#01B091"/>
<stop offset="1" stop-color="#00B2C8"/>
</linearGradient>
<linearGradient id="paint6_linear_863_4040" x1="349.971" y1="28.847" x2="694.765" y2="752.094" gradientUnits="userSpaceOnUse">
<stop stop-color="#01B091"/>
<stop offset="1" stop-color="#00B2C8"/>
</linearGradient>
<linearGradient id="paint7_linear_863_4040" x1="407.744" y1="28.9093" x2="703.157" y2="744.813" gradientUnits="userSpaceOnUse">
<stop stop-color="#01B091"/>
<stop offset="1" stop-color="#00B2C8"/>
</linearGradient>
<linearGradient id="paint8_linear_863_4040" x1="464.19" y1="32.2022" x2="711.962" y2="737.64" gradientUnits="userSpaceOnUse">
<stop stop-color="#01B091"/>
<stop offset="1" stop-color="#00B2C8"/>
</linearGradient>
<linearGradient id="paint9_linear_863_4040" x1="519.11" y1="38.5865" x2="721.169" y2="730.599" gradientUnits="userSpaceOnUse">
<stop stop-color="#01B091"/>
<stop offset="1" stop-color="#00B2C8"/>
</linearGradient>
<linearGradient id="paint10_linear_863_4040" x1="572.314" y1="47.9102" x2="730.763" y2="723.711" gradientUnits="userSpaceOnUse">
<stop stop-color="#01B091"/>
<stop offset="1" stop-color="#00B2C8"/>
</linearGradient>
<linearGradient id="paint11_linear_863_4040" x1="623.626" y1="60.0107" x2="740.73" y2="716.997" gradientUnits="userSpaceOnUse">
<stop stop-color="#01B091"/>
<stop offset="1" stop-color="#00B2C8"/>
</linearGradient>
<linearGradient id="paint12_linear_863_4040" x1="672.878" y1="74.7158" x2="751.052" y2="710.477" gradientUnits="userSpaceOnUse">
<stop stop-color="#01B091"/>
<stop offset="1" stop-color="#00B2C8"/>
</linearGradient>
<linearGradient id="paint13_linear_863_4040" x1="719.92" y1="91.8423" x2="761.712" y2="704.17" gradientUnits="userSpaceOnUse">
<stop stop-color="#01B091"/>
<stop offset="1" stop-color="#00B2C8"/>
</linearGradient>
</defs>
</svg>
