<svg width="1440" height="587" viewBox="0 0 1440 587" fill="none" xmlns="http://www.w3.org/2000/svg">
<path d="M0 580.009V33.8521C0 29.9861 3.13403 26.8521 7 26.8521H419.533C420.82 26.8521 422.081 26.4977 423.179 25.8278L463.821 1.03306C464.919 0.363183 466.18 0.00878906 467.467 0.00878906H975.912C977.274 0.00878906 978.607 0.40621 979.747 1.15233L1017.25 25.7086C1018.39 26.4547 1019.73 26.8521 1021.09 26.8521H1433C1436.87 26.8521 1440 29.9861 1440 33.8521V580.009C1440 583.875 1436.87 587.009 1433 587.009H7C3.13403 587.009 0 583.875 0 580.009Z" fill="#E4FAFC"/>
<path d="M423.57 26.4681L423.179 25.8278L423.57 26.4681C422.354 27.2097 420.957 27.6021 419.533 27.6021H7C3.54822 27.6021 0.75 30.4003 0.75 33.8521V580.009C0.75 583.461 3.54822 586.259 7 586.259H1433C1436.45 586.259 1439.25 583.461 1439.25 580.009V33.8521C1439.25 30.4003 1436.45 27.6021 1433 27.6021H1021.09C1019.58 27.6021 1018.1 27.1621 1016.84 26.336L979.336 1.77981C978.318 1.11363 977.129 0.758789 975.912 0.758789H467.467C466.318 0.758789 465.192 1.07521 464.212 1.67332L423.57 26.4681Z" stroke="url(#paint0_linear_26_2325)" stroke-opacity="0.3" stroke-width="1.5"/>
<defs>
<linearGradient id="paint0_linear_26_2325" x1="1440" y1="61.1958" x2="0" y2="61.1958" gradientUnits="userSpaceOnUse">
<stop stop-opacity="0"/>
<stop offset="0.535" stop-color="#004F58"/>
<stop offset="1" stop-opacity="0"/>
</linearGradient>
</defs>
</svg>
