<svg width="413" height="263" viewBox="0 0 413 263" fill="none" xmlns="http://www.w3.org/2000/svg">
<path d="M123.086 1.25586V44.998" stroke="#CADFEB" stroke-width="2" stroke-linecap="round" stroke-linejoin="round"/>
<path d="M179.695 1.25586V44.998" stroke="#CADFEB" stroke-width="2" stroke-linecap="round" stroke-linejoin="round"/>
<path d="M236.305 1.25586V44.998" stroke="#CADFEB" stroke-width="2" stroke-linecap="round" stroke-linejoin="round"/>
<path d="M292.914 1.25586V44.998" stroke="#CADFEB" stroke-width="2" stroke-linecap="round" stroke-linejoin="round"/>
<mask id="mask0_388_4219" style="mask-type:luminance" maskUnits="userSpaceOnUse" x="66" y="1" width="284" height="57">
<path d="M349.411 1.94531H66.2847V57.0938H349.411V1.94531Z" fill="white"/>
</mask>
<g mask="url(#mask0_388_4219)">
<path d="M31.125 14.771C60.4935 14.771 65.6469 35.6567 87.7344 35.6567C109.822 35.6567 131.507 11.8521 154.903 11.8521C178.299 11.8521 189.806 37.213 241.627 37.213C270.51 37.213 292.493 14.771 314.172 14.771" stroke="#00B2C8" stroke-width="2" stroke-linecap="round" stroke-linejoin="round"/>
<path d="M314.172 14.771C343.541 14.771 348.694 35.6567 370.782 35.6567C392.869 35.6567 414.554 11.8521 437.95 11.8521C461.347 11.8521 472.854 37.213 524.675 37.213C553.558 37.213 575.541 14.771 597.219 14.771" stroke="#00B2C8" stroke-width="2" stroke-linecap="round" stroke-linejoin="round"/>
<path d="M212.71 28.8721C215.148 28.8721 217.127 30.8553 217.127 33.298C217.127 35.7406 215.148 37.7239 212.71 37.7239C210.272 37.7239 208.292 35.7406 208.292 33.298C208.292 30.8553 210.272 28.8721 212.71 28.8721Z" fill="white"/>
<path d="M212.71 28.8721C215.148 28.8721 217.127 30.8553 217.127 33.298C217.127 35.7406 215.148 37.7239 212.71 37.7239C210.272 37.7239 208.292 35.7406 208.292 33.298C208.292 30.8553 210.272 28.8721 212.71 28.8721Z" stroke="#17154B" stroke-width="2" stroke-linecap="round" stroke-linejoin="round"/>
</g>
<mask id="mask1_388_4219" style="mask-type:luminance" maskUnits="userSpaceOnUse" x="4" y="51" width="408" height="181">
<path d="M411.145 51H4.24658V231.984H411.145V51Z" fill="white"/>
</mask>
<g mask="url(#mask1_388_4219)">
<path d="M-39.5811 151.697L17.0289 166.763L130.248 82.9858L300.077 187.492L355.761 151.593" stroke="#CADFEB" stroke-width="2" stroke-linecap="round" stroke-linejoin="round"/>
<path d="M17.0293 162.337C19.4673 162.337 21.4468 164.321 21.4468 166.763C21.4468 169.206 19.4673 171.189 17.0293 171.189C14.5913 171.189 12.6118 169.206 12.6118 166.763C12.6118 164.321 14.5913 162.337 17.0293 162.337Z" fill="white"/>
<path d="M17.0293 162.337C19.4673 162.337 21.4468 164.321 21.4468 166.763C21.4468 169.206 19.4673 171.189 17.0293 171.189C14.5913 171.189 12.6118 169.206 12.6118 166.763C12.6118 164.321 14.5913 162.337 17.0293 162.337Z" stroke="#17154B" stroke-width="2" stroke-linecap="round" stroke-linejoin="round"/>
<path d="M73.6387 120.484C76.0767 120.484 78.0562 122.468 78.0562 124.91C78.0562 127.353 76.0767 129.336 73.6387 129.336C71.2007 129.336 69.2212 127.353 69.2212 124.91C69.2212 122.468 71.2007 120.484 73.6387 120.484Z" fill="white"/>
<path d="M73.6387 120.484C76.0767 120.484 78.0562 122.468 78.0562 124.91C78.0562 127.353 76.0767 129.336 73.6387 129.336C71.2007 129.336 69.2212 127.353 69.2212 124.91C69.2212 122.468 71.2007 120.484 73.6387 120.484Z" stroke="#17154B" stroke-width="2" stroke-linecap="round" stroke-linejoin="round"/>
<path d="M130.248 78.5601C132.686 78.5601 134.666 80.5433 134.666 82.9859C134.666 85.4286 132.686 87.4118 130.248 87.4118C127.81 87.4118 125.831 85.4286 125.831 82.9859C125.831 80.5433 127.81 78.5601 130.248 78.5601Z" fill="white"/>
<path d="M130.248 78.5601C132.686 78.5601 134.666 80.5433 134.666 82.9859C134.666 85.4286 132.686 87.4118 130.248 87.4118C127.81 87.4118 125.831 85.4286 125.831 82.9859C125.831 80.5433 127.81 78.5601 130.248 78.5601Z" stroke="#17154B" stroke-width="2" stroke-linecap="round" stroke-linejoin="round"/>
<path d="M186.857 113.555C189.295 113.555 191.275 115.538 191.275 117.981C191.275 120.424 189.295 122.407 186.857 122.407C184.419 122.407 182.44 120.424 182.44 117.981C182.44 115.538 184.419 113.555 186.857 113.555Z" fill="white"/>
<path d="M186.857 113.555C189.295 113.555 191.275 115.538 191.275 117.981C191.275 120.424 189.295 122.407 186.857 122.407C184.419 122.407 182.44 120.424 182.44 117.981C182.44 115.538 184.419 113.555 186.857 113.555Z" stroke="#17154B" stroke-width="2" stroke-linecap="round" stroke-linejoin="round"/>
<path d="M243.467 148.273C245.905 148.273 247.884 150.256 247.884 152.699C247.884 155.141 245.905 157.125 243.467 157.125C241.029 157.125 239.049 155.141 239.049 152.699C239.049 150.256 241.029 148.273 243.467 148.273Z" fill="white"/>
<path d="M243.467 148.273C245.905 148.273 247.884 150.256 247.884 152.699C247.884 155.141 245.905 157.125 243.467 157.125C241.029 157.125 239.049 155.141 239.049 152.699C239.049 150.256 241.029 148.273 243.467 148.273Z" stroke="#17154B" stroke-width="2" stroke-linecap="round" stroke-linejoin="round"/>
<path d="M300.076 183.066C302.514 183.066 304.494 185.05 304.494 187.492C304.494 189.935 302.514 191.918 300.076 191.918C297.638 191.918 295.659 189.935 295.659 187.492C295.659 185.05 297.638 183.066 300.076 183.066Z" fill="white"/>
<path d="M300.076 183.066C302.514 183.066 304.494 185.05 304.494 187.492C304.494 189.935 302.514 191.918 300.076 191.918C297.638 191.918 295.659 189.935 295.659 187.492C295.659 185.05 297.638 183.066 300.076 183.066Z" stroke="#17154B" stroke-width="2" stroke-linecap="round" stroke-linejoin="round"/>
<path d="M355.762 147.271C358.2 147.271 360.179 149.255 360.179 151.697C360.179 154.14 358.2 156.123 355.762 156.123C353.324 156.123 351.344 154.14 351.344 151.697C351.344 149.255 353.324 147.271 355.762 147.271Z" fill="white"/>
<path d="M355.762 147.271C358.2 147.271 360.179 149.255 360.179 151.697C360.179 154.14 358.2 156.123 355.762 156.123C353.324 156.123 351.344 154.14 351.344 151.697C351.344 149.255 353.324 147.271 355.762 147.271Z" stroke="#17154B" stroke-width="2" stroke-linecap="round" stroke-linejoin="round"/>
<path d="M355.761 151.697L412.356 240.193L468.945 161.628L525.59 82.9858L587.606 121.149L651.445 160.433L695.419 187.492L751.104 151.593" stroke="#CADFEB" stroke-width="2" stroke-linecap="round" stroke-linejoin="round"/>
<path d="M355.761 147.271C358.199 147.271 360.178 149.255 360.178 151.697C360.178 154.14 358.199 156.123 355.761 156.123C353.323 156.123 351.343 154.14 351.343 151.697C351.343 149.255 353.323 147.271 355.761 147.271Z" fill="white"/>
<path d="M355.761 147.271C358.199 147.271 360.178 149.255 360.178 151.697C360.178 154.14 358.199 156.123 355.761 156.123C353.323 156.123 351.343 154.14 351.343 151.697C351.343 149.255 353.323 147.271 355.761 147.271Z" stroke="#17154B" stroke-width="2" stroke-linecap="round" stroke-linejoin="round"/>
</g>
<path d="M349.524 1.25635V56.7881H66.4761V1.25635H349.524Z" stroke="#17154B" stroke-width="2" stroke-linecap="round" stroke-linejoin="round"/>
<path d="M66.4766 44.998H349.524" stroke="#17154B" stroke-width="2" stroke-linecap="round" stroke-linejoin="round"/>
<mask id="mask2_388_4219" style="mask-type:luminance" maskUnits="userSpaceOnUse" x="12" y="77" width="391" height="186">
<path d="M402.022 77.2031H12.7617V262.453H402.022V77.2031Z" fill="white"/>
</mask>
<g mask="url(#mask2_388_4219)">
<path d="M42.4226 202.61V261.622H-6.66064V202.61H42.4226Z" fill="white"/>
<path d="M42.4226 202.61V261.622H-6.66064V202.61H42.4226Z" stroke="#CADFEB" stroke-width="2" stroke-linecap="round" stroke-linejoin="round"/>
<path d="M99.032 149.171V261.621H49.9487V149.171H99.032Z" fill="white"/>
<path d="M99.032 149.171V261.621H49.9487V149.171H99.032Z" stroke="#00B2C8" stroke-width="2" stroke-linecap="round" stroke-linejoin="round"/>
<path d="M155.641 124.911V261.621H106.558V124.911H155.641Z" fill="white"/>
<path d="M155.641 124.911V261.621H106.558V124.911H155.641Z" stroke="#00B2C8" stroke-width="2" stroke-linecap="round" stroke-linejoin="round"/>
<path d="M212.251 160.974V261.622H163.167V160.974H212.251Z" fill="white"/>
<path d="M212.251 160.974V261.622H163.167V160.974H212.251Z" stroke="#F78A7E" stroke-width="2" stroke-linecap="round" stroke-linejoin="round"/>
<path d="M268.86 181.3V261.622H219.777V181.3H268.86Z" fill="white"/>
<path d="M268.86 181.3V261.622H219.777V181.3H268.86Z" stroke="#F78A7E" stroke-width="2" stroke-linecap="round" stroke-linejoin="round"/>
<path d="M325.47 218.675V261.622H276.386V218.675H325.47Z" fill="white"/>
<path d="M325.47 218.675V261.622H276.386V218.675H325.47Z" stroke="#F78A7E" stroke-width="2" stroke-linecap="round" stroke-linejoin="round"/>
<path d="M353.612 261.622H332.997V187.493H353.612" fill="white"/>
<path d="M353.612 261.622H332.997V187.493H353.612" stroke="#00B2C8" stroke-width="2" stroke-linecap="round" stroke-linejoin="round"/>
<path d="M353.611 187.493H374.226V261.622H353.611" fill="white"/>
<path d="M353.611 187.493H374.226V261.622H353.611" stroke="#00B2C8" stroke-width="2" stroke-linecap="round" stroke-linejoin="round"/>
<path d="M430.836 257.334V316.346H381.753V257.334H430.836Z" fill="white"/>
<path d="M430.836 257.334V316.346H381.753V257.334H430.836Z" stroke="#CADFEB" stroke-width="2" stroke-linecap="round" stroke-linejoin="round"/>
</g>
<path d="M13.793 261.622H402.207" stroke="#17154B" stroke-width="2" stroke-linecap="round" stroke-linejoin="round"/>
<path d="M16.8344 99.2803C25.548 99.2803 32.6228 106.369 32.6228 115.099C32.6228 123.829 25.548 130.917 16.8344 130.917C8.12071 130.917 1.0459 123.829 1.0459 115.099C1.0459 106.369 8.12071 99.2803 16.8344 99.2803Z" fill="white"/>
<path d="M16.8344 99.2803C25.548 99.2803 32.6228 106.369 32.6228 115.099C32.6228 123.829 25.548 130.917 16.8344 130.917C8.12071 130.917 1.0459 123.829 1.0459 115.099C1.0459 106.369 8.12071 99.2803 16.8344 99.2803Z" stroke="#F78A7E" stroke-width="2" stroke-linecap="round" stroke-linejoin="round"/>
<path d="M16.8345 107.723V122.474" stroke="#F78A7E" stroke-width="2" stroke-linecap="round" stroke-linejoin="round"/>
<path d="M24.1964 115.099H9.47266" stroke="#F78A7E" stroke-width="2" stroke-linecap="round" stroke-linejoin="round"/>
<path d="M300 125.534C308.714 125.534 315.788 132.622 315.788 141.353C315.788 150.083 308.714 157.171 300 157.171C291.286 157.171 284.211 150.083 284.211 141.353C284.211 132.622 291.286 125.534 300 125.534Z" fill="white"/>
<path d="M300 125.534C308.714 125.534 315.788 132.622 315.788 141.353C315.788 150.083 308.714 157.171 300 157.171C291.286 157.171 284.211 150.083 284.211 141.353C284.211 132.622 291.286 125.534 300 125.534Z" stroke="#F78A7E" stroke-width="2" stroke-linecap="round" stroke-linejoin="round"/>
<path d="M300 133.977V148.728" stroke="#F78A7E" stroke-width="2" stroke-linecap="round" stroke-linejoin="round"/>
<path d="M307.362 141.353H292.638" stroke="#F78A7E" stroke-width="2" stroke-linecap="round" stroke-linejoin="round"/>
</svg>
