<svg width="1440" height="489" viewBox="0 0 1440 489" fill="none" xmlns="http://www.w3.org/2000/svg">
<path opacity="0.0788889" d="M-1076.69 21.0923L-285.012 21.0922L12.804 467.408L1575.21 467.408L1908.95 21.092L2730.56 21.0919" stroke="#00B2C8"/>
<path opacity="0.157778" d="M-957.384 42.1853L-220.834 42.1852L56.2419 446.316L1509.85 446.316L1820.34 42.185L2584.74 42.1849" stroke="#00B2C8"/>
<path opacity="0.236667" d="M-838.076 63.2782L-156.657 63.2782L99.6799 425.224L1444.48 425.224L1731.74 63.278L2438.92 63.2779" stroke="#00B2C8"/>
<path opacity="0.315556" d="M-718.768 84.3703L-92.48 84.3702L143.118 404.131L1379.12 404.131L1643.13 84.37L2293.1 84.3699" stroke="#00B2C8"/>
<path opacity="0.394444" d="M-599.46 105.462L-28.3034 105.462L186.555 383.039L1313.75 383.038L1554.52 105.462L2147.27 105.462" stroke="#00B2C8"/>
<path opacity="0.473333" d="M-480.152 126.554L35.8734 126.554L229.993 361.946L1248.39 361.946L1465.92 126.554L2001.45 126.554" stroke="#00B2C8"/>
<path opacity="0.552222" d="M-360.844 147.647L100.05 147.647L273.431 340.854L1183.02 340.854L1377.31 147.647L1855.63 147.647" stroke="#00B2C8"/>
<path opacity="0.631111" d="M-241.536 168.739L164.228 168.739L316.868 319.761L1117.66 319.761L1288.71 168.739L1709.81 168.739" stroke="#00B2C8"/>
<path opacity="0.71" d="M-122.229 189.832L228.404 189.832L360.306 298.669L1052.29 298.669L1200.1 189.832L1563.99 189.832" stroke="#00B2C8"/>
</svg>
