<svg width="1440" height="1290" viewBox="0 0 1440 1290" fill="none" xmlns="http://www.w3.org/2000/svg">
<path opacity="0.0507143" d="M191.415 274.641L739.599 510.316L1411.4 479.572L2351.21 862.269" stroke="#01B091" stroke-opacity="0.4"/>
<path opacity="0.101429" d="M168.088 264.108L707.743 485.159L1362.87 445.531L2287.64 803.761" stroke="#01B091" stroke-opacity="0.4"/>
<path opacity="0.152143" d="M144.757 253.575L675.543 460.373L1313.89 412.433L2223.06 746.839" stroke="#01B091" stroke-opacity="0.4"/>
<path opacity="0.202857" d="M121.425 243.042L643.013 435.966L1264.49 380.285L2157.53 691.524" stroke="#01B091" stroke-opacity="0.4"/>
<path opacity="0.253571" d="M98.0957 232.508L610.167 411.943L1214.71 349.095L2091.08 637.834" stroke="#01B091" stroke-opacity="0.4"/>
<path opacity="0.304286" d="M74.7646 221.975L577.012 388.313L1164.57 318.872L2023.76 585.789" stroke="#01B091" stroke-opacity="0.4"/>
<path opacity="0.355" d="M51.4336 211.442L543.559 365.082L1114.08 289.62L1955.61 535.405" stroke="#01B091" stroke-opacity="0.4"/>
<path opacity="0.405714" d="M28.1055 200.909L509.822 342.256L1063.29 261.345L1886.68 486.698" stroke="#01B091" stroke-opacity="0.4"/>
<path opacity="0.456429" d="M4.77441 190.375L475.808 319.842L1012.2 234.052L1817.02 439.682" stroke="#01B091" stroke-opacity="0.4"/>
<path opacity="0.507143" d="M-18.5547 179.842L441.531 297.844L960.861 207.746L1746.66 394.372" stroke="#01B091" stroke-opacity="0.4"/>
<path opacity="0.557857" d="M-41.8848 169.309L407.001 276.269L909.282 182.43L1675.66 350.78" stroke="#01B091" stroke-opacity="0.4"/>
<path opacity="0.608571" d="M-65.2168 158.776L372.228 255.122L857.492 158.109L1604.06 308.919" stroke="#01B091" stroke-opacity="0.4"/>
<path opacity="0.659286" d="M-88.5469 148.243L337.227 234.408L805.521 134.784L1531.9 268.798" stroke="#01B091" stroke-opacity="0.4"/>
<path opacity="0.71" d="M-111.876 137.709L302.009 214.13L753.395 112.457L1459.23 230.427" stroke="#01B091" stroke-opacity="0.4"/>
</svg>
