<svg width="356" height="340" viewBox="0 0 356 340" fill="none" xmlns="http://www.w3.org/2000/svg">
<mask id="mask0_107_6446" style="mask-type:luminance" maskUnits="userSpaceOnUse" x="0" y="0" width="356" height="332">
<path d="M355.527 0H0V332H355.527V0Z" fill="white"/>
</mask>
<g mask="url(#mask0_107_6446)">
<path d="M95.2129 61.1255V82.7185H261.044V139.197H95.2129V201.836H261.166V258.121H95.2129V320.89H261.044V377.11H95.2129V401.881" stroke="#CADFEB" stroke-width="3" stroke-linecap="round" stroke-linejoin="round"/>
<path d="M95.2129 -280.212V-258.619H261.044V-202.14H95.2129V-139.501H261.166V-83.2167H95.2129V-20.4479H261.044V20.3393H95.2129V60.5435" stroke="#CADFEB" stroke-width="3" stroke-linecap="round" stroke-linejoin="round"/>
<path d="M305.115 302.858C305.11 303.302 305.084 303.741 305.039 304.173" stroke="#00B2C8" stroke-width="3" stroke-linecap="round" stroke-linejoin="round"/>
<path d="M292.485 301.507L292.04 302.554C292.38 302.382 292.6 302.368 292.934 302.554L292.485 301.507Z" fill="#00B2C8"/>
<path d="M292.485 301.507L292.04 302.554C292.38 302.382 292.6 302.368 292.934 302.554L292.485 301.507Z" stroke="#00B2C8" stroke-width="0.438821" stroke-linecap="round" stroke-linejoin="round"/>
<path d="M292.487 303.879V302.42" stroke="#00B2C8" stroke-width="0.438821" stroke-linecap="round" stroke-linejoin="round"/>
<path d="M87.7046 134.852C87.7046 134.858 87.7046 134.864 87.7046 134.869" stroke="#F78A7E" stroke-width="3" stroke-linecap="round" stroke-linejoin="round"/>
<path d="M75.0759 134.633L75.0698 134.647C75.0745 134.645 75.0775 134.645 75.082 134.647L75.0759 134.633Z" fill="#F78A7E"/>
<path d="M75.0759 134.633L75.0698 134.647C75.0745 134.645 75.0775 134.645 75.082 134.647L75.0759 134.633Z" stroke="#F78A7E" stroke-width="0.00527028" stroke-linecap="round" stroke-linejoin="round"/>
<path d="M75.0752 134.661V134.644" stroke="#F78A7E" stroke-width="0.00527028" stroke-linecap="round" stroke-linejoin="round"/>
<path d="M133.19 284.919L130.949 290.196C132.663 289.327 133.771 289.257 135.453 290.196L133.19 284.919Z" fill="#17154B"/>
<path d="M133.19 284.919L130.949 290.196C132.663 289.327 133.771 289.257 135.453 290.196L133.19 284.919Z" stroke="#17154B" stroke-width="2.211" stroke-linecap="round" stroke-linejoin="round"/>
<path d="M179.803 283.03C179.803 283.03 179.803 281.652 179.803 279.297" stroke="#17154B" stroke-width="3" stroke-linecap="round" stroke-linejoin="round"/>
<path d="M179.801 279.441L179.463 280.236C179.721 280.105 179.889 280.095 180.142 280.236L179.801 279.441Z" fill="#17154B"/>
<path d="M179.801 279.441L179.463 280.236C179.721 280.105 179.889 280.095 180.142 280.236L179.801 279.441Z" stroke="#17154B" stroke-width="0.333467" stroke-linecap="round" stroke-linejoin="round"/>
<path d="M235.812 92.307C235.812 92.307 235.812 49.5703 235.812 43.7053" stroke="#17154B" stroke-width="3" stroke-linecap="round" stroke-linejoin="round"/>
<path d="M235.797 37.2325L232.65 44.6411C235.057 43.421 236.612 43.3217 238.973 44.6411L235.797 37.2325Z" fill="#17154B"/>
<path d="M235.797 37.2325L232.65 44.6411C235.057 43.421 236.612 43.3217 238.973 44.6411L235.797 37.2325Z" stroke="#17154B" stroke-width="3.10427" stroke-linecap="round" stroke-linejoin="round"/>
<mask id="mask1_107_6446" style="mask-type:luminance" maskUnits="userSpaceOnUse" x="-3" y="-150" width="357" height="623">
<path d="M-2.43506 -149.746H353.092V472.754H-2.43506V-149.746Z" fill="white"/>
</mask>
<g mask="url(#mask1_107_6446)">
<path d="M151.336 103.038C151.336 105.195 149.695 106.943 147.67 106.943C145.645 106.943 144.003 105.195 144.003 103.038C144.003 100.881 145.645 99.1328 147.67 99.1328C149.695 99.1328 151.336 100.881 151.336 103.038Z" fill="white"/>
<path d="M151.336 103.038C151.336 105.195 149.695 106.943 147.67 106.943C145.645 106.943 144.003 105.195 144.003 103.038C144.003 100.881 145.645 99.1328 147.67 99.1328C149.695 99.1328 151.336 100.881 151.336 103.038Z" stroke="#F78A7E" stroke-width="3" stroke-linecap="round" stroke-linejoin="round"/>
<path d="M132.78 103.038C132.78 105.195 131.139 106.943 129.114 106.943C127.089 106.943 125.447 105.195 125.447 103.038C125.447 100.881 127.089 99.1328 129.114 99.1328C131.139 99.1328 132.78 100.881 132.78 103.038Z" fill="white"/>
<path d="M132.78 103.038C132.78 105.195 131.139 106.943 129.114 106.943C127.089 106.943 125.447 105.195 125.447 103.038C125.447 100.881 127.089 99.1328 129.114 99.1328C131.139 99.1328 132.78 100.881 132.78 103.038Z" stroke="#17154B" stroke-width="3" stroke-linecap="round" stroke-linejoin="round"/>
<path d="M283.46 186.103C283.46 188.26 281.818 190.008 279.793 190.008C277.768 190.008 276.127 188.26 276.127 186.103C276.127 183.946 277.768 182.198 279.793 182.198C281.818 182.198 283.46 183.946 283.46 186.103Z" fill="white"/>
<path d="M283.46 186.103C283.46 188.26 281.818 190.008 279.793 190.008C277.768 190.008 276.127 188.26 276.127 186.103C276.127 183.946 277.768 182.198 279.793 182.198C281.818 182.198 283.46 183.946 283.46 186.103Z" stroke="#F78A7E" stroke-width="3" stroke-linecap="round" stroke-linejoin="round"/>
<path d="M264.903 186.103C264.903 188.26 263.262 190.008 261.237 190.008C259.212 190.008 257.571 188.26 257.571 186.103C257.571 183.946 259.212 182.198 261.237 182.198C263.262 182.198 264.903 183.946 264.903 186.103Z" fill="white"/>
<path d="M264.903 186.103C264.903 188.26 263.262 190.008 261.237 190.008C259.212 190.008 257.571 188.26 257.571 186.103C257.571 183.946 259.212 182.198 261.237 182.198C263.262 182.198 264.903 183.946 264.903 186.103Z" stroke="#17154B" stroke-width="3" stroke-linecap="round" stroke-linejoin="round"/>
<path d="M246.346 186.103C246.346 188.26 244.705 190.008 242.68 190.008C240.655 190.008 239.014 188.26 239.014 186.103C239.014 183.946 240.655 182.198 242.68 182.198C244.705 182.198 246.346 183.946 246.346 186.103Z" fill="white"/>
<path d="M246.346 186.103C246.346 188.26 244.705 190.008 242.68 190.008C240.655 190.008 239.014 188.26 239.014 186.103C239.014 183.946 240.655 182.198 242.68 182.198C244.705 182.198 246.346 183.946 246.346 186.103Z" stroke="#17154B" stroke-width="3" stroke-linecap="round" stroke-linejoin="round"/>
<path d="M98.9347 217.277C98.9347 219.434 97.2934 221.182 95.2684 221.182C93.2433 221.182 91.6021 219.434 91.6021 217.277C91.6021 215.12 93.2433 213.372 95.2684 213.372C97.2934 213.372 98.9347 215.12 98.9347 217.277Z" fill="white"/>
<path d="M98.9347 217.277C98.9347 219.434 97.2934 221.182 95.2684 221.182C93.2433 221.182 91.6021 219.434 91.6021 217.277C91.6021 215.12 93.2433 213.372 95.2684 213.372C97.2934 213.372 98.9347 215.12 98.9347 217.277Z" stroke="#17154B" stroke-width="3" stroke-linecap="round" stroke-linejoin="round"/>
<path d="M98.9347 242.199C98.9347 244.356 97.2934 246.104 95.2684 246.104C93.2433 246.104 91.6021 244.356 91.6021 242.199C91.6021 240.042 93.2433 238.294 95.2684 238.294C97.2934 238.294 98.9347 240.042 98.9347 242.199Z" fill="white"/>
<path d="M98.9347 242.199C98.9347 244.356 97.2934 246.104 95.2684 246.104C93.2433 246.104 91.6021 244.356 91.6021 242.199C91.6021 240.042 93.2433 238.294 95.2684 238.294C97.2934 238.294 98.9347 240.042 98.9347 242.199Z" stroke="#17154B" stroke-width="3" stroke-linecap="round" stroke-linejoin="round"/>
<path d="M81.836 229.738C81.836 231.895 80.1948 233.643 78.1697 233.643C76.1447 233.643 74.5034 231.895 74.5034 229.738C74.5034 227.581 76.1447 225.833 78.1697 225.833C80.1948 225.833 81.836 227.581 81.836 229.738Z" fill="white"/>
<path d="M81.836 229.738C81.836 231.895 80.1948 233.643 78.1697 233.643C76.1447 233.643 74.5034 231.895 74.5034 229.738C74.5034 227.581 76.1447 225.833 78.1697 225.833C80.1948 225.833 81.836 227.581 81.836 229.738Z" stroke="#F78A7E" stroke-width="3" stroke-linecap="round" stroke-linejoin="round"/>
</g>
<mask id="mask2_107_6446" style="mask-type:luminance" maskUnits="userSpaceOnUse" x="-3" y="-3" width="357" height="333">
<path d="M-2.43506 -2.94016H353.092V329.06H-2.43506V-2.94016Z" fill="white"/>
</mask>
<g mask="url(#mask2_107_6446)">
<path d="M316.741 248.469H205.733V210.882H316.741V248.469Z" fill="white"/>
<path d="M316.741 248.469H205.733V210.882H316.741V248.469Z" stroke="#17154B" stroke-width="3" stroke-linecap="round" stroke-linejoin="round"/>
<mask id="mask3_107_6446" style="mask-type:luminance" maskUnits="userSpaceOnUse" x="-3" y="-4" width="357" height="333">
<path d="M-2.43506 -3.71823H353.092V328.282H-2.43506V-3.71823Z" fill="white"/>
</mask>
<g mask="url(#mask3_107_6446)">
<path d="M243.972 227.481V233.139" stroke="#CADFEB" stroke-width="3" stroke-linecap="round" stroke-linejoin="round"/>
<path d="M278.874 227.481V233.139" stroke="#CADFEB" stroke-width="3" stroke-linecap="round" stroke-linejoin="round"/>
<path d="M286.662 227.482H235.811V218.049H286.662V227.482Z" fill="white"/>
<path d="M286.662 227.482H235.811V218.049H286.662V227.482Z" stroke="#F78A7E" stroke-width="3" stroke-linecap="round" stroke-linejoin="round"/>
<path d="M306.225 242.572H269.962V233.139H306.225V242.572Z" stroke="#00B2C8" stroke-width="3" stroke-linecap="round" stroke-linejoin="round"/>
<path d="M252.264 242.572H216.001V233.139H252.264V242.572Z" stroke="#00B2C8" stroke-width="3" stroke-linecap="round" stroke-linejoin="round"/>
</g>
</g>
<mask id="mask4_107_6446" style="mask-type:luminance" maskUnits="userSpaceOnUse" x="-3" y="-5" width="357" height="333">
<path d="M-2.43506 -4.49637H353.092V327.504H-2.43506V-4.49637Z" fill="white"/>
</mask>
<g mask="url(#mask4_107_6446)">
<path d="M149.911 188.725H38.3677V151.138H149.911V188.725Z" fill="white"/>
<path d="M149.911 188.725H38.3677V151.138H149.911V188.725Z" stroke="#17154B" stroke-width="3" stroke-linecap="round" stroke-linejoin="round"/>
<mask id="mask5_107_6446" style="mask-type:alpha" maskUnits="userSpaceOnUse" x="38" y="150" width="112" height="40">
<path d="M148.238 188.162H40.041V151.702H148.238V188.162Z" fill="white"/>
<path d="M148.238 188.162H40.041V151.702H148.238V188.162Z" stroke="#17154B" stroke-width="2.91" stroke-linecap="round" stroke-linejoin="round"/>
</mask>
<g mask="url(#mask5_107_6446)">
<mask id="mask6_107_6446" style="mask-type:luminance" maskUnits="userSpaceOnUse" x="-3" y="-5" width="357" height="333">
<path d="M-2.43506 -4.49634H353.092V327.504H-2.43506V-4.49634Z" fill="white"/>
</mask>
<g mask="url(#mask6_107_6446)">
<path d="M98.3491 167.108V172.766" stroke="#CADFEB" stroke-width="3" stroke-linecap="round" stroke-linejoin="round"/>
<path d="M78.1694 177.482H87.7433" stroke="#CADFEB" stroke-width="3" stroke-linecap="round" stroke-linejoin="round"/>
<path d="M108.037 167.109H45.0127V157.676H108.037V167.109Z" stroke="#00B2C8" stroke-width="3" stroke-linecap="round" stroke-linejoin="round"/>
<path d="M143.783 182.198H87.7432V172.765H143.783V182.198Z" stroke="#00B2C8" stroke-width="3" stroke-linecap="round" stroke-linejoin="round"/>
<path d="M78.1696 182.198H57.2412V172.765H78.1696V182.198Z" fill="white"/>
<path d="M78.1696 182.198H57.2412V172.765H78.1696V182.198Z" stroke="#F78A7E" stroke-width="3" stroke-linecap="round" stroke-linejoin="round"/>
</g>
</g>
</g>
<mask id="mask7_107_6446" style="mask-type:luminance" maskUnits="userSpaceOnUse" x="-3" y="-5" width="357" height="333">
<path d="M-2.43506 -4.49637H353.092V327.504H-2.43506V-4.49637Z" fill="white"/>
</mask>
<g mask="url(#mask7_107_6446)">
<path d="M316.636 129.403H205.836V91.8157H316.636V129.403Z" fill="white"/>
<path d="M316.636 129.403H205.836V91.8157H316.636V129.403Z" stroke="#17154B" stroke-width="3" stroke-linecap="round" stroke-linejoin="round"/>
<mask id="mask8_107_6446" style="mask-type:alpha" maskUnits="userSpaceOnUse" x="206" y="90" width="111" height="41">
<path d="M314.975 128.839H207.499V92.3795H314.975V128.839Z" fill="white"/>
<path d="M314.975 128.839H207.499V92.3795H314.975V128.839Z" stroke="#17154B" stroke-width="2.91" stroke-linecap="round" stroke-linejoin="round"/>
</mask>
<g mask="url(#mask8_107_6446)">
<mask id="mask9_107_6446" style="mask-type:luminance" maskUnits="userSpaceOnUse" x="-3" y="-5" width="357" height="333">
<path d="M-2.43506 -4.49646H353.092V327.504H-2.43506V-4.49646Z" fill="white"/>
</mask>
<g mask="url(#mask9_107_6446)">
<path d="M261.237 103.038H274.171V119.206H261.237" stroke="#CADFEB" stroke-width="3" stroke-linecap="round" stroke-linejoin="round"/>
<path d="M286.795 111.122H274.171" stroke="#CADFEB" stroke-width="3" stroke-linecap="round" stroke-linejoin="round"/>
<path d="M261.237 108.276H216.83V98.8431H261.237V108.276Z" stroke="#00B2C8" stroke-width="3" stroke-linecap="round" stroke-linejoin="round"/>
<path d="M261.237 123.366H216.829V113.933H261.237V123.366Z" stroke="#00B2C8" stroke-width="3" stroke-linecap="round" stroke-linejoin="round"/>
<path d="M302.389 118.649H286.794V103.56H302.389V118.649Z" fill="white"/>
<path d="M302.389 118.649H286.794V103.56H302.389V118.649Z" stroke="#F78A7E" stroke-width="3" stroke-linecap="round" stroke-linejoin="round"/>
</g>
</g>
</g>
</g>
</svg>
