<svg width="353" height="352" viewBox="0 0 353 352" fill="none" xmlns="http://www.w3.org/2000/svg">
<g clip-path="url(#clip0_10_6532)">
<mask id="mask0_10_6532" style="mask-type:luminance" maskUnits="userSpaceOnUse" x="0" y="0" width="353" height="352">
<path d="M0 0H352.704V351.705H0V0Z" fill="white"/>
</mask>
<g mask="url(#mask0_10_6532)">
<path d="M53.772 291.734L296.875 49.3194M296.875 291.734L53.772 49.3194M175.324 298.184C245.664 298.184 302.686 241.323 302.686 171.182C302.686 101.041 245.664 44.1803 175.324 44.1803C104.983 44.1803 47.9609 101.041 47.9609 171.182C47.9609 241.323 104.983 298.184 175.324 298.184Z" stroke="#CADFEB" stroke-width="3" stroke-miterlimit="10" stroke-linecap="round" stroke-linejoin="round"/>
<path d="M175.324 70.8916V272.784M276.556 171.838H74.0908" stroke="#17154B" stroke-width="3" stroke-miterlimit="10" stroke-linecap="round" stroke-linejoin="round"/>
<path d="M175.323 211.659C197.742 211.659 215.915 193.536 215.915 171.182C215.915 148.827 197.742 130.705 175.323 130.705C152.905 130.705 134.731 148.827 134.731 171.182C134.731 193.536 152.905 211.659 175.323 211.659Z" fill="white" stroke="#17154B" stroke-width="3" stroke-miterlimit="10" stroke-linecap="round" stroke-linejoin="round"/>
<path d="M175.323 198.549C190.481 198.549 202.768 186.296 202.768 171.182C202.768 156.068 190.481 143.815 175.323 143.815C160.166 143.815 147.879 156.068 147.879 171.182C147.879 186.296 160.166 198.549 175.323 198.549Z" fill="white" stroke="#17154B" stroke-width="3" stroke-miterlimit="10" stroke-linecap="round" stroke-linejoin="round"/>
<path d="M187.091 161.789C182.772 160.648 178.775 158.531 175.409 155.601L175.324 155.529L175.238 155.601C171.873 158.531 167.876 160.648 163.557 161.789L163.327 161.848V173.784C163.327 177.862 165.227 181.709 168.468 184.194L175.324 189.444L182.18 184.194C185.421 181.709 187.321 177.862 187.321 173.784V161.848L187.091 161.789Z" fill="white" stroke="#F78A7E" stroke-width="3" stroke-miterlimit="10" stroke-linecap="round" stroke-linejoin="round"/>
<path d="M240.237 165.938H227.747V178.393H240.237V165.938ZM263.902 165.938H251.412V178.393H263.902V165.938ZM99.563 165.938H87.0732V178.393H99.563V165.938ZM123.228 165.938H110.738V178.393H123.228V165.938ZM181.73 98.423V85.9686H169.241V98.423H181.73ZM181.73 122.021V109.566H169.241V122.021H181.73ZM181.73 237.388V224.933H169.241V237.388H181.73ZM181.73 260.985V248.531H169.241V260.985H181.73Z" fill="white" stroke="#17154B" stroke-width="3" stroke-miterlimit="10" stroke-linecap="round" stroke-linejoin="round"/>
<path d="M175.324 321.29C188.756 321.29 199.646 310.431 199.646 297.037C199.646 283.642 188.756 272.784 175.324 272.784C161.891 272.784 151.001 283.642 151.001 297.037C151.001 310.431 161.891 321.29 175.324 321.29ZM300.714 196.091C314.147 196.091 325.036 185.232 325.036 171.838C325.036 158.443 314.147 147.584 300.714 147.584C287.281 147.584 276.392 158.443 276.392 171.838C276.392 185.232 287.281 196.091 300.714 196.091ZM49.6044 196.091C63.0368 196.091 73.9265 185.232 73.9265 171.838C73.9265 158.443 63.0368 147.584 49.6044 147.584C36.1713 147.584 25.2822 158.443 25.2822 171.838C25.2822 185.232 36.1713 196.091 49.6044 196.091ZM175.324 70.8916C188.756 70.8916 199.646 60.0327 199.646 46.6384C199.646 33.2434 188.756 22.3851 175.324 22.3851C161.891 22.3851 151.001 33.2434 151.001 46.6384C151.001 60.0327 161.891 70.8916 175.324 70.8916Z" fill="white" stroke="#00B2C8" stroke-width="3" stroke-miterlimit="10" stroke-linecap="round" stroke-linejoin="round"/>
<path d="M61.0556 180.916C61.4368 182.562 60.7598 184.279 59.3267 185.183C57.3284 186.442 53.9298 188.009 49.3612 188.009C44.7926 188.009 41.3941 186.442 39.3957 185.183C37.9627 184.279 37.279 182.562 37.6668 180.916C38.9027 175.613 43.6685 171.661 49.3612 171.661C55.0539 171.661 59.8197 175.613 61.0556 180.916ZM49.3546 167.649C52.4587 167.649 54.975 165.005 54.975 161.743C54.975 158.481 52.4587 155.837 49.3546 155.837C46.2506 155.837 43.7342 158.481 43.7342 161.743C43.7342 165.005 46.2506 167.649 49.3546 167.649Z" fill="white" stroke="#00B2C8" stroke-width="3" stroke-miterlimit="10" stroke-linecap="round" stroke-linejoin="round"/>
<path d="M168.25 47.615L174.633 53.9799L185.348 43.2953" stroke="#00B2C8" stroke-width="3" stroke-miterlimit="10" stroke-linecap="round" stroke-linejoin="round"/>
<path d="M301.352 157.613L304.711 167.905H315.564L306.781 174.263L310.134 184.561L301.352 178.196L292.576 184.561L295.929 174.263L287.146 167.905H297.999L301.352 157.613ZM186.334 299.869L188.306 301.009C188.668 301.219 188.793 301.684 188.582 302.051L186.209 306.142C185.999 306.509 185.532 306.633 185.164 306.417L183.179 305.276C182.896 305.113 182.548 305.158 182.298 305.375C181.283 306.26 180.107 306.943 178.834 307.387C178.525 307.492 178.314 307.774 178.314 308.095V310.37C178.314 310.789 177.973 311.13 177.552 311.13H172.812C172.392 311.13 172.05 310.789 172.05 310.37V308.095C172.05 307.767 171.839 307.492 171.531 307.387C170.249 306.941 169.085 306.26 168.066 305.375C167.816 305.158 167.468 305.113 167.185 305.276L165.2 306.417C164.832 306.627 164.365 306.502 164.155 306.142L161.782 302.051C161.572 301.691 161.696 301.225 162.058 301.009L164.03 299.869C164.313 299.705 164.451 299.384 164.385 299.062C164.26 298.413 164.208 297.751 164.208 297.063C164.208 296.375 164.267 295.713 164.385 295.064C164.444 294.743 164.313 294.421 164.03 294.258L162.058 293.117C161.696 292.907 161.572 292.442 161.782 292.075L164.155 287.985C164.205 287.897 164.271 287.821 164.351 287.759C164.431 287.698 164.522 287.653 164.62 287.628C164.717 287.602 164.818 287.596 164.918 287.61C165.018 287.624 165.114 287.658 165.2 287.709L167.185 288.85C167.468 289.014 167.816 288.968 168.066 288.751C169.085 287.867 170.249 287.185 171.531 286.739C171.839 286.634 172.05 286.352 172.05 286.031V283.757C172.05 283.337 172.392 282.996 172.812 282.996H177.552C177.973 282.996 178.314 283.337 178.314 283.757V286.031C178.314 286.359 178.525 286.634 178.834 286.739C180.116 287.185 181.279 287.867 182.298 288.751C182.548 288.968 182.896 289.014 183.179 288.85L185.164 287.709C185.532 287.499 185.999 287.624 186.209 287.985L188.582 292.075C188.793 292.435 188.668 292.901 188.306 293.117L186.334 294.258C186.052 294.421 185.913 294.743 185.979 295.064C186.104 295.713 186.157 296.375 186.157 297.063C186.157 297.751 186.098 298.413 185.979 299.062C185.92 299.384 186.052 299.705 186.334 299.869Z" fill="white" stroke="#00B2C8" stroke-width="3" stroke-miterlimit="10" stroke-linecap="round" stroke-linejoin="round"/>
<path d="M175.185 300.432C176.082 300.432 176.941 300.077 177.575 299.445C178.208 298.814 178.564 297.957 178.564 297.063C178.564 296.17 178.208 295.313 177.575 294.681C176.941 294.049 176.082 293.694 175.185 293.694C174.289 293.694 173.43 294.049 172.796 294.681C172.163 295.313 171.807 296.17 171.807 297.063C171.807 297.957 172.163 298.814 172.796 299.445C173.43 300.077 174.289 300.432 175.185 300.432Z" fill="white" stroke="#00B2C8" stroke-width="3" stroke-miterlimit="10" stroke-linecap="round" stroke-linejoin="round"/>
<path d="M59.4644 36.1505H41.7158V53.8488H59.4644V36.1505ZM59.4644 285.894H41.7158V303.592H59.4644V285.894ZM309.26 36.1505H291.511V53.8488H309.26V36.1505ZM309.26 285.894H291.511V303.592H309.26V285.894Z" fill="white" stroke="#F78A7E" stroke-width="3" stroke-miterlimit="10" stroke-linecap="round" stroke-linejoin="round"/>
<path d="M304.001 291.137H296.771V298.348H304.001V291.137Z" fill="white" stroke="#F78A7E" stroke-width="3" stroke-miterlimit="10" stroke-linecap="round" stroke-linejoin="round"/>
<path d="M155.222 7.89215C156.141 7.89215 157.022 7.5282 157.672 6.88036C158.321 6.23253 158.686 5.35387 158.686 4.4377C158.686 3.52152 158.321 2.64287 157.672 1.99503C157.022 1.3472 156.141 0.983246 155.222 0.983246C154.303 0.983246 153.422 1.3472 152.772 1.99503C152.123 2.64287 151.758 3.52152 151.758 4.4377C151.758 5.35387 152.123 6.23253 152.772 6.88036C153.422 7.5282 154.303 7.89215 155.222 7.89215ZM176.349 7.89215C177.268 7.89215 178.149 7.5282 178.799 6.88036C179.449 6.23253 179.814 5.35387 179.814 4.4377C179.814 3.52152 179.449 2.64287 178.799 1.99503C178.149 1.3472 177.268 0.983246 176.349 0.983246C175.431 0.983246 174.55 1.3472 173.9 1.99503C173.25 2.64287 172.885 3.52152 172.885 4.4377C172.885 5.35387 173.25 6.23253 173.9 6.88036C174.55 7.5282 175.431 7.89215 176.349 7.89215Z" fill="white" stroke="#17154B" stroke-width="3" stroke-miterlimit="10" stroke-linecap="round" stroke-linejoin="round"/>
<path d="M197.477 7.89215C198.396 7.89215 199.277 7.5282 199.927 6.88036C200.576 6.23253 200.941 5.35387 200.941 4.4377C200.941 3.52152 200.576 2.64287 199.927 1.99503C199.277 1.3472 198.396 0.983246 197.477 0.983246C196.558 0.983246 195.677 1.3472 195.027 1.99503C194.378 2.64287 194.013 3.52152 194.013 4.4377C194.013 5.35387 194.378 6.23253 195.027 6.88036C195.677 7.5282 196.558 7.89215 197.477 7.89215Z" stroke="#00B2C8" stroke-width="3" stroke-miterlimit="10" stroke-linecap="round" stroke-linejoin="round"/>
<path d="M155.222 350.715C155.677 350.715 156.127 350.626 156.548 350.452C156.968 350.279 157.35 350.024 157.672 349.703C157.993 349.383 158.249 349.002 158.423 348.583C158.597 348.164 158.686 347.714 158.686 347.261C158.686 346.807 158.597 346.358 158.423 345.939C158.249 345.52 157.993 345.139 157.672 344.818C157.35 344.497 156.968 344.243 156.548 344.069C156.127 343.896 155.677 343.806 155.222 343.806C154.303 343.806 153.422 344.17 152.772 344.818C152.123 345.466 151.758 346.345 151.758 347.261C151.758 348.177 152.123 349.056 152.772 349.703C153.422 350.351 154.303 350.715 155.222 350.715ZM176.349 350.715C176.804 350.715 177.255 350.626 177.675 350.452C178.096 350.279 178.477 350.024 178.799 349.703C179.121 349.383 179.376 349.002 179.55 348.583C179.724 348.164 179.814 347.714 179.814 347.261C179.814 346.807 179.724 346.358 179.55 345.939C179.376 345.52 179.121 345.139 178.799 344.818C178.477 344.497 178.096 344.243 177.675 344.069C177.255 343.896 176.804 343.806 176.349 343.806C175.895 343.806 175.444 343.896 175.024 344.069C174.603 344.243 174.222 344.497 173.9 344.818C173.578 345.139 173.323 345.52 173.149 345.939C172.975 346.358 172.885 346.807 172.885 347.261C172.885 347.714 172.975 348.164 173.149 348.583C173.323 349.002 173.578 349.383 173.9 349.703C174.222 350.024 174.603 350.279 175.024 350.452C175.444 350.626 175.895 350.715 176.349 350.715Z" fill="white" stroke="#17154B" stroke-width="3" stroke-miterlimit="10" stroke-linecap="round" stroke-linejoin="round"/>
<path d="M197.477 350.715C197.932 350.715 198.382 350.626 198.803 350.452C199.223 350.279 199.605 350.024 199.927 349.703C200.248 349.383 200.503 349.002 200.678 348.583C200.852 348.164 200.941 347.714 200.941 347.261C200.941 346.807 200.852 346.358 200.678 345.939C200.503 345.52 200.248 345.139 199.927 344.818C199.605 344.497 199.223 344.243 198.803 344.069C198.382 343.896 197.932 343.806 197.477 343.806C196.558 343.806 195.677 344.17 195.027 344.818C194.378 345.466 194.013 346.345 194.013 347.261C194.013 348.177 194.378 349.056 195.027 349.703C195.677 350.351 196.558 350.715 197.477 350.715Z" stroke="#00B2C8" stroke-width="3" stroke-miterlimit="10" stroke-linecap="round" stroke-linejoin="round"/>
<path d="M348.247 158.236C349.166 158.236 350.047 157.872 350.697 157.224C351.347 156.576 351.712 155.698 351.712 154.782C351.712 153.865 351.347 152.987 350.697 152.339C350.047 151.691 349.166 151.327 348.247 151.327C347.329 151.327 346.448 151.691 345.798 152.339C345.148 152.987 344.783 153.865 344.783 154.782C344.783 155.698 345.148 156.576 345.798 157.224C346.448 157.872 347.329 158.236 348.247 158.236ZM348.247 179.304C349.166 179.304 350.047 178.94 350.697 178.292C351.347 177.644 351.712 176.765 351.712 175.849C351.712 174.933 351.347 174.054 350.697 173.407C350.047 172.759 349.166 172.395 348.247 172.395C347.329 172.395 346.448 172.759 345.798 173.407C345.148 174.054 344.783 174.933 344.783 175.849C344.783 176.765 345.148 177.644 345.798 178.292C346.448 178.94 347.329 179.304 348.247 179.304Z" fill="white" stroke="#17154B" stroke-width="3" stroke-miterlimit="10" stroke-linecap="round" stroke-linejoin="round"/>
<path d="M348.247 200.371C349.166 200.371 350.047 200.007 350.697 199.359C351.347 198.712 351.712 197.833 351.712 196.917C351.712 196.001 351.347 195.122 350.697 194.474C350.047 193.826 349.166 193.462 348.247 193.462C347.329 193.462 346.448 193.826 345.798 194.474C345.148 195.122 344.783 196.001 344.783 196.917C344.783 197.833 345.148 198.712 345.798 199.359C346.448 200.007 347.329 200.371 348.247 200.371Z" stroke="#00B2C8" stroke-width="3" stroke-miterlimit="10" stroke-linecap="round" stroke-linejoin="round"/>
<path d="M4.45059 158.236C5.36937 158.236 6.25052 157.872 6.9002 157.224C7.54987 156.576 7.91486 155.698 7.91486 154.782C7.91486 153.865 7.54987 152.987 6.9002 152.339C6.25052 151.691 5.36937 151.327 4.45059 151.327C3.53181 151.327 2.65066 151.691 2.00099 152.339C1.35131 152.987 0.986328 153.865 0.986328 154.782C0.986328 155.698 1.35131 156.576 2.00099 157.224C2.65066 157.872 3.53181 158.236 4.45059 158.236ZM4.45059 179.304C5.36937 179.304 6.25052 178.94 6.9002 178.292C7.54987 177.644 7.91486 176.765 7.91486 175.849C7.91486 174.933 7.54987 174.054 6.9002 173.407C6.25052 172.759 5.36937 172.395 4.45059 172.395C3.53181 172.395 2.65066 172.759 2.00099 173.407C1.35131 174.054 0.986328 174.933 0.986328 175.849C0.986328 176.765 1.35131 177.644 2.00099 178.292C2.65066 178.94 3.53181 179.304 4.45059 179.304Z" fill="white" stroke="#17154B" stroke-width="3" stroke-miterlimit="10" stroke-linecap="round" stroke-linejoin="round"/>
<path d="M4.45059 200.371C5.36937 200.371 6.25052 200.007 6.9002 199.359C7.54987 198.712 7.91486 197.833 7.91486 196.917C7.91486 196.001 7.54987 195.122 6.9002 194.474C6.25052 193.826 5.36937 193.462 4.45059 193.462C3.53181 193.462 2.65066 193.826 2.00099 194.474C1.35131 195.122 0.986328 196.001 0.986328 196.917C0.986328 197.833 1.35131 198.712 2.00099 199.359C2.65066 200.007 3.53181 200.371 4.45059 200.371Z" stroke="#00B2C8" stroke-width="3" stroke-miterlimit="10" stroke-linecap="round" stroke-linejoin="round"/>
<path d="M107.531 241.635C108.411 241.635 109.255 241.286 109.878 240.665C110.5 240.044 110.85 239.202 110.85 238.324C110.85 237.446 110.5 236.604 109.878 235.984C109.255 235.363 108.411 235.014 107.531 235.014C106.65 235.014 105.806 235.363 105.183 235.984C104.561 236.604 104.211 237.446 104.211 238.324C104.211 239.202 104.561 240.044 105.183 240.665C105.806 241.286 106.65 241.635 107.531 241.635Z" fill="white" stroke="#17154B" stroke-width="3" stroke-miterlimit="10" stroke-linecap="round" stroke-linejoin="round"/>
<path d="M93.7259 92.8375C94.6063 92.8375 95.4507 92.4888 96.0732 91.868C96.6958 91.2472 97.0455 90.4052 97.0455 89.5273C97.0455 88.6494 96.6958 87.8074 96.0732 87.1866C95.4507 86.5658 94.6063 86.217 93.7259 86.217C92.8455 86.217 92.0011 86.5658 91.3786 87.1866C90.756 87.8074 90.4062 88.6494 90.4062 89.5273C90.4062 90.4052 90.756 91.2472 91.3786 91.868C92.0011 92.4888 92.8455 92.8375 93.7259 92.8375Z" fill="white" stroke="#00B2C8" stroke-width="3" stroke-miterlimit="10" stroke-linecap="round" stroke-linejoin="round"/>
<path d="M217.309 132.167C218.189 132.167 219.034 131.818 219.656 131.198C220.279 130.577 220.629 129.735 220.629 128.857C220.629 127.979 220.279 127.137 219.656 126.516C219.034 125.895 218.189 125.547 217.309 125.547C216.428 125.547 215.584 125.895 214.962 126.516C214.339 127.137 213.989 127.979 213.989 128.857C213.989 129.735 214.339 130.577 214.962 131.198C215.584 131.818 216.428 132.167 217.309 132.167Z" fill="white" stroke="#F78A7E" stroke-width="3" stroke-miterlimit="10" stroke-linecap="round" stroke-linejoin="round"/>
<path d="M215.994 214.759C216.875 214.759 217.719 214.411 218.342 213.79C218.964 213.169 219.314 212.327 219.314 211.449C219.314 210.571 218.964 209.729 218.342 209.108C217.719 208.488 216.875 208.139 215.994 208.139C215.114 208.139 214.27 208.488 213.647 209.108C213.025 209.729 212.675 210.571 212.675 211.449C212.675 212.327 213.025 213.169 213.647 213.79C214.27 214.411 215.114 214.759 215.994 214.759Z" fill="white" stroke="#17154B" stroke-width="3" stroke-miterlimit="10" stroke-linecap="round" stroke-linejoin="round"/>
<path d="M50.5902 299.003C51.7234 299.003 52.8102 298.554 53.6115 297.755C54.4128 296.956 54.863 295.873 54.863 294.743C54.863 293.613 54.4128 292.529 53.6115 291.73C52.8102 290.931 51.7234 290.482 50.5902 290.482C49.457 290.482 48.3702 290.931 47.5689 291.73C46.7676 292.529 46.3174 293.613 46.3174 294.743C46.3174 295.873 46.7676 296.956 47.5689 297.755C48.3702 298.554 49.457 299.003 50.5902 299.003Z" fill="white" stroke="#F78A7E" stroke-width="3" stroke-miterlimit="10" stroke-linecap="round" stroke-linejoin="round"/>
<path d="M300.405 40.4571V49.5881M304.987 45.0193H295.823M55.1919 45.0193H46.0283" stroke="#F78A7E" stroke-width="3" stroke-miterlimit="10" stroke-linecap="round" stroke-linejoin="round"/>
</g>
</g>
<defs>
<clipPath id="clip0_10_6532">
<rect width="353" height="352" fill="white"/>
</clipPath>
</defs>
</svg>
