<svg width="406" height="407" viewBox="0 0 406 407" fill="none" xmlns="http://www.w3.org/2000/svg">
<mask id="mask0_101_2608" style="mask-type:luminance" maskUnits="userSpaceOnUse" x="0" y="0" width="406" height="407">
<path d="M406 0.600098H0V406.6H406V0.600098Z" fill="white"/>
</mask>
<g mask="url(#mask0_101_2608)">
<path d="M179.125 130.201C219.696 117.015 263.274 139.215 276.46 179.786C289.645 220.356 267.445 263.934 226.875 277.12C186.304 290.306 142.726 268.106 129.541 227.535C116.355 186.965 138.555 143.387 179.125 130.201Z" stroke="#CADFEB" stroke-width="3" stroke-linecap="round" stroke-linejoin="round"/>
<path d="M155.949 58.8893C235.903 32.9035 321.785 76.654 347.771 156.609C373.757 236.563 330.006 322.445 250.052 348.431C170.097 374.417 84.2151 330.666 58.2293 250.712C32.2435 170.757 75.994 84.8751 155.949 58.8893Z" stroke="#CADFEB" stroke-width="3" stroke-linecap="round" stroke-linejoin="round"/>
<path d="M203 203.66L265.611 259.411" stroke="#CADFEB" stroke-width="3" stroke-linecap="round" stroke-linejoin="round"/>
<path d="M203 203.66L220.99 117.62" stroke="#CADFEB" stroke-width="3" stroke-linecap="round" stroke-linejoin="round"/>
<path d="M203 203.66L129.922 227.411" stroke="#CADFEB" stroke-width="3" stroke-linecap="round" stroke-linejoin="round"/>
<path d="M350.815 156.204L203 203.66" stroke="#CADFEB" stroke-width="3" stroke-linecap="round" stroke-linejoin="round"/>
<path d="M171.994 349.423L203 203.66" stroke="#CADFEB" stroke-width="3" stroke-linecap="round" stroke-linejoin="round"/>
<path d="M88.658 98.7654L203 203.66" stroke="#CADFEB" stroke-width="3" stroke-linecap="round" stroke-linejoin="round"/>
<path d="M342.057 154.676C344.4 153.915 346.916 155.197 347.678 157.54C348.439 159.882 347.157 162.399 344.814 163.16C342.472 163.922 339.955 162.64 339.194 160.297C338.432 157.954 339.714 155.438 342.057 154.676Z" fill="white"/>
<path d="M342.057 154.676C344.4 153.915 346.916 155.197 347.678 157.54C348.439 159.882 347.157 162.399 344.814 163.16C342.472 163.922 339.955 162.64 339.194 160.297C338.432 157.954 339.714 155.438 342.057 154.676Z" stroke="#17154B" stroke-width="3" stroke-linecap="round" stroke-linejoin="round"/>
<path d="M177.074 176.141C179.417 175.379 181.934 176.661 182.695 179.004C183.457 181.347 182.174 183.863 179.832 184.625C177.489 185.386 174.973 184.104 174.211 181.761C173.45 179.419 174.732 176.902 177.074 176.141Z" fill="white"/>
<path d="M177.074 176.141C179.417 175.379 181.934 176.661 182.695 179.004C183.457 181.347 182.174 183.863 179.832 184.625C177.489 185.386 174.973 184.104 174.211 181.761C173.45 179.419 174.732 176.902 177.074 176.141Z" stroke="#17154B" stroke-width="3" stroke-linecap="round" stroke-linejoin="round"/>
<mask id="mask1_101_2608" style="mask-type:luminance" maskUnits="userSpaceOnUse" x="0" y="32" width="406" height="357">
<path d="M0 32.6001H406V388.545H0V32.6001Z" fill="white"/>
</mask>
<g mask="url(#mask1_101_2608)">
<path d="M139.694 247.917C115.252 212.954 123.781 164.796 158.744 140.354C193.707 115.912 241.864 124.441 266.306 159.404C290.748 194.367 282.219 242.524 247.256 266.966C212.293 291.408 164.136 282.88 139.694 247.917Z" stroke="#CADFEB" stroke-width="3" stroke-linecap="round" stroke-linejoin="round"/>
<path d="M49.6272 199.549C47.2777 198.809 45.9725 196.304 46.7124 193.955C47.4522 191.605 49.957 190.3 52.3065 191.04C54.6561 191.78 55.9612 194.284 55.2214 196.634C54.4815 198.983 51.9767 200.289 49.6272 199.549Z" fill="white"/>
<path d="M49.6272 199.549C47.2777 198.809 45.9725 196.304 46.7124 193.955C47.4522 191.605 49.957 190.3 52.3065 191.04C54.6561 191.78 55.9612 194.284 55.2214 196.634C54.4815 198.983 51.9767 200.289 49.6272 199.549Z" stroke="#00B2C8" stroke-width="3" stroke-linecap="round" stroke-linejoin="round"/>
<path d="M344.881 156.701C342.532 155.961 341.226 153.456 341.966 151.106C342.706 148.757 345.211 147.452 347.56 148.192C349.91 148.931 351.215 151.436 350.475 153.786C349.735 156.135 347.231 157.44 344.881 156.701Z" fill="white"/>
<path d="M344.881 156.701C342.532 155.961 341.226 153.456 341.966 151.106C342.706 148.757 345.211 147.452 347.56 148.192C349.91 148.931 351.215 151.436 350.475 153.786C349.735 156.135 347.231 157.44 344.881 156.701Z" stroke="#17154B" stroke-width="3" stroke-linecap="round" stroke-linejoin="round"/>
<path d="M156.299 353.225C153.95 352.485 152.644 349.98 153.384 347.63C154.124 345.281 156.629 343.976 158.978 344.715C161.328 345.455 162.633 347.96 161.893 350.31C161.153 352.659 158.649 353.964 156.299 353.225Z" fill="white"/>
<path d="M156.299 353.225C153.95 352.485 152.644 349.98 153.384 347.63C154.124 345.281 156.629 343.976 158.978 344.715C161.328 345.455 162.633 347.96 161.893 350.31C161.153 352.659 158.649 353.964 156.299 353.225Z" stroke="#F78A7E" stroke-width="3" stroke-linecap="round" stroke-linejoin="round"/>
<path d="M129.467 239.086C128.056 237.068 128.548 234.286 130.567 232.875C132.586 231.464 135.367 231.956 136.778 233.975C138.19 235.994 137.697 238.775 135.678 240.187C133.659 241.598 130.878 241.105 129.467 239.086Z" fill="white"/>
<path d="M129.467 239.086C128.056 237.068 128.548 234.286 130.567 232.875C132.586 231.464 135.367 231.956 136.778 233.975C138.19 235.994 137.697 238.775 135.678 240.187C133.659 241.598 130.878 241.105 129.467 239.086Z" stroke="#17154B" stroke-width="3" stroke-linecap="round" stroke-linejoin="round"/>
<path d="M226.728 278.441C225.316 276.423 225.809 273.641 227.828 272.23C229.847 270.819 232.628 271.311 234.039 273.33C235.45 275.349 234.958 278.13 232.939 279.541C230.92 280.953 228.139 280.46 226.728 278.441Z" fill="white"/>
<path d="M226.728 278.441C225.316 276.423 225.809 273.641 227.828 272.23C229.847 270.819 232.628 271.311 234.039 273.33C235.45 275.349 234.958 278.13 232.939 279.541C230.92 280.953 228.139 280.46 226.728 278.441Z" stroke="#17154B" stroke-width="3" stroke-linecap="round" stroke-linejoin="round"/>
</g>
<path d="M238.751 218.088C258.455 206.711 283.651 213.463 295.027 233.167C306.403 252.871 299.652 278.067 279.948 289.443C260.243 300.819 235.048 294.068 223.672 274.364C212.295 254.659 219.047 229.464 238.751 218.088Z" fill="white"/>
<path d="M274.336 241.78H268.688V236.053C268.688 235.17 267.977 234.459 267.094 234.459H250.906C250.023 234.459 249.312 235.17 249.312 236.053V241.78H243.664C241.57 241.78 239.859 243.483 239.859 245.584V268.944C239.859 271.038 241.563 272.749 243.664 272.749H274.336C276.43 272.749 278.141 271.045 278.141 268.944V245.584C278.141 243.483 276.438 241.78 274.336 241.78ZM252.5 237.647H265.508V241.772H252.5V237.647ZM274.953 268.936C274.953 269.272 274.68 269.553 274.336 269.553H243.664C243.328 269.553 243.047 269.28 243.047 268.936V245.577C243.047 245.241 243.32 244.959 243.664 244.959H274.336C274.672 244.959 274.953 245.233 274.953 245.577V268.936Z" fill="black"/>
<path d="M259 251.131C256.82 251.131 255.047 252.905 255.047 255.084C255.047 256.694 256.016 258.084 257.406 258.702V263.389C257.406 264.272 258.117 264.983 259 264.983C259.883 264.983 260.594 264.272 260.594 263.389V258.702C261.984 258.084 262.953 256.694 262.953 255.084C262.953 252.905 261.18 251.131 259 251.131ZM259 254.319C259.422 254.319 259.766 254.663 259.766 255.084C259.766 255.506 259.422 255.85 259 255.85C258.578 255.85 258.234 255.506 258.234 255.084C258.234 254.663 258.578 254.319 259 254.319Z" fill="#00B2C8"/>
<path d="M238.751 218.088C258.455 206.711 283.651 213.463 295.027 233.167C306.403 252.871 299.652 278.067 279.948 289.443C260.243 300.819 235.048 294.068 223.672 274.364C212.295 254.659 219.047 229.464 238.751 218.088Z" stroke="#17154B" stroke-width="3" stroke-linecap="round" stroke-linejoin="round"/>
<path d="M197.132 163.956C176.869 152.258 169.927 126.349 181.626 106.087C193.324 85.8248 219.233 78.8822 239.495 90.5806C259.757 102.279 266.7 128.188 255.002 148.451C243.303 168.713 217.394 175.655 197.132 163.956Z" fill="white"/>
<path d="M197.132 163.956C176.869 152.258 169.927 126.349 181.626 106.087C193.324 85.8248 219.233 78.8822 239.495 90.5806C259.757 102.279 266.7 128.188 255.002 148.451C243.303 168.713 217.394 175.655 197.132 163.956Z" stroke="#17154B" stroke-width="3" stroke-linecap="round" stroke-linejoin="round"/>
<path d="M243 129.044C242.653 125.013 239.362 121.722 235.322 121.853V114.419C235.322 113.538 234.712 112.769 233.85 112.563C229.659 111.559 223.097 108.991 218.4 105.081C217.791 104.575 216.928 104.491 216.234 104.884C212.906 106.769 203.588 111.813 200.503 112.553C199.641 112.769 199.031 113.538 199.031 114.419V130.478C199.031 141.559 207.169 150.569 217.181 150.569C221.737 150.569 226.087 148.694 229.444 145.291C229.603 145.131 229.725 144.944 229.819 144.747H243.056C244.116 144.747 244.969 143.894 244.969 142.834V130.956C244.856 129.034 243 129.044 243 129.044ZM239.147 129.044H231.984C232.284 127.131 233.775 125.678 235.566 125.678C237.356 125.678 238.847 127.131 239.147 129.044ZM202.856 130.478V115.825C206.962 114.334 214.116 110.444 216.994 108.841C221.531 112.3 227.147 114.663 231.497 115.891V123.128C228.291 125.397 228.075 129.044 228.075 129.044C227.016 129.044 226.162 129.897 226.162 130.956C226.162 130.956 226.172 143.022 226.181 143.116C223.641 145.459 220.462 146.744 217.172 146.744C209.287 146.744 202.856 139.45 202.856 130.478ZM241.144 140.922H229.987V132.878H241.134V140.922H241.144Z" fill="#00B2C8"/>
<path d="M170.849 226.655C170.849 249.671 152.19 268.331 129.173 268.331C106.156 268.331 87.4971 249.671 87.4971 226.655C87.4971 203.638 106.156 184.979 129.173 184.979C152.19 184.979 170.849 203.638 170.849 226.655Z" fill="white"/>
<path d="M170.849 226.655C170.849 249.671 152.19 268.331 129.173 268.331C106.156 268.331 87.4971 249.671 87.4971 226.655C87.4971 203.638 106.156 184.979 129.173 184.979C152.19 184.979 170.849 203.638 170.849 226.655Z" stroke="#17154B" stroke-width="3" stroke-linecap="round" stroke-linejoin="round"/>
<g clip-path="url(#clip0_101_2608)">
<path d="M148.942 225.524C148.43 221.939 145.417 219.141 141.728 218.97V216.825C141.728 216.388 141.543 215.972 141.209 215.683L133.319 208.788C133.045 208.543 132.688 208.417 132.325 208.417H116.33C115.492 208.417 114.816 209.092 114.816 209.931V243.27C114.816 244.108 115.492 244.784 116.33 244.784H140.214C141.053 244.784 141.728 244.108 141.728 243.27V239.388H149.662C150.501 239.388 151.176 238.713 151.176 237.874V227.038C151.139 225.272 148.942 225.524 148.942 225.524ZM145.862 225.524H136.778C137.268 223.498 139.093 221.991 141.268 221.991H141.372C143.546 221.999 145.372 223.505 145.862 225.524ZM138.7 241.756H117.845V211.445H131.746L138.7 217.516V219.408C136.073 220.351 134.098 222.689 133.698 225.524C133.698 225.524 131.538 225.19 131.456 227.038V237.867C131.456 238.705 132.132 239.381 132.97 239.381H138.7V241.756ZM148.155 236.352H134.484V228.559H148.148V236.352H148.155Z" fill="black"/>
</g>
<path d="M373.452 158.926C373.452 173.609 361.549 185.511 346.867 185.511C332.185 185.511 320.283 173.609 320.283 158.926C320.283 144.244 332.185 132.342 346.867 132.342C361.549 132.342 373.452 144.244 373.452 158.926Z" fill="white"/>
<path d="M373.452 158.926C373.452 173.609 361.549 185.511 346.867 185.511C332.185 185.511 320.283 173.609 320.283 158.926C320.283 144.244 332.185 132.342 346.867 132.342C361.549 132.342 373.452 144.244 373.452 158.926Z" stroke="#17154B" stroke-width="3" stroke-linecap="round" stroke-linejoin="round"/>
<path d="M335.234 163.638L342.163 158.282L339.21 150.037L346.445 154.972L353.374 149.615L350.917 158.021L358.152 162.956L349.398 163.217L346.941 171.623L343.988 163.378L335.234 163.638Z" stroke="#00B2C8" stroke-width="1.8" stroke-linecap="round" stroke-linejoin="round"/>
<path d="M161.491 373.986C148.689 366.596 144.303 350.227 151.694 337.425C159.085 324.623 175.454 320.237 188.256 327.628C201.058 335.019 205.444 351.388 198.053 364.19C190.662 376.991 174.293 381.377 161.491 373.986Z" fill="white"/>
<path d="M161.491 373.986C148.689 366.596 144.303 350.227 151.694 337.425C159.085 324.623 175.454 320.237 188.256 327.628C201.058 335.019 205.444 351.388 198.053 364.19C190.662 376.991 174.293 381.377 161.491 373.986Z" stroke="#17154B" stroke-width="3" stroke-linecap="round" stroke-linejoin="round"/>
<path d="M167.777 359.912L165.99 361.225C165.659 361.468 165.194 361.397 164.951 361.067L162.212 357.356C161.969 357.026 162.038 356.56 162.369 356.316L164.164 354.992C164.42 354.803 164.515 354.474 164.419 354.17C164.024 352.918 163.867 351.61 163.965 350.293C163.989 349.978 163.824 349.681 163.533 349.554L161.497 348.667C161.12 348.503 160.948 348.064 161.112 347.688L162.956 343.456C163.12 343.08 163.558 342.907 163.935 343.071L165.971 343.959C166.262 344.085 166.592 344.004 166.807 343.772C167.704 342.803 168.77 342.028 169.955 341.464C170.243 341.328 170.419 341.034 170.383 340.718L170.131 338.501C170.084 338.094 170.378 337.725 170.786 337.679L175.369 337.158C175.776 337.111 176.144 337.404 176.191 337.811L176.446 340.014C176.483 340.331 176.72 340.577 177.031 340.648C177.657 340.79 178.276 340.999 178.889 341.266C179.503 341.533 180.077 341.844 180.608 342.206C180.872 342.386 181.212 342.392 181.47 342.203L183.257 340.89C183.588 340.647 184.052 340.717 184.296 341.047L187.034 344.758C187.278 345.089 187.208 345.555 186.878 345.798L185.083 347.123C184.827 347.312 184.731 347.64 184.827 347.944C185.222 349.196 185.38 350.505 185.281 351.821C185.258 352.137 185.423 352.434 185.713 352.561L187.75 353.448C188.126 353.612 188.298 354.05 188.134 354.427L186.29 358.658C186.126 359.035 185.688 359.207 185.312 359.043L183.275 358.156C182.985 358.029 182.655 358.111 182.44 358.343C181.543 359.311 180.477 360.087 179.291 360.65C179.003 360.787 178.827 361.08 178.864 361.397L179.115 363.613C179.162 364.021 178.869 364.389 178.461 364.436L173.878 364.957C173.471 365.003 173.102 364.711 173.055 364.304L172.8 362.1C172.763 361.783 172.527 361.538 172.216 361.467C171.589 361.324 170.97 361.116 170.357 360.849C169.744 360.581 169.17 360.27 168.638 359.908C168.375 359.729 168.034 359.723 167.777 359.912Z" fill="white"/>
<path d="M167.777 359.912L165.99 361.225C165.659 361.468 165.194 361.397 164.951 361.067L162.212 357.356C161.969 357.026 162.038 356.56 162.369 356.316L164.164 354.992C164.42 354.803 164.515 354.474 164.419 354.17C164.024 352.918 163.867 351.61 163.965 350.293C163.989 349.978 163.824 349.681 163.533 349.554L161.497 348.667C161.12 348.503 160.948 348.064 161.112 347.688L162.956 343.456C163.12 343.08 163.558 342.907 163.935 343.071L165.971 343.959C166.262 344.085 166.592 344.004 166.807 343.772C167.704 342.803 168.77 342.028 169.955 341.464C170.243 341.328 170.419 341.034 170.383 340.718L170.131 338.501C170.084 338.094 170.378 337.725 170.786 337.679L175.369 337.158C175.776 337.111 176.144 337.404 176.191 337.811L176.446 340.014C176.483 340.331 176.72 340.577 177.031 340.648C177.657 340.79 178.276 340.999 178.889 341.266C179.503 341.533 180.077 341.844 180.608 342.206C180.872 342.386 181.212 342.392 181.47 342.203L183.257 340.89C183.588 340.647 184.052 340.717 184.296 341.047L187.034 344.758C187.278 345.089 187.208 345.555 186.878 345.798L185.083 347.123C184.827 347.312 184.731 347.64 184.827 347.944C185.222 349.196 185.38 350.505 185.281 351.821C185.258 352.137 185.423 352.434 185.713 352.561L187.75 353.448C188.126 353.612 188.298 354.05 188.134 354.427L186.29 358.658C186.126 359.035 185.688 359.207 185.312 359.043L183.275 358.156C182.985 358.029 182.655 358.111 182.44 358.343C181.543 359.311 180.477 360.087 179.291 360.65C179.003 360.787 178.827 361.08 178.864 361.397L179.115 363.613C179.162 364.021 178.869 364.389 178.461 364.436L173.878 364.957C173.471 365.003 173.102 364.711 173.055 364.304L172.8 362.1C172.763 361.783 172.527 361.538 172.216 361.467C171.589 361.324 170.97 361.116 170.357 360.849C169.744 360.581 169.17 360.27 168.638 359.908C168.375 359.729 168.034 359.723 167.777 359.912Z" stroke="#F78A7E" stroke-width="1.8" stroke-linecap="round" stroke-linejoin="round"/>
<path d="M177.909 351.057C177.909 352.872 176.438 354.344 174.623 354.344C172.808 354.344 171.337 352.872 171.337 351.057C171.337 349.242 172.808 347.771 174.623 347.771C176.438 347.771 177.909 349.242 177.909 351.057Z" fill="white"/>
<path d="M177.909 351.057C177.909 352.872 176.438 354.344 174.623 354.344C172.808 354.344 171.337 352.872 171.337 351.057C171.337 349.242 172.808 347.771 174.623 347.771C176.438 347.771 177.909 349.242 177.909 351.057Z" stroke="#F78A7E" stroke-width="1.8" stroke-linecap="round" stroke-linejoin="round"/>
<path d="M77.3453 73.9052C90.1826 66.3947 106.598 70.8518 114.01 83.86C121.421 96.8681 117.023 113.501 104.186 121.012C91.3484 128.522 74.9326 124.065 67.5212 111.057C60.1097 98.0488 64.5079 81.4156 77.3453 73.9052Z" fill="white"/>
<path d="M77.3453 73.9052C90.1826 66.3947 106.598 70.8518 114.01 83.86C121.421 96.8681 117.023 113.501 104.186 121.012C91.3484 128.522 74.9326 124.065 67.5212 111.057C60.1097 98.0488 64.5079 81.4156 77.3453 73.9052Z" stroke="#17154B" stroke-width="3" stroke-linecap="round" stroke-linejoin="round"/>
<path d="M78.6084 106.157H101.875" stroke="#00B2C8" stroke-width="1.8" stroke-linecap="round" stroke-linejoin="round" stroke-dasharray="18 18"/>
<path d="M78.6084 101.956L88.7401 92.812L94.6442 98.1961L99.3871 93.4532" stroke="#00B2C8" stroke-width="1.8" stroke-linecap="round" stroke-linejoin="round"/>
<path d="M102.407 90.3848L97.3711 92.2925C99.1444 92.9192 99.9675 93.6471 100.53 95.4417L102.407 90.3848Z" fill="#00B2C8"/>
<path d="M102.407 90.3848L97.3711 92.2925C99.1444 92.9192 99.9675 93.6471 100.53 95.4417L102.407 90.3848Z" stroke="#00B2C8" stroke-width="1.8" stroke-linecap="round" stroke-linejoin="round"/>
</g>
<defs>
<clipPath id="clip0_101_2608">
<rect width="38" height="38" fill="white" transform="translate(114 207.6)"/>
</clipPath>
</defs>
</svg>
