<svg width="120" height="120" viewBox="0 0 120 120" fill="none" xmlns="http://www.w3.org/2000/svg">
<path d="M59.9999 71.5383C63.0601 71.5383 65.9949 70.3227 68.1588 68.1588C70.3227 65.9949 71.5383 63.0601 71.5383 59.9999C71.5383 56.9397 70.3227 54.0048 68.1588 51.841C65.9949 49.6771 63.0601 48.4614 59.9999 48.4614C56.9397 48.4614 54.0048 49.6771 51.841 51.841C49.6771 54.0048 48.4614 56.9397 48.4614 59.9999C48.4614 63.0601 49.6771 65.9949 51.841 68.1588C54.0048 70.3227 56.9397 71.5383 59.9999 71.5383Z" stroke="#17154B" stroke-width="2" stroke-miterlimit="10" stroke-linecap="round" stroke-linejoin="round"/>
<path d="M106.546 15.0232L91.6845 29.4463C85.523 35.4001 76.5922 37.2232 68.4691 34.5232C64.5691 33.2309 60.2768 32.8155 55.7999 33.4847C44.6307 35.1693 35.5614 44.054 33.623 55.177C32.8614 59.5155 33.1614 63.7386 34.2922 67.5693C36.7153 75.8078 34.6845 84.7155 28.4999 90.6924L11.9307 106.777M84.5307 48.254C86.2384 51.8078 87.1845 55.777 87.1845 59.977C87.1845 74.977 75.023 87.1386 60.023 87.1386C54.8768 87.1386 50.0537 85.7078 45.946 83.2155" stroke="#00B2C8" stroke-width="2" stroke-miterlimit="10" stroke-linecap="round" stroke-linejoin="round"/>
<path d="M100.246 42.554C102.554 47.9078 103.846 53.7924 103.846 60.0001C103.846 84.2078 84.2077 103.846 60 103.846C53.723 103.846 47.7692 102.531 42.3692 100.154M19.6615 77.1924C17.4 71.9078 16.1538 66.0924 16.1538 60.0001C16.1538 35.7924 35.7923 16.154 60 16.154C66.0461 16.154 71.8154 17.377 77.0769 19.5924M102.531 31.9386L106.546 15.0232L89.6307 19.0386" stroke="#17154B" stroke-width="2" stroke-miterlimit="10" stroke-linecap="round" stroke-linejoin="round"/>
</svg>
