<svg width="42" height="51" viewBox="0 0 42 51" fill="none" xmlns="http://www.w3.org/2000/svg">
<g clip-path="url(#clip0_171_2341)">
<path d="M11.1992 44.5C13.4084 44.5 15.1992 42.7091 15.1992 40.5C15.1992 38.2909 13.4084 36.5 11.1992 36.5C8.99008 36.5 7.19922 38.2909 7.19922 40.5C7.19922 42.7091 8.99008 44.5 11.1992 44.5Z" stroke="#17154B" stroke-width="1.5" stroke-linecap="round" stroke-linejoin="round"/>
<path d="M19.9992 40.5001C19.9992 45.4001 15.9992 49.4001 11.0992 49.4001C6.19921 49.4001 2.19922 45.4001 2.19922 40.5001C2.19922 35.6001 6.19921 31.6001 11.0992 31.6001C13.9992 31.6001 16.7992 33.1001 18.3992 35.5001C19.4992 37.0001 19.9992 38.7001 19.9992 40.5001Z" stroke="#17154B" stroke-width="1.5" stroke-linecap="round" stroke-linejoin="round"/>
<path d="M28.7988 29.8V32.4C28.7988 32.6 28.6988 32.8 28.5988 33C28.3988 33.3 28.1988 33.3 27.8988 33.3H22.4988C22.2988 33.3 22.0988 33.2 21.8988 33.1C21.6988 32.9 21.5988 32.7 21.5988 32.5V29.8C21.5988 29.4 21.2988 29.1 20.9988 29C19.4988 28.5 18.1988 27.7 16.9988 26.7C16.8988 26.6 16.6988 26.5 16.4988 26.5C16.2988 26.5 16.0988 26.5 15.9988 26.6L13.7988 27.9C13.5988 28 13.3988 28.1 13.0988 28C12.8988 27.9 12.6988 27.8 12.5988 27.6L9.89883 22.9C9.79883 22.8 9.79883 22.7 9.79883 22.6C9.79883 22.5 9.79883 22.4 9.79883 22.2C9.79883 22.1 9.89884 22 9.99884 21.9C10.0988 21.8 10.1988 21.7 10.2988 21.7L12.3988 20.3C12.5988 20.2 12.6989 20.1 12.6989 19.9C12.7989 19.7 12.7988 19.5 12.7988 19.4C12.4988 17.9 12.4988 16.4 12.7988 14.9C12.8988 14.5 12.6988 14.2 12.3988 14L10.1988 12.7C9.79885 12.5 9.69883 11.9 9.89883 11.5L12.5988 6.80002C12.5988 6.70002 12.6988 6.6 12.7988 6.5C12.8988 6.4 12.9988 6.40002 13.0988 6.30002C13.1988 6.30002 13.2988 6.30002 13.3988 6.30002C13.4988 6.30002 13.5989 6.30002 13.6989 6.40002L15.9988 7.70001C16.1988 7.80001 16.2988 7.80002 16.4988 7.80002C16.6988 7.80002 16.8988 7.70001 16.9988 7.60001C18.1988 6.60001 19.4988 5.80002 20.9988 5.30002C21.1988 5.20002 21.2988 5.1 21.3988 5C21.4988 4.9 21.5988 4.7 21.5988 4.5L21.4988 1.90002C21.4988 1.80002 21.4988 1.70001 21.5988 1.60001C21.5988 1.50001 21.6988 1.40002 21.7988 1.30002C21.8988 1.20002 21.9988 1.1 22.0988 1C22.1988 1 22.2988 1 22.3988 1H27.7988C27.9988 1 28.2988 1.10002 28.3988 1.30002C28.5988 1.50002 28.6989 1.70002 28.6989 1.90002V4.60001C28.6989 4.80001 28.7988 4.90001 28.8988 5.10001C28.9988 5.20001 29.1988 5.30002 29.2988 5.40002C30.7988 5.90002 32.0988 6.60001 33.2988 7.60001C33.3988 7.70001 33.5988 7.80002 33.7988 7.80002C33.9988 7.80002 34.1988 7.80001 34.2988 7.70001L36.4988 6.40002C36.5988 6.30002 36.6988 6.30002 36.7988 6.30002C36.8988 6.30002 36.9989 6.30002 37.1989 6.30002C37.2989 6.30002 37.3988 6.4 37.4988 6.5C37.5988 6.6 37.6989 6.70002 37.6989 6.80002L40.3988 11.5C40.4988 11.6 40.4988 11.7 40.4988 11.8C40.4988 11.9 40.4988 12 40.4988 12.2C40.4988 12.3 40.3988 12.4 40.2988 12.5C40.1988 12.6 40.0988 12.7 39.9988 12.7L37.6989 14.1C37.4989 14.2 37.3988 14.3 37.3988 14.5C37.2988 14.7 37.2988 14.9 37.2988 15C37.5988 16.5 37.5988 18 37.2988 19.5C37.1988 19.7 37.1988 19.9 37.2988 20C37.3988 20.2 37.4988 20.3 37.5988 20.4L39.8988 21.7C40.0988 21.8 40.1988 22 40.2988 22.2C40.3988 22.4 40.2989 22.7 40.1989 22.9L37.4988 27.6C37.3988 27.8 37.1988 27.9 36.9988 28C36.7988 28 36.4988 28 36.2988 27.9L33.9988 26.6C33.7988 26.5 33.6988 26.5 33.4988 26.5C33.2988 26.5 33.0988 26.6 32.9988 26.7C31.7988 27.7 30.4988 28.5 28.9988 29C28.7988 29.1 28.6988 29.2 28.5988 29.3C28.7988 29.5 28.7988 29.7 28.7988 29.8Z" stroke="#00B2C8" stroke-width="1.5" stroke-linecap="round" stroke-linejoin="round"/>
<path d="M25.1992 23C28.5129 23 31.1992 20.3137 31.1992 17C31.1992 13.6863 28.5129 11 25.1992 11C21.8855 11 19.1992 13.6863 19.1992 17C19.1992 20.3137 21.8855 23 25.1992 23Z" stroke="#00B2C8" stroke-width="1.5" stroke-linecap="round" stroke-linejoin="round"/>
<path d="M24.1992 41H38.1992V32" stroke="#17154B" stroke-width="1.5" stroke-linecap="round" stroke-linejoin="round"/>
<path d="M7.19922 8.8999H2.19922V31.9999" stroke="#17154B" stroke-width="1.5" stroke-linecap="round" stroke-linejoin="round"/>
</g>
<defs>
<clipPath id="clip0_171_2341">
<rect width="41" height="51" fill="white" transform="translate(0.5)"/>
</clipPath>
</defs>
</svg>
