<svg width="24" height="25" viewBox="0 0 24 25" fill="none" xmlns="http://www.w3.org/2000/svg">
<g clip-path="url(#clip0_701_24)">
<path d="M20.5 4.96338C17.89 5.66338 14.83 5.96338 12 5.96338C9.17 5.96338 6.11 5.66338 3.5 4.96338L3 6.96338C4.86 7.46338 7 7.79338 9 7.96338V19.9634H11V13.9634H13V19.9634H15V7.96338C17 7.79338 19.14 7.46338 21 6.96338L20.5 4.96338ZM12 4.96338C13.1 4.96338 14 4.06338 14 2.96338C14 1.86338 13.1 0.963379 12 0.963379C10.9 0.963379 10 1.86338 10 2.96338C10 4.06338 10.9 4.96338 12 4.96338ZM7 24.9634H9V22.9634H7V24.9634ZM11 24.9634H13V22.9634H11V24.9634ZM15 24.9634H17V22.9634H15V24.9634Z" fill="#00B2C8"
/>
</g>
<defs>
<clipPath id="clip0_701_24">
<rect width="24" height="24" fill="white" transform="translate(0 0.963379)"/>
</clipPath>
</defs>
</svg>
