<svg width="84" height="84" viewBox="0 0 84 84" fill="none" xmlns="http://www.w3.org/2000/svg">
<path d="M21.1098 36.664C23.1734 36.6969 25.2229 36.3189 27.1389 35.552C29.055 34.7851 30.7993 33.6445 32.2702 32.1968C33.7411 30.7491 34.9092 29.0232 35.7065 27.1196C36.5039 25.216 36.9144 23.1728 36.9143 21.109C36.9141 19.0451 36.5033 17.0019 35.7058 15.0984C34.9082 13.1949 33.7399 11.4692 32.2688 10.0217C30.7977 8.57415 29.0532 7.43384 27.1371 6.66716C25.2209 5.90048 23.1714 5.52275 21.1078 5.55597C17.0258 5.62143 13.1332 7.28894 10.2697 10.1988C7.40615 13.1086 5.80127 17.0275 5.80127 21.11C5.80127 25.1925 7.40615 29.1114 10.2697 32.0212C13.1332 34.931 17.0258 36.5985 21.1078 36.664H21.1098Z" stroke="black" stroke-width="1.33333" stroke-miterlimit="10" stroke-linecap="round"/>
<path d="M38.0942 70.79C31.3958 70.7954 24.9043 68.4689 19.7342 64.21C14.5636 59.9528 11.0318 54.0323 9.74219 47.46M41.9062 9.20997C48.6046 9.20458 55.096 11.531 60.2662 15.79C65.4368 20.0471 68.9686 25.9677 70.2582 32.54M58.8902 74.446C60.9538 74.4789 63.0033 74.1009 64.9193 73.334C66.8354 72.5671 68.5796 71.4265 70.0505 69.9788C71.5215 68.5311 72.6896 66.8052 73.4869 64.9016C74.2842 62.998 74.6948 60.9548 74.6946 58.891C74.6945 56.8271 74.2837 54.7839 73.4861 52.8804C72.6886 50.9769 71.5202 49.2512 70.0491 47.8037C68.578 46.3562 66.8336 45.2158 64.9174 44.4492C63.0013 43.6825 60.9518 43.3047 58.8882 43.338C54.8062 43.4037 50.9137 45.0715 48.0503 47.9815C45.187 50.8915 43.5824 54.8104 43.5826 58.893C43.5829 62.9755 45.188 66.8942 48.0517 69.8039C50.9155 72.7135 54.8082 74.3808 58.8902 74.446Z" stroke="black" stroke-width="1.33333" stroke-miterlimit="10"/>
<path d="M6.9839 39.6881L17.1399 49.4141C14.97 49.0906 12.7538 49.3077 10.6879 50.0461C8.62219 50.7821 6.77009 52.0166 5.2959 53.6401L6.9839 39.6881ZM73.0159 40.3201L62.8599 30.5861C65.0298 30.9096 67.246 30.6925 69.3119 29.9541C71.3776 29.2181 73.2297 27.9836 74.7039 26.3601L73.0159 40.3201Z" fill="black"/>
<path d="M40.0001 43.3361C40.8848 43.3361 41.7333 42.9846 42.359 42.359C42.9846 41.7333 43.3361 40.8848 43.3361 40.0001C43.3361 39.1153 42.9846 38.2668 42.359 37.6412C41.7333 37.0155 40.8848 36.6641 40.0001 36.6641C39.1153 36.6641 38.2668 37.0155 37.6412 37.6412C37.0155 38.2668 36.6641 39.1153 36.6641 40.0001C36.6641 40.8848 37.0155 41.7333 37.6412 42.359C38.2668 42.9846 39.1153 43.3361 40.0001 43.3361Z" stroke="black" stroke-width="1.33333" stroke-miterlimit="10"/>
<path d="M29.2041 54.1259C29.6421 54.1261 30.0758 54.0399 30.4804 53.8724C30.8851 53.705 31.2528 53.4594 31.5626 53.1498C31.8724 52.8402 32.1182 52.4727 32.2859 52.0681C32.4536 51.6635 32.54 51.2299 32.5401 50.7919C32.5402 50.354 32.4541 49.9203 32.2866 49.5156C32.1192 49.1109 31.8736 48.7432 31.564 48.4334C31.2544 48.1237 30.8869 47.8779 30.4823 47.7102C30.0777 47.5425 29.6441 47.4561 29.2061 47.4559C28.3216 47.4557 27.4732 47.8068 26.8476 48.432C26.222 49.0573 25.8704 49.9054 25.8701 50.7899C25.8699 51.6744 26.221 52.5228 26.8462 53.1484C27.4715 53.774 28.3196 54.1257 29.2041 54.1259ZM50.7961 32.5399C51.2336 32.5397 51.6666 32.4532 52.0707 32.2856C52.4747 32.118 52.8418 31.8724 53.1509 31.5629C53.46 31.2534 53.7052 30.886 53.8723 30.4818C54.0395 30.0776 54.1254 29.6444 54.1251 29.2069C54.1249 28.7695 54.0384 28.3364 53.8708 27.9324C53.7032 27.5283 53.4576 27.1613 53.1481 26.8521C52.8386 26.543 52.4712 26.2979 52.067 26.1307C51.6628 25.9636 51.2295 25.8777 50.7921 25.8779C50.3548 25.8782 49.9218 25.9646 49.5179 26.1322C49.114 26.2998 48.7471 26.5453 48.438 26.8547C47.8139 27.4795 47.4636 28.3268 47.4641 29.2099C47.4644 29.6472 47.5508 30.0802 47.7184 30.4841C47.886 30.888 48.1315 31.255 48.4409 31.564C48.7503 31.873 49.1175 32.1181 49.5216 32.2852C49.9257 32.4523 50.3588 32.5382 50.7961 32.5379V32.5399Z" stroke="#00B2C8" stroke-width="1.33333" stroke-miterlimit="10" stroke-linecap="round"/>
<path d="M21.7901 10.3279H23.4461V12.6479C23.8821 12.7579 24.3121 12.9079 24.7181 13.0939C25.1021 13.2819 25.4461 13.5319 25.7421 13.8359C26.0401 14.1319 26.2741 14.4759 26.4301 14.8679C26.6181 15.3199 26.7101 15.8039 26.6961 16.2879C26.7181 17.1559 26.4361 18.0079 25.9061 18.6959C25.3281 19.4059 24.5401 19.9139 23.6641 20.1479C24.1881 20.2039 24.7101 20.3439 25.1961 20.5699C25.6321 20.7819 26.0241 21.0779 26.3521 21.4379C26.6721 21.7899 26.9221 22.1879 27.0921 22.6259C27.2661 23.1179 27.3521 23.6399 27.3601 24.1559C27.3601 24.7359 27.2581 25.3039 27.0621 25.8519C26.8716 26.3503 26.597 26.8124 26.2501 27.2179C25.9078 27.6315 25.4947 27.9809 25.0301 28.2499C24.5389 28.5383 24.0039 28.7444 23.4461 28.8599V31.4999H21.7901V29.0699H20.6801V31.4999H19.1181V29.0699H16.9541V12.4399H19.1181V10.3279H20.6781V12.4399H21.7901V10.3279ZM19.5941 14.5479V19.3799H20.9941C21.4141 19.4199 21.8361 19.4199 22.2581 19.3799C22.6101 19.3099 22.9301 19.1699 23.2101 18.9599C23.4831 18.762 23.6861 18.4826 23.7901 18.1619C23.9458 17.7677 24.0173 17.3453 24.0001 16.9219C24.0469 16.6532 24.0469 16.3785 24.0001 16.1099C23.9306 15.8443 23.7845 15.6051 23.5801 15.4219C23.3675 15.1912 23.0934 15.026 22.7901 14.9459C22.3482 14.7173 21.8644 14.5812 21.3681 14.5459L19.5941 14.5479ZM19.5941 21.6019V26.8739H21.1801C21.6481 26.8739 22.1181 26.8359 22.5801 26.7419C22.9638 26.6684 23.331 26.5261 23.6641 26.3219C23.9601 26.1019 24.1961 25.8119 24.3441 25.4759C24.5401 25.0779 24.6321 24.6319 24.6101 24.1879C24.6101 23.8359 24.5621 23.4919 24.4761 23.1559C24.3825 22.8442 24.2103 22.5618 23.9761 22.3359C23.7073 22.0782 23.3809 21.8883 23.0241 21.7819C22.5344 21.6553 22.0299 21.5947 21.5241 21.6019H19.5941ZM59.6561 66.0939H58.3361C56.9858 66.156 55.6452 65.8364 54.4681 65.1719V62.7339C54.9921 63.1639 55.5941 63.4939 56.2421 63.6879C56.9141 63.9379 57.6261 64.0699 58.3361 64.0779V59.2039C57.1029 58.7333 55.99 57.9941 55.0781 57.0399C54.5405 56.344 54.2715 55.4779 54.3201 54.5999C54.3171 54.0879 54.4172 53.5806 54.6144 53.1081C54.8116 52.6357 55.102 52.2077 55.4681 51.8499C56.2421 51.0779 57.2501 50.5859 58.3361 50.4599H59.6561C60.729 50.4144 61.7974 50.6234 62.7741 51.0699V53.3599C61.8135 52.8675 60.7283 52.6712 59.6561 52.7959V57.6719C60.8681 58.1319 61.9601 58.8599 62.8681 59.7899C63.4381 60.4299 63.7501 61.2499 63.7421 62.1019C63.7581 62.5939 63.6641 63.0779 63.4841 63.5319C63.2978 63.9835 63.0215 64.3925 62.6721 64.7339C61.8437 65.5066 60.7836 65.9846 59.6561 66.0939ZM58.3361 57.0859V52.7959C57.8601 52.8979 57.4141 53.1319 57.0701 53.4839C56.7532 53.8383 56.5805 54.2985 56.5861 54.7739C56.5781 55.2339 56.7101 55.6879 56.9761 56.0619C57.3521 56.4999 57.8201 56.8419 58.3361 57.0859ZM59.6561 60.1099V64.2499C60.8761 63.9699 61.4841 63.3359 61.4841 62.3439C61.4841 61.4219 60.8741 60.6879 59.6561 60.1099Z" fill="black"/>
<path d="M60.0938 49.1479H57.6558V68.632H60.0938V49.1479Z" fill="black"/>
</svg>
