<svg width="92" height="86" viewBox="0 0 92 86" fill="none" xmlns="http://www.w3.org/2000/svg">
<path d="M83.2341 7.60718V36.7447C83.2374 37.5958 83.0722 38.4391 82.748 39.2261C82.4239 40.0131 81.9473 40.7281 81.3456 41.33C80.7439 41.932 80.029 42.4089 79.2422 42.7333C78.4554 43.0577 77.6121 43.2232 76.761 43.2203H55.7142L46.4231 59.4043C46.3806 59.4788 46.3192 59.5407 46.245 59.5838C46.1709 59.6269 46.0866 59.6496 46.0009 59.6496C45.9151 59.6496 45.8309 59.6269 45.7567 59.5838C45.6826 59.5407 45.6211 59.4788 45.5787 59.4043L36.2875 43.2203H15.2407C14.3898 43.2232 13.5468 43.0578 12.7601 42.7335C11.9735 42.4093 11.2587 41.9326 10.657 41.3309C10.0554 40.7292 9.57868 40.0145 9.25441 39.2278C8.93014 38.4411 8.7647 37.5981 8.76762 36.7472V7.60718C8.7647 6.7563 8.93014 5.91325 9.25441 5.12658C9.57868 4.33991 10.0554 3.62516 10.657 3.02349C11.2587 2.42183 11.9735 1.94513 12.7601 1.62086C13.5468 1.29659 14.3898 1.13115 15.2407 1.13407H76.7586C77.6094 1.13115 78.4525 1.29659 79.2392 1.62086C80.0258 1.94513 80.7406 2.42183 81.3422 3.02349C81.9439 3.62516 82.4206 4.33991 82.7449 5.12658C83.0691 5.91325 83.237 6.7563 83.2341 7.60718Z" stroke="#303030" stroke-width="2" stroke-miterlimit="10"/>
<path d="M46 28.6541C46.9574 28.6537 47.9054 28.4648 48.7898 28.0982C49.6742 27.7315 50.4777 27.1942 51.1545 26.517C51.8312 25.8398 52.368 25.0359 52.7341 24.1512C53.1002 23.2666 53.2884 22.3185 53.2881 21.3611C53.2878 20.4037 53.0989 19.4557 52.7322 18.5713C52.3655 17.6869 51.8282 16.8834 51.151 16.2066C50.4738 15.5298 49.6699 14.9931 48.7853 14.627C47.9006 14.2609 46.9525 14.0727 45.9951 14.073C44.0615 14.0736 42.2074 14.8424 40.8406 16.2101C39.4739 17.5778 38.7064 19.4324 38.707 21.366C38.7077 23.2996 39.4764 25.1537 40.8441 26.5204C42.2118 27.8872 44.0664 28.6547 46 28.6541Z" stroke="#00B2C8" stroke-width="2" stroke-miterlimit="10"/>
<path d="M45.9994 74.3438C47.084 74.3438 48.1242 73.913 48.8911 73.146C49.6581 72.3791 50.0889 71.3389 50.0889 70.2543C50.0889 69.1696 49.6581 68.1294 48.8911 67.3625C48.1242 66.5956 47.084 66.1647 45.9994 66.1647C45.4504 66.1457 44.9032 66.2374 44.3904 66.4343C43.8777 66.6313 43.4098 66.9295 43.0147 67.3111C42.6196 67.6927 42.3054 68.15 42.0908 68.6556C41.8762 69.1613 41.7656 69.705 41.7656 70.2543C41.7656 70.8036 41.8762 71.3472 42.0908 71.8529C42.3054 72.3585 42.6196 72.8158 43.0147 73.1974C43.4098 73.5791 43.8777 73.8772 44.3904 74.0742C44.9032 74.2712 45.4504 74.3628 45.9994 74.3438Z" stroke="black" stroke-width="2" stroke-miterlimit="10"/>
<path d="M63.222 19.3236C63.5766 19.5337 63.8704 19.8325 64.0745 20.1906C64.2786 20.5487 64.386 20.9538 64.386 21.3659C64.386 21.7781 64.2786 22.1832 64.0745 22.5413C63.8704 22.8994 63.5766 23.1982 63.222 23.4083C59.6626 25.5758 53.2877 28.654 45.9996 28.654C38.7115 28.654 32.3366 25.5758 28.7773 23.4083C28.4226 23.1982 28.1288 22.8994 27.9247 22.5413C27.7206 22.1832 27.6133 21.7781 27.6133 21.3659C27.6133 20.9538 27.7206 20.5487 27.9247 20.1906C28.1288 19.8325 28.4226 19.5337 28.7773 19.3236C32.3366 17.1561 38.7115 14.0803 45.9996 14.0803C53.2877 14.0803 59.6626 17.1561 63.222 19.3236Z" stroke="black" stroke-width="2" stroke-miterlimit="10"/>
<path d="M1 77.0685L3.72474 74.3438C4.79862 73.2679 6.07411 72.4144 7.47822 71.8321C8.88233 71.2497 10.3875 70.95 11.9076 70.95C13.4276 70.95 14.9328 71.2497 16.3369 71.8321C17.741 72.4144 19.0165 73.2679 20.0904 74.3438L22.8151 77.0685C23.8881 78.1465 25.1634 79.0019 26.5679 79.5855C27.9723 80.1692 29.4783 80.4697 30.9992 80.4697C32.5201 80.4697 34.026 80.1692 35.4305 79.5855C36.835 79.0019 38.1103 78.1465 39.1832 77.0685M54.1791 63.4325L55.5513 62.0702C56.6244 60.9943 57.8992 60.1406 59.3027 59.5582C60.7063 58.9758 62.2109 58.676 63.7305 58.676C65.25 58.676 66.7547 58.9758 68.1582 59.5582C69.5617 60.1406 70.8365 60.9943 71.9096 62.0702L74.6417 64.7949C75.7136 65.8729 76.9881 66.7283 78.3918 67.312C79.7954 67.8957 81.3006 68.1963 82.8209 68.1963C84.3411 68.1963 85.8463 67.8957 87.2499 67.312C88.6536 66.7283 89.9281 65.8729 91 64.7949M67.4297 84.8647C68.5147 84.8647 69.5552 84.4337 70.3224 83.6666C71.0895 82.8994 71.5205 81.8589 71.5205 80.7739C71.5205 79.689 71.0895 78.6485 70.3224 77.8813C69.5552 77.1141 68.5147 76.6831 67.4297 76.6831C66.8841 76.6698 66.3413 76.7657 65.8333 76.9653C65.3253 77.1648 64.8623 77.464 64.4717 77.8452C64.081 78.2264 63.7706 78.6819 63.5586 79.1849C63.3467 79.6878 63.2375 80.2281 63.2375 80.7739C63.2375 81.3197 63.3467 81.86 63.5586 82.363C63.7706 82.866 64.081 83.3214 64.4717 83.7026C64.8623 84.0838 65.3253 84.383 65.8333 84.5826C66.3413 84.7822 66.8841 84.8781 67.4297 84.8647ZM24.5703 63.8253C25.1076 63.8254 25.6398 63.7198 26.1363 63.5143C26.6328 63.3088 27.084 63.0075 27.4641 62.6276C27.8442 62.2478 28.1458 61.7967 28.3516 61.3003C28.5573 60.8039 28.6633 60.2719 28.6635 59.7345C28.6637 59.1971 28.558 58.665 28.3525 58.1684C28.147 57.6719 27.8457 57.2207 27.4659 56.8406C27.086 56.4605 26.635 56.159 26.1386 55.9532C25.6422 55.7474 25.1101 55.6414 24.5727 55.6412C23.4874 55.6409 22.4465 56.0717 21.6789 56.8389C20.9112 57.6061 20.4798 58.6468 20.4795 59.732C20.4791 60.8173 20.9099 61.8583 21.6771 62.6259C22.4443 63.3935 23.485 63.825 24.5703 63.8253Z" stroke="#00B2C8" stroke-width="2" stroke-miterlimit="10" stroke-linecap="round"/>
</svg>
