<svg width="92" height="87" viewBox="0 0 92 87" fill="none" xmlns="http://www.w3.org/2000/svg">
<path d="M83.2341 8.10718V37.2447C83.2374 38.0958 83.0722 38.9391 82.748 39.7261C82.4239 40.5131 81.9473 41.2281 81.3456 41.83C80.7439 42.432 80.029 42.9089 79.2422 43.2333C78.4554 43.5577 77.6121 43.7232 76.761 43.7203H55.7142L46.4231 59.9043C46.3806 59.9788 46.3192 60.0407 46.245 60.0838C46.1709 60.1269 46.0866 60.1496 46.0009 60.1496C45.9151 60.1496 45.8309 60.1269 45.7567 60.0838C45.6826 60.0407 45.6211 59.9788 45.5787 59.9043L36.2875 43.7203H15.2407C14.3898 43.7232 13.5468 43.5578 12.7601 43.2335C11.9735 42.9093 11.2587 42.4326 10.657 41.8309C10.0554 41.2292 9.57868 40.5145 9.25441 39.7278C8.93014 38.9411 8.7647 38.0981 8.76762 37.2472V8.10718C8.7647 7.2563 8.93014 6.41325 9.25441 5.62658C9.57868 4.83991 10.0554 4.12516 10.657 3.52349C11.2587 2.92183 11.9735 2.44513 12.7601 2.12086C13.5468 1.79659 14.3898 1.63115 15.2407 1.63407H76.7586C77.6094 1.63115 78.4525 1.79659 79.2392 2.12086C80.0258 2.44513 80.7406 2.92183 81.3422 3.52349C81.9439 4.12516 82.4206 4.83991 82.7449 5.62658C83.0691 6.41325 83.237 7.2563 83.2341 8.10718Z" stroke="#303030" stroke-width="2" stroke-miterlimit="10"/>
<path d="M63.222 19.8236C63.5766 20.0337 63.8704 20.3325 64.0745 20.6906C64.2786 21.0487 64.386 21.4538 64.386 21.8659C64.386 22.2781 64.2786 22.6832 64.0745 23.0413C63.8704 23.3994 63.5766 23.6982 63.222 23.9083C59.6626 26.0758 53.2877 29.154 45.9996 29.154C38.7115 29.154 32.3366 26.0758 28.7773 23.9083C28.4226 23.6982 28.1288 23.3994 27.9247 23.0413C27.7206 22.6832 27.6133 22.2781 27.6133 21.8659C27.6133 21.4538 27.7206 21.0487 27.9247 20.6906C28.1288 20.3325 28.4226 20.0337 28.7773 19.8236C32.3366 17.6561 38.7115 14.5803 45.9996 14.5803C53.2877 14.5803 59.6626 17.6561 63.222 19.8236Z" stroke="black" stroke-width="2" stroke-miterlimit="10"/>
<path d="M46 29.1541C46.9574 29.1537 47.9054 28.9648 48.7898 28.5982C49.6742 28.2315 50.4777 27.6942 51.1545 27.017C51.8312 26.3398 52.368 25.5359 52.7341 24.6512C53.1002 23.7666 53.2884 22.8185 53.2881 21.8611C53.2878 20.9037 53.0989 19.9557 52.7322 19.0713C52.3655 18.1869 51.8282 17.3834 51.151 16.7066C50.4738 16.0298 49.6699 15.4931 48.7853 15.127C47.9006 14.7609 46.9525 14.5727 45.9951 14.573C44.0615 14.5736 42.2074 15.3424 40.8406 16.7101C39.4739 18.0778 38.7064 19.9324 38.707 21.866C38.7077 23.7996 39.4764 25.6537 40.8441 27.0204C42.2118 28.3872 44.0664 29.1547 46 29.1541Z" stroke="black" stroke-width="2" stroke-miterlimit="10"/>
<path d="M45.9994 74.8438C47.084 74.8438 48.1242 74.413 48.8911 73.646C49.6581 72.8791 50.0889 71.8389 50.0889 70.7543C50.0889 69.6696 49.6581 68.6294 48.8911 67.8625C48.1242 67.0956 47.084 66.6647 45.9994 66.6647C45.4504 66.6457 44.9032 66.7374 44.3904 66.9343C43.8777 67.1313 43.4098 67.4295 43.0147 67.8111C42.6196 68.1927 42.3054 68.65 42.0908 69.1556C41.8762 69.6613 41.7656 70.205 41.7656 70.7543C41.7656 71.3036 41.8762 71.8472 42.0908 72.3529C42.3054 72.8585 42.6196 73.3158 43.0147 73.6974C43.4098 74.0791 43.8777 74.3772 44.3904 74.5742C44.9032 74.7712 45.4504 74.8628 45.9994 74.8438Z" stroke="black" stroke-width="2" stroke-miterlimit="10"/>
<path d="M1 77.5685L3.72474 74.8438C4.79862 73.7679 6.07411 72.9144 7.47822 72.3321C8.88233 71.7497 10.3875 71.45 11.9076 71.45C13.4276 71.45 14.9328 71.7497 16.3369 72.3321C17.741 72.9144 19.0165 73.7679 20.0904 74.8438L22.8151 77.5685C23.8881 78.6465 25.1634 79.5019 26.5679 80.0855C27.9723 80.6692 29.4783 80.9697 30.9992 80.9697C32.5201 80.9697 34.026 80.6692 35.4305 80.0855C36.835 79.5019 38.1103 78.6465 39.1832 77.5685M54.1791 63.9325L55.5513 62.5702C56.6244 61.4943 57.8992 60.6406 59.3027 60.0582C60.7063 59.4758 62.2109 59.176 63.7305 59.176C65.25 59.176 66.7547 59.4758 68.1582 60.0582C69.5617 60.6406 70.8365 61.4943 71.9096 62.5702L74.6417 65.2949C75.7136 66.3729 76.9881 67.2283 78.3918 67.812C79.7954 68.3957 81.3006 68.6963 82.8209 68.6963C84.3411 68.6963 85.8463 68.3957 87.2499 67.812C88.6536 67.2283 89.9281 66.3729 91 65.2949M67.4297 85.3647C68.5147 85.3647 69.5552 84.9337 70.3224 84.1666C71.0895 83.3994 71.5205 82.3589 71.5205 81.2739C71.5205 80.189 71.0895 79.1485 70.3224 78.3813C69.5552 77.6141 68.5147 77.1831 67.4297 77.1831C66.8841 77.1698 66.3413 77.2657 65.8333 77.4653C65.3253 77.6648 64.8623 77.964 64.4717 78.3452C64.081 78.7264 63.7706 79.1819 63.5586 79.6849C63.3467 80.1878 63.2375 80.7281 63.2375 81.2739C63.2375 81.8197 63.3467 82.36 63.5586 82.863C63.7706 83.366 64.081 83.8214 64.4717 84.2026C64.8623 84.5838 65.3253 84.883 65.8333 85.0826C66.3413 85.2822 66.8841 85.3781 67.4297 85.3647ZM24.5703 64.3253C25.1076 64.3254 25.6398 64.2198 26.1363 64.0143C26.6328 63.8088 27.084 63.5075 27.4641 63.1276C27.8442 62.7478 28.1458 62.2967 28.3516 61.8003C28.5573 61.3039 28.6633 60.7719 28.6635 60.2345C28.6637 59.6971 28.558 59.165 28.3525 58.6684C28.147 58.1719 27.8457 57.7207 27.4659 57.3406C27.086 56.9605 26.635 56.659 26.1386 56.4532C25.6422 56.2474 25.1101 56.1414 24.5727 56.1412C23.4874 56.1409 22.4465 56.5717 21.6789 57.3389C20.9112 58.1061 20.4798 59.1468 20.4795 60.232C20.4791 61.3173 20.9099 62.3583 21.6771 63.1259C22.4443 63.8935 23.485 64.325 24.5703 64.3253Z" stroke="#303030" stroke-width="2" stroke-miterlimit="10" stroke-linecap="round"/>
</svg>
