<svg width="1440" height="280" viewBox="0 0 1440 280" fill="none" xmlns="http://www.w3.org/2000/svg">
<path opacity="0.0788889" d="M-1057.69 467.408L-266.012 467.408L31.804 21.0924L1594.21 21.0926L1927.95 467.408L2749.56 467.408" stroke="white" stroke-opacity="0.5"/>
<path opacity="0.157778" d="M-938.384 446.316L-201.834 446.316L75.2419 42.185L1528.85 42.1851L1839.34 446.316L2603.74 446.316" stroke="white" stroke-opacity="0.5"/>
<path opacity="0.236667" d="M-819.076 425.223L-137.657 425.223L118.68 63.2768L1463.48 63.2769L1750.74 425.223L2457.92 425.223" stroke="white" stroke-opacity="0.5"/>
<path opacity="0.315556" d="M-699.768 404.13L-73.4802 404.131L162.118 84.3693L1398.12 84.3695L1662.13 404.131L2312.1 404.131" stroke="white" stroke-opacity="0.5"/>
<path opacity="0.394444" d="M-580.46 383.038L-9.30359 383.038L205.555 105.462L1332.75 105.462L1573.52 383.038L2166.27 383.039" stroke="white" stroke-opacity="0.5"/>
<path opacity="0.473333" d="M-461.152 361.946L54.8736 361.946L248.993 126.554L1267.39 126.555L1484.92 361.946L2020.45 361.946" stroke="white" stroke-opacity="0.5"/>
<path opacity="0.552222" d="M-341.844 340.854L119.05 340.854L292.431 147.647L1202.02 147.647L1396.31 340.854L1874.63 340.854" stroke="white" stroke-opacity="0.5"/>
<path opacity="0.631111" d="M-222.536 319.761L183.228 319.761L335.868 168.739L1136.66 168.739L1307.71 319.761L1728.81 319.761" stroke="white" stroke-opacity="0.5"/>
<path opacity="0.71" d="M-103.229 298.669L247.404 298.669L379.306 189.831L1071.29 189.831L1219.1 298.669L1582.99 298.669" stroke="white" stroke-opacity="0.5"/>
</svg>
