<svg width="42" height="42" viewBox="0 0 42 42" fill="none" xmlns="http://www.w3.org/2000/svg">
<path d="M4.57205 8.40381H37.4245C38.87 8.40381 40.0528 9.58645 40.0528 11.0321V33.3717C40.0528 34.8172 38.87 36 37.4245 36H4.57205C3.12654 36 1.94385 34.8172 1.94385 33.3717V11.0321C1.94385 9.58645 3.12654 8.40381 4.57205 8.40381Z" stroke="#303030" stroke-width="1.4" stroke-miterlimit="10"/>
<path d="M4.57205 8.40381H37.4245C38.87 8.40381 40.0528 9.58645 40.0528 11.0321V17.6024C40.0528 21.939 36.5047 25.4871 32.1681 25.4871H9.8285C5.49193 25.4871 1.94385 21.939 1.94385 17.6024V11.0321C1.94385 9.58645 3.12654 8.40381 4.57205 8.40381Z" stroke="#303030" stroke-width="1.4" stroke-miterlimit="10"/>
<path d="M16.3982 3.14758H25.5969C27.0424 3.14758 28.2252 4.33027 28.2252 5.77578V8.40403H13.77V5.77578C13.77 4.33027 14.9527 3.14758 16.3982 3.14758Z" stroke="#303030" stroke-width="1.4" stroke-miterlimit="10"/>
<path d="M23.6222 20.2125C25.3305 18.8983 25.8562 16.5331 24.5421 14.6934C23.2279 12.8535 20.8625 12.4593 19.0228 13.7734C17.3145 15.0876 16.7888 17.453 18.1029 19.2927C19.4171 21.001 21.7825 21.3952 23.6222 20.2125Z" stroke="#303030" stroke-width="1.4" stroke-miterlimit="10" stroke-linecap="round"/>
<path d="M24.2816 29.561L21.2591 30.4808L18.3682 29.561V25.4873H24.2816V29.561Z" stroke="#303030" stroke-width="1.4" stroke-miterlimit="10"/>
</svg>
