<svg width="24" height="25" viewBox="0 0 24 25" fill="none" xmlns="http://www.w3.org/2000/svg">
<path opacity="0.3" fill-rule="evenodd" clip-rule="evenodd" d="M7 6.24994C4.23858 6.24994 2 8.48852 2 11.2499V17.2499C2 20.0114 4.23858 22.2499 7 22.2499H17C19.6776 22.2499 21.8636 20.1452 21.9939 17.4999H17.5C15.7051 17.4999 14.25 16.0449 14.25 14.2499C14.25 12.455 15.7051 10.9999 17.5 10.9999H21.9939C21.8636 8.35466 19.6776 6.24994 17 6.24994H7ZM6 16.9999C5.58579 16.9999 5.25 17.3357 5.25 17.7499C5.25 18.1642 5.58579 18.4999 6 18.4999H12C12.4142 18.4999 12.75 18.1642 12.75 17.7499C12.75 17.3357 12.4142 16.9999 12 16.9999H6Z" fill="#2B3F6C"/>
<path fill-rule="evenodd" clip-rule="evenodd" d="M17.5 12.4999H22V15.9999H17.5C16.5335 15.9999 15.75 15.2164 15.75 14.2499C15.75 13.2834 16.5335 12.4999 17.5 12.4999ZM17.5 13.4999C17.0858 13.4999 16.75 13.8357 16.75 14.2499C16.75 14.6642 17.0858 14.9999 17.5 14.9999H17.7C18.1142 14.9999 18.45 14.6642 18.45 14.2499C18.45 13.8357 18.1142 13.4999 17.7 13.4999H17.5Z" fill="#00B2C8"/>
<path d="M19.4883 5.2429C18.7672 3.25153 16.6611 1.96588 14.4418 2.42278L5.84113 4.19351C4.04475 4.56336 2.58936 5.74758 1.82812 7.31292C3.01559 5.75518 4.89071 4.74988 7.00064 4.74988H17.0006C17.8818 4.74988 18.722 4.92522 19.4883 5.2429Z" fill="#00B2C8"/>
</svg>
