<svg width="159" height="22" viewBox="0 0 159 22" fill="none" xmlns="http://www.w3.org/2000/svg">
<g clip-path="url(#clip0_101_2575)">
<path d="M23.2031 21.8501H38.3609V17.9297H27.784V13.1212H36.5534V9.19747H27.784V4.77054H38.4246V0.850098H23.2031V21.8501Z" fill="#C5C5C5"/>
<path d="M56.6107 14.0684L46.681 0.850098H39.8433L41.9727 3.50758V21.9159H46.5503V8.12527L56.8052 21.8501H61.1916V0.850098H56.6107V14.0684Z" fill="#C5C5C5"/>
<path d="M16.3017 11.0459C18.3138 10.6676 19.9905 8.8324 19.9905 6.2407C19.9771 3.4418 17.9147 0.850098 13.7866 0.850098H0.5L2.5624 3.4418V21.86H14.2493C18.3808 21.86 20.507 19.3308 20.507 16.1668C20.4298 13.5652 18.6089 11.3517 16.3017 11.0459ZM7.14328 4.79685H12.8845C14.4338 4.79685 15.3996 5.68487 15.3996 7.01032C15.3996 8.33577 14.4338 9.22379 12.8845 9.22379H7.14328V4.79685ZM13.0756 17.9527H7.14328V13.1212H13.0756C14.8194 13.1212 15.7852 14.1967 15.7852 15.5254C15.7852 17.0416 14.7524 17.9297 13.0756 17.9297V17.9527Z" fill="#C5C5C5"/>
<path d="M128.205 14.0684H130.592V16.5384C129.357 17.5412 127.809 18.0984 126.206 18.1171C122.4 18.1171 119.693 15.2722 119.693 11.4142C119.693 7.55628 122.4 4.70805 126.206 4.70805C127.184 4.71599 128.145 4.96318 129.001 5.42723C129.857 5.89127 130.581 6.55749 131.109 7.36552L134.72 5.39215C133.174 3.00108 130.462 0.850098 126.142 0.850098C120.079 0.850098 115.049 4.9613 115.049 11.3517C115.049 17.7422 120.015 21.8501 126.142 21.8501C127.797 21.877 129.438 21.5516 130.952 20.8964C132.466 20.2411 133.817 19.2716 134.912 18.0546V10.2763H125.109L128.205 14.0684Z" fill="#C5C5C5"/>
<path d="M107.567 14.0684L97.6342 0.850098H90.7964L92.9258 3.50758V21.9159H97.5067V8.12527L107.762 21.8501H112.145V0.850098H107.567V14.0684Z" fill="#C5C5C5"/>
<path d="M150.066 0.850098H141.233L143.359 3.50758L142.974 4.51729L136.136 21.9159H141.297L142.638 18.3704H151.877L153.218 21.9159H158.376L150.066 0.850098ZM143.815 14.3875L147.169 5.33953L150.522 14.3875H143.815Z" fill="#C5C5C5"/>
<path d="M88.1536 0.850098H83.5728V21.9159H88.1536V0.850098Z" fill="#C5C5C5"/>
<path d="M79.8975 4.4548V0.850098H63.7705V4.77054H73.8981L63.7705 18.2454V21.8501H80.092V17.9297H69.7062L79.8975 4.4548Z" fill="#C5C5C5"/>
</g>
<defs>
<clipPath id="clip0_101_2575">
<rect width="158" height="21" fill="white" transform="translate(0.5 0.850098)"/>
</clipPath>
</defs>
</svg>
