<svg width="60" height="61" viewBox="0 0 60 61" fill="none" xmlns="http://www.w3.org/2000/svg">
<g clip-path="url(#clip0_392_20271)">
<path d="M35.2489 6.6971C38.5074 7.34163 41.5286 8.63965 44.1739 10.4479C46.0046 9.31551 48.4395 9.54378 50.0284 11.1327C51.6263 12.7306 51.8501 15.1879 50.6908 17.0275C52.4723 19.6907 53.7389 22.7253 54.3521 25.9883C56.4469 26.4851 58.0045 28.365 58.0045 30.6119C58.0045 32.8722 56.4245 34.7655 54.3074 35.2445C53.6628 38.5029 52.3648 41.5242 50.5566 44.1694C51.689 46.0001 51.4607 48.435 49.8717 50.0239C48.2738 51.6218 45.8166 51.8456 43.977 50.6864C41.3138 52.4678 38.2791 53.7345 35.0162 54.3477C34.5194 56.4424 32.6395 58 30.3926 58C28.1322 58 26.2389 56.42 25.76 54.3029C22.5015 53.6584 19.4803 52.3604 16.835 50.5521C15.0044 51.6845 12.5695 51.4517 10.9806 49.8673C9.38265 48.2694 9.15885 45.8121 10.3181 43.9725C8.5367 41.3093 7.27002 38.2747 6.65682 35.0117C4.55762 34.5104 3 32.6305 3 30.3881C3 28.1278 4.58 26.2345 6.6971 25.7555C7.34163 22.4971 8.63965 19.4758 10.4479 16.8306C9.31551 14.9999 9.54826 12.565 11.1327 10.9761C12.7306 9.37817 15.1879 9.15438 17.0275 10.3136C19.6907 8.53223 22.7253 7.26554 25.9883 6.65234C26.4851 4.55762 28.3695 3 30.6119 3C32.8767 3 34.77 4.58 35.2489 6.6971ZM48.3141 18.9521C46.6267 19.5743 44.6573 19.2118 43.3056 17.8556C41.9404 16.4904 41.5779 14.4986 42.2269 12.8022C40.0471 11.3565 37.5809 10.3002 34.9356 9.73625C34.1837 11.37 32.5321 12.5068 30.6164 12.5068C28.6828 12.5068 27.0177 11.3521 26.2792 9.69596C23.625 10.2331 21.1498 11.2625 18.9566 12.6859C19.5788 14.3733 19.2162 16.3427 17.86 17.6944C16.4949 19.0596 14.5031 19.4221 12.8067 18.7731C11.361 20.9529 10.3047 23.4191 9.74072 26.0644C11.3744 26.8163 12.5113 28.4679 12.5113 30.3836C12.5113 32.3172 11.3565 33.9823 9.70044 34.7208C10.2375 37.375 11.267 39.8502 12.6948 42.0434C14.3822 41.4212 16.3516 41.7838 17.7034 43.14C19.0685 44.5051 19.4311 46.4969 18.7821 48.1933C20.9618 49.639 23.4281 50.6953 26.0733 51.2593C26.8253 49.6256 28.4769 48.4887 30.3926 48.4887C32.3262 48.4887 33.9912 49.6435 34.7297 51.2996C37.384 50.7625 39.8591 49.733 42.0523 48.3052C41.4302 46.6178 41.7927 44.6484 43.1489 43.2966C44.5141 41.9315 46.5059 41.5689 48.2022 42.2179C49.648 40.0382 50.7043 37.5719 51.2682 34.9267C49.6345 34.1747 48.4976 32.5231 48.4976 30.6074C48.4976 28.6738 49.6524 27.0088 51.3085 26.2703C50.7714 23.6205 49.7419 21.1453 48.3141 18.9521ZM40.9647 25.0752L41.0184 36.7573C41.0229 37.3213 40.6693 37.8047 40.1635 38.0061V38.0106L30.8088 41.7927C30.6388 41.8599 30.4597 41.8957 30.2762 41.8957C30.2583 41.8957 30.2359 41.8912 30.218 41.8957C30.1375 41.9046 30.0569 41.9181 29.9763 41.9181C29.7973 41.9181 29.6138 41.8822 29.4482 41.8106L20.8276 38.1851V38.1807C20.3307 37.9703 19.9816 37.4735 19.9816 36.8961L20.0308 25.3482C20.0264 25.2363 20.0308 25.12 20.0532 25.0081C20.0577 24.8469 20.089 24.6858 20.1517 24.5381C20.2949 24.189 20.5769 23.9294 20.9081 23.7951L29.9092 20.1741C30.2762 20.0264 30.6701 20.0443 31.0058 20.1875L39.9889 23.437C40.526 23.6295 40.8662 24.1129 40.8886 24.6366C40.9378 24.7753 40.9647 24.9275 40.9647 25.0752ZM28.7992 39.5548L28.8663 29.2602L21.6601 26.1449L21.5079 36.4798L28.7992 39.5548ZM39.425 26.1449L31.3773 29.2602L31.4399 39.5458L39.4742 36.5425L39.425 26.1449Z" fill="#3E3E3E"/>
</g>
<defs>
<clipPath id="clip0_392_20271">
<rect width="55" height="55" fill="white" transform="translate(3 3)"/>
</clipPath>
</defs>
</svg>
