<svg width="58" height="59" viewBox="0 0 58 59" fill="none" xmlns="http://www.w3.org/2000/svg">
<path d="M48.6305 48.2622C47.6584 48.4072 46.6826 48.5252 45.7042 48.6159C45.6084 49.4975 45.4996 50.3776 45.3778 51.2559C46.3177 50.5225 47.2093 49.7272 48.047 48.8752C48.2446 48.674 48.4392 48.4696 48.6305 48.2622ZM48.7599 28.1829C49.7271 29.1668 50.3748 30.4767 50.5298 31.9361C52.2858 31.9823 54.0517 31.9798 55.8307 31.9365C55.9001 31.1337 55.9359 30.3212 55.9359 29.4999C55.9359 23.9649 54.3221 18.8122 51.5473 14.5037C48.2894 14.2029 45.0224 14.1574 41.7874 14.4287C41.7515 16.0263 41.1255 17.4776 40.1225 18.566C41.5211 20.7812 42.6826 23.1424 43.5873 25.609C43.6802 25.8622 43.7703 26.1157 43.8575 26.3699C44.038 26.3539 44.2191 26.3459 44.4002 26.3458C46.0996 26.3458 47.64 27.0483 48.7599 28.1829ZM50.4093 34.0265C50.2098 34.9031 49.8268 35.7257 49.2864 36.438C48.8925 36.9582 48.4215 37.4129 47.8902 37.7858C47.3378 38.1734 46.7267 38.4663 46.0811 38.6528C46.1938 41.2289 46.1219 43.8443 45.9067 46.49C47.5025 46.3286 49.0902 46.0931 50.6648 45.7842C53.1376 42.3851 54.8568 38.3834 55.5686 34.0351C53.8382 34.0729 52.1191 34.0719 50.4093 34.0265ZM44.0295 38.8786C42.4745 38.7848 41.0744 38.1039 40.0406 37.0483C38.9731 35.962 38.2945 34.4797 38.2385 32.8389C36.1004 32.4606 33.969 31.9849 31.84 31.3988C30.926 34.3278 29.9565 37.2387 28.9321 40.1297C29.3909 40.4019 29.8134 40.7327 30.1896 41.1141C31.3049 42.2487 31.9956 43.8172 31.9956 45.5491C31.9956 45.685 31.9913 45.8199 31.9828 45.954C35.7667 46.6317 39.7278 46.8989 43.8252 46.6562C44.0513 44.0253 44.1344 41.4294 44.0295 38.8786ZM38.5097 30.7597C38.8067 29.787 39.3322 28.9026 40.0406 28.1829C40.5666 27.6474 41.1835 27.213 41.8615 26.9008C41.796 26.713 41.7291 26.5257 41.6608 26.3389C40.846 24.1185 39.7977 21.9492 38.4799 19.8398C37.599 20.3103 36.6186 20.5556 35.6236 20.5542C35.4023 20.5542 35.1836 20.5424 34.9683 20.5192C34.1846 23.4939 33.3469 26.4536 32.4558 29.3968C34.4691 29.9487 36.4861 30.3991 38.5097 30.7597ZM47.3017 29.6662C46.6029 28.9542 45.6739 28.524 44.6871 28.4556C43.8649 28.4019 43.0711 28.5811 42.3556 29.0002C41.8254 29.3106 41.37 29.7375 41.0227 30.2498C40.3679 31.213 40.1548 32.3913 40.3941 33.5183C40.5616 34.2956 40.9446 35.0077 41.4978 35.5704C41.9991 36.0781 42.6204 36.446 43.3019 36.639C44.3086 36.922 45.3834 36.8056 46.309 36.3133C46.675 36.1176 47.01 35.8672 47.3029 35.5704C47.6868 35.1726 47.9761 34.6785 48.1994 34.1657C48.5344 33.3871 48.594 32.4623 48.3813 31.6426C48.1785 30.8741 47.8261 30.2036 47.3017 29.6662ZM31.507 47.9953L31.4957 48.022C30.5506 50.2537 28.3666 51.821 25.8299 51.821C25.3716 51.821 24.9248 51.7698 24.4951 51.6731C23.8765 53.1625 23.2421 54.6451 22.592 56.1206C24.6455 56.6305 26.7918 56.9003 28.9998 56.9003C34.1498 56.9003 38.9614 55.4297 43.0527 52.8799C43.2707 51.5015 43.46 50.1307 43.6143 48.7678C39.4269 48.9888 35.3778 48.6986 31.507 47.9953ZM22.5843 50.8808C22.1801 50.625 21.8063 50.3225 21.4703 49.9795C20.3549 48.8446 19.6644 47.2776 19.6644 45.5491C19.6644 45.174 19.6969 44.8065 19.759 44.4498C15.2384 42.5276 10.906 40.0139 7.00055 36.9775C6.18652 38.3113 5.39593 39.7135 4.63116 41.1881C5.95758 44.0426 7.75794 46.6431 9.95312 48.8752C12.9021 51.8751 16.5324 54.1821 20.5875 55.5371C21.2703 53.9926 21.9359 52.4404 22.5843 50.8808ZM20.4567 42.4713C20.7325 41.9742 21.0735 41.5177 21.4703 41.1141C22.5857 39.9796 24.1275 39.2771 25.8299 39.2771C26.2303 39.2771 26.6217 39.316 27.0009 39.3903C28.0065 36.5524 28.9586 33.6952 29.8567 30.8203C27.0563 29.9566 24.2594 28.8945 21.4555 27.6044C20.2947 29.2046 18.4628 30.1578 16.4934 30.1578C15.1922 30.1599 13.9241 29.7405 12.8729 28.9604C11.2312 30.8189 9.65349 32.8814 8.1507 35.1639C11.7785 37.9958 15.9149 40.513 20.4567 42.4713ZM28.7314 42.5976C27.9593 41.812 26.922 41.3768 25.8299 41.3768C24.6972 41.3768 23.6712 41.8442 22.9296 42.5986C22.7795 42.7515 22.6412 42.9158 22.5159 43.0902C21.9694 43.8558 21.694 44.7791 21.7323 45.7359C21.7764 46.7774 22.2029 47.7643 22.9274 48.5016C23.0387 48.6146 23.1572 48.7209 23.2802 48.8201C24.0208 49.4086 24.8912 49.7214 25.8299 49.7214C26.3688 49.7222 26.9026 49.6149 27.4007 49.4056C27.8988 49.1963 28.3513 48.8891 28.7325 48.5016C28.9566 48.273 29.1539 48.0189 29.3207 47.7443C29.7897 46.9685 29.9957 46.0737 29.9142 45.1646C29.8245 44.1659 29.3888 43.268 28.7314 42.5976ZM21.984 21.0299C22.429 21.9138 22.6605 22.8928 22.6591 23.8858C22.6591 24.5281 22.5637 25.1484 22.3864 25.7327C25.0858 26.9701 27.7778 27.9896 30.4722 28.8198C31.363 25.8797 32.1999 22.923 32.9826 19.9512C32.3445 19.6428 31.7632 19.2254 31.2638 18.7171V18.7128C30.7687 18.2088 30.3612 17.6231 30.0585 16.9806C27.9961 17.7407 25.9972 18.6685 24.0811 19.755C23.3697 20.1585 22.6704 20.5837 21.984 21.0299ZM11.4286 27.4588C10.7104 26.4107 10.3262 25.1634 10.3277 23.8858C10.3277 23.0625 10.4842 22.276 10.7677 21.5554C8.82427 20.243 6.87153 18.8054 4.9078 17.2337C3.08827 20.9243 2.0641 25.0904 2.0641 29.4999L2.06478 29.6461C3.43537 31.0912 4.9283 32.5012 6.53293 33.8523C8.08964 31.5023 9.72508 29.3763 11.4286 27.4588ZM11.8424 19.7687C11.9359 19.6594 12.0331 19.5535 12.1338 19.451C13.2491 18.3164 14.791 17.6139 16.4934 17.6139C18.1413 17.6139 19.6396 18.2745 20.7498 19.349C23.4914 17.5539 26.4249 16.082 29.4937 14.9617C29.4697 14.736 29.4578 14.5092 29.4579 14.2822C29.456 13.0112 29.8355 11.7699 30.5456 10.7241C27.6533 8.22847 24.207 5.85509 20.1245 3.6223C16.2559 4.99532 12.7897 7.23918 9.95312 10.1248C8.4022 11.7022 7.0457 13.4658 5.91351 15.3765C7.90171 16.9791 9.87677 18.4397 11.8424 19.7687ZM18.7926 20.4283C18.1137 19.9615 17.3128 19.7126 16.4934 19.7135C15.5322 19.7121 14.6012 20.0555 13.8643 20.6833C13.1874 21.2611 12.7043 22.044 12.5025 22.919C12.4287 23.2358 12.3915 23.5602 12.3918 23.8858C12.3918 24.5127 12.5273 25.1073 12.7694 25.6404C13.1271 26.4305 13.7146 27.0739 14.4513 27.506C15.0728 27.8686 15.777 28.0589 16.4934 28.0581C17.0323 28.059 17.566 27.9517 18.0641 27.7424C18.5622 27.5331 19.0147 27.226 19.3959 26.8385C19.9827 26.2416 20.3925 25.4522 20.5319 24.6197C20.573 24.3814 20.595 24.1357 20.595 23.8858C20.595 23.4246 20.5216 22.9806 20.3858 22.5662C20.1039 21.6978 19.5292 20.9322 18.7926 20.4283ZM35.6236 8.01022C35.6927 8.01022 35.7614 8.01137 35.8298 8.01391C36.1682 6.43473 36.4926 4.85249 36.803 3.26737C34.3326 2.50832 31.7134 2.0997 28.9998 2.0997C26.9067 2.0997 24.8692 2.34238 22.9129 2.80217C26.3948 4.83411 29.4008 6.97702 31.9846 9.2188C33.0399 8.4316 34.3149 8.00813 35.6236 8.01022ZM37.8507 8.43325C38.6488 8.7493 39.3736 9.23091 39.9789 9.84741H39.9832C40.6737 10.5491 41.1906 11.4075 41.4914 12.352C44.2992 12.1104 47.1284 12.0989 49.9536 12.2804C49.3556 11.5284 48.7192 10.8088 48.047 10.1248C45.4309 7.46389 42.2787 5.34806 38.7699 3.95809C38.4758 5.45239 38.1693 6.94416 37.8507 8.43325ZM38.525 11.3307C37.0835 9.86366 34.7999 9.72653 33.1999 10.9156C32.8809 11.1507 32.5795 11.4598 32.3473 11.7715C31.8922 12.3851 31.613 13.115 31.5407 13.8802C31.4496 14.8478 31.6871 15.8077 32.22 16.6138C32.5589 17.1237 33.0035 17.5518 33.5225 17.8681V17.8674C33.7868 18.0276 34.068 18.157 34.3607 18.2532C34.8956 18.4318 35.4803 18.4898 36.0394 18.4337C36.3876 18.3985 36.7298 18.3178 37.0576 18.1934C37.6758 17.9591 38.2293 17.5764 38.671 17.0779C38.7941 16.9391 38.9079 16.7921 39.0118 16.638C39.3335 16.1605 39.5531 15.6196 39.6563 15.0504C39.8162 14.1622 39.6957 13.2346 39.2978 12.4252C39.1 12.0204 38.839 11.6508 38.525 11.3307ZM28.9998 0C37.0076 0 44.2584 3.30241 49.5062 8.64032C54.7536 13.9786 58 21.3541 58 29.4999C58 37.6459 54.7536 45.0214 49.5062 50.3597C44.2584 55.6976 37.0076 59 28.9998 59C20.992 59 13.7416 55.6976 8.49383 50.3597C3.24607 45.0214 0 37.6459 0 29.4999C0 24.5909 1.17948 19.9621 3.26488 15.89L3.22863 15.8597L3.37193 15.6827C4.72639 13.0898 6.4526 10.7164 8.49383 8.64032C13.7416 3.30206 20.992 0 28.9998 0ZM2.26007 32.8186C2.49714 34.8209 2.95219 36.7902 3.61684 38.6903C4.17814 37.6664 4.76474 36.6572 5.3761 35.6634C4.30014 34.7583 3.26061 33.8092 2.26007 32.8186Z" fill="#303030"/>
</svg>
