<svg width="25" height="25" viewBox="0 0 25 25" fill="none" xmlns="http://www.w3.org/2000/svg">
<path d="M21.6926 7.23002C20.8426 6.29002 19.4226 5.82002 17.3626 5.82002H17.1226V5.78002C17.1226 4.10002 17.1226 2.02002 13.3626 2.02002H11.8426C8.08258 2.02002 8.08258 4.11002 8.08258 5.78002V5.83002H7.84258C5.77258 5.83002 4.36258 6.30002 3.51258 7.24002C2.52258 8.34002 2.55258 9.82002 2.65258 10.83L2.66258 10.9L2.76258 11.95C2.77258 11.96 2.79258 11.98 2.81258 11.99C3.14258 12.21 3.48258 12.43 3.84258 12.63C3.98258 12.72 4.13258 12.8 4.28258 12.88C5.99258 13.82 7.87258 14.45 9.78258 14.76C9.87258 15.7 10.2826 16.8 12.4726 16.8C14.6626 16.8 15.0926 15.71 15.1626 14.74C17.2026 14.41 19.1726 13.7 20.9526 12.66C21.0126 12.63 21.0526 12.6 21.1026 12.57C21.5626 12.31 21.9926 12.03 22.4126 11.72C22.4326 11.71 22.4526 11.69 22.4626 11.67L22.5026 11.31L22.5526 10.84C22.5626 10.78 22.5626 10.73 22.5726 10.66C22.6526 9.65002 22.6326 8.27002 21.6926 7.23002ZM13.6926 14.08C13.6926 15.14 13.6926 15.3 12.4626 15.3C11.2326 15.3 11.2326 15.11 11.2326 14.09V12.83H13.6926V14.08ZM9.51258 5.82002V5.78002C9.51258 4.08002 9.51258 3.45002 11.8426 3.45002H13.3626C15.6926 3.45002 15.6926 4.09002 15.6926 5.78002V5.83002H9.51258V5.82002Z" fill="#00B2C8"/>
<path opacity="0.83" d="M21.1017 12.55C21.0517 12.58 21.0017 12.61 20.9517 12.64C19.1717 13.68 17.2017 14.38 15.1617 14.72C15.0817 15.68 14.6617 16.78 12.4717 16.78C10.2817 16.78 9.86172 15.69 9.78172 14.74C7.87172 14.44 5.99172 13.81 4.28172 12.86C4.13172 12.78 3.98172 12.7 3.84172 12.61C3.48172 12.41 3.14172 12.19 2.81172 11.97C2.79172 11.96 2.77172 11.94 2.76172 11.93L3.37172 18.44C3.58172 20.43 4.40172 22.48 8.80172 22.48H16.4217C20.8217 22.48 21.6417 20.43 21.8517 18.43L22.4817 11.65C22.4717 11.67 22.4517 11.69 22.4317 11.7C22.0017 12.01 21.5617 12.3 21.1017 12.55Z" fill="#BFC6D3"/>
</svg>
