<svg width="50" height="50" viewBox="0 0 50 50" fill="none" xmlns="http://www.w3.org/2000/svg">
<g clip-path="url(#clip0_732_2709)">
<path d="M29.4104 13.3743C29.0245 13.3444 28.5926 13.3146 28.1252 13.2882C28.1205 13.288 28.1159 13.287 28.1116 13.285C28.1074 13.2831 28.1035 13.2803 28.1003 13.2769C28.0971 13.2735 28.0946 13.2695 28.093 13.2651C28.0913 13.2608 28.0906 13.2561 28.0907 13.2514C28.0907 12.8265 28.1459 8.39785 28.1527 7.83853C28.1525 7.82237 28.146 7.80693 28.1347 7.79539C28.1233 7.78385 28.108 7.7771 28.0919 7.77651H24.7532C24.7452 7.7762 24.7371 7.77752 24.7296 7.78038C24.7221 7.78324 24.7153 7.78759 24.7095 7.79317C24.7037 7.79875 24.6991 7.80544 24.6959 7.81284C24.6928 7.82024 24.6912 7.82819 24.6912 7.83623L24.6291 12.9057C24.6292 12.9139 24.6275 12.922 24.6243 12.9296C24.6211 12.9371 24.6164 12.9439 24.6105 12.9496C24.6046 12.9553 24.5976 12.9597 24.59 12.9626C24.5823 12.9656 24.5742 12.9669 24.566 12.9666C23.607 12.9229 23.4761 13.0298 22.4677 12.9919C22.4517 12.9913 22.4367 12.9844 22.4257 12.9728C22.4147 12.9612 22.4088 12.9458 22.4091 12.9298L22.4734 7.66511C22.4734 7.64886 22.467 7.63325 22.4557 7.62165C22.4443 7.61006 22.4288 7.60339 22.4125 7.60309H19.2071C19.1908 7.60309 19.1752 7.60946 19.1636 7.62085C19.152 7.63223 19.1454 7.64771 19.1451 7.66396L19.0819 12.8598C19.0813 12.8763 19.0742 12.892 19.0622 12.9034C19.0501 12.9148 19.0341 12.921 19.0176 12.9206C15.9706 12.8207 13.6357 12.7541 13.2211 12.7438C13.2051 12.7435 13.1897 12.7494 13.1781 12.7604C13.1665 12.7713 13.1597 12.7864 13.1591 12.8024L12.9856 16.0503C12.9852 16.0583 12.9863 16.0663 12.9889 16.0739C12.9916 16.0814 12.9957 16.0884 13.001 16.0944C13.0063 16.1004 13.0128 16.1052 13.02 16.1087C13.0272 16.1122 13.0351 16.1142 13.0431 16.1146L16.7596 16.3087C16.7756 16.3093 16.7906 16.3162 16.8016 16.3278C16.8125 16.3394 16.8185 16.3548 16.8182 16.3707L16.6436 26.133L16.5736 30.0907L16.5253 32.8092C16.525 32.8255 16.5184 32.841 16.5068 32.8524C16.4952 32.8637 16.4796 32.8701 16.4633 32.8701H12.7353C12.7195 32.8701 12.7044 32.8762 12.693 32.8871C12.6817 32.898 12.675 32.9129 12.6744 32.9287L12.4826 36.4075C12.482 36.4157 12.483 36.4239 12.4856 36.4317C12.4883 36.4394 12.4925 36.4466 12.4979 36.4527C12.5034 36.4588 12.5101 36.4638 12.5175 36.4673C12.5249 36.4707 12.533 36.4727 12.5412 36.473L18.6971 36.7084H18.9268C18.9433 36.7084 18.9591 36.7149 18.9707 36.7266C18.9823 36.7382 18.9889 36.754 18.9889 36.7704L18.928 41.9571C18.928 41.9733 18.9344 41.9889 18.9457 42.0005C18.9571 42.0121 18.9726 42.0188 18.9889 42.0191L22.2506 42.0363C22.2587 42.0365 22.2667 42.035 22.2742 42.032C22.2818 42.029 22.2886 42.0246 22.2944 42.0189C22.3002 42.0132 22.3047 42.0065 22.3079 41.999C22.311 41.9915 22.3126 41.9835 22.3126 41.9754L22.3758 36.7268C22.3758 36.7188 22.3774 36.711 22.3804 36.7037C22.3835 36.6963 22.388 36.6897 22.3937 36.6841C22.3994 36.6786 22.4061 36.6742 22.4135 36.6713C22.4208 36.6683 22.4287 36.6669 22.4367 36.6671L24.2375 36.6315C24.2457 36.6313 24.2538 36.6328 24.2614 36.6359C24.269 36.6389 24.2759 36.6435 24.2817 36.6493C24.2875 36.6551 24.2921 36.662 24.2951 36.6696C24.2982 36.6772 24.2997 36.6853 24.2995 36.6935L24.2616 42.0352C24.2615 42.0432 24.2629 42.0513 24.2659 42.0588C24.2689 42.0663 24.2734 42.0732 24.279 42.0789C24.2847 42.0847 24.2915 42.0893 24.2989 42.0924C24.3064 42.0956 24.3144 42.0972 24.3225 42.0972H27.6394C27.6475 42.0975 27.6556 42.0961 27.6632 42.0932C27.6708 42.0903 27.6777 42.0858 27.6835 42.0801C27.6893 42.0744 27.6939 42.0676 27.697 42.0601C27.7 42.0525 27.7016 42.0444 27.7014 42.0363L27.807 36.6854C27.8076 36.6695 27.8142 36.6543 27.8255 36.643C27.8368 36.6317 27.852 36.6251 27.8679 36.6246C28.8017 36.6062 32.4344 36.9347 34.829 35.2062C39.5057 31.833 37.2523 25.027 34.1686 23.797C34.1642 23.7949 34.1605 23.7917 34.1579 23.7876C34.1552 23.7836 34.1539 23.7788 34.1539 23.774C34.1539 23.7691 34.1552 23.7644 34.1579 23.7603C34.1605 23.7563 34.1642 23.753 34.1686 23.751C36.9066 22.6025 36.886 20.6087 36.9342 19.8461C37.0146 14.2276 33.2303 13.8739 29.4138 13.3709L29.4104 13.3743ZM27.9736 26.2892C30.5072 26.6487 31.844 30.41 29.9134 32.2178C28.7948 33.2893 26.5908 33.1067 24.9886 33.2296C23.762 33.3054 22.7513 33.2882 22.4998 33.2824C22.4839 33.2818 22.4688 33.275 22.4579 33.2634C22.4469 33.2518 22.4409 33.2364 22.4413 33.2204L22.5125 26.1227C22.5125 26.1065 22.5189 26.091 22.5303 26.0796C22.5417 26.0682 22.5572 26.0618 22.5733 26.0618C23.4542 26.0503 24.3041 26.0779 25.0759 26.1238C25.0759 26.1238 26.8618 26.1319 27.9736 26.2892ZM29.0348 22.2109C27.8633 22.7461 26.7298 22.6473 25.1299 22.7472C23.8068 22.823 22.7858 22.792 22.5354 22.7828C22.5276 22.7825 22.5199 22.7807 22.5127 22.7774C22.5056 22.7741 22.4992 22.7695 22.4939 22.7637C22.4885 22.758 22.4844 22.7512 22.4817 22.7438C22.4789 22.7365 22.4777 22.7287 22.478 22.7208L22.5102 16.4913C22.5105 16.4751 22.5171 16.4596 22.5287 16.4482C22.5403 16.4368 22.5559 16.4305 22.5722 16.4305H25.1908C26.1612 16.4075 27.6842 16.4305 28.549 16.86C31.3548 18.2612 30.4566 21.5608 29.0348 22.2109Z" fill="#CECECE"/>
<path d="M44.7352 11.5999C47.4247 15.5503 48.8594 20.2204 48.8514 24.9995C48.8514 38.1716 38.1704 48.8504 25.0005 48.8504C11.8306 48.8504 1.14844 38.1728 1.14844 25.0006C1.14844 11.8284 11.8295 1.14853 25.0005 1.14853C29.5379 1.14144 33.9823 2.43479 37.8074 4.87541" stroke="#CECECE" stroke-width="2" stroke-miterlimit="10" stroke-linecap="round"/>
<path d="M41.0469 7.32745L41.373 7.6008" stroke="#CECECE" stroke-width="2" stroke-linecap="round" stroke-linejoin="round"/>
</g>
<defs>
<clipPath id="clip0_732_2709">
<rect width="50" height="50" fill="white"/>
</clipPath>
</defs>
</svg>
