<svg width="20" height="20" viewBox="0 0 20 20" fill="none" xmlns="http://www.w3.org/2000/svg">
<g clip-path="url(#clip0_337_2639)">
<path d="M11.7634 5.34972C11.609 5.33777 11.4363 5.32583 11.2493 5.31526C11.2474 5.3152 11.2456 5.31477 11.2439 5.314C11.2422 5.31323 11.2406 5.31213 11.2394 5.31077C11.2381 5.3094 11.2371 5.3078 11.2364 5.30605C11.2358 5.3043 11.2354 5.30243 11.2355 5.30056C11.2355 5.13058 11.2576 3.35913 11.2603 3.13541C11.2602 3.12894 11.2576 3.12277 11.2531 3.11815C11.2486 3.11354 11.2424 3.11083 11.236 3.1106H9.90049C9.89728 3.11048 9.89407 3.111 9.89107 3.11215C9.88806 3.11329 9.88532 3.11503 9.883 3.11726C9.88069 3.11949 9.87884 3.12217 9.87759 3.12513C9.87633 3.12809 9.87568 3.13127 9.87568 3.13449L9.85088 5.16228C9.85088 5.16556 9.85022 5.1688 9.84894 5.17182C9.84766 5.17483 9.84578 5.17756 9.84342 5.17983C9.84106 5.1821 9.83827 5.18388 9.83521 5.18505C9.83215 5.18621 9.82888 5.18675 9.82561 5.18663C9.44201 5.16917 9.38964 5.2119 8.98629 5.19674C8.97991 5.1965 8.97388 5.19376 8.9695 5.18912C8.96512 5.18448 8.96273 5.17831 8.96286 5.17193L8.98858 3.06604C8.98858 3.05954 8.98603 3.0533 8.98148 3.04866C8.97693 3.04402 8.97073 3.04135 8.96423 3.04123H7.68205C7.67555 3.04123 7.66931 3.04378 7.66467 3.04833C7.66003 3.05289 7.65736 3.05908 7.65724 3.06558L7.63197 5.14391C7.63173 5.15053 7.6289 5.15679 7.62409 5.16134C7.61928 5.1659 7.61287 5.16838 7.60625 5.16825C6.38746 5.12829 5.4535 5.10164 5.28765 5.09751C5.28127 5.09738 5.2751 5.09977 5.27046 5.10415C5.26582 5.10853 5.26308 5.11456 5.26284 5.12094L5.19348 6.42012C5.19329 6.42332 5.19374 6.42652 5.19479 6.42955C5.19585 6.43257 5.19749 6.43536 5.19962 6.43775C5.20175 6.44014 5.20434 6.44209 5.20723 6.44348C5.21011 6.44486 5.21325 6.44567 5.21645 6.44585L6.70307 6.52348C6.70944 6.52372 6.71547 6.52646 6.71985 6.5311C6.72423 6.53574 6.72662 6.54191 6.72649 6.54829L6.65667 10.4532L6.62864 12.0363L6.60935 13.1237C6.60923 13.1302 6.60656 13.1364 6.60192 13.1409C6.59728 13.1455 6.59104 13.148 6.58454 13.148H5.09333C5.08702 13.148 5.08097 13.1505 5.07643 13.1548C5.07189 13.1592 5.06922 13.1652 5.06898 13.1715L4.99226 14.563C4.99201 14.5663 4.99242 14.5696 4.99348 14.5727C4.99453 14.5758 4.9962 14.5786 4.99839 14.5811C5.00058 14.5835 5.00324 14.5855 5.00621 14.5869C5.00918 14.5883 5.01241 14.5891 5.01569 14.5892L7.47807 14.6834H7.56995C7.57653 14.6834 7.58284 14.686 7.5875 14.6906C7.59215 14.6953 7.59476 14.7016 7.59476 14.7082L7.57041 16.7828C7.57041 16.7893 7.57296 16.7956 7.57752 16.8002C7.58207 16.8048 7.58826 16.8075 7.59476 16.8076L8.89946 16.8145C8.90269 16.8146 8.90591 16.814 8.90892 16.8128C8.91193 16.8116 8.91466 16.8098 8.91697 16.8075C8.91928 16.8053 8.92112 16.8026 8.92237 16.7996C8.92362 16.7966 8.92427 16.7934 8.92427 16.7902L8.94953 14.6907C8.94953 14.6875 8.95017 14.6844 8.95139 14.6815C8.95262 14.6785 8.95443 14.6759 8.95669 14.6736C8.95896 14.6714 8.96165 14.6697 8.9646 14.6685C8.96755 14.6673 8.97071 14.6668 8.97388 14.6668L9.69422 14.6526C9.6975 14.6525 9.70075 14.6531 9.70379 14.6543C9.70683 14.6556 9.70959 14.6574 9.7119 14.6597C9.71422 14.662 9.71604 14.6648 9.71727 14.6678C9.71849 14.6709 9.71909 14.6741 9.71903 14.6774L9.70387 16.8141C9.70381 16.8173 9.70439 16.8205 9.70559 16.8235C9.70679 16.8265 9.70857 16.8293 9.71084 16.8316C9.7131 16.8339 9.71581 16.8357 9.71879 16.837C9.72178 16.8382 9.72498 16.8389 9.72822 16.8389H11.055C11.0582 16.839 11.0615 16.8384 11.0645 16.8373C11.0675 16.8361 11.0703 16.8343 11.0726 16.832C11.0749 16.8298 11.0768 16.827 11.078 16.824C11.0792 16.821 11.0798 16.8178 11.0798 16.8145L11.122 14.6742C11.1223 14.6678 11.1249 14.6617 11.1294 14.6572C11.1339 14.6527 11.14 14.65 11.1464 14.6498C11.5199 14.6425 12.973 14.7739 13.9308 14.0825C15.8015 12.7332 14.9001 10.0108 13.6667 9.51878C13.6649 9.51797 13.6634 9.51667 13.6624 9.51505C13.6613 9.51342 13.6608 9.51152 13.6608 9.50959C13.6608 9.50765 13.6613 9.50576 13.6624 9.50413C13.6634 9.5025 13.6649 9.50121 13.6667 9.5004C14.7619 9.041 14.7536 8.24348 14.7729 7.93844C14.8051 5.69105 13.2913 5.54956 11.7647 5.34834L11.7634 5.34972ZM11.1887 10.5157C12.2021 10.6595 12.7368 12.164 11.9646 12.8871C11.5171 13.3157 10.6355 13.2427 9.99467 13.2918C9.50403 13.3222 9.09976 13.3153 8.99915 13.313C8.99277 13.3127 8.98674 13.31 8.98236 13.3054C8.97798 13.3007 8.97559 13.2945 8.97572 13.2882L9.0042 10.4491C9.0042 10.4426 9.00677 10.4364 9.01133 10.4318C9.0159 10.4273 9.02209 10.4247 9.02855 10.4247C9.38091 10.4201 9.72087 10.4311 10.0296 10.4495C10.0296 10.4495 10.744 10.4527 11.1887 10.5157ZM11.6131 8.88434C11.1445 9.09842 10.6911 9.05892 10.0512 9.09888C9.52195 9.1292 9.11354 9.1168 9.01339 9.11312C9.01025 9.11301 9.00717 9.11227 9.00432 9.11096C9.00146 9.10965 8.9989 9.10779 8.99676 9.10548C8.99463 9.10318 8.99297 9.10048 8.99188 9.09753C8.99079 9.09459 8.9903 9.09146 8.99042 9.08832L9.00328 6.59653C9.0034 6.59003 9.00607 6.58384 9.01071 6.57928C9.01535 6.57473 9.02159 6.57218 9.02809 6.57218H10.0755C10.4637 6.56299 11.0729 6.57218 11.4188 6.744C12.5411 7.30447 12.1819 8.62432 11.6131 8.88434Z" fill="#00B2C8"/>
<path d="M17.8937 4.63995C18.9695 6.2201 19.5434 8.08817 19.5402 9.99978C19.5402 15.2686 15.2678 19.5401 9.99981 19.5401C4.73187 19.5401 0.458984 15.2691 0.458984 10.0002C0.458984 4.73137 4.73141 0.459408 9.99981 0.459408C11.8148 0.456573 13.5925 0.973911 15.1226 1.95016" stroke="#CECECE" stroke-miterlimit="10" stroke-linecap="round"/>
<path d="M16.418 2.93097L16.5484 3.04031" stroke="#CECECE" stroke-linecap="round" stroke-linejoin="round"/>
</g>
<defs>
<clipPath id="clip0_337_2639">
<rect width="20" height="20" fill="white"/>
</clipPath>
</defs>
</svg>
