<svg width="43" height="42" viewBox="0 0 43 42" fill="none" xmlns="http://www.w3.org/2000/svg">
<path d="M28.6028 22.6153H23.7567M28.6028 22.6153V33.1153M28.6028 22.6153H26.1798M23.7567 22.6153V33.1153M23.7567 22.6153H26.1798M23.7567 33.1153H28.6028M23.7567 33.1153H26.1798M28.6028 33.1153H26.1798M26.1798 22.6153V3.23071M35.8721 22.6153V32.1623M16.4875 20.9999V38.7692M16.4875 3.23071V10.4999M26.1798 33.1153V38.7692M6.79515 25.8461V33.1153M6.79515 20.1923V11.3076M38.2951 14.5384H33.449V22.6153H38.2951V14.5384ZM18.9105 10.4999H14.0644V20.9999H18.9105V10.4999ZM9.21822 20.1923H4.37207V25.8461H9.21822V20.1923Z" stroke="#17154B" stroke-width="1.5" stroke-miterlimit="10" stroke-linecap="round" stroke-linejoin="round"/>
</svg>
