<svg width="60" height="60" viewBox="0 0 60 60" fill="none" xmlns="http://www.w3.org/2000/svg">
<path d="M4.99219 21.25H28.7422" stroke="#292D32" stroke-width="3" stroke-miterlimit="10" stroke-linecap="round" stroke-linejoin="round"/>
<path d="M14.9922 41.25H19.9922" stroke="#00B2C8" stroke-width="3" stroke-miterlimit="10" stroke-linecap="round" stroke-linejoin="round"/>
<path d="M26.2422 41.25H36.2422" stroke="#00B2C8" stroke-width="3" stroke-miterlimit="10" stroke-linecap="round" stroke-linejoin="round"/>
<path d="M54.9922 30.075V40.275C54.9922 49.05 52.7672 51.25 43.8922 51.25H16.0922C7.21719 51.25 4.99219 49.05 4.99219 40.275V19.725C4.99219 10.95 7.21719 8.75 16.0922 8.75H36.2422" stroke="#292D32" stroke-width="3" stroke-linecap="round" stroke-linejoin="round"/>
<path d="M47.6889 10.325L38.4139 19.6C38.0639 19.95 37.7139 20.65 37.6389 21.15L37.1389 24.7C36.9639 25.975 37.8639 26.875 39.1389 26.7L42.6889 26.2C43.1889 26.125 43.889 25.775 44.239 25.425L53.5139 16.15C55.1139 14.55 55.8639 12.7 53.5139 10.35C51.1389 7.97503 49.2889 8.72503 47.6889 10.325Z" stroke="#00B2C8" stroke-width="3" stroke-miterlimit="10" stroke-linecap="round" stroke-linejoin="round"/>
<path d="M46.3672 11.65C47.1672 14.475 49.3672 16.675 52.1672 17.45" stroke="#00B2C8" stroke-width="3" stroke-miterlimit="10" stroke-linecap="round" stroke-linejoin="round"/>
</svg>
