<svg width="42" height="43" viewBox="0 0 42 43" fill="none" xmlns="http://www.w3.org/2000/svg">
<path d="M38.5 22.9893V15.9893C38.5 7.23926 35 3.73926 26.25 3.73926H15.75C7 3.73926 3.5 7.23926 3.5 15.9893V26.4893C3.5 35.2393 7 38.7393 15.75 38.7393H22.75" stroke="#292D32" stroke-width="1.5" stroke-linecap="round" stroke-linejoin="round"/>
<path d="M38.5 22.9893V15.9893C38.5 7.23926 35 3.73926 26.25 3.73926H15.75C7 3.73926 3.5 7.23926 3.5 15.9893V26.4893C3.5 35.2393 7 38.7393 15.75 38.7393H22.75" stroke="#292D32" stroke-width="1.5" stroke-linecap="round" stroke-linejoin="round"/>
<path d="M38.5 22.9893V15.9893C38.5 7.23926 35 3.73926 26.25 3.73926H15.75C7 3.73926 3.5 7.23926 3.5 15.9893V26.4893C3.5 35.2393 7 38.7393 15.75 38.7393H22.75" stroke="#292D32" stroke-width="1.5" stroke-linecap="round" stroke-linejoin="round"/>
<path d="M28 34.2418L30.765 36.9893L36.75 29.9893" stroke="#292D32" stroke-width="1.5" stroke-linecap="round" stroke-linejoin="round"/>
<path d="M12.25 18.6143V23.8643" stroke="#00B2C8" stroke-width="1.5" stroke-linecap="round" stroke-linejoin="round"/>
<path d="M21 18.6143V23.8643" stroke="#00B2C8" stroke-width="1.5" stroke-linecap="round" stroke-linejoin="round"/>
<path d="M29.75 18.6143V23.8643" stroke="#00B2C8" stroke-width="1.5" stroke-linecap="round" stroke-linejoin="round"/>
</svg>
