<svg width="42" height="43" viewBox="0 0 42 43" fill="none" xmlns="http://www.w3.org/2000/svg">
<path d="M17.6925 19.7515H13.055C11.9525 19.7515 11.0601 20.6439 11.0601 21.7464V30.7064H17.6925V19.7515V19.7515Z" stroke="#00B2C8" stroke-width="1.5" stroke-miterlimit="10" stroke-linecap="round" stroke-linejoin="round"/>
<path d="M22.3323 11.7891H19.6722C18.5697 11.7891 17.6772 12.6816 17.6772 13.7841V30.6891H24.3098V13.7841C24.3098 12.6816 23.4348 11.7891 22.3323 11.7891Z" stroke="#00B2C8" stroke-width="1.5" stroke-miterlimit="10" stroke-linecap="round" stroke-linejoin="round"/>
<path d="M28.9593 22.7266H24.3218V30.6891H30.9543V24.7216C30.9368 23.6191 30.0443 22.7266 28.9593 22.7266Z" stroke="#00B2C8" stroke-width="1.5" stroke-miterlimit="10" stroke-linecap="round" stroke-linejoin="round"/>
<path d="M15.75 38.7393H26.25C35 38.7393 38.5 35.2393 38.5 26.4893V15.9893C38.5 7.23926 35 3.73926 26.25 3.73926H15.75C7 3.73926 3.5 7.23926 3.5 15.9893V26.4893C3.5 35.2393 7 38.7393 15.75 38.7393Z" stroke="#292D32" stroke-width="1.5" stroke-linecap="round" stroke-linejoin="round"/>
</svg>
