<svg width="48" height="48" viewBox="0 0 48 48" fill="none" xmlns="http://www.w3.org/2000/svg">
<rect x="0.5" y="0.5" width="47" height="47" rx="9.5" fill="#F3FBFC"/>
<rect x="0.5" y="0.5" width="47" height="47" rx="9.5" stroke="#E6E6E6"/>
<path d="M32.1667 19.3334C30.2338 19.3334 28.6667 17.7664 28.6667 15.8334C28.6667 13.9004 30.2338 12.3334 32.1667 12.3334C34.0997 12.3334 35.6667 13.9004 35.6667 15.8334C35.6667 17.7664 34.0997 19.3334 32.1667 19.3334Z" stroke="#00B2C8" stroke-width="2"/>
<path d="M26.3333 12.5668C25.5794 12.4137 24.799 12.3334 23.9999 12.3334C21.875 12.3334 19.8826 12.9015 18.1666 13.8942M35.4332 21.6667C35.5862 22.4206 35.6666 23.201 35.6666 24C35.6666 30.4433 30.4432 35.6667 23.9999 35.6667C22.1336 35.6667 20.3697 35.2285 18.8054 34.4493C18.3897 34.2423 17.9145 34.1734 17.4659 34.2934L14.8688 34.9883C13.7414 35.2899 12.71 34.2585 13.0117 33.1312L13.7066 30.5341C13.8266 30.0855 13.7577 29.6103 13.5506 29.1946C12.7715 27.6302 12.3333 25.8664 12.3333 24C12.3333 21.8751 12.9014 19.8827 13.894 18.1667" stroke="#1C274C" stroke-width="2" stroke-linecap="round"/>
</svg>
