<svg width="42" height="42" viewBox="0 0 42 42" fill="none" xmlns="http://www.w3.org/2000/svg">
<path d="M31.3168 36.7451H17.9731V40.081H31.3168V36.7451Z" stroke="black" stroke-width="1.4" stroke-miterlimit="10" stroke-linecap="round" stroke-linejoin="round"/>
<path d="M19.4199 10.0889V3.52832" stroke="#00B2C8" stroke-width="1.4" stroke-miterlimit="10" stroke-linecap="round"/>
<path d="M14.985 1.91895C11.3733 3.59788 8.86914 7.2582 8.86914 11.5034C8.86914 16.77 12.7233 21.1365 17.7649 21.9362M23.8807 1.91895C27.4924 3.59788 29.9966 7.2582 29.9966 11.5034C29.9966 15.5272 27.7469 19.0255 24.4367 20.8091" stroke="#00B2C8" stroke-width="1.4" stroke-miterlimit="10" stroke-linecap="round"/>
<path d="M16.8576 6.47754C14.7666 7.40413 13.3169 9.42426 13.3169 11.7672C13.3169 14.4358 15.1978 16.6857 17.7648 17.3778M22.0078 6.47754C24.0988 7.40413 25.5486 9.42426 25.5486 11.7672C25.5486 14.3391 23.8016 16.522 21.3771 17.2964" stroke="#00B2C8" stroke-width="1.4" stroke-miterlimit="10" stroke-linecap="round"/>
<path d="M17.9726 25.5146L17.5278 24.625C17.0831 23.8467 16.0823 23.5131 15.3039 24.0691C14.5255 24.5138 14.1919 25.5146 14.6367 26.293C14.6367 26.293 18.0842 31.4549 18.0838 32.1864C18.0834 32.918 17.9726 25.5146 17.9726 25.5146Z" stroke="black" stroke-width="1.4" stroke-miterlimit="10"/>
<path d="M29.6488 22.2893C28.7593 22.2893 27.9809 23.0677 27.9809 23.9573V22.8453C27.9809 21.9557 27.2025 21.1773 26.3129 21.1773C25.4233 21.1773 24.645 21.9557 24.645 22.8453V21.7333C24.645 21.2885 24.5338 20.955 24.2002 20.6214C23.8666 20.2878 23.4218 20.0654 22.977 20.0654C22.0874 20.0654 21.3091 20.8438 21.3091 21.7333V15.0615C21.3091 14.1719 20.5307 13.3936 19.6411 13.3936C18.7515 13.3936 17.9731 14.1719 17.9731 15.0615V31.1851C17.9731 32.1858 18.6403 32.9642 19.5299 33.2978C19.9747 33.5202 20.3083 33.965 20.1971 34.4098V36.7449H29.0928V34.2986C29.0928 33.8538 29.3152 33.409 29.76 33.1866C30.6496 32.853 31.2056 32.0746 31.3168 31.1851V23.9573C31.3168 23.0677 30.5384 22.2893 29.6488 22.2893Z" stroke="black" stroke-width="1.4" stroke-miterlimit="10"/>
<path d="M21.312 21.7334V25.0693" stroke="black" stroke-width="1.4" stroke-miterlimit="10"/>
<path d="M24.6465 22.8457V25.0696" stroke="black" stroke-width="1.4" stroke-miterlimit="10"/>
<path d="M27.9814 23.957V25.069" stroke="black" stroke-width="1.4" stroke-miterlimit="10"/>
</svg>
