<svg width="16" height="16" viewBox="0 0 16 16" fill="none" xmlns="http://www.w3.org/2000/svg">
<path d="M8.33479 9.83333H6.66813C6.39479 9.83333 6.16813 9.60667 6.16813 9.33333C6.16813 9.06 6.39479 8.83333 6.66813 8.83333H8.33479C10.0815 8.83333 11.5015 7.41333 11.5015 5.66667C11.5015 3.92 10.0815 2.5 8.33479 2.5H5.00146C3.25479 2.5 1.83479 3.92 1.83479 5.66667C1.83479 6.4 2.09479 7.11333 2.56146 7.67999C2.73479 7.89333 2.70812 8.20666 2.49479 8.38666C2.28146 8.55999 1.96813 8.53334 1.78813 8.32001C1.16813 7.57334 0.828125 6.63333 0.828125 5.66667C0.828125 3.36667 2.69479 1.5 4.99479 1.5H8.32812C10.6281 1.5 12.4948 3.36667 12.4948 5.66667C12.4948 7.96667 10.6348 9.83333 8.33479 9.83333Z" fill="#00B2C8"/>
<path opacity="0.4" d="M11 14.5H7.66667C5.36667 14.5 3.5 12.6334 3.5 10.3334C3.5 8.03335 5.36667 6.16669 7.66667 6.16669H9.33333C9.60667 6.16669 9.83333 6.39335 9.83333 6.66669C9.83333 6.94002 9.60667 7.16669 9.33333 7.16669H7.66667C5.92 7.16669 4.5 8.58669 4.5 10.3334C4.5 12.08 5.92 13.5 7.66667 13.5H11C12.7467 13.5 14.1667 12.08 14.1667 10.3334C14.1667 9.60002 13.9067 8.88669 13.44 8.32003C13.2667 8.10669 13.2933 7.79336 13.5067 7.61336C13.72 7.43336 14.0333 7.46668 14.2133 7.68001C14.8333 8.42668 15.1733 9.36669 15.1733 10.3334C15.1667 12.6334 13.3 14.5 11 14.5Z" fill="#292D32"/>
</svg>
