<svg width="42" height="42" viewBox="0 0 42 42" fill="none" xmlns="http://www.w3.org/2000/svg">
<path d="M21.0002 14.4416V24.0451M15.9198 23.1647L23.4233 18.8354M21.0002 7.26929V10.5001M21.0002 7.26929C28.1378 7.26929 33.9233 13.0548 33.9233 20.1924M21.0002 7.26929C13.8626 7.26929 8.07715 13.0548 8.07715 20.1924M8.07715 20.1924H11.3079M8.07715 20.1924C8.07715 27.3299 13.8626 33.1154 21.0002 33.1154M21.0002 33.1154V29.8847M21.0002 33.1154C28.1378 33.1154 33.9233 27.3299 33.9233 20.1924M33.9233 20.1924H30.6925" stroke="#17154B" stroke-width="1.5" stroke-miterlimit="10" stroke-linecap="round" stroke-linejoin="round"/>
<path d="M4.03824 12.923C4.84593 10.5 5.65362 9.72459 5.65362 9.72459C8.99747 4.82997 14.6271 1.61536 20.9998 1.61536C31.2575 1.61536 39.5767 9.93459 39.5767 20.1923C39.5767 30.45 31.2575 38.7692 20.9998 38.7692C10.7421 38.7692 2.42285 30.45 2.42285 20.1923" stroke="#17154B" stroke-width="1.5" stroke-miterlimit="10" stroke-linecap="round" stroke-linejoin="round"/>
<path d="M8.07711 11.3157L3.23096 14.5465V8.08496" stroke="#17154B" stroke-width="1.5" stroke-miterlimit="10" stroke-linecap="round" stroke-linejoin="round"/>
</svg>
