<svg width="180" height="180" viewBox="0 0 180 180" fill="none" xmlns="http://www.w3.org/2000/svg">
<path fill-rule="evenodd" clip-rule="evenodd" d="M138.81 127.014C139.121 127.014 139.429 126.953 139.716 126.834C140.003 126.716 140.264 126.541 140.484 126.322C140.704 126.102 140.878 125.841 140.997 125.554C141.116 125.266 141.176 124.959 141.176 124.648V33.9497C141.176 33.6389 141.116 33.3311 140.997 33.0438C140.878 32.7566 140.704 32.4956 140.484 32.2758C140.264 32.0561 140.003 31.8818 139.716 31.763C139.429 31.6443 139.121 31.5833 138.81 31.5837H69.406C69.0952 31.5833 68.7874 31.6443 68.5001 31.763C68.2129 31.8818 67.9519 32.0561 67.7321 32.2758C67.5124 32.4956 67.3381 32.7566 67.2193 33.0438C67.1006 33.3311 67.0396 33.6389 67.04 33.9497V107.896C67.04 108.527 67.292 109.126 67.734 109.568L84.486 126.32C84.9302 126.762 85.531 127.012 86.158 127.014H138.81Z" fill="#F7FDFD" stroke="#31326F" stroke-width="1.577" stroke-miterlimit="10" stroke-linecap="round" stroke-linejoin="round"/>
<path fill-rule="evenodd" clip-rule="evenodd" d="M40.951 48.1458C40.6401 48.1454 40.3323 48.2063 40.0451 48.3251C39.7578 48.4438 39.4968 48.6181 39.2771 48.8379C39.0573 49.0577 38.883 49.3186 38.7643 49.6059C38.6455 49.8931 38.5846 50.201 38.585 50.5118V141.21C38.5846 141.521 38.6455 141.828 38.7643 142.116C38.883 142.403 39.0573 142.664 39.2771 142.884C39.4968 143.103 39.7578 143.278 40.0451 143.396C40.3323 143.515 40.6401 143.576 40.951 143.576H110.355C110.666 143.576 110.974 143.515 111.261 143.396C111.548 143.278 111.809 143.103 112.029 142.884C112.249 142.664 112.423 142.403 112.542 142.116C112.66 141.828 112.721 141.521 112.721 141.21V67.2638C112.721 66.6328 112.468 66.0338 112.027 65.5918L95.275 48.8388C94.8309 48.3961 94.23 48.1466 93.603 48.1448L40.951 48.1458Z" fill="#F7FDFD" stroke="#31326F" stroke-width="1.577" stroke-miterlimit="10" stroke-linecap="round" stroke-linejoin="round"/>
<path fill-rule="evenodd" clip-rule="evenodd" d="M112.721 66.2858H96.9471C96.6362 66.2861 96.3284 66.2252 96.0412 66.1065C95.7539 65.9877 95.4929 65.8134 95.2732 65.5936C95.0534 65.3739 94.8791 65.1129 94.7604 64.8256C94.6416 64.5384 94.5807 64.2306 94.5811 63.9198V48.1458L112.721 66.2858Z" fill="#31326F" stroke="#31326F" stroke-width="1.577" stroke-miterlimit="10" stroke-linecap="round" stroke-linejoin="round"/>
<path fill-rule="evenodd" clip-rule="evenodd" d="M75.654 72.4849C61.678 72.4849 50.353 83.8099 50.353 97.7849C50.353 111.761 61.678 123.086 75.653 123.086C89.629 123.086 100.954 111.761 100.954 97.7859C100.954 83.8179 89.629 72.4849 75.654 72.4849ZM75.654 112.975C67.27 112.975 60.472 106.177 60.472 97.7929C60.472 89.4099 67.27 82.6109 75.654 82.6109C84.037 82.6109 90.836 89.4099 90.836 97.7929C90.836 106.177 84.037 112.975 75.654 112.975Z" fill="#00B2C8"/>
<path d="M127.343 164.35V136.746" stroke="#31326F" stroke-width="1.577" stroke-miterlimit="10"/>
<path d="M119.922 154.886H134.788L127.32 168.553L123.447 161.4L119.922 154.886Z" fill="#31326F"/>
<path d="M53.624 11.2129V38.8159" stroke="#31326F" stroke-width="1.577" stroke-miterlimit="10"/>
<path d="M61.0469 20.6768H46.1799L53.6499 7.00879L57.5139 14.1538L61.0469 20.6768Z" fill="#31326F"/>
</svg>
