<svg width="42" height="42" viewBox="0 0 42 42" fill="none" xmlns="http://www.w3.org/2000/svg">
<g clip-path="url(#clip0_116_336)">
<path d="M34.9597 21.374C33.9847 21.374 33.2257 22.134 33.2257 23.109C33.2257 24.085 33.9847 24.844 34.9607 24.844C35.9367 24.844 36.6957 24.085 36.6957 23.109C36.6957 22.133 35.9347 21.374 34.9597 21.374ZM34.9597 24.845C33.3337 24.845 32.0317 26.255 32.0317 27.881C33.8757 28.423 35.9357 28.423 37.8877 27.881C37.8877 26.254 36.5867 24.845 34.9597 24.845Z" stroke="#00B2C8" stroke-width="1.4" stroke-miterlimit="10" stroke-linecap="round"/>
<path d="M34.5258 17.686V4.02296C34.6348 2.82996 33.6588 1.74496 32.4658 1.63696H2.96884C1.77584 1.74496 0.79984 2.82996 0.90984 4.02196V23.11C0.80084 24.303 1.77684 25.387 2.96984 25.495H27.5868" stroke="black" stroke-width="1.4" stroke-miterlimit="10"/>
<path d="M10.4507 15.4099L15.9807 9.87794L19.1267 13.0229L22.8137 9.33594" stroke="#00B2C8" stroke-width="1.4" stroke-miterlimit="10" stroke-linecap="round"/>
<path d="M24.2237 12.156L25.8497 6.30005L19.9937 7.81805L24.2237 12.156Z" fill="#00B2C8"/>
<path d="M10.6689 20.072H24.7669" stroke="#00B2C8" stroke-width="1.4" stroke-miterlimit="10" stroke-linecap="round"/>
<path d="M34.7429 32C38.7559 32 41.9009 28.747 41.9009 24.843C41.9009 20.831 38.6469 17.686 34.7429 17.686C30.7309 17.686 27.5859 20.939 27.5859 24.843C27.5859 28.856 30.7309 32 34.7429 32Z" stroke="black" stroke-width="1.4" stroke-miterlimit="10"/>
<path d="M6.54772 9.22897C6.80436 9.23003 7.05866 9.18026 7.29597 9.08254C7.53327 8.98481 7.74888 8.84107 7.93035 8.6596C8.11182 8.47813 8.25557 8.26252 8.35329 8.02522C8.45101 7.78791 8.50078 7.5336 8.49972 7.27697C8.50078 7.02033 8.45101 6.76603 8.35329 6.52872C8.25557 6.29141 8.11182 6.07581 7.93035 5.89434C7.74888 5.71286 7.53327 5.56912 7.29597 5.4714C7.05866 5.37368 6.80436 5.32391 6.54772 5.32497C6.29108 5.32391 6.03678 5.37368 5.79947 5.4714C5.56217 5.56912 5.34656 5.71286 5.16509 5.89434C4.98362 6.07581 4.83987 6.29141 4.74215 6.52872C4.64443 6.76603 4.59466 7.02033 4.59572 7.27697C4.59572 8.36097 5.57172 9.22897 6.54772 9.22897Z" stroke="#00B2C8" stroke-width="1.4" stroke-miterlimit="10" stroke-linecap="round"/>
</g>
<defs>
<clipPath id="clip0_116_336">
<rect width="42" height="42" fill="white"/>
</clipPath>
</defs>
</svg>
