<svg width="120" height="120" viewBox="0 0 120 120" fill="none" xmlns="http://www.w3.org/2000/svg">
<path d="M30.0002 63.8768H90.0002M105.254 83.8845L76.1541 43.1076V18.4614H43.8464V43.1076L14.7464 83.8845C13.6369 85.4463 12.9716 87.2798 12.8213 89.1896C12.6709 91.0995 13.0411 93.0144 13.8925 94.7307L17.9079 102.9C19.5694 106.315 22.9848 108.461 26.7464 108.461H93.2541C96.9925 108.461 100.431 106.315 102.116 102.9L106.131 94.7307C107.839 91.223 107.516 87.046 105.254 83.8845Z" stroke="#17154B" stroke-width="2" stroke-miterlimit="10" stroke-linecap="round" stroke-linejoin="round"/>
<path d="M107.103 92.0539C106.672 92.9697 105.99 93.7442 105.136 94.2867C104.282 94.8292 103.291 95.1173 102.279 95.1173C101.268 95.1173 100.277 94.8292 99.4226 94.2867C98.5685 93.7442 97.8865 92.9697 97.4564 92.0539L93.0487 83.1462C92.6186 82.2303 91.9366 81.4558 91.0825 80.9133C90.2284 80.3709 89.2374 80.0828 88.2256 80.0828C87.2138 80.0828 86.2229 80.3709 85.3687 80.9133C84.5146 81.4558 83.8326 82.2303 83.4025 83.1462L78.9948 92.0539C78.5647 92.9697 77.8827 93.7442 77.0286 94.2867C76.1745 94.8292 75.1836 95.1173 74.1718 95.1173C73.1599 95.1173 72.169 94.8292 71.3149 94.2867C70.4608 93.7442 69.7788 92.9697 69.3487 92.0539L64.941 83.1462C64.5109 82.2303 63.8289 81.4558 62.9748 80.9133C62.1207 80.3709 61.1297 80.0828 60.1179 80.0828C59.1061 80.0828 58.1152 80.3709 57.2611 80.9133C56.4069 81.4558 55.725 82.2303 55.2948 83.1462L50.8871 92.0539C50.457 92.9697 49.775 93.7442 48.9209 94.2867C48.0668 94.8292 47.0759 95.1173 46.0641 95.1173C45.0522 95.1173 44.0613 94.8292 43.2072 94.2867C42.3531 93.7442 41.6711 92.9697 41.241 92.0539L36.8333 83.1462C36.4032 82.2303 35.7212 81.4558 34.8671 80.9133C34.013 80.3709 33.0221 80.0828 32.0102 80.0828C30.9984 80.0828 30.0075 80.3709 29.1534 80.9133C28.2993 81.4558 27.6173 82.2303 27.1871 83.1462L22.7795 92.0539C22.3493 92.9697 21.6673 93.7442 20.8132 94.2867C19.9591 94.8292 18.9682 95.1173 17.9564 95.1173C16.9445 95.1173 15.9536 94.8292 15.0995 94.2867C14.2454 93.7442 13.5634 92.9697 13.1333 92.0539M66.5771 52.5462C67.1771 52.5462 67.6618 52.05 67.6618 51.4385C67.6618 50.8269 67.1771 50.3308 66.5771 50.3308C65.9795 50.3308 65.4925 50.8269 65.4925 51.4385C65.4925 52.05 65.9795 52.5462 66.5771 52.5462ZM65.4925 30.1616C66.0925 30.1616 66.5771 29.6654 66.5771 29.0539C66.5771 28.4423 66.0925 27.9462 65.4925 27.9462C64.8925 27.9462 64.4079 28.4423 64.4079 29.0539C64.4079 29.6654 64.8925 30.1616 65.4925 30.1616ZM54.6256 40.1769C55.2256 40.1769 55.7102 39.6808 55.7102 39.0692C55.7102 38.4577 55.2256 37.9616 54.6256 37.9616C54.0256 37.9616 53.541 38.4577 53.541 39.0692C53.541 39.6808 54.0256 40.1769 54.6256 40.1769ZM80.7695 6.9231H39.231V18.4616H80.7695V6.9231Z" stroke="#00B2C8" stroke-width="2" stroke-miterlimit="10" stroke-linecap="round" stroke-linejoin="round"/>
</svg>
