<svg width="24" height="24" viewBox="0 0 24 24" fill="none" xmlns="http://www.w3.org/2000/svg">
<path d="M7.57697 13.1502C6.08576 12.9384 4.5693 13.293 3.32662 14.1441C2.08395 14.9951 1.20526 16.2809 0.863831 17.7479C0.670688 18.5788 1.0124 19.4416 1.73012 19.8954C2.6724 20.4908 4.23297 21.2205 6.31697 21.3074M11.8924 16.0079C12.2135 16.5394 12.4553 17.1256 12.6004 17.7479C12.7206 18.2614 12.6355 18.8015 12.3633 19.2531M6.7284 10.6496C8.28497 10.6496 9.54669 9.31935 9.54669 7.67878C9.54669 6.03878 8.28497 4.7085 6.7284 4.7085C5.1724 4.7085 3.91126 6.03878 3.91126 7.67878C3.91126 9.31935 5.1724 10.6496 6.7284 10.6496Z" stroke="#303030" stroke-width="1.33" stroke-miterlimit="10" stroke-linecap="round" stroke-linejoin="round"/>
<path d="M23.1545 17.7571C23.3997 18.8085 22.966 19.9114 22.0517 20.4885C20.7802 21.2943 18.606 22.2954 15.6905 22.2954C12.7757 22.2954 10.606 21.2948 9.32939 20.488C8.41567 19.9108 7.98196 18.8137 8.22653 17.7565C9.01282 14.3623 12.0557 11.8348 15.6905 11.8348C19.3254 11.8348 22.3631 14.3668 23.1545 17.7571ZM15.686 9.11826C17.6648 9.11826 19.2694 7.42683 19.2694 5.34054C19.2694 3.25368 17.6648 1.56226 15.686 1.56226C13.7065 1.56226 12.102 3.25368 12.102 5.34054C12.102 7.42626 13.7065 9.11768 15.6854 9.11768L15.686 9.11826Z" stroke="#00B2C8" stroke-width="1.33" stroke-miterlimit="10" stroke-linecap="round" stroke-linejoin="round"/>
</svg>
