<svg width="90" height="90" viewBox="0 0 90 90" fill="none" xmlns="http://www.w3.org/2000/svg">
<path d="M28.4151 49.3135C22.8231 48.5192 17.1363 49.8489 12.4763 53.0404C7.81626 56.232 4.52118 61.0538 3.24083 66.555C2.51655 69.6707 3.79797 72.9064 6.4894 74.6078C10.023 76.8407 15.8751 79.5771 23.6901 79.9028M44.598 60.03C45.8023 62.0228 46.7087 64.2214 47.253 66.555C47.7038 68.4804 47.3847 70.5057 46.3637 72.1992M25.233 39.9364C31.0701 39.9364 35.8015 34.9478 35.8015 28.7957C35.8015 22.6457 31.0701 17.6571 25.233 17.6571C19.398 17.6571 14.6687 22.6457 14.6687 28.7957C14.6687 34.9478 19.398 39.9364 25.233 39.9364Z" stroke="#303030" stroke-width="2" stroke-miterlimit="10" stroke-linecap="round" stroke-linejoin="round"/>
<path d="M86.8283 66.5892C87.7476 70.5321 86.1211 74.6678 82.6926 76.8321C77.9247 79.8535 69.7711 83.6078 58.8383 83.6078C47.9076 83.6078 39.7711 79.8557 34.984 76.8299C31.5576 74.6657 29.9311 70.5514 30.8483 66.5871C33.7968 53.8585 45.2076 44.3807 58.8383 44.3807C72.469 44.3807 83.8604 53.8757 86.8283 66.5892ZM58.8211 34.1935C66.2418 34.1935 72.259 27.8507 72.259 20.0271C72.259 12.2014 66.2418 5.85852 58.8211 5.85852C51.3983 5.85852 45.3811 12.2014 45.3811 20.0271C45.3811 27.8485 51.3983 34.1914 58.819 34.1914L58.8211 34.1935Z" stroke="#00B2C8" stroke-width="2" stroke-miterlimit="10" stroke-linecap="round" stroke-linejoin="round"/>
</svg>
