<svg width="90" height="91" viewBox="0 0 90 91" fill="none" xmlns="http://www.w3.org/2000/svg">
<path d="M28.4151 49.8135C22.8231 49.0192 17.1363 50.3489 12.4763 53.5404C7.81626 56.732 4.52118 61.5538 3.24083 67.055C2.51655 70.1707 3.79797 73.4064 6.4894 75.1078C10.023 77.3407 15.8751 80.0771 23.6901 80.4028M44.598 60.53C45.8023 62.5228 46.7087 64.7214 47.253 67.055C47.7038 68.9804 47.3847 71.0057 46.3637 72.6992M25.233 40.4364C31.0701 40.4364 35.8015 35.4478 35.8015 29.2957C35.8015 23.1457 31.0701 18.1571 25.233 18.1571C19.398 18.1571 14.6687 23.1457 14.6687 29.2957C14.6687 35.4478 19.398 40.4364 25.233 40.4364Z" stroke="#303030" stroke-width="2" stroke-miterlimit="10" stroke-linecap="round" stroke-linejoin="round"/>
<path d="M86.8283 67.0892C87.7476 71.0321 86.1211 75.1678 82.6926 77.3321C77.9247 80.3535 69.7711 84.1078 58.8383 84.1078C47.9076 84.1078 39.7711 80.3557 34.984 77.3299C31.5576 75.1657 29.9311 71.0514 30.8483 67.0871C33.7968 54.3585 45.2076 44.8807 58.8383 44.8807C72.469 44.8807 83.8604 54.3757 86.8283 67.0892ZM58.8211 34.6935C66.2418 34.6935 72.259 28.3507 72.259 20.5271C72.259 12.7014 66.2418 6.35852 58.8211 6.35852C51.3983 6.35852 45.3811 12.7014 45.3811 20.5271C45.3811 28.3485 51.3983 34.6914 58.819 34.6914L58.8211 34.6935Z" stroke="#303030" stroke-width="2" stroke-miterlimit="10" stroke-linecap="round" stroke-linejoin="round"/>
</svg>
