<svg width="40" height="40" viewBox="0 0 40 40" fill="none" xmlns="http://www.w3.org/2000/svg">
<mask id="mask0_333_3915" style="mask-type:luminance" maskUnits="userSpaceOnUse" x="0" y="0" width="40" height="40">
<path d="M0 0H40V40H0V0Z" fill="white"/>
</mask>
<g mask="url(#mask0_333_3915)">
<path d="M27.1357 27.1372L30.8722 30.8737M9.12475 9.12626L12.8604 12.8619M12.8612 27.1372L9.12475 30.8737M30.8722 9.12626L27.1365 12.8619M19.9985 30.0972C25.575 30.0972 30.0957 25.5765 30.0957 20C30.0957 14.4235 25.575 9.90273 19.9985 9.90273C14.422 9.90273 9.90123 14.4235 9.90123 20C9.90123 25.5765 14.422 30.0972 19.9985 30.0972ZM34.7561 36.3106C35.1681 36.3106 35.5632 36.1469 35.8545 35.8556C36.1458 35.5643 36.3095 35.1692 36.3095 34.7572C36.3095 34.3453 36.1458 33.9502 35.8545 33.6589C35.5632 33.3676 35.1681 33.2039 34.7561 33.2039C34.3442 33.2039 33.9491 33.3676 33.6578 33.6589C33.3664 33.9502 33.2028 34.3453 33.2028 34.7572C33.2028 35.1692 33.3664 35.5643 33.6578 35.8556C33.9491 36.1469 34.3442 36.3106 34.7561 36.3106ZM5.24083 6.79606C5.44482 6.79606 5.64681 6.75588 5.83527 6.67782C6.02373 6.59976 6.19497 6.48534 6.33921 6.3411C6.48345 6.19686 6.59786 6.02562 6.67593 5.83716C6.75399 5.6487 6.79417 5.44671 6.79417 5.24273C6.79417 5.03874 6.75399 4.83675 6.67593 4.64829C6.59786 4.45983 6.48345 4.28859 6.33921 4.14435C6.19497 4.00011 6.02373 3.88569 5.83527 3.80763C5.64681 3.72957 5.44482 3.68939 5.24083 3.68939C4.82897 3.68939 4.43397 3.853 4.14274 4.14424C3.85151 4.43547 3.68789 4.83047 3.68789 5.24233C3.68789 5.6542 3.85151 6.0492 4.14274 6.34043C4.43397 6.63166 4.82897 6.79527 5.24083 6.79527V6.79606ZM34.7561 6.79606C34.9601 6.79606 35.1621 6.75588 35.3506 6.67782C35.539 6.59976 35.7103 6.48534 35.8545 6.3411C35.9987 6.19686 36.1132 6.02562 36.1912 5.83716C36.2693 5.6487 36.3095 5.44671 36.3095 5.24273C36.3095 5.03874 36.2693 4.83675 36.1912 4.64829C36.1132 4.45983 35.9987 4.28859 35.8545 4.14435C35.7103 4.00011 35.539 3.88569 35.3506 3.80763C35.1621 3.72957 34.9601 3.68939 34.7561 3.68939C34.3443 3.68939 33.9493 3.853 33.658 4.14424C33.3668 4.43547 33.2032 4.83047 33.2032 5.24233C33.2032 5.6542 33.3668 6.0492 33.658 6.34043C33.9493 6.63166 34.3443 6.79527 34.7561 6.79527V6.79606ZM5.24083 36.3106C5.6528 36.3106 6.0479 36.1469 6.33921 35.8556C6.63051 35.5643 6.79417 35.1692 6.79417 34.7572C6.79417 34.3453 6.63051 33.9502 6.33921 33.6589C6.0479 33.3676 5.6528 33.2039 5.24083 33.2039C4.82886 33.2039 4.43377 33.3676 4.14246 33.6589C3.85115 33.9502 3.6875 34.3453 3.6875 34.7572C3.6875 35.1692 3.85115 35.5643 4.14246 35.8556C4.43377 36.1469 4.82886 36.3106 5.24083 36.3106Z" stroke="#00B2C8" stroke-miterlimit="10" stroke-linecap="round" stroke-linejoin="round"/>
<path d="M9.90203 34.7569H30.0965M9.90203 4.46591H30.0965M4.85419 9.90277V30.0973M35.1444 9.90277V30.0973M16.6518 19.3404L19.7656 22.4541L23.9452 18.2761M39.4165 32.9012V36.6212C39.4168 36.9895 39.3444 37.3542 39.2035 37.6945C39.0627 38.0347 38.8562 38.3439 38.5958 38.6043C38.3353 38.8647 38.0262 39.0713 37.6859 39.2121C37.3456 39.3529 36.9809 39.4253 36.6126 39.4251H32.8934C32.5251 39.4253 32.1604 39.3529 31.8201 39.2121C31.4799 39.0713 31.1707 38.8647 30.9103 38.6043C30.6499 38.3439 30.4433 38.0347 30.3025 37.6945C30.1617 37.3542 30.0893 36.9895 30.0895 36.6212V32.9012C30.0893 32.5329 30.1617 32.1682 30.3025 31.8279C30.4433 31.4877 30.6499 31.1785 30.9103 30.9181C31.1707 30.6577 31.4799 30.4511 31.8201 30.3103C32.1604 30.1695 32.5251 30.0971 32.8934 30.0973H36.6134C36.9819 30.0965 37.3468 30.1684 37.6874 30.309C38.028 30.4496 38.3374 30.6562 38.5979 30.9167C38.8585 31.1772 39.065 31.4866 39.2056 31.8272C39.3462 32.1678 39.4174 32.5328 39.4165 32.9012ZM9.90203 32.9012V36.6212C9.90224 36.9895 9.82985 37.3542 9.68902 37.6945C9.54818 38.0347 9.34165 38.3439 9.08124 38.6043C8.82083 38.8647 8.51165 39.0713 8.17137 39.2121C7.83109 39.3529 7.46638 39.4253 7.09811 39.4251H3.38595C3.01768 39.4253 2.65298 39.3529 2.3127 39.2121C1.97241 39.0713 1.66323 38.8647 1.40282 38.6043C1.14241 38.3439 0.935885 38.0347 0.795048 37.6945C0.65421 37.3542 0.581825 36.9895 0.582032 36.6212V32.9012C0.581825 32.5329 0.65421 32.1682 0.795048 31.8279C0.935885 31.4877 1.14241 31.1785 1.40282 30.9181C1.66323 30.6577 1.97241 30.4511 2.3127 30.3103C2.65298 30.1695 3.01768 30.0971 3.38595 30.0973H7.10517C7.47302 30.0973 7.83725 30.1699 8.177 30.3109C8.51675 30.4519 8.82533 30.6585 9.08507 30.919C9.34482 31.1795 9.55061 31.4886 9.69067 31.8288C9.83072 32.1689 9.90228 32.5334 9.90125 32.9012H9.90203ZM39.4165 3.38669V7.10591C39.4168 7.47418 39.3444 7.83889 39.2035 8.17917C39.0627 8.51945 38.8562 8.82863 38.5958 9.08904C38.3353 9.34945 38.0262 9.55598 37.6859 9.69681C37.3456 9.83765 36.9809 9.91004 36.6126 9.90983H32.8934C32.5251 9.91004 32.1604 9.83765 31.8201 9.69681C31.4799 9.55598 31.1707 9.34945 30.9103 9.08904C30.6499 8.82863 30.4433 8.51945 30.3025 8.17917C30.1617 7.83889 30.0893 7.47418 30.0895 7.10591V3.38669C30.0893 3.01848 30.1616 2.65384 30.3024 2.31362C30.4432 1.97339 30.6497 1.66424 30.91 1.40384C31.1703 1.14344 31.4794 0.936895 31.8196 0.796012C32.1598 0.655129 32.5244 0.582668 32.8926 0.582771H36.6126C36.9811 0.581943 37.3461 0.653904 37.6866 0.794522C38.0272 0.935139 38.3366 1.14164 38.5971 1.40218C38.8577 1.66271 39.0642 1.97214 39.2048 2.3127C39.3454 2.65326 39.4174 3.01824 39.4165 3.38669ZM9.90203 3.38669V7.10591C9.90224 7.47418 9.82985 7.83889 9.68902 8.17917C9.54818 8.51945 9.34165 8.82863 9.08124 9.08904C8.82083 9.34945 8.51165 9.55598 8.17137 9.69681C7.83109 9.83765 7.46638 9.91004 7.09811 9.90983H3.38595C3.01775 9.91004 2.65311 9.83768 2.31288 9.69689C1.97265 9.5561 1.6635 9.34964 1.4031 9.08932C1.1427 8.82899 0.936156 8.5199 0.795273 8.17971C0.654389 7.83952 0.581929 7.4749 0.582032 7.10669V3.38669C0.581825 3.01842 0.65421 2.65371 0.795048 2.31343C0.935885 1.97315 1.14241 1.66397 1.40282 1.40356C1.66323 1.14315 1.97241 0.936624 2.3127 0.795787C2.65298 0.654949 3.01768 0.582565 3.38595 0.582771H7.10517C7.47302 0.582769 7.83725 0.655351 8.177 0.796357C8.51675 0.937364 8.82533 1.14402 9.08507 1.40449C9.34482 1.66497 9.55061 1.97413 9.69067 2.31427C9.83072 2.65441 9.90228 3.01885 9.90125 3.38669H9.90203Z" stroke="#17154B" stroke-miterlimit="10" stroke-linecap="round" stroke-linejoin="round"/>
</g>
</svg>
