<svg width="24" height="25" viewBox="0 0 24 25" fill="none" xmlns="http://www.w3.org/2000/svg">
<path opacity="0.4" d="M18 21H17V20.75C17 19.65 16.1 18.75 15 18.75H12.75V16.46C12.5 16.49 12.25 16.5 12 16.5C11.75 16.5 11.5 16.49 11.25 16.46V18.75H9C7.9 18.75 7 19.65 7 20.75V21H6C5.59 21 5.25 21.34 5.25 21.75C5.25 22.16 5.59 22.5 6 22.5H18C18.41 22.5 18.75 22.16 18.75 21.75C18.75 21.34 18.41 21 18 21Z" fill="#292D32"/>
<path opacity="0.4" d="M5.52125 12.14C4.86125 11.89 4.28125 11.48 3.82125 11.02C2.89125 9.99 2.28125 8.76 2.28125 7.32C2.28125 5.88 3.41125 4.75 4.85125 4.75H5.41125C5.15125 5.28 5.00125 5.87 5.00125 6.5V9.5C5.00125 10.44 5.18125 11.33 5.52125 12.14Z" fill="#292D32"/>
<path opacity="0.4" d="M21.7205 7.32C21.7205 8.76 21.1105 9.99 20.1805 11.02C19.7205 11.48 19.1405 11.89 18.4805 12.14C18.8205 11.33 19.0005 10.44 19.0005 9.5V6.5C19.0005 5.87 18.8505 5.28 18.5905 4.75H19.1505C20.5905 4.75 21.7205 5.88 21.7205 7.32Z" fill="#292D32"/>
<path d="M15 2.5H9C6.79 2.5 5 4.29 5 6.5V9.5C5 13.37 8.13 16.5 12 16.5C15.87 16.5 19 13.37 19 9.5V6.5C19 4.29 17.21 2.5 15 2.5ZM14.84 8.95L14.22 9.71C14.12 9.82 14.05 10.04 14.06 10.19L14.12 11.17C14.16 11.77 13.73 12.08 13.17 11.86L12.26 11.5C12.12 11.45 11.88 11.45 11.74 11.5L10.83 11.86C10.27 12.08 9.84 11.77 9.88 11.17L9.94 10.19C9.95 10.04 9.88 9.82 9.78 9.71L9.16 8.95C8.77 8.49 8.94 7.98 9.52 7.83L10.47 7.59C10.62 7.55 10.8 7.41 10.88 7.28L11.41 6.46C11.74 5.95 12.26 5.95 12.59 6.46L13.12 7.28C13.2 7.41 13.38 7.55 13.53 7.59L14.48 7.83C15.06 7.98 15.23 8.49 14.84 8.95Z" fill="#BFC5D3"/>
<path opacity="0.4" d="M14.8397 8.95001L14.2197 9.71001C14.1197 9.82001 14.0497 10.04 14.0597 10.19L14.1197 11.17C14.1597 11.77 13.7297 12.08 13.1697 11.86L12.2597 11.5C12.1197 11.45 11.8797 11.45 11.7397 11.5L10.8297 11.86C10.2697 12.08 9.83975 11.77 9.87975 11.17L9.93975 10.19C9.94975 10.04 9.87975 9.82001 9.77975 9.71001L9.15975 8.95001C8.76975 8.49001 8.93975 7.98001 9.51975 7.83001L10.4697 7.59001C10.6197 7.55001 10.7997 7.41001 10.8797 7.28001L11.4097 6.46001C11.7397 5.95001 12.2597 5.95001 12.5897 6.46001L13.1197 7.28001C13.1997 7.41001 13.3797 7.55001 13.5297 7.59001L14.4797 7.83001C15.0597 7.98001 15.2297 8.49001 14.8397 8.95001Z" fill="#292D32"/>
</svg>
