<svg width="25" height="25" viewBox="0 0 25 25" fill="none" xmlns="http://www.w3.org/2000/svg">
<g clip-path="url(#clip0_168_1272)">
<mask id="mask0_168_1272" style="mask-type:luminance" maskUnits="userSpaceOnUse" x="0" y="0" width="25" height="25">
<path d="M25 0H0V25H25V0Z" fill="white"/>
</mask>
<g mask="url(#mask0_168_1272)">
<path d="M12.5 25C19.4035 25 25 19.4035 25 12.5C25 5.59644 19.4035 0 12.5 0C5.59644 0 0 5.59644 0 12.5C0 19.4035 5.59644 25 12.5 25Z" fill="#F3BA2F"/>
<path d="M9.46563 11.2531L12.5 8.21875L15.5359 11.2547L17.3016 9.48906L12.5 4.6875L7.7 9.4875L9.46563 11.2531ZM4.6875 12.5L6.45312 10.7344L8.21875 12.5L6.45312 14.2656L4.6875 12.5ZM9.46563 13.7469L12.5 16.7813L15.5359 13.7453L17.3016 15.5101L12.5 20.3125L7.7 15.5125L7.69766 15.5101L9.46563 13.7469ZM16.7813 12.5L18.5469 10.7344L20.3125 12.5L18.5469 14.2656L16.7813 12.5ZM14.2906 12.4984H14.2922V12.5L12.5 14.2922L10.7102 12.5031L10.707 12.5L10.7102 12.4976L11.0234 12.1836L11.1758 12.0312L12.5 10.7078L14.2914 12.4992L14.2906 12.4984Z" fill="white"/>
</g>
</g>
<defs>
<clipPath id="clip0_168_1272">
<rect width="25" height="25" fill="white"/>
</clipPath>
</defs>
</svg>
