<svg width="43" height="42" viewBox="0 0 43 42" fill="none" xmlns="http://www.w3.org/2000/svg">
<path d="M2.71924 22.3242L11.8792 14.2852C11.8904 14.2732 11.9058 14.266 11.9222 14.2652C11.9382 14.2652 11.9532 14.2732 11.9652 14.2852L16.1912 19.0902C16.1952 19.0982 16.2032 19.1022 16.2112 19.1052C16.2192 19.1092 16.2312 19.1132 16.2382 19.1132C16.2462 19.1132 16.2582 19.1092 16.2662 19.1052C16.2732 19.1022 16.2812 19.0982 16.2862 19.0902L24.2622 12.1722C24.2781 12.1612 24.297 12.1556 24.3162 12.1562C24.3322 12.1562 24.3522 12.1602 24.3672 12.1722L29.1212 16.3522H29.2192L38.2812 7.77319" stroke="#00B2C8" stroke-width="1.33333" stroke-miterlimit="10" stroke-linecap="round"/>
<path d="M36.1252 5.62109H4.87524C4.30404 5.62083 3.75611 5.84734 3.35184 6.25086C2.94757 6.65439 2.72003 7.2019 2.71924 7.77309V25.0161C2.71924 26.2071 3.68424 27.1721 4.87524 27.1721H36.1252C36.697 27.1721 37.2454 26.9449 37.6498 26.5406C38.0541 26.1363 38.2812 25.5879 38.2812 25.0161V7.77309C38.2804 7.2019 38.0529 6.65439 37.6486 6.25086C37.2444 5.84734 36.6964 5.62083 36.1252 5.62109ZM18.8832 30.9341H4.87524V35.2461H18.8832V30.9341Z" stroke="#303030" stroke-width="1.33333" stroke-miterlimit="10"/>
<path d="M5.95312 8.85205H12.4181M5.95312 11.0081H9.72312M35.0471 23.9381H26.4261M36.1251 30.9341H22.1171V35.246H36.1251V30.9341Z" stroke="#00B2C8" stroke-width="1.33333" stroke-miterlimit="10" stroke-linecap="round"/>
</svg>
