<svg width="42" height="42" viewBox="0 0 42 42" fill="none" xmlns="http://www.w3.org/2000/svg">
<path d="M6.98057 25.6558L4.32059 22.9957C3.23559 21.9107 3.23559 20.1257 4.32059 19.0407L6.98057 16.3807C7.43557 15.9257 7.80307 15.0332 7.80307 14.4032V10.6406C7.80307 9.10062 9.06308 7.84067 10.6031 7.84067H14.3656C14.9956 7.84067 15.8881 7.47322 16.3431 7.01822L19.0031 4.35818C20.0881 3.27318 21.8731 3.27318 22.9581 4.35818L25.6181 7.01822C26.0731 7.47322 26.9656 7.84067 27.5956 7.84067H31.3581C32.8981 7.84067 34.1581 9.10062 34.1581 10.6406V14.4032C34.1581 15.0332 34.5256 15.9257 34.9806 16.3807L37.6406 19.0407C38.7256 20.1257 38.7256 21.9107 37.6406 22.9957L34.9806 25.6558C34.5256 26.1108 34.1581 27.0033 34.1581 27.6333V31.3956C34.1581 32.9356 32.8981 34.1958 31.3581 34.1958H27.5956C26.9656 34.1958 26.0731 34.5632 25.6181 35.0182L22.9581 37.6783C21.8731 38.7633 20.0881 38.7633 19.0031 37.6783L16.3431 35.0182C15.8881 34.5632 14.9956 34.1958 14.3656 34.1958H10.6031C9.06308 34.1958 7.80307 32.9356 7.80307 31.3956V27.6333C7.80307 26.9858 7.43557 26.0933 6.98057 25.6558Z" stroke="#292D32" stroke-width="1.5" stroke-linecap="round" stroke-linejoin="round"/>
<path d="M15.75 26.25L26.25 15.75" stroke="#00B2C8" stroke-width="1.5" stroke-linecap="round" stroke-linejoin="round"/>
<path d="M25.3654 25.375H25.3811" stroke="#00B2C8" stroke-width="2" stroke-linecap="round" stroke-linejoin="round"/>
<path d="M16.6154 16.625H16.6311" stroke="#00B2C8" stroke-width="2" stroke-linecap="round" stroke-linejoin="round"/>
</svg>
