<svg width="27" height="32" viewBox="0 0 27 32" fill="none" xmlns="http://www.w3.org/2000/svg">
<path fill-rule="evenodd" clip-rule="evenodd" d="M5.93333 22.4666C4.99035 21.8915 3.87693 21.6617 2.78333 21.8166H0V31.8166H2.21667V27.9999H3.16667C4.15082 28.101 5.13974 27.8597 5.96667 27.3166C6.66857 26.7145 7.05557 25.8238 7.01667 24.8999C7.06863 23.9616 6.66535 23.0558 5.93333 22.4666ZM4.15 26.1166C3.73132 26.3009 3.27099 26.3699 2.81667 26.3166H2.16667V23.4832H2.81667C3.28866 23.4331 3.76483 23.526 4.18333 23.7499C4.57309 24.0214 4.79396 24.4757 4.76667 24.9499C4.81716 25.4279 4.57344 25.889 4.15 26.1166ZM11.7833 21.8166H9.01667V31.8166H11.6667C13.0172 31.9487 14.3772 31.6883 15.5833 31.0666C16.9105 30.0774 17.6196 28.4631 17.45 26.8166C17.5493 25.406 17.0467 24.0193 16.0667 22.9999C14.856 22.0457 13.3121 21.6192 11.7833 21.8166ZM13.9833 29.5499C13.289 29.9402 12.4939 30.1143 11.7 30.0499H11.2667V23.5832H11.6667C13.0667 23.5832 13.6167 23.7166 14.1667 24.2166C14.8342 24.9115 15.1789 25.855 15.1167 26.8166C15.2024 27.8572 14.7803 28.8752 13.9833 29.5499ZM19.8833 31.8166H22.1333V27.6332H26.6667V25.8666H22.1333V23.5832H26.6667V21.8166H19.8833V31.8166ZM18.3333 0.149902H0V18.4832H3.33333V15.1499V13.3999V3.48324H16.95L23.3333 9.86657V13.3999V15.1499V18.4832H26.6667V8.48324L18.3333 0.149902Z" fill="#303030"/>
</svg>
