<svg width="16" height="17" viewBox="0 0 16 17" fill="none" xmlns="http://www.w3.org/2000/svg">
<path opacity="0.4" d="M13.668 7.29331H11.7413C10.1613 7.29331 8.87464 6.00665 8.87464 4.42665V2.49998C8.87464 2.13331 8.57464 1.83331 8.20797 1.83331H5.3813C3.32797 1.83331 1.66797 3.16665 1.66797 5.54665V11.4533C1.66797 13.8333 3.32797 15.1666 5.3813 15.1666H10.6213C12.6746 15.1666 14.3346 13.8333 14.3346 11.4533V7.95998C14.3346 7.59331 14.0346 7.29331 13.668 7.29331Z" fill="#292D32"/>
<path d="M10.5318 1.97335C10.2585 1.70002 9.78516 1.88668 9.78516 2.26668V4.59335C9.78516 5.56668 10.6118 6.37335 11.6185 6.37335C12.2518 6.38002 13.1318 6.38002 13.8852 6.38002C14.2652 6.38002 14.4652 5.93335 14.1985 5.66668C13.2385 4.70002 11.5185 2.96002 10.5318 1.97335Z" fill="#292D32"/>
<path d="M8.1863 10.3133C7.99297 10.12 7.67297 10.12 7.47964 10.3133L6.99964 10.7933V8C6.99964 7.72667 6.77297 7.5 6.49964 7.5C6.2263 7.5 5.99964 7.72667 5.99964 8V10.7933L5.51964 10.3133C5.3263 10.12 5.0063 10.12 4.81297 10.3133C4.61964 10.5067 4.61964 10.8267 4.81297 11.02L6.1463 12.3533C6.15297 12.36 6.15964 12.36 6.15964 12.3667C6.19964 12.4067 6.25297 12.44 6.3063 12.4667C6.37297 12.4867 6.43297 12.5 6.49964 12.5C6.5663 12.5 6.6263 12.4867 6.6863 12.46C6.7463 12.4333 6.79964 12.4 6.85297 12.3533L8.1863 11.02C8.37964 10.8267 8.37964 10.5067 8.1863 10.3133Z" fill="#292D32"/>
</svg>
