<svg width="43" height="42" viewBox="0 0 43 42" fill="none" xmlns="http://www.w3.org/2000/svg">
<path d="M21.3336 4.03845V8.07691M4.37207 21H10.0259M21.3336 37.9615V33.9231M38.2951 21H32.6413M30.2182 37.9615H12.449C7.99053 37.9615 4.37207 34.3431 4.37207 29.8846V12.1154C4.37207 7.65691 7.99053 4.03845 12.449 4.03845H30.2182C34.6767 4.03845 38.2951 7.65691 38.2951 12.1154V29.8846C38.2951 34.3431 34.6767 37.9615 30.2182 37.9615Z" stroke="#17154B" stroke-width="1.5" stroke-miterlimit="10" stroke-linecap="round" stroke-linejoin="round"/>
<path d="M24.968 16.5496C24.128 15.7661 22.8034 15.3461 21.3334 15.3461C19.1688 15.3461 17.2949 16.6384 17.2949 18.173C17.2949 19.7076 19.1688 21 21.3334 21C23.498 21 25.3718 22.2923 25.3718 23.8269C25.3718 25.3615 23.498 26.6538 21.3334 26.6538C19.8634 26.6538 18.5388 26.2338 17.6988 25.4503M21.3334 12.9473V29.0527" stroke="#17154B" stroke-width="1.5" stroke-miterlimit="10" stroke-linecap="round" stroke-linejoin="round"/>
</svg>
