<svg width="42" height="42" viewBox="0 0 42 42" fill="none" xmlns="http://www.w3.org/2000/svg">
<path d="M21.0001 4.03845V8.07691M4.03857 21H9.69242M21.0001 37.9615V33.9231M37.9617 21H32.3078M29.8847 37.9615H12.1155C7.65704 37.9615 4.03857 34.3431 4.03857 29.8846V12.1154C4.03857 7.65691 7.65704 4.03845 12.1155 4.03845H29.8847C34.3432 4.03845 37.9617 7.65691 37.9617 12.1154V29.8846C37.9617 34.3431 34.3432 37.9615 29.8847 37.9615Z" stroke="#17154B" stroke-width="1.5" stroke-miterlimit="10" stroke-linecap="round" stroke-linejoin="round"/>
<path d="M24.6345 16.5496C23.7945 15.7661 22.4699 15.3461 20.9999 15.3461C18.8353 15.3461 16.9614 16.6384 16.9614 18.173C16.9614 19.7076 18.8353 21 20.9999 21C23.1645 21 25.0383 22.2923 25.0383 23.8269C25.0383 25.3615 23.1645 26.6538 20.9999 26.6538C19.5299 26.6538 18.2053 26.2338 17.3653 25.4503M20.9999 12.9473V29.0527" stroke="#00B2C8" stroke-width="1.5" stroke-miterlimit="10" stroke-linecap="round" stroke-linejoin="round"/>
</svg>
