<svg width="43" height="42" viewBox="0 0 43 42" fill="none" xmlns="http://www.w3.org/2000/svg">
<path d="M33.5961 8.86035C40.2999 15.5642 40.2999 26.4357 33.5961 33.1477M9.73687 33.1719C3.03302 26.468 3.03302 15.5965 9.73687 8.88458M25.3011 16.5496C24.4611 15.7661 23.1365 15.3461 21.6665 15.3461C19.5019 15.3461 17.628 16.6384 17.628 18.173C17.628 19.7077 19.5019 21 21.6665 21C23.8311 21 25.7049 22.2923 25.7049 23.8269C25.7049 25.3615 23.8311 26.6538 21.6665 26.6538C20.1965 26.6538 18.8719 26.2338 18.0319 25.4504M21.6665 12.9473V29.0527" stroke="#17154B" stroke-width="1.5" stroke-miterlimit="10" stroke-linecap="round" stroke-linejoin="round"/>
<path d="M33.782 21C33.782 27.6877 28.3543 33.1154 21.6667 33.1154M9.55127 21C9.55127 14.3123 14.979 8.88464 21.6667 8.88464" stroke="#17154B" stroke-width="1.5" stroke-miterlimit="10" stroke-linecap="round" stroke-linejoin="round"/>
</svg>
