<svg width="42" height="42" viewBox="0 0 42 42" fill="none" xmlns="http://www.w3.org/2000/svg">
<path d="M17.543 25.1899V15.6799" stroke="#00B2C8" stroke-width="1.4" stroke-miterlimit="10" stroke-linecap="round"/>
<path d="M17.6589 29.5989C18.8776 29.5989 20.0843 29.3589 21.2102 28.8925C22.3361 28.4262 23.3591 27.7426 24.2209 26.8809C25.0826 26.0192 25.7661 24.9961 26.2325 23.8702C26.6989 22.7443 26.9389 21.5376 26.9389 20.3189C26.9389 19.1003 26.6989 17.8935 26.2325 16.7676C25.7661 15.6417 25.0826 14.6187 24.2209 13.757C23.3591 12.8953 22.3361 12.2117 21.2102 11.7453C20.0843 11.279 18.8776 11.0389 17.6589 11.0389C15.1977 11.0389 12.8373 12.0167 11.097 13.757C9.35662 15.4973 8.37891 17.8577 8.37891 20.3189C8.37891 22.7802 9.35662 25.1406 11.097 26.8809C12.8373 28.6212 15.1977 29.5989 17.6589 29.5989Z" stroke="black" stroke-width="1.4" stroke-miterlimit="12" stroke-linecap="round" stroke-linejoin="round"/>
<path d="M32.7379 14.4039C34.4779 18.6949 34.2459 23.5669 32.1579 27.7439C30.4179 31.3389 27.4019 34.0069 23.8069 35.5139C21.1389 36.5589 18.2389 37.0229 15.3389 36.5589" stroke="black" stroke-width="1.4" stroke-miterlimit="12" stroke-linecap="round" stroke-linejoin="round"/>
<path d="M17.4256 33.194L10.3506 35.05L15.4536 40.27L17.4256 33.194Z" fill="black"/>
<path d="M1.76676 24.3779C-0.437243 15.6779 5.01476 6.74692 13.7148 4.65992C15.6868 4.19592 17.7748 4.07992 19.8628 4.31192" stroke="black" stroke-width="1.4" stroke-miterlimit="12" stroke-linecap="round" stroke-linejoin="round"/>
<path d="M17.7739 7.67498L24.8499 5.81998L19.7459 0.599976L17.7739 7.67498Z" fill="black"/>
<path d="M14.1787 23.7989H19.3987C20.3257 23.7989 21.1387 22.9869 21.1387 22.0589V21.9429C21.1387 21.0149 20.3257 20.2029 19.3987 20.2029H15.9187C14.9907 20.2029 14.1787 19.3909 14.1787 18.4629V18.3469C14.1787 17.4189 14.9907 16.6069 15.9187 16.6069H21.1387" stroke="#00B2C8" stroke-width="1.4" stroke-miterlimit="10" stroke-linecap="round"/>
<path d="M4.78266 30.5269C5.71066 29.8309 5.94266 28.5549 5.24666 27.7429C4.55066 26.9309 3.27466 26.5829 2.46266 27.2789C1.65066 27.9749 1.30266 29.2509 1.99866 30.0629C2.57866 30.8749 3.85466 31.1069 4.78266 30.5269Z" stroke="black" stroke-width="1.4" stroke-miterlimit="10"/>
<path d="M31.5778 11.271C32.5058 10.575 32.7378 9.29897 32.0418 8.48697C31.3458 7.55897 30.0698 7.32697 29.2578 8.02297C28.3298 8.71897 28.0978 9.99497 28.7938 10.807C29.3738 11.735 30.6498 11.967 31.5778 11.271Z" stroke="#00B2C8" stroke-width="1.4" stroke-miterlimit="10" stroke-linecap="round"/>
</svg>
