<svg width="42" height="42" viewBox="0 0 42 42" fill="none" xmlns="http://www.w3.org/2000/svg">
<path d="M32.9296 8.86035C39.6334 15.5642 39.6334 26.4357 32.9296 33.1477M9.07037 33.1719C2.36652 26.468 2.36652 15.5965 9.07037 8.88458M24.6346 16.5496C23.7946 15.7661 22.47 15.3461 21 15.3461C18.8354 15.3461 16.9615 16.6384 16.9615 18.173C16.9615 19.7077 18.8354 21 21 21C23.1646 21 25.0384 22.2923 25.0384 23.8269C25.0384 25.3615 23.1646 26.6538 21 26.6538C19.53 26.6538 18.2054 26.2338 17.3654 25.4504M21 12.9473V29.0527" stroke="#00B2C8" stroke-width="1.5" stroke-miterlimit="10" stroke-linecap="round" stroke-linejoin="round"/>
<path d="M33.1155 21C33.1155 27.6877 27.6878 33.1154 21.0002 33.1154M8.88477 21C8.88477 14.3123 14.3125 8.88464 21.0002 8.88464" stroke="#17154B" stroke-width="1.5" stroke-miterlimit="10" stroke-linecap="round" stroke-linejoin="round"/>
</svg>
