<svg width="24" height="25" viewBox="0 0 24 25" fill="none" xmlns="http://www.w3.org/2000/svg">
<path d="M5 5.81048C5 5.7648 5.02346 5.60193 5.33434 5.33943C5.64112 5.08039 6.13741 4.80732 6.82795 4.5607C8.20135 4.0702 10.1567 3.75 12.3589 3.75C14.561 3.75 16.5164 4.0702 17.8898 4.5607C18.5803 4.80732 19.0766 5.08039 19.3834 5.33943C19.6943 5.60193 19.7177 5.7648 19.7177 5.81048C19.7177 5.85616 19.6943 6.01904 19.3834 6.28154C19.0766 6.54058 18.5803 6.81365 17.8898 7.06027C16.5164 7.55077 14.561 7.87097 12.3589 7.87097C10.1567 7.87097 8.20135 7.55077 6.82795 7.06027C6.13741 6.81365 5.64112 6.54058 5.33434 6.28154C5.02346 6.01904 5 5.85616 5 5.81048Z" fill="#00B2C8"/>
<path d="M18.4838 13.4332C18.7919 13.3232 19.0866 13.202 19.3627 13.0692C19.5244 12.9915 19.7177 13.1063 19.7177 13.2857V15.2298C19.7177 15.2755 19.6943 15.4384 19.3834 15.7009C19.0766 15.9599 18.5803 16.233 17.8898 16.4796C16.5164 16.9701 14.561 17.2903 12.3589 17.2903C10.1567 17.2903 8.20135 16.9701 6.82795 16.4796C6.13741 16.233 5.64112 15.9599 5.33434 15.7009C5.02346 15.4384 5 15.2755 5 15.2298V13.2857C5 13.1063 5.19339 12.9915 5.35507 13.0692C5.63114 13.202 5.92586 13.3232 6.23394 13.4332C7.84353 14.008 10.0091 14.3468 12.3589 14.3468C14.7086 14.3468 16.8742 14.008 18.4838 13.4332Z" fill="#00B2C8"/>
<g opacity="0.3">
<path d="M18.4838 8.7233C18.7919 8.61327 19.0866 8.49213 19.3627 8.35935C19.5244 8.2816 19.7177 8.3964 19.7177 8.5758V10.52C19.7177 10.5656 19.6943 10.7285 19.3834 10.991C19.0766 11.25 18.5803 11.5231 17.8898 11.7697C16.5164 12.2602 14.561 12.5804 12.3589 12.5804C10.1567 12.5804 8.20135 12.2602 6.82795 11.7697C6.13741 11.5231 5.64112 11.25 5.33434 10.991C5.02346 10.7285 5 10.5656 5 10.52V8.5758C5 8.3964 5.19338 8.2816 5.35507 8.35935C5.63114 8.49213 5.92586 8.61327 6.23394 8.7233C7.84353 9.29815 10.0091 9.63689 12.3589 9.63689C14.7086 9.63689 16.8742 9.29815 18.4838 8.7233Z" fill="#2B3F6C"/>
<path d="M18.4838 18.1427C18.7919 18.0326 19.0866 17.9115 19.3627 17.7787C19.5244 17.701 19.7177 17.8158 19.7177 17.9952V19.9393C19.7177 19.985 19.6943 20.1479 19.3834 20.4104C19.0766 20.6694 18.5803 20.9425 17.8898 21.1891C16.5164 21.6796 14.561 21.9998 12.3589 21.9998C10.1567 21.9998 8.20135 21.6796 6.82795 21.1891C6.13741 20.9425 5.64112 20.6694 5.33434 20.4104C5.02346 20.1479 5 19.985 5 19.9393V17.9952C5 17.8158 5.19339 17.701 5.35507 17.7787C5.63114 17.9115 5.92586 18.0326 6.23394 18.1427C7.84353 18.7175 10.0091 19.0562 12.3589 19.0562C14.7086 19.0562 16.8742 18.7175 18.4838 18.1427Z" fill="#2B3F6C"/>
</g>
</svg>
