<svg width="48" height="48" viewBox="0 0 48 48" fill="none" xmlns="http://www.w3.org/2000/svg">
<rect x="0.5" y="0.5" width="47" height="47" rx="9.5" fill="#F3FBFC"/>
<rect x="0.5" y="0.5" width="47" height="47" rx="9.5" stroke="#E6E6E6"/>
<path d="M37 12H11C10.2044 12 9.44129 12.3161 8.87868 12.8787C8.31607 13.4413 8 14.2044 8 15V33C8 33.7956 8.31607 34.5587 8.87868 35.1213C9.44129 35.6839 10.2044 36 11 36H24V34H11C10.7348 34 10.4804 33.8946 10.2929 33.7071C10.1054 33.5196 10 33.2652 10 33V15.23L23.42 24.81C23.5894 24.9306 23.7921 24.9954 24 24.9954C24.2079 24.9954 24.4106 24.9306 24.58 24.81L38 15.23V25H40V15C40 14.2044 39.6839 13.4413 39.1213 12.8787C38.5587 12.3161 37.7956 12 37 12ZM24 22.77L11.72 14H36.28L24 22.77Z" fill="#303030"/>
<path d="M32.29 26.29L28.29 30.29L29.7 31.7L32 29.41V37H34V29.41L36.29 31.7L37.7 30.29L33.7 26.29C33.5127 26.1037 33.2592 25.9992 32.995 25.9992C32.7309 25.9992 32.4774 26.1037 32.29 26.29Z" fill="#00B2C8"/>
</svg>
