<svg width="40" height="40" viewBox="0 0 40 40" fill="none" xmlns="http://www.w3.org/2000/svg">
<path d="M13.1778 13.1769L20.0009 20M20.0009 20L26.824 26.8231M20.0009 20L13.1778 26.8231M20.0009 20L26.824 13.1769M17.6932 26.9231L19.2317 20.7692L13.0778 22.3077M8.46244 14.6154C10.0945 14.6154 11.6598 13.967 12.8139 12.813C13.9679 11.6589 14.6163 10.0936 14.6163 8.46152C14.6163 6.82942 13.9679 5.26417 12.8139 4.1101C11.6598 2.95603 10.0945 2.30768 8.46244 2.30768C6.83034 2.30768 5.26508 2.95603 4.11101 4.1101C2.95694 5.26417 2.30859 6.82942 2.30859 8.46152C2.30859 10.0936 2.95694 11.6589 4.11101 12.813C5.26508 13.967 6.83034 14.6154 8.46244 14.6154Z" stroke="#17154B" stroke-miterlimit="10" stroke-linecap="round" stroke-linejoin="round"/>
<path d="M8.46214 10.3846C8.97217 10.3846 9.46131 10.182 9.82196 9.82134C10.1826 9.4607 10.3852 8.97156 10.3852 8.46152C10.3852 7.95149 10.1826 7.46235 9.82196 7.1017C9.46131 6.74106 8.97217 6.53845 8.46214 6.53845C7.95211 6.53845 7.46297 6.74106 7.10232 7.1017C6.74167 7.46235 6.53906 7.95149 6.53906 8.46152C6.53906 8.97156 6.74167 9.4607 7.10232 9.82134C7.46297 10.182 7.95211 10.3846 8.46214 10.3846ZM31.5391 14.6154C33.1712 14.6154 34.7364 13.967 35.8905 12.813C37.0446 11.6589 37.6929 10.0936 37.6929 8.46152C37.6929 6.82942 37.0446 5.26417 35.8905 4.1101C34.7364 2.95603 33.1712 2.30768 31.5391 2.30768C29.907 2.30768 28.3417 2.95603 27.1876 4.1101C26.0336 5.26417 25.3852 6.82942 25.3852 8.46152C25.3852 10.0936 26.0336 11.6589 27.1876 12.813C28.3417 13.967 29.907 14.6154 31.5391 14.6154Z" stroke="#00B2C8" stroke-miterlimit="10" stroke-linecap="round" stroke-linejoin="round"/>
<path d="M31.5386 10.3846C32.0486 10.3846 32.5378 10.182 32.8984 9.82135C33.2591 9.4607 33.4617 8.97156 33.4617 8.46153C33.4617 7.9515 33.2591 7.46236 32.8984 7.10171C32.5378 6.74106 32.0486 6.53845 31.5386 6.53845C31.0286 6.53845 30.5394 6.74106 30.1788 7.10171C29.8181 7.46236 29.6155 7.9515 29.6155 8.46153C29.6155 8.97156 29.8181 9.4607 30.1788 9.82135C30.5394 10.182 31.0286 10.3846 31.5386 10.3846ZM31.5386 37.6923C33.1707 37.6923 34.736 37.0439 35.89 35.8899C37.0441 34.7358 37.6925 33.1706 37.6925 31.5385C37.6925 29.9064 37.0441 28.3411 35.89 27.187C34.736 26.033 33.1707 25.3846 31.5386 25.3846C29.9065 25.3846 28.3413 26.033 27.1872 27.187C26.0331 28.3411 25.3848 29.9064 25.3848 31.5385C25.3848 33.1706 26.0331 34.7358 27.1872 35.8899C28.3413 37.0439 29.9065 37.6923 31.5386 37.6923Z" stroke="#17154B" stroke-miterlimit="10" stroke-linecap="round" stroke-linejoin="round"/>
<path d="M31.5394 33.4616C32.0494 33.4616 32.5385 33.259 32.8992 32.8983C33.2598 32.5377 33.4624 32.0485 33.4624 31.5385C33.4624 31.0285 33.2598 30.5393 32.8992 30.1787C32.5385 29.818 32.0494 29.6154 31.5394 29.6154C31.0293 29.6154 30.5402 29.818 30.1795 30.1787C29.8189 30.5393 29.6163 31.0285 29.6163 31.5385C29.6163 32.0485 29.8189 32.5377 30.1795 32.8983C30.5402 33.259 31.0293 33.4616 31.5394 33.4616ZM8.46244 37.6923C10.0945 37.6923 11.6598 37.044 12.8139 35.8899C13.9679 34.7358 14.6163 33.1706 14.6163 31.5385C14.6163 29.9064 13.9679 28.3411 12.8139 27.1871C11.6598 26.033 10.0945 25.3846 8.46244 25.3846C6.83034 25.3846 5.26508 26.033 4.11101 27.1871C2.95694 28.3411 2.30859 29.9064 2.30859 31.5385C2.30859 33.1706 2.95694 34.7358 4.11101 35.8899C5.26508 37.044 6.83034 37.6923 8.46244 37.6923Z" stroke="#17154B" stroke-miterlimit="10" stroke-linecap="round" stroke-linejoin="round"/>
<path d="M8.46079 31.9231C8.56279 31.9231 8.66062 31.8826 8.73275 31.8104C8.80488 31.7383 8.8454 31.6405 8.8454 31.5385C8.8454 31.4365 8.80488 31.3386 8.73275 31.2665C8.66062 31.1944 8.56279 31.1539 8.46079 31.1539C8.35878 31.1539 8.26095 31.1944 8.18882 31.2665C8.11669 31.3386 8.07617 31.4365 8.07617 31.5385C8.07617 31.6405 8.11669 31.7383 8.18882 31.8104C8.26095 31.8826 8.35878 31.9231 8.46079 31.9231Z" stroke="#00B2C8" stroke-miterlimit="10" stroke-linecap="round" stroke-linejoin="round"/>
</svg>
