<svg width="24" height="25" viewBox="0 0 24 25" fill="none" xmlns="http://www.w3.org/2000/svg">
<path opacity="0.4" d="M22 8.81V17.19C22 20.83 19.83 23 16.19 23H7.81C7.61 23 7.41 22.99 7.22 22.98C5.99 22.9 4.95 22.55 4.13 21.95C3.71 21.66 3.34 21.29 3.05 20.87C2.36 19.92 2 18.68 2 17.19V8.81C2 5.37 3.94 3.24 7.22 3.03C7.41 3.01 7.61 3 7.81 3H16.19C17.68 3 18.92 3.36 19.87 4.05C20.29 4.34 20.66 4.71 20.95 5.13C21.64 6.08 22 7.32 22 8.81Z" fill="#A9ABAD"/>
<path d="M8.16 7.65002H15.83C16.47 7.65002 16.99 8.17002 16.99 8.81002V10.09C16.99 10.56 16.7 11.14 16.41 11.43L13.91 13.64C13.56 13.93 13.33 14.51 13.33 14.98V17.48C13.33 17.83 13.1 18.29 12.81 18.47L12 18.98C11.24 19.45 10.2 18.92 10.2 17.99V14.91C10.2 14.5 9.97 13.98 9.73 13.69L7.52 11.36C7.23 11.08 7 10.55 7 10.2V8.87002C7 8.17002 7.52 7.65002 8.16 7.65002Z" fill="#00B2C8"/>
</svg>
