<svg width="104" height="45" viewBox="0 0 104 45" fill="none" xmlns="http://www.w3.org/2000/svg">
<g clip-path="url(#clip0_101_2587)">
<path fill-rule="evenodd" clip-rule="evenodd" d="M91.1653 22.3583L103.484 44.2907L89.2957 44.3153L84.0849 35.0078L78.8751 44.3153L64.6881 44.2907L77.0065 22.3583L64.6881 0.350098H78.8042L84.0849 9.75382L89.3676 0.350098H103.484L91.1653 22.3583ZM49.4578 0.364423C61.4644 0.364423 71.1982 10.1979 71.1982 22.3276C71.1982 34.4573 61.4644 44.2907 49.4578 44.2907C37.4503 44.2907 27.7175 34.4573 27.7175 22.3276C27.7175 10.1979 37.4503 0.364423 49.4578 0.364423ZM53.2659 13.2974C53.2659 11.2396 51.5006 9.3967 49.5176 9.3967C47.5325 9.3967 45.9283 11.2396 45.9283 13.2974L45.9242 31.2893C45.9242 33.3491 47.5325 35.017 49.5166 35.017C51.5006 35.017 53.2659 33.4013 53.2659 31.3425V13.2974ZM0.501953 44.2907V0.350098H27.5463L28.3434 12.3355H13.6671V18.0862H25.6362V30.1094H13.6671V44.2907H0.501953Z" fill="#C5C5C5"/>
</g>
<defs>
<clipPath id="clip0_101_2587">
<rect width="103" height="44" fill="white" transform="translate(0.5 0.350098)"/>
</clipPath>
</defs>
</svg>
