<svg width="180" height="180" viewBox="0 0 180 180" fill="none" xmlns="http://www.w3.org/2000/svg">
<path d="M139.149 65.7738C153.443 65.7738 165.031 54.1858 165.031 39.8908C165.031 25.5968 153.443 14.0088 139.149 14.0088C124.854 14.0088 113.266 25.5968 113.266 39.8908C113.266 54.1858 124.854 65.7738 139.149 65.7738Z" fill="#F7FDFD" stroke="#31326F" stroke-width="1.666" stroke-miterlimit="10" stroke-linecap="round"/>
<path d="M161.533 83.9668C161.533 111.757 144.472 135.565 120.256 145.495" stroke="#31326F" stroke-width="1.666" stroke-miterlimit="10" stroke-linecap="round"/>
<path d="M155.719 85.6667L161.533 75.5947L167.348 85.6667H155.719Z" fill="#31326F"/>
<path d="M31.7949 63.1908C40.6169 36.8338 64.3579 19.6738 90.4749 17.9578M139.24 32.9098V47.0798M146.321 39.9908H132.151" stroke="#31326F" stroke-width="1.666" stroke-miterlimit="10" stroke-linecap="round"/>
<path fill-rule="evenodd" clip-rule="evenodd" d="M73.6831 56.7668C46.0731 56.7668 23.6831 79.1568 23.6831 106.767C23.6831 134.385 46.0731 156.767 73.6831 156.767C101.3 156.767 123.682 134.385 123.682 106.767C123.682 79.1568 101.301 56.7668 73.6831 56.7668ZM73.6831 136.77C57.1131 136.77 43.6881 123.336 43.6881 106.767C43.6881 90.1968 57.1131 76.7718 73.6831 76.7718C90.2521 76.7718 103.686 90.1978 103.686 106.767C103.686 123.336 90.2531 136.77 73.6831 136.77Z" fill="#00B2C8"/>
<path d="M72.863 103.525C76.599 103.525 79.627 100.351 79.627 96.4359C79.627 92.5209 76.599 89.3479 72.863 89.3479C69.127 89.3479 66.1 92.5209 66.1 96.4359C66.1 100.351 69.127 103.525 72.863 103.525ZM72.863 107.146C64.972 107.146 58.583 113.081 58.583 120.409C58.583 120.409 64.861 122.33 72.863 122.33C80.865 122.33 87.143 120.409 87.143 120.409C87.143 113.09 80.746 107.146 72.863 107.146Z" fill="#31326F"/>
</svg>
