<svg width="25" height="25" viewBox="0 0 25 25" fill="none" xmlns="http://www.w3.org/2000/svg">
<path opacity="0.4" d="M20.1719 10.25V18.25C20.1719 21.25 19.1719 22.25 16.1719 22.25H8.17187C5.17187 22.25 4.17188 21.25 4.17188 18.25V10.25H20.1719Z" fill="#747986"/>
<path d="M21.6953 7.25V8.25C21.6953 9.35 21.1653 10.25 19.6953 10.25H4.69531C3.16531 10.25 2.69531 9.35 2.69531 8.25V7.25C2.69531 6.15 3.16531 5.25 4.69531 5.25H19.6953C21.1653 5.25 21.6953 6.15 21.6953 7.25Z" fill="#00B2C8"/>
<path opacity="0.4" d="M11.838 5.24994H6.31803C5.97803 4.87994 5.98803 4.30994 6.34803 3.94994L7.76803 2.52994C8.13803 2.15994 8.74803 2.15994 9.11803 2.52994L11.838 5.24994Z" fill="#00B2C8"/>
<path opacity="0.4" d="M18.0669 5.24994H12.5469L15.2669 2.52994C15.6369 2.15994 16.2469 2.15994 16.6169 2.52994L18.0369 3.94994C18.3969 4.30994 18.4069 4.87994 18.0669 5.24994Z" fill="#00B2C8"/>
<path opacity="0.6" d="M9.14062 10.25V15.39C9.14062 16.19 10.0206 16.66 10.6906 16.23L11.6306 15.61C11.9706 15.39 12.4006 15.39 12.7306 15.61L13.6206 16.21C14.2806 16.65 15.1706 16.18 15.1706 15.38V10.25H9.14062Z" fill="#E4FAFC"/>
</svg>
