<svg width="20" height="21" viewBox="0 0 20 21" fill="none" xmlns="http://www.w3.org/2000/svg">
<path d="M10 0.963379C4.48 0.963379 0 5.44338 0 10.9634C0 16.4834 4.48 20.9634 10 20.9634C15.52 20.9634 20 16.4834 20 10.9634C20 5.44338 15.52 0.963379 10 0.963379ZM17.46 8.08338L14.68 9.23338C14.17 7.87338 13.1 6.79338 11.73 6.29338L12.88 3.51338C14.98 4.31338 16.65 5.98338 17.46 8.08338ZM10 13.9634C8.34 13.9634 7 12.6234 7 10.9634C7 9.30338 8.34 7.96338 10 7.96338C11.66 7.96338 13 9.30338 13 10.9634C13 12.6234 11.66 13.9634 10 13.9634ZM7.13 3.50338L8.3 6.28338C6.92 6.78338 5.83 7.87338 5.32 9.25338L2.54 8.09338C3.35 5.98338 5.02 4.31338 7.13 3.50338ZM2.54 13.8334L5.32 12.6834C5.83 14.0634 6.91 15.1434 8.29 15.6434L7.12 18.4234C5.02 17.6134 3.35 15.9434 2.54 13.8334ZM12.88 18.4234L11.73 15.6434C13.1 15.1334 14.18 14.0534 14.68 12.6734L17.46 13.8434C16.65 15.9434 14.98 17.6134 12.88 18.4234Z" fill="#00B2C8"
/>
</svg>
