<svg width="42" height="41" viewBox="0 0 42 41" fill="none" xmlns="http://www.w3.org/2000/svg">
<path d="M21 39.2136C22.9229 39.2136 24.827 38.8348 26.6036 38.0989C28.3801 37.3631 29.9943 36.2845 31.3541 34.9248C32.7138 33.565 33.7924 31.9508 34.5282 30.1743C35.2641 28.3977 35.6429 26.4936 35.6429 24.5707V16.4293C35.6431 12.8321 34.3191 9.36064 31.9236 6.67712" stroke="#000001" stroke-width="2" stroke-linecap="round" stroke-linejoin="round"/>
<path d="M6.35742 19.6801V24.5708C6.35644 27.4533 7.20628 30.2721 8.80042 32.6737C10.3946 35.0753 12.6621 36.953 15.3189 38.0715" stroke="#000001" stroke-width="2" stroke-linecap="round" stroke-linejoin="round"/>
<path d="M28.3218 3.74861C24.9587 1.80693 20.9619 1.28074 17.2108 2.2858C13.4597 3.29085 10.2615 5.74482 8.31968 9.10789C7.52011 10.4888 6.95597 11.9932 6.65039 13.5593" stroke="#000001" stroke-width="2" stroke-linecap="round" stroke-linejoin="round"/>
<path d="M19.4775 10.2793C20.5547 10.0557 21.6682 10.0767 22.7362 10.3408C23.8041 10.6048 24.7991 11.1052 25.6479 11.805C26.4967 12.5049 27.1776 13.3863 27.6404 14.3843C28.1032 15.3823 28.336 16.4715 28.3218 17.5715V22.2865" stroke="#00B2C8" stroke-width="2" stroke-linecap="round" stroke-linejoin="round"/>
<path d="M26.4472 28.4365C25.4508 29.5464 24.1391 30.3256 22.6877 30.6696C21.2364 31.0136 19.7145 30.9061 18.3259 30.3615C16.9373 29.8169 15.7482 28.8611 14.9177 27.6221C14.0871 26.3832 13.6549 24.9201 13.6787 23.4287V17.5715C13.6731 16.5657 13.8724 15.5693 14.2644 14.6429" stroke="#00B2C8" stroke-width="2" stroke-linecap="round" stroke-linejoin="round"/>
<path d="M21 17.8936V22.7843" stroke="#00B2C8" stroke-width="2" stroke-linecap="round" stroke-linejoin="round"/>
</svg>
