<svg width="180" height="180" viewBox="0 0 180 180" fill="none" xmlns="http://www.w3.org/2000/svg">
<path d="M89.794 91.2268V151.863M41.115 151.863V134.782C41.1155 133.649 41.5656 132.564 42.3662 131.763C43.1669 130.962 44.2527 130.512 45.385 130.512H135.058C136.19 130.512 137.276 130.962 138.077 131.763C138.877 132.564 139.327 133.649 139.328 134.782V151.863" stroke="#31326F" stroke-width="1.617" stroke-miterlimit="10" stroke-linecap="round"/>
<path d="M41.115 159.549C42.1348 159.565 43.1476 159.378 44.0945 159C45.0414 158.621 45.9035 158.057 46.6304 157.342C47.3573 156.626 47.9346 155.773 48.3287 154.833C48.7227 153.892 48.9256 152.882 48.9255 151.862C48.9255 150.842 48.7224 149.833 48.3283 148.892C47.9341 147.951 47.3567 147.099 46.6297 146.383C45.9027 145.668 45.0406 145.104 44.0936 144.726C43.1467 144.347 42.1338 144.16 41.114 144.177C39.0971 144.209 37.1737 145.033 35.7588 146.471C34.344 147.909 33.551 149.846 33.551 151.863C33.551 153.88 34.344 155.816 35.7588 157.254C37.1737 158.692 39.0971 159.516 41.114 159.549H41.115ZM89.794 159.549C90.8138 159.565 91.8267 159.378 92.7736 159C93.7205 158.621 94.5825 158.057 95.3094 157.342C96.0363 156.626 96.6136 155.773 97.0077 154.833C97.4017 153.892 97.6046 152.882 97.6045 151.862C97.6045 150.842 97.4014 149.833 97.0073 148.892C96.6131 147.951 96.0357 147.099 95.3087 146.383C94.5817 145.668 93.7196 145.104 92.7726 144.726C91.8257 144.347 90.8128 144.16 89.793 144.177C87.7761 144.209 85.8527 145.034 84.438 146.472C83.0232 147.91 82.2304 149.846 82.2305 151.863C82.2307 153.881 83.0237 155.817 84.4387 157.255C85.8536 158.692 87.7771 159.516 89.794 159.549ZM138.473 159.549C139.49 159.56 140.499 159.37 141.442 158.989C142.384 158.608 143.242 158.044 143.965 157.329C144.688 156.614 145.262 155.763 145.654 154.824C146.046 153.886 146.248 152.879 146.248 151.862C146.248 150.845 146.046 149.839 145.654 148.9C145.262 147.962 144.688 147.111 143.965 146.396C143.242 145.681 142.384 145.117 141.442 144.736C140.499 144.354 139.49 144.164 138.473 144.176C136.45 144.199 134.517 145.019 133.094 146.458C131.672 147.897 130.874 149.839 130.874 151.862C130.874 153.886 131.672 155.828 133.094 157.267C134.517 158.706 136.45 159.526 138.473 159.549Z" fill="#31326F"/>
<path fill-rule="evenodd" clip-rule="evenodd" d="M89.7939 10.0088C62.1839 10.0088 39.7939 32.3988 39.7939 60.0088C39.7939 87.6268 62.1839 110.009 89.7939 110.009C117.412 110.009 139.794 87.6268 139.794 60.0088C139.794 32.3988 117.412 10.0088 89.7939 10.0088ZM89.7939 90.0118C73.2239 90.0118 59.7989 76.5778 59.7989 60.0088C59.7989 43.4388 73.2249 30.0138 89.7939 30.0138C106.363 30.0138 119.797 43.4398 119.797 60.0088C119.797 76.5788 106.363 90.0118 89.7939 90.0118Z" fill="#00B2C8"/>
<path d="M88.9741 56.7668C92.7101 56.7668 95.7381 53.5928 95.7381 49.6778C95.7381 45.7638 92.7101 42.5898 88.9741 42.5898C85.2391 42.5898 82.2101 45.7628 82.2101 49.6778C82.2101 53.5928 85.2391 56.7668 88.9741 56.7668ZM88.9741 60.3878C81.0841 60.3878 74.6951 66.3228 74.6951 73.6508C74.6951 73.6508 80.9721 75.5718 88.9751 75.5718C96.9771 75.5718 103.254 73.6508 103.254 73.6508C103.254 66.3308 96.8571 60.3878 88.9741 60.3878Z" fill="#31326F"/>
<path d="M46.5629 105.387C34.2649 93.7887 26.5959 77.3397 26.5959 59.0977C26.5959 42.0347 33.3089 26.5427 44.2399 15.1157M137.124 16.1147C147.508 27.4397 153.845 42.5297 153.845 59.1067C153.845 76.8787 146.56 92.9517 134.8 104.498" stroke="#31326F" stroke-width="1.617" stroke-miterlimit="10" stroke-linecap="round"/>
</svg>
