<svg width="61" height="60" viewBox="0 0 61 60" fill="none" xmlns="http://www.w3.org/2000/svg">
<path d="M49.8057 37.3251C44.6557 42.4501 37.2807 44.025 30.8057 42L19.0307 53.75C18.1807 54.625 16.5057 55.15 15.3057 54.975L9.85569 54.2251C8.05569 53.9751 6.38069 52.2751 6.10569 50.4751L5.35569 45.0251C5.18069 43.8251 5.75569 42.1501 6.58069 41.3001L18.3307 29.55C16.3307 23.05 17.8807 15.675 23.0307 10.55C30.4057 3.17505 42.3807 3.17505 49.7807 10.55C57.1807 17.925 57.1807 29.9501 49.8057 37.3251Z" stroke="#292D32" stroke-width="3" stroke-miterlimit="10" stroke-linecap="round" stroke-linejoin="round"/>
<path d="M17.5586 43.725L23.3086 49.475" stroke="#292D32" stroke-width="3" stroke-miterlimit="10" stroke-linecap="round" stroke-linejoin="round"/>
<path d="M36.582 27.5C38.6531 27.5 40.332 25.8211 40.332 23.75C40.332 21.6789 38.6531 20 36.582 20C34.511 20 32.832 21.6789 32.832 23.75C32.832 25.8211 34.511 27.5 36.582 27.5Z" stroke="#00B2C8" stroke-width="3" stroke-linecap="round" stroke-linejoin="round"/>
</svg>
