<svg width="1200" height="449" viewBox="0 0 1200 449" fill="none" xmlns="http://www.w3.org/2000/svg">
<path opacity="0.0507143" d="M89.2456 488.247L182.731 112.008L512.639 60.7521L732.64 249.429L1092.53 145.106" stroke="white"/>
<path opacity="0.101429" d="M58.5641 485.904L167.714 135.704L485.868 102.714L686.327 290.717L1035.93 209.112" stroke="white"/>
<path opacity="0.152143" d="M29.5637 482.21L151.994 158.715L457.518 142.603L639.167 328.354L977.254 268.095" stroke="white"/>
<path opacity="0.202857" d="M2.31887 477.308L135.626 180.997L427.754 180.33L591.43 362.33L916.867 321.971" stroke="white"/>
<path opacity="0.253571" d="M-23.1066 471.348L118.671 202.512L396.748 215.819L543.381 392.65L855.156 370.683" stroke="white"/>
<path opacity="0.304286" d="M-46.6585 464.48L101.191 223.226L364.673 249.007L495.285 419.34L792.505 414.198" stroke="white"/>
<path opacity="0.355" d="M-68.2936 456.86L83.2483 243.109L331.705 279.841L447.401 442.444L729.295 452.515" stroke="white"/>
<path opacity="0.405714" d="M-87.9788 448.646L64.9076 262.136L298.024 308.285L399.982 462.027L665.903 485.658" stroke="white"/>
<path opacity="0.456429" d="M-105.693 439.997L46.234 280.288L263.806 334.311L353.277 478.167L602.702 513.677" stroke="white"/>
<path opacity="0.507143" d="M-121.423 431.073L27.2941 297.548L229.232 357.908L307.525 490.963L540.059 536.649" stroke="white"/>
<path opacity="0.557857" d="M-135.17 422.035L8.15492 313.906L194.481 379.075L262.959 500.53L478.331 554.678" stroke="white"/>
<path opacity="0.608571" d="M-146.943 413.042L-11.1171 329.357L159.727 397.826L219.799 506.998L417.868 567.893" stroke="white"/>
<path opacity="0.659286" d="M-156.762 404.253L-30.455 343.898L125.148 414.185L178.259 510.514L359.005 576.445" stroke="white"/>
<path opacity="0.71" d="M-164.66 395.826L-49.7923 357.534L90.9135 428.192L138.538 511.238L302.067 580.512" stroke="white"/>
</svg>
