<svg width="40" height="34" viewBox="0 0 40 34" fill="none" xmlns="http://www.w3.org/2000/svg">
<g clip-path="url(#clip0_392_18298)">
<path d="M39.5005 16.5755C39.5005 17.0155 39.4638 17.2172 39.3904 17.5289C39.2988 17.9323 39.1521 18.299 38.9687 18.6474C38.2353 19.9859 37.2635 20.7743 35.2649 20.7743H18.0477C17.846 20.7743 17.6443 20.6643 17.5526 20.4993L15.2423 16.7405C15.1323 16.5755 15.1507 16.3554 15.2423 16.1904L17.516 12.6516C17.626 12.4866 17.8093 12.3766 18.0294 12.3766H27.7289C28.114 12.3766 28.3524 11.9549 28.1507 11.6248L26.0604 8.23272C25.9137 7.99436 25.712 7.79267 25.4553 7.66432C25.217 7.53597 24.9419 7.46262 24.6669 7.46262H5.68945L8.65983 2.78702L9.55828 1.37518C9.79665 1.00846 10.1084 0.696756 10.4751 0.476728L10.5301 0.440056C11.0251 0.146685 11.5569 0 12.1253 0H27.9673C28.0407 0 28.0957 0 28.169 0C29.3975 0.0550071 30.4976 0.770099 31.1394 1.81523L31.6344 2.622L34.4398 7.20592L37.6119 12.3766C38.5103 13.7518 39.5005 14.9252 39.5005 16.5755Z" fill="#00B2C8"/>
<path d="M34.3293 25.7983C34.3293 25.7983 32.6241 28.9887 31.9824 29.9972C31.359 30.969 29.9288 33.2793 27.7652 33.2609C25.6016 33.2426 19.1474 33.2609 19.1474 33.2609H13.0049C11.1714 33.2609 10.2179 33.0592 8.64104 30.7489C8.42102 30.4372 8.20099 30.0705 8.01763 29.7771L4.36883 23.8364L2.49859 20.7927L1.85684 19.7475L0.976728 18.3173C0.665021 17.7856 0.5 17.1989 0.5 16.5938V16.5755C0.5 16.1171 0.573343 15.677 0.701693 15.2736C0.940056 14.5402 1.34344 13.8984 1.91185 13.385C2.26023 13.055 2.68195 12.7983 3.122 12.6333C3.56206 12.4683 4.03879 12.3766 4.51551 12.3766H11.7214C11.7214 12.3766 9.81453 15.292 9.17278 16.2638C9.04443 16.4838 9.02609 16.7588 9.17278 16.9605C9.75952 17.914 11.5197 20.7743 11.5197 20.7743L14.0867 24.9549C14.3984 25.4683 14.9669 25.78 15.5719 25.78H34.3293V25.7983Z" fill="#00B2C8"/>
</g>
<defs>
<clipPath id="clip0_392_18298">
<rect width="39" height="33.2609" fill="white" transform="translate(0.5)"/>
</clipPath>
</defs>
</svg>
