<svg width="121" height="61" viewBox="0 0 121 61" fill="none" xmlns="http://www.w3.org/2000/svg">
<path d="M33.0602 29.1179L32.8882 30.0059H32.8582C32.6282 29.4899 31.9702 28.8029 30.5662 28.8029C28.2742 28.8029 25.9532 30.5789 25.4382 33.3579C24.9802 35.7929 26.1832 37.9419 28.8762 37.9419C29.8792 37.9419 31.0262 37.5419 31.5982 36.7099H31.6282L31.4562 37.6269H33.9762L35.5522 29.0889H33.0602V29.1179ZM32.2582 33.3579C32.0862 34.1879 31.3132 35.5639 29.7082 35.5639C28.1612 35.5639 27.8462 34.1889 27.9882 33.4139C28.1602 32.4399 29.0482 31.2079 30.5082 31.2079C31.9412 31.2079 32.4282 32.3539 32.2562 33.3579H32.2582ZM37.0142 29.1179H39.3922L39.2202 30.0059H39.2502C39.5652 29.6059 40.1382 28.8029 41.6282 28.8029L41.1702 31.3829C39.9672 31.4129 39.0702 31.6409 38.8782 32.9589L37.9902 37.6589H35.3902L37.0142 29.1179ZM43.3462 25.7659H45.9262L44.7232 32.2119H44.7802L47.7302 29.1179H50.7382L46.8132 32.8709L49.0762 37.6559H46.1822L44.5202 33.5299H44.5002L43.7262 37.6559H41.1762L43.3462 25.7659ZM54.8462 28.8029C52.2662 28.8029 49.9462 31.0379 49.5162 33.4159C49.0582 35.9359 50.7482 37.9429 53.2122 37.9429C54.1288 37.9386 55.0247 37.6699 55.7922 37.1689C56.5942 36.6819 57.3392 35.9369 57.9422 34.9919H55.3352C54.9052 35.4499 54.4182 35.7939 53.6152 35.7939C52.6122 35.7939 51.8952 35.1919 51.9152 34.1899H58.3152C58.4012 33.9899 58.4302 33.8459 58.4872 33.5299C58.9742 30.8939 57.4562 28.8029 54.8462 28.8029ZM52.2662 32.4429C52.4662 31.9269 53.1542 30.9829 54.5012 30.9829C55.8192 30.9829 56.1632 31.9279 56.1632 32.4429H52.2662ZM21.6582 37.6559H24.2082V25.7559H22.0302L17.5032 32.5159H17.4732V25.7559H15.2962L7.30322 37.6559H10.3972L14.8952 30.8959H14.9252V37.6559H17.1312L21.6012 30.8959H21.6582V37.6559ZM64.9782 29.1179H63.3742L63.8322 26.5979H61.5972L61.4252 27.5719C61.2252 28.6889 60.5372 29.0319 59.5912 29.1189H59.5612L59.1612 31.0389H60.4212L59.1892 37.6389H61.7392L62.9712 31.0389H64.6042L64.9782 29.1179Z" fill="#C5C5C5"/>
<path d="M104.514 34.42C103.684 36.368 101.678 37.944 99.3861 37.944C96.8061 37.944 95.1741 35.91 95.6611 33.36C96.1191 30.84 98.4411 28.805 101.019 28.805C103.282 28.805 104.819 30.323 104.859 32.405H102.279C102.107 31.803 101.735 31.202 100.646 31.202C99.4431 31.145 98.4401 32.147 98.2111 33.352C97.9811 34.584 98.6111 35.529 99.8441 35.529C100.904 35.529 101.544 34.927 101.907 34.383H104.514V34.42ZM83.3141 22.73L78.3581 25.767H79.7621L75.2641 32.527H75.2071V25.767H73.0001L68.5001 32.528H68.4701V25.768H65.8901V37.668H68.1251L72.6231 30.908H72.6531V37.668H74.8591L82.8241 25.768H84.0841L83.3141 22.73ZM88.1841 37.657H85.6641L85.8361 36.74H85.8061C85.2041 37.57 84.0861 37.972 83.0841 37.972C80.3621 37.972 79.1881 35.822 79.6461 33.388C80.1621 30.608 82.5111 28.833 84.7741 28.833C86.1781 28.833 86.8371 29.521 87.0661 30.036H87.0961L87.2681 29.148H89.7881L88.1841 37.657ZM83.8861 35.567C85.4621 35.567 86.2641 34.192 86.4361 33.361C86.6081 32.331 86.1211 31.211 84.6881 31.211C83.2281 31.211 82.3381 32.443 82.1681 33.417C81.9961 34.219 82.3401 35.567 83.8881 35.567H83.8861ZM96.1761 29.121H94.5721L95.0301 26.601H92.7951L92.6231 27.575C92.4231 28.692 91.7351 29.035 90.7891 29.122H90.7591L90.3871 31.042H91.6471L90.4151 37.642H92.9651L94.1971 31.042H95.8301L96.1761 29.121ZM106.92 25.769H109.47L108.696 30.009H108.726C109.27 29.207 110.016 28.806 111.133 28.806C111.935 28.806 112.853 29.121 113.283 29.751C113.827 30.581 113.77 31.327 113.483 32.874L112.595 37.63H110.045L110.905 32.99C110.991 32.59 111.22 31.185 109.875 31.185C108.442 31.185 108.213 32.475 108.127 32.905L107.239 37.632H104.719L106.92 25.769Z" fill="#C5C5C5"/>
</svg>
