<svg width="92" height="92" viewBox="0 0 92 92" fill="none" xmlns="http://www.w3.org/2000/svg">
<path d="M35.5438 35.5438L56.3676 56.6153M22.9999 40.6922C13.2338 40.6922 5.30762 32.7661 5.30762 22.9999C5.30762 13.2338 13.2338 5.30762 22.9999 5.30762C32.7661 5.30762 40.6922 13.2338 40.6922 22.9999C40.6922 32.7661 32.7661 40.6922 22.9999 40.6922ZM78.0053 37.1538H59.9945C57.1461 37.1538 54.8461 34.8538 54.8461 32.0053V13.9945C54.8461 11.1461 57.1461 8.84608 59.9945 8.84608H78.0053C80.8538 8.84608 83.1538 11.1461 83.1538 13.9945V32.0053C83.1538 34.8538 80.8538 37.1538 78.0053 37.1538ZM32.0053 83.1538H13.9945C11.1461 83.1538 8.84608 80.8538 8.84608 78.0053V59.9945C8.84608 57.1461 11.1461 54.8461 13.9945 54.8461H32.0053C34.8538 54.8461 37.1538 57.1461 37.1538 59.9945V78.0053C37.1538 80.8538 34.8538 83.1538 32.0053 83.1538ZM68.9999 86.6922C59.2338 86.6922 51.3076 78.7661 51.3076 68.9999C51.3076 59.2338 59.2338 51.3076 68.9999 51.3076C78.7661 51.3076 86.6922 59.2338 86.6922 68.9999C86.6922 78.7661 78.7661 86.6922 68.9999 86.6922Z" stroke="#17154B" stroke-width="2" stroke-miterlimit="10" stroke-linecap="round" stroke-linejoin="round"/>
<path d="M14.7202 67.2484L21.8148 74.343L31.3333 64.8246M62.6841 16.3123L75.2633 28.8738M62.6841 29.2099L75.2633 16.6307M23.0179 23.6369C23.2525 23.6369 23.4775 23.5437 23.6434 23.3778C23.8093 23.2119 23.9025 22.9869 23.9025 22.7523C23.9025 22.5176 23.8093 22.2926 23.6434 22.1267C23.4775 21.9608 23.2525 21.8676 23.0179 21.8676C22.7833 21.8676 22.5583 21.9608 22.3924 22.1267C22.2265 22.2926 22.1333 22.5176 22.1333 22.7523C22.1333 22.9869 22.2265 23.2119 22.3924 23.3778C22.5583 23.5437 22.7833 23.6369 23.0179 23.6369ZM68.9825 73.4761C70.1556 73.4761 71.2806 73.0101 72.1101 72.1806C72.9396 71.3511 73.4056 70.2261 73.4056 69.053C73.4056 67.8799 72.9396 66.7549 72.1101 65.9254C71.2806 65.096 70.1556 64.6299 68.9825 64.6299C67.8095 64.6299 66.6844 65.096 65.8549 65.9254C65.0254 66.7549 64.5594 67.8799 64.5594 69.053C64.5594 70.2261 65.0254 71.3511 65.8549 72.1806C66.6844 73.0101 67.8095 73.4761 68.9825 73.4761Z" stroke="#00B2C8" stroke-width="1.5" stroke-miterlimit="10" stroke-linecap="round" stroke-linejoin="round"/>
</svg>
