<svg width="42" height="42" viewBox="0 0 42 42" fill="none" xmlns="http://www.w3.org/2000/svg">
<path d="M7.26901 12.9231V30.6923H12.1152M34.7305 12.9231V30.6923H29.8844M20.9998 13.0523V21.3716M12.1152 2.4231H2.42285V12.9231H12.1152V2.4231ZM25.8459 2.4231H16.1536V12.9231H25.8459V2.4231ZM39.5767 2.4231H29.8844V12.9231H39.5767V2.4231ZM29.8844 21.8077H12.1152V39.5769H29.8844V21.8077Z" stroke="#17154B" stroke-width="1.5" stroke-miterlimit="10" stroke-linecap="round" stroke-linejoin="round"/>
<path d="M25.2322 30.757C25.2322 33.0912 23.3341 34.9893 20.9998 34.9893C18.6656 34.9893 16.7675 33.0912 16.7675 30.757C16.7675 28.4227 18.6656 26.3954 20.9998 26.3954C23.3341 26.3954 25.2322 28.4147 25.2322 30.757ZM7.26908 8.07698C7.37619 8.07698 7.47891 8.03443 7.55464 7.9587C7.63038 7.88296 7.67293 7.78024 7.67293 7.67313C7.67293 7.56603 7.63038 7.46331 7.55464 7.38757C7.47891 7.31183 7.37619 7.26929 7.26908 7.26929C7.16197 7.26929 7.05925 7.31183 6.98352 7.38757C6.90778 7.46331 6.86523 7.56603 6.86523 7.67313C6.86523 7.78024 6.90778 7.88296 6.98352 7.9587C7.05925 8.03443 7.16197 8.07698 7.26908 8.07698ZM20.9998 8.07698C21.107 8.07698 21.2097 8.03443 21.2854 7.9587C21.3611 7.88296 21.4037 7.78024 21.4037 7.67313C21.4037 7.56603 21.3611 7.46331 21.2854 7.38757C21.2097 7.31183 21.107 7.26929 20.9998 7.26929C20.8927 7.26929 20.79 7.31183 20.7143 7.38757C20.6386 7.46331 20.596 7.56603 20.596 7.67313C20.596 7.78024 20.6386 7.88296 20.7143 7.9587C20.79 8.03443 20.8927 8.07698 20.9998 8.07698ZM34.7306 8.07698C34.8377 8.07698 34.9404 8.03443 35.0162 7.9587C35.0919 7.88296 35.1345 7.78024 35.1345 7.67313C35.1345 7.56603 35.0919 7.46331 35.0162 7.38757C34.9404 7.31183 34.8377 7.26929 34.7306 7.26929C34.6235 7.26929 34.5208 7.31183 34.4451 7.38757C34.3693 7.46331 34.3268 7.56603 34.3268 7.67313C34.3268 7.78024 34.3693 7.88296 34.4451 7.9587C34.5208 8.03443 34.6235 8.07698 34.7306 8.07698Z" stroke="#00B2C8" stroke-width="1.5" stroke-miterlimit="10" stroke-linecap="round" stroke-linejoin="round"/>
</svg>
