<svg width="84" height="84" viewBox="0 0 84 84" fill="none" xmlns="http://www.w3.org/2000/svg">
<path d="M40 41.992V24.968" stroke="#00B2C8" stroke-width="1.33333" stroke-miterlimit="10" stroke-linecap="round"/>
<path d="M45.0698 41.9922H34.9298C34.6798 41.9924 34.4324 42.042 34.2016 42.1379C33.9708 42.2339 33.7612 42.3744 33.5848 42.5514C33.4083 42.7284 33.2685 42.9385 33.1732 43.1696C33.078 43.4006 33.0293 43.6482 33.0298 43.8982V70.9602C33.0298 72.0162 33.8818 72.8682 34.9298 72.8682H45.0698C46.1178 72.8682 46.9698 72.0162 46.9698 70.9602V43.9002C46.9706 43.6501 46.922 43.4023 46.8269 43.1709C46.7318 42.9396 46.592 42.7293 46.4155 42.5521C46.2391 42.3749 46.0293 42.2342 45.7984 42.1381C45.5675 42.042 45.3199 41.9924 45.0698 41.9922Z" stroke="black" stroke-width="1.33333" stroke-miterlimit="10"/>
<path d="M16.0938 72.868V40" stroke="black" stroke-width="1.33333" stroke-miterlimit="10" stroke-linecap="round"/>
<path d="M40 9.21008V7.13208" stroke="#00B2C8" stroke-width="1.33333" stroke-miterlimit="10" stroke-linecap="round"/>
<path d="M39.9998 20.4201C40.4441 20.431 40.886 20.3529 41.2997 20.1904C41.7134 20.0279 42.0903 19.7843 42.4084 19.4739C42.7265 19.1635 42.9793 18.7926 43.1519 18.383C43.3245 17.9735 43.4134 17.5335 43.4134 17.0891C43.4134 16.6447 43.3245 16.2047 43.1519 15.7952C42.9793 15.3856 42.7265 15.0147 42.4084 14.7043C42.0903 14.3939 41.7134 14.1503 41.2997 13.9878C40.886 13.8253 40.4441 13.7472 39.9998 13.7581C39.5525 13.7426 39.1067 13.8173 38.6889 13.9778C38.2711 14.1383 37.8899 14.3812 37.568 14.6921C37.2461 15.0031 36.9901 15.3756 36.8152 15.7876C36.6404 16.1996 36.5503 16.6426 36.5503 17.0901C36.5503 17.5376 36.6404 17.9806 36.8152 18.3926C36.9901 18.8046 37.2461 19.1771 37.568 19.4881C37.8899 19.799 38.2711 20.042 38.6889 20.2024C39.1067 20.3629 39.5525 20.4376 39.9998 20.4221V20.4201Z" stroke="black" stroke-width="1.33333" stroke-miterlimit="10"/>
<path d="M16.0938 7.13208V13.1101" stroke="black" stroke-width="1.33333" stroke-miterlimit="10" stroke-linecap="round"/>
<path d="M21.164 13.1101H11.032C10.7822 13.1096 10.5348 13.1583 10.3038 13.2534C10.0728 13.3485 9.86287 13.4881 9.68589 13.6644C9.5089 13.8406 9.36836 14.05 9.27229 14.2806C9.17622 14.5111 9.1265 14.7583 9.12598 15.0081V37.1001C9.12598 38.1461 9.97598 38.9981 11.032 38.9981H21.164C21.6683 38.9976 22.1519 38.7974 22.509 38.4414C22.8662 38.0854 23.0679 37.6024 23.07 37.0981V15.0101C23.07 13.9621 22.21 13.1101 21.164 13.1101Z" stroke="black" stroke-width="1.33333" stroke-miterlimit="10"/>
<path d="M63.9058 72.8681V40.0001M63.9058 7.13208V18.0861" stroke="black" stroke-width="1.33333" stroke-miterlimit="10" stroke-linecap="round"/>
<path d="M68.9682 19.0862H58.8362C58.3319 19.0867 57.8483 19.2869 57.4911 19.6429C57.134 19.9989 56.9323 20.4819 56.9302 20.9862V37.1022C56.9302 38.1482 57.7902 39.0002 58.8362 39.0002H68.9682C69.2183 39.001 69.4661 38.9524 69.6974 38.8573C69.9287 38.7622 70.139 38.6224 70.3163 38.4459C70.4935 38.2695 70.6342 38.0597 70.7302 37.8288C70.8263 37.5979 70.8759 37.3503 70.8762 37.1002V20.9842C70.8757 20.7342 70.8259 20.4869 70.7297 20.2562C70.6335 20.0255 70.4928 19.816 70.3156 19.6397C70.1384 19.4635 69.9282 19.3238 69.697 19.2289C69.4658 19.1339 69.2181 19.0854 68.9682 19.0862Z" stroke="black" stroke-width="1.33333" stroke-miterlimit="10"/>
</svg>
