<svg width="120" height="120" viewBox="0 0 120 120" fill="none" xmlns="http://www.w3.org/2000/svg">
<path d="M98.3425 72.251C95.6132 72.251 93.4884 74.3785 93.4884 77.1079C93.4884 79.8401 95.6132 81.9648 98.3453 81.9648C101.078 81.9648 103.202 79.8401 103.202 77.1079C103.202 74.3757 101.072 72.251 98.3425 72.251ZM98.3425 81.9676C93.7908 81.9676 90.146 85.9147 90.146 90.4665C95.308 91.9837 101.075 91.9837 106.539 90.4665C106.539 85.9119 102.897 81.9676 98.3425 81.9676Z" stroke="#00B2C8" stroke-width="2" stroke-miterlimit="10" stroke-linecap="round"/>
<path d="M97.1273 61.9271V23.6793C97.4324 20.3396 94.7002 17.3023 91.3606 17H8.78762C5.44797 17.3023 2.71579 20.3396 3.02372 23.6765V77.1108C2.71859 80.4505 5.45077 83.485 8.79042 83.7873H77.7024" stroke="black" stroke-width="2" stroke-miterlimit="10"/>
<path d="M29.7324 55.5556L45.2129 40.0695L54.0197 48.8735L64.341 38.5522" stroke="#00B2C8" stroke-width="2" stroke-miterlimit="10" stroke-linecap="round"/>
<path d="M68.2881 46.4466L72.8399 30.0535L56.4468 34.3029L68.2881 46.4466Z" fill="#00B2C8"/>
<path d="M30.3428 68.6062H69.8083" stroke="#00B2C8" stroke-width="2" stroke-miterlimit="10" stroke-linecap="round"/>
<path d="M97.7348 101.997C108.969 101.997 117.773 92.8908 117.773 81.9621C117.773 70.731 108.664 61.927 97.7348 61.927C86.5037 61.927 77.6997 71.0333 77.6997 81.9621C77.6997 93.1959 86.5037 101.997 97.7348 101.997Z" stroke="black" stroke-width="2" stroke-miterlimit="10"/>
<path d="M18.8067 38.2528C19.5251 38.2557 20.237 38.1164 20.9013 37.8428C21.5656 37.5693 22.1692 37.1669 22.6772 36.6589C23.1852 36.1509 23.5876 35.5473 23.8611 34.883C24.1347 34.2187 24.274 33.5068 24.2711 32.7884C24.274 32.07 24.1347 31.3581 23.8611 30.6938C23.5876 30.0295 23.1852 29.4259 22.6772 28.9179C22.1692 28.4099 21.5656 28.0075 20.9013 27.7339C20.237 27.4604 19.5251 27.3211 18.8067 27.324C18.0883 27.3211 17.3764 27.4604 16.7121 27.7339C16.0478 28.0075 15.4442 28.4099 14.9362 28.9179C14.4282 29.4259 14.0258 30.0295 13.7522 30.6938C13.4787 31.3581 13.3394 32.07 13.3423 32.7884C13.3423 35.8229 16.0745 38.2528 18.8067 38.2528Z" stroke="#00B2C8" stroke-width="2" stroke-miterlimit="10" stroke-linecap="round"/>
</svg>
