<svg width="60" height="60" viewBox="0 0 60 60" fill="none" xmlns="http://www.w3.org/2000/svg">
<path d="M30 16.1V24.425" stroke="#00B2C8" stroke-width="3" stroke-miterlimit="10" stroke-linecap="round"/>
<path d="M30.0512 5C20.8512 5 13.4012 12.45 13.4012 21.65V26.9C13.4012 28.6 12.7012 31.15 11.8262 32.6L8.65121 37.9C6.70121 41.175 8.05121 44.825 11.6512 46.025C23.6012 50 36.5262 50 48.4762 46.025C51.8512 44.9 53.3012 40.95 51.4762 37.9L48.3012 32.6C47.4262 31.15 46.7262 28.575 46.7262 26.9V21.65C46.7012 12.5 39.2012 5 30.0512 5Z" stroke="#292D32" stroke-width="3" stroke-miterlimit="10" stroke-linecap="round"/>
<path d="M38.3258 47.05C38.3258 51.625 34.5758 55.375 30.0008 55.375C27.7258 55.375 25.6258 54.4251 24.1258 52.9251C22.6258 51.4251 21.6758 49.325 21.6758 47.05" stroke="#292D32" stroke-width="3" stroke-miterlimit="10"/>
</svg>
