<svg width="40" height="40" viewBox="0 0 40 40" fill="none" xmlns="http://www.w3.org/2000/svg">
<path fill-rule="evenodd" clip-rule="evenodd" d="M12.5998 25.65C11.6569 25.0749 10.5434 24.8452 9.44984 25H6.6665V35H8.88317V31.1833H9.83317C10.8173 31.2844 11.8062 31.0431 12.6332 30.5C13.3351 29.8979 13.7221 29.0072 13.6832 28.0833C13.7351 27.145 13.3319 26.2392 12.5998 25.65ZM10.8165 29.3C10.3978 29.4843 9.9375 29.5533 9.48317 29.5H8.83317V26.6666H9.48317C9.95516 26.6165 10.4313 26.7094 10.8498 26.9333C11.2396 27.2048 11.4605 27.6591 11.4332 28.1333C11.4837 28.6114 11.2399 29.0724 10.8165 29.3ZM18.4498 25H15.6832V35H18.3332C19.6837 35.1321 21.0437 34.8717 22.2498 34.25C23.577 33.2608 24.2861 31.6465 24.1165 30C24.2159 28.5894 23.7132 27.2027 22.7332 26.1833C21.5225 25.2291 19.9786 24.8026 18.4498 25ZM20.6498 32.7333C19.9555 33.1236 19.1604 33.2977 18.3665 33.2333H17.9332V26.7666H18.3332C19.7332 26.7666 20.2832 26.9 20.8332 27.4C21.5007 28.0949 21.8454 29.0384 21.7832 30C21.8689 31.0406 21.4468 32.0587 20.6498 32.7333ZM26.5498 35H28.7998V30.8166H33.3332V29.05H28.7998V26.7666H33.3332V25H26.5498V35ZM24.9998 3.33331H6.6665V21.6666H9.99984V18.3333V16.5833V6.66665H23.6165L29.9998 13.05V16.5833V18.3333V21.6666H33.3332V11.6666L24.9998 3.33331Z" fill="white"/>
</svg>
