<svg width="24" height="25" viewBox="0 0 24 25" fill="none" xmlns="http://www.w3.org/2000/svg">
<path opacity="0.4" d="M17.5291 8.02C17.4591 8.01 17.3891 8.01 17.3191 8.02C15.7691 7.97 14.5391 6.7 14.5391 5.14C14.5391 3.55 15.8291 2.25 17.4291 2.25C19.0191 2.25 20.3191 3.54 20.3191 5.14C20.3091 6.7 19.0791 7.97 17.5291 8.02Z" fill="#292D32"/>
<path opacity="0.4" d="M20.7916 14.95C19.6716 15.7 18.1016 15.98 16.6516 15.79C17.0316 14.97 17.2316 14.06 17.2416 13.1C17.2416 12.1 17.0216 11.15 16.6016 10.32C18.0816 10.12 19.6516 10.4 20.7816 11.15C22.3616 12.19 22.3616 13.9 20.7916 14.95Z" fill="#292D32"/>
<path opacity="0.4" d="M6.43843 8.02C6.50843 8.01 6.57844 8.01 6.64844 8.02C8.19844 7.97 9.42844 6.7 9.42844 5.14C9.42844 3.55 8.13844 2.25 6.53844 2.25C4.94844 2.25 3.64844 3.54 3.64844 5.14C3.65844 6.7 4.88843 7.97 6.43843 8.02Z" fill="#292D32"/>
<path opacity="0.4" d="M6.55109 13.1C6.55109 14.07 6.76109 14.99 7.14109 15.82C5.73109 15.97 4.26109 15.67 3.18109 14.96C1.60109 13.91 1.60109 12.2 3.18109 11.15C4.25109 10.43 5.76109 10.14 7.18109 10.3C6.77109 11.14 6.55109 12.09 6.55109 13.1Z" fill="#292D32"/>
<path d="M12.1208 16.12C12.0408 16.11 11.9508 16.11 11.8608 16.12C10.0208 16.06 8.55078 14.55 8.55078 12.69C8.55078 10.79 10.0808 9.25 11.9908 9.25C13.8908 9.25 15.4308 10.79 15.4308 12.69C15.4308 14.55 13.9708 16.06 12.1208 16.12Z" fill="#00B2C8"/>
<path d="M8.87078 18.19C7.36078 19.2 7.36078 20.86 8.87078 21.86C10.5908 23.01 13.4108 23.01 15.1308 21.86C16.6408 20.85 16.6408 19.19 15.1308 18.19C13.4208 17.04 10.6008 17.04 8.87078 18.19Z" fill="#00B2C8"/>
</svg>
