<svg width="353" height="309" viewBox="0 0 353 309" fill="none" xmlns="http://www.w3.org/2000/svg">
<path d="M353 0H0V309H353V0Z" fill="white"/>
<path d="M139.901 57.0145C139.901 58.8145 138.439 60.2735 136.637 60.2735C134.834 60.2735 133.373 58.8145 133.373 57.0145C133.373 55.2146 134.834 53.7556 136.637 53.7556C138.439 53.7556 139.901 55.2146 139.901 57.0145Z" stroke="#00B2C8" stroke-width="3" stroke-linecap="round" stroke-linejoin="round"/>
<path d="M200.397 112.478C200.397 114.278 198.936 115.737 197.133 115.737C195.33 115.737 193.869 114.278 193.869 112.478C193.869 110.678 195.33 109.219 197.133 109.219C198.936 109.219 200.397 110.678 200.397 112.478Z" fill="white"/>
<path d="M200.397 112.478C200.397 114.278 198.936 115.737 197.133 115.737C195.33 115.737 193.869 114.278 193.869 112.478C193.869 110.678 195.33 109.219 197.133 109.219C198.936 109.219 200.397 110.678 200.397 112.478Z" stroke="#17154B" stroke-width="3" stroke-linecap="round" stroke-linejoin="round"/>
<path d="M284.531 53.6864C284.531 55.4863 283.07 56.9454 281.267 56.9454C279.464 56.9454 278.003 55.4863 278.003 53.6864C278.003 51.8865 279.464 50.4274 281.267 50.4274C283.07 50.4274 284.531 51.8865 284.531 53.6864Z" fill="white"/>
<path d="M284.531 53.6864C284.531 55.4863 283.07 56.9454 281.267 56.9454C279.464 56.9454 278.003 55.4863 278.003 53.6864C278.003 51.8865 279.464 50.4274 281.267 50.4274C283.07 50.4274 284.531 51.8865 284.531 53.6864Z" stroke="#17154B" stroke-width="3" stroke-linecap="round" stroke-linejoin="round"/>
<path d="M307.596 197.068C307.596 198.868 306.135 200.327 304.332 200.327C302.53 200.327 301.068 198.868 301.068 197.068C301.068 195.268 302.53 193.809 304.332 193.809C306.135 193.809 307.596 195.268 307.596 197.068Z" fill="white"/>
<path d="M307.596 197.068C307.596 198.868 306.135 200.327 304.332 200.327C302.53 200.327 301.068 198.868 301.068 197.068C301.068 195.268 302.53 193.809 304.332 193.809C306.135 193.809 307.596 195.268 307.596 197.068Z" stroke="#17154B" stroke-width="3" stroke-linecap="round" stroke-linejoin="round"/>
<path d="M213.244 280.393C213.244 282.193 211.783 283.652 209.98 283.652C208.178 283.652 206.716 282.193 206.716 280.393C206.716 278.593 208.178 277.134 209.98 277.134C211.783 277.134 213.244 278.593 213.244 280.393Z" fill="white"/>
<path d="M213.244 280.393C213.244 282.193 211.783 283.652 209.98 283.652C208.178 283.652 206.716 282.193 206.716 280.393C206.716 278.593 208.178 277.134 209.98 277.134C211.783 277.134 213.244 278.593 213.244 280.393Z" stroke="#17154B" stroke-width="3" stroke-linecap="round" stroke-linejoin="round"/>
<path d="M108.785 268.049C108.785 269.849 107.324 271.308 105.521 271.308C103.718 271.308 102.257 269.849 102.257 268.049C102.257 266.249 103.718 264.79 105.521 264.79C107.324 264.79 108.785 266.249 108.785 268.049Z" stroke="#00B2C8" stroke-width="3" stroke-linecap="round" stroke-linejoin="round"/>
<path d="M55.0383 130.745C55.0383 132.545 53.577 134.004 51.7743 134.004C49.9716 134.004 48.5103 132.545 48.5103 130.745C48.5103 128.945 49.9716 127.486 51.7743 127.486C53.577 127.486 55.0383 128.945 55.0383 130.745Z" fill="white"/>
<path d="M55.0383 130.745C55.0383 132.545 53.577 134.004 51.7743 134.004C49.9716 134.004 48.5103 132.545 48.5103 130.745C48.5103 128.945 49.9716 127.486 51.7743 127.486C53.577 127.486 55.0383 128.945 55.0383 130.745Z" stroke="#17154B" stroke-width="3" stroke-linecap="round" stroke-linejoin="round"/>
<path d="M163.592 168.518C163.592 168.518 161.442 166.262 157.86 162.504" stroke="#CADFEB" stroke-width="3" stroke-linecap="round" stroke-linejoin="round"/>
<path d="M86.4419 87.5595C86.4419 87.5595 87.5865 88.7603 89.5962 90.8697" stroke="#CADFEB" stroke-width="3" stroke-linecap="round" stroke-linejoin="round"/>
<path d="M86.4419 87.56C86.4419 87.56 86.9637 88.1075 87.9216 89.1127" stroke="#CADFEB" stroke-width="3" stroke-linecap="round" stroke-linejoin="round"/>
<path d="M86.4419 87.5595C86.4419 87.5595 86.6764 87.8053 87.1194 88.2702" stroke="#CADFEB" stroke-width="3" stroke-linecap="round" stroke-linejoin="round"/>
<path d="M86.4419 87.5595C86.4419 87.5595 87.0875 88.2369 88.2606 89.4681" stroke="#CADFEB" stroke-width="3" stroke-linecap="round" stroke-linejoin="round"/>
<path d="M86.4419 87.5595C86.4419 87.5595 87.7954 88.9799 90.1436 91.4437" stroke="#CADFEB" stroke-width="3" stroke-linecap="round" stroke-linejoin="round"/>
<path d="M327.472 169.814H269.519V147.019H327.472V169.814Z" fill="white"/>
<path d="M327.472 169.814H269.519V147.019H327.472V169.814Z" stroke="#CADFEB" stroke-width="3" stroke-linecap="round" stroke-linejoin="round"/>
<path d="M283.898 155.239H311.501" stroke="#CADFEB" stroke-width="3" stroke-linecap="round" stroke-linejoin="round"/>
<path d="M290.113 161.685H305.286" stroke="#CADFEB" stroke-width="3" stroke-linecap="round" stroke-linejoin="round"/>
<path d="M243.977 158.59C243.977 164.974 238.793 170.15 232.399 170.15C226.005 170.15 220.821 164.974 220.821 158.59C220.821 152.206 226.005 147.03 232.399 147.03C238.793 147.03 243.977 152.206 243.977 158.59Z" fill="white"/>
<path d="M243.977 158.59C243.977 164.974 238.793 170.15 232.399 170.15C226.005 170.15 220.821 164.974 220.821 158.59C220.821 152.206 226.005 147.03 232.399 147.03C238.793 147.03 243.977 152.206 243.977 158.59Z" stroke="#CADFEB" stroke-width="3" stroke-linecap="round" stroke-linejoin="round"/>
<path d="M232.067 153.834V163.733" stroke="#CADFEB" stroke-width="3" stroke-linecap="round" stroke-linejoin="round"/>
<path d="M237.025 158.784H227.11" stroke="#CADFEB" stroke-width="3" stroke-linecap="round" stroke-linejoin="round"/>
<path d="M100.927 242.031H42.9727V219.235H100.927V242.031Z" fill="white"/>
<path d="M100.927 242.031H42.9727V219.235H100.927V242.031Z" stroke="#CADFEB" stroke-width="3" stroke-linecap="round" stroke-linejoin="round"/>
<path d="M57.3525 227.455H84.9552" stroke="#CADFEB" stroke-width="3" stroke-linecap="round" stroke-linejoin="round"/>
<path d="M63.5669 233.903H78.7401" stroke="#CADFEB" stroke-width="3" stroke-linecap="round" stroke-linejoin="round"/>
<path d="M201.509 67.1567C201.509 77.865 192.815 86.5455 182.09 86.5455C171.365 86.5455 162.671 77.865 162.671 67.1567C162.671 56.4484 171.365 47.7679 182.09 47.7679C192.815 47.7679 201.509 56.4484 201.509 67.1567Z" fill="white"/>
<path d="M201.509 67.1567C201.509 77.865 192.815 86.5455 182.09 86.5455C171.365 86.5455 162.671 77.865 162.671 67.1567C162.671 56.4484 171.365 47.7679 182.09 47.7679C192.815 47.7679 201.509 56.4484 201.509 67.1567Z" stroke="#CADFEB" stroke-width="3" stroke-linecap="round" stroke-linejoin="round"/>
<path d="M187.824 75.6382H176.355L176.368 73.1426H187.824V75.6382ZM187.516 61.1476H176.663V58.6751H187.516V61.1476ZM185.845 68.2923H178.334V65.8912H185.845V68.2923Z" fill="#CADFEB"/>
<path d="M158.751 102.31C158.751 108.695 153.567 113.87 147.173 113.87C140.779 113.87 135.595 108.695 135.595 102.31C135.595 95.9262 140.779 90.7504 147.173 90.7504C153.567 90.7504 158.751 95.9262 158.751 102.31Z" fill="white"/>
<path d="M158.751 102.31C158.751 108.695 153.567 113.87 147.173 113.87C140.779 113.87 135.595 108.695 135.595 102.31C135.595 95.9262 140.779 90.7504 147.173 90.7504C153.567 90.7504 158.751 95.9262 158.751 102.31Z" stroke="#CADFEB" stroke-width="3" stroke-linecap="round" stroke-linejoin="round"/>
<path d="M147.173 97.3606V107.26" stroke="#CADFEB" stroke-width="3" stroke-linecap="round" stroke-linejoin="round"/>
<path d="M152.13 102.31H142.215" stroke="#CADFEB" stroke-width="3" stroke-linecap="round" stroke-linejoin="round"/>
<path d="M130.454 193.298C130.454 199.682 125.27 204.858 118.876 204.858C112.482 204.858 107.298 199.682 107.298 193.298C107.298 186.914 112.482 181.738 118.876 181.738C125.27 181.738 130.454 186.914 130.454 193.298Z" fill="white"/>
<path d="M130.454 193.298C130.454 199.682 125.27 204.858 118.876 204.858C112.482 204.858 107.298 199.682 107.298 193.298C107.298 186.914 112.482 181.738 118.876 181.738C125.27 181.738 130.454 186.914 130.454 193.298Z" stroke="#17154B" stroke-width="3" stroke-linecap="round" stroke-linejoin="round"/>
<path d="M118.876 188.348V198.248" stroke="#17154B" stroke-width="3" stroke-linecap="round" stroke-linejoin="round"/>
<path d="M123.834 193.298H113.919" stroke="#17154B" stroke-width="3" stroke-linecap="round" stroke-linejoin="round"/>
<path d="M248.213 118.813C233.468 110.314 228.416 91.4897 236.929 76.7682C245.442 62.0468 264.295 57.0029 279.04 65.5023C293.784 74.0017 298.836 92.8261 290.323 107.548C281.81 122.269 262.957 127.313 248.213 118.813Z" fill="white"/>
<path d="M248.213 118.813C233.468 110.314 228.416 91.4897 236.929 76.7682C245.442 62.0468 264.295 57.0029 279.04 65.5023C293.784 74.0017 298.836 92.8261 290.323 107.548C281.81 122.269 262.957 127.313 248.213 118.813Z" stroke="#17154B" stroke-width="3" stroke-linecap="round" stroke-linejoin="round"/>
<path d="M274.231 100.32C274.579 101.816 273.961 103.374 272.661 104.194C270.852 105.336 267.767 106.759 263.626 106.759C259.485 106.759 256.4 105.336 254.591 104.194C253.291 103.374 252.673 101.816 253.021 100.32C254.141 95.5067 258.464 91.9199 263.626 91.9199C268.788 91.9199 273.111 95.5067 274.231 100.32Z" fill="white"/>
<path d="M274.231 100.32C274.579 101.816 273.961 103.374 272.661 104.194C270.852 105.336 267.767 106.759 263.626 106.759C259.485 106.759 256.4 105.336 254.591 104.194C253.291 103.374 252.673 101.816 253.021 100.32C254.141 95.5067 258.464 91.9199 263.626 91.9199C268.788 91.9199 273.111 95.5067 274.231 100.32Z" stroke="#00B2C8" stroke-width="3" stroke-linecap="round" stroke-linejoin="round"/>
<path d="M268.72 82.9174C268.72 85.878 266.439 88.278 263.626 88.278C260.813 88.278 258.532 85.878 258.532 82.9174C258.532 79.9568 260.813 77.5567 263.626 77.5567C266.439 77.5567 268.72 79.9568 268.72 82.9174Z" fill="white"/>
<path d="M268.72 82.9174C268.72 85.878 266.439 88.278 263.626 88.278C260.813 88.278 258.532 85.878 258.532 82.9174C258.532 79.9568 260.813 77.5567 263.626 77.5567C266.439 77.5567 268.72 79.9568 268.72 82.9174Z" stroke="#00B2C8" stroke-width="3" stroke-linecap="round" stroke-linejoin="round"/>
<path d="M69.3004 112.465C54.5562 103.965 49.5044 85.1408 58.017 70.4194C66.5296 55.6979 85.3832 50.654 100.127 59.1534C114.872 67.6529 119.924 86.4772 111.411 101.199C102.898 115.92 84.0447 120.964 69.3004 112.465Z" fill="white"/>
<path d="M69.3004 112.465C54.5562 103.965 49.5044 85.1408 58.017 70.4194C66.5296 55.6979 85.3832 50.654 100.127 59.1534C114.872 67.6529 119.924 86.4772 111.411 101.199C102.898 115.92 84.0447 120.964 69.3004 112.465Z" stroke="#17154B" stroke-width="3" stroke-linecap="round" stroke-linejoin="round"/>
<path d="M95.3188 93.9714C95.6665 95.4667 95.0485 97.0252 93.7491 97.845C91.9396 98.9869 88.8545 100.41 84.7138 100.41C80.573 100.41 77.4879 98.9869 75.6784 97.845C74.3791 97.0252 73.7611 95.4667 74.1088 93.9714C75.2287 89.1578 79.5518 85.571 84.7138 85.571C89.8758 85.571 94.1988 89.1578 95.3188 93.9714Z" fill="white"/>
<path d="M95.3188 93.9714C95.6665 95.4667 95.0485 97.0252 93.7491 97.845C91.9396 98.9869 88.8545 100.41 84.7138 100.41C80.573 100.41 77.4879 98.9869 75.6784 97.845C74.3791 97.0252 73.7611 95.4667 74.1088 93.9714C75.2287 89.1578 79.5518 85.571 84.7138 85.571C89.8758 85.571 94.1988 89.1578 95.3188 93.9714Z" stroke="#F78A7E" stroke-width="3" stroke-linecap="round" stroke-linejoin="round"/>
<path d="M89.8083 76.5685C89.8083 79.5291 87.5273 81.9292 84.714 81.9292C81.9006 81.9292 79.6196 79.5291 79.6196 76.5685C79.6196 73.6079 81.9006 71.2078 84.714 71.2078C87.5273 71.2078 89.8083 73.6079 89.8083 76.5685Z" fill="white"/>
<path d="M89.8083 76.5685C89.8083 79.5291 87.5273 81.9292 84.714 81.9292C81.9006 81.9292 79.6196 79.5291 79.6196 76.5685C79.6196 73.6079 81.9006 71.2078 84.714 71.2078C87.5273 71.2078 89.8083 73.6079 89.8083 76.5685Z" stroke="#F78A7E" stroke-width="3" stroke-linecap="round" stroke-linejoin="round"/>
<path d="M269.936 216.21C269.936 233.209 256.135 246.989 239.109 246.989C222.084 246.989 208.282 233.209 208.282 216.21C208.282 199.211 222.084 185.431 239.109 185.431C256.135 185.431 269.936 199.211 269.936 216.21Z" fill="white"/>
<path d="M269.936 216.21C269.936 233.209 256.135 246.989 239.109 246.989C222.084 246.989 208.282 233.209 208.282 216.21C208.282 199.211 222.084 185.431 239.109 185.431C256.135 185.431 269.936 199.211 269.936 216.21Z" stroke="#17154B" stroke-width="3" stroke-linecap="round" stroke-linejoin="round"/>
<path d="M249.714 224.373C250.062 225.868 249.444 227.427 248.145 228.246C246.335 229.388 243.25 230.811 239.109 230.811C234.969 230.811 231.883 229.388 230.074 228.246C228.775 227.427 228.157 225.868 228.504 224.373C229.624 219.559 233.947 215.972 239.109 215.972C244.271 215.972 248.594 219.559 249.714 224.373Z" fill="white"/>
<path d="M249.714 224.373C250.062 225.868 249.444 227.427 248.145 228.246C246.335 229.388 243.25 230.811 239.109 230.811C234.969 230.811 231.883 229.388 230.074 228.246C228.775 227.427 228.157 225.868 228.504 224.373C229.624 219.559 233.947 215.972 239.109 215.972C244.271 215.972 248.594 219.559 249.714 224.373Z" stroke="#F78A7E" stroke-width="3" stroke-linecap="round" stroke-linejoin="round"/>
<path d="M244.204 206.97C244.204 209.931 241.923 212.331 239.109 212.331C236.296 212.331 234.015 209.931 234.015 206.97C234.015 204.009 236.296 201.609 239.109 201.609C241.923 201.609 244.204 204.009 244.204 206.97Z" fill="white"/>
<path d="M244.204 206.97C244.204 209.931 241.923 212.331 239.109 212.331C236.296 212.331 234.015 209.931 234.015 206.97C234.015 204.009 236.296 201.609 239.109 201.609C241.923 201.609 244.204 204.009 244.204 206.97Z" stroke="#F78A7E" stroke-width="3" stroke-linecap="round" stroke-linejoin="round"/>
<path d="M163.899 250.479C163.899 261.187 155.205 269.868 144.48 269.868C133.755 269.868 125.061 261.187 125.061 250.479C125.061 239.771 133.755 231.09 144.48 231.09C155.205 231.09 163.899 239.771 163.899 250.479Z" fill="white"/>
<path d="M163.899 250.479C163.899 261.187 155.205 269.868 144.48 269.868C133.755 269.868 125.061 261.187 125.061 250.479C125.061 239.771 133.755 231.09 144.48 231.09C155.205 231.09 163.899 239.771 163.899 250.479Z" stroke="#CADFEB" stroke-width="3" stroke-linecap="round" stroke-linejoin="round"/>
<path d="M144.92 240.272H146.523V242.509C146.954 242.613 147.365 242.76 147.748 242.947C148.134 243.133 148.465 243.37 148.747 243.655C149.026 243.944 149.247 244.282 149.412 244.667C149.576 245.057 149.66 245.507 149.66 246.022C149.66 246.924 149.401 247.702 148.886 248.354C148.37 249.007 147.648 249.472 146.722 249.748V249.793C147.26 249.858 147.751 249.999 148.192 250.211C148.632 250.424 149.008 250.698 149.317 251.033C149.628 251.369 149.867 251.759 150.034 252.202C150.203 252.647 150.288 253.133 150.288 253.661C150.288 254.252 150.193 254.797 150.006 255.296C149.82 255.796 149.561 256.239 149.227 256.627C148.896 257.014 148.501 257.343 148.04 257.611C147.582 257.88 147.074 258.078 146.523 258.205V260.686H144.92V258.349H143.834V260.686H142.343V258.349H140.249V242.308H142.343V240.272H143.834V242.308H144.651H144.92V240.272ZM142.759 244.443V249.007H144.103C144.556 249.007 144.965 248.972 145.323 248.898C145.681 248.823 145.986 248.689 146.237 248.5C146.486 248.309 146.677 248.055 146.807 247.74C146.939 247.421 147.004 247.018 147.004 246.526C147.004 246.258 146.969 245.997 146.897 245.741C146.827 245.49 146.695 245.266 146.506 245.077C146.314 244.886 146.058 244.734 145.732 244.617C145.408 244.503 144.995 244.443 144.494 244.443H142.759ZM142.759 251.145V256.224H144.337C144.823 256.224 145.268 256.184 145.672 256.107C146.075 256.027 146.421 255.891 146.712 255.692C147.003 255.495 147.23 255.227 147.395 254.894C147.559 254.556 147.644 254.136 147.644 253.629C147.644 253.278 147.599 252.952 147.509 252.649C147.42 252.348 147.26 252.085 147.031 251.861C146.804 251.638 146.498 251.463 146.112 251.334C145.729 251.21 145.241 251.145 144.651 251.145H142.759Z" fill="#CADFEB"/>
<path d="M88.7098 168.872C88.7098 179.581 80.0159 188.261 69.2909 188.261C58.566 188.261 49.8721 179.581 49.8721 168.872C49.8721 158.164 58.566 149.484 69.2909 149.484C80.0159 149.484 88.7098 158.164 88.7098 168.872Z" fill="white"/>
<path d="M88.7098 168.872C88.7098 179.581 80.0159 188.261 69.2909 188.261C58.566 188.261 49.8721 179.581 49.8721 168.872C49.8721 158.164 58.566 149.484 69.2909 149.484C80.0159 149.484 88.7098 158.164 88.7098 168.872Z" stroke="#CADFEB" stroke-width="3" stroke-linecap="round" stroke-linejoin="round"/>
<path d="M76.6809 166.764V168.809H74.3027L74.9478 170.981H76.6809V173.027H75.5426L76.9971 177.927H73.6958L72.4691 173.027H67.3718L66.1832 177.927H62.8945L64.3617 173.027H63.2108V170.981H64.9564L65.601 168.809H63.2108V166.764H66.2084L68.2829 159.818H71.6721L73.7215 166.764H76.6809ZM67.8525 170.981H71.9758L71.4449 168.809H68.3834L67.8525 170.981ZM69.9395 162.546H69.8762C69.8254 162.992 69.7626 163.341 69.6866 163.594L68.8641 166.764H70.9512L70.1291 163.594C70.0701 163.375 70.0068 163.025 69.9395 162.546Z" fill="#CADFEB"/>
<path d="M195.82 168.555C195.82 185.553 182.018 199.334 164.993 199.334C147.968 199.334 134.166 185.553 134.166 168.555C134.166 151.556 147.968 137.775 164.993 137.775C182.018 137.775 195.82 151.556 195.82 168.555Z" fill="white"/>
<path d="M195.82 168.555C195.82 185.553 182.018 199.334 164.993 199.334C147.968 199.334 134.166 185.553 134.166 168.555C134.166 151.556 147.968 137.775 164.993 137.775C182.018 137.775 195.82 151.556 195.82 168.555Z" stroke="#17154B" stroke-width="3" stroke-linecap="round" stroke-linejoin="round"/>
<path d="M175.598 176.057C175.946 177.552 175.328 179.111 174.028 179.931C172.219 181.072 169.134 182.495 164.993 182.495C160.852 182.495 157.767 181.072 155.958 179.931C154.658 179.111 154.04 177.552 154.388 176.057C155.508 171.243 159.831 167.657 164.993 167.657C170.155 167.657 174.478 171.243 175.598 176.057Z" fill="white"/>
<path d="M175.598 176.057C175.946 177.552 175.328 179.111 174.028 179.931C172.219 181.072 169.134 182.495 164.993 182.495C160.852 182.495 157.767 181.072 155.958 179.931C154.658 179.111 154.04 177.552 154.388 176.057C155.508 171.243 159.831 167.657 164.993 167.657C170.155 167.657 174.478 171.243 175.598 176.057Z" stroke="#00B2C8" stroke-width="3" stroke-linecap="round" stroke-linejoin="round"/>
<path d="M170.088 158.654C170.088 161.615 167.807 164.015 164.993 164.015C162.18 164.015 159.899 161.615 159.899 158.654C159.899 155.694 162.18 153.294 164.993 153.294C167.807 153.294 170.088 155.694 170.088 158.654Z" fill="white"/>
<path d="M170.088 158.654C170.088 161.615 167.807 164.015 164.993 164.015C162.18 164.015 159.899 161.615 159.899 158.654C159.899 155.694 162.18 153.294 164.993 153.294C167.807 153.294 170.088 155.694 170.088 158.654Z" stroke="#00B2C8" stroke-width="3" stroke-linecap="round" stroke-linejoin="round"/>
</svg>
