<svg width="42" height="42" viewBox="0 0 42 42" fill="none" xmlns="http://www.w3.org/2000/svg">
<path d="M6.98104 10.0508H35.0155C36.249 10.0508 37.2583 11.06 37.2583 12.2936V31.357C37.2583 32.5905 36.249 33.5998 35.0155 33.5998H6.98104C5.74752 33.5998 4.73828 32.5905 4.73828 31.357V12.2936C4.73828 11.06 5.74752 10.0508 6.98104 10.0508Z" stroke="black" stroke-width="1.4" stroke-miterlimit="10"/>
<path d="M6.98104 10.0508H35.0155C36.249 10.0508 37.2583 11.06 37.2583 12.2936V17.9004C37.2583 21.601 34.2306 24.6287 30.53 24.6287H11.4666C7.76601 24.6287 4.73828 21.601 4.73828 17.9004V12.2936C4.73828 11.06 5.74752 10.0508 6.98104 10.0508Z" stroke="black" stroke-width="1.4" stroke-miterlimit="10"/>
<path d="M17.0728 5.56543H24.9225C26.156 5.56543 27.1653 6.57467 27.1653 7.80819V10.051H14.8301V7.80819C14.8301 6.57467 15.8393 5.56543 17.0728 5.56543Z" stroke="black" stroke-width="1.4" stroke-miterlimit="10"/>
<path d="M23.2373 20.1277C24.6951 19.0063 25.1437 16.9879 24.0223 15.418C22.9009 13.848 20.8824 13.5116 19.3125 14.633C17.8547 15.7544 17.4061 17.7729 18.5275 19.3428C19.6489 20.8006 21.6674 21.137 23.2373 20.1277Z" stroke="#00B2C8" stroke-width="1.4" stroke-miterlimit="10" stroke-linecap="round"/>
<path d="M23.8001 28.1052L21.2209 28.8901L18.7539 28.1052V24.6289H23.8001V28.1052Z" stroke="black" stroke-width="1.4" stroke-miterlimit="10"/>
</svg>
