<svg width="14" height="14" viewBox="0 0 14 14" fill="none" xmlns="http://www.w3.org/2000/svg">
<path opacity="0.4" d="M9.93796 0H4.07604C1.51976 0 0 1.51976 0 4.06903V9.93097C0 12.4802 1.51976 14 4.06903 14H9.93095C12.4802 14 14 12.4802 14 9.93097V4.06903C14.007 1.51976 12.4872 0 9.93796 0Z" fill="#BFC5D3"/>
<path d="M11.2045 6.48914C10.9102 6.48914 10.679 6.72037 10.679 7.01466C10.672 7.99565 10.2936 8.91358 9.60689 9.60027C8.91319 10.294 7.98827 10.6794 7.00728 10.6794C6.02629 10.6794 5.10135 10.294 4.40765 9.60027C4.38663 9.57925 4.37262 9.55823 4.3516 9.5372H4.93318C5.22046 9.5372 5.4587 9.29896 5.4587 9.01168C5.4587 8.72439 5.22046 8.48615 4.93318 8.48615H3.07631C2.78902 8.48615 2.55078 8.72439 2.55078 9.01168V10.8685C2.55078 11.1558 2.78902 11.3941 3.07631 11.3941C3.3636 11.3941 3.60184 11.1558 3.60184 10.8685V10.2729C3.62286 10.294 3.64388 10.322 3.6649 10.35C4.5548 11.2399 5.74601 11.7374 7.00728 11.7374C8.26855 11.7374 9.45974 11.2469 10.3496 10.35C11.2325 9.46713 11.723 8.28294 11.73 7.02167C11.73 6.72738 11.4918 6.49614 11.2045 6.48914Z" fill="#00B2C8"/>
<path d="M2.79522 7.45603C3.0825 7.45603 3.31374 7.2248 3.32074 6.93751C3.33476 5.97755 3.72015 5.07364 4.39282 4.39395C5.08652 3.70025 6.01145 3.31486 6.99243 3.31486C7.97342 3.31486 8.89837 3.70025 9.59207 4.39395C9.61309 4.41497 9.62709 4.43599 9.64812 4.45701H9.06654C8.77925 4.45701 8.54101 4.69525 8.54101 4.98254C8.54101 5.26983 8.77925 5.50807 9.06654 5.50807H10.9234C11.2107 5.50807 11.4489 5.26983 11.4489 4.98254V3.13268C11.4489 2.84539 11.2107 2.60715 10.9234 2.60715C10.6361 2.60715 10.3979 2.84539 10.3979 3.13268V3.73529C10.3769 3.71427 10.3558 3.68624 10.3348 3.65821C9.44492 2.76831 8.25371 2.27081 6.99243 2.27081C5.73117 2.27081 4.53997 2.76131 3.65008 3.65821C2.7742 4.52709 2.2837 5.69026 2.26969 6.9235C2.26268 7.21079 2.49391 7.44903 2.7882 7.45603C2.79521 7.45603 2.79522 7.45603 2.79522 7.45603Z" fill="#00B2C8"/>
</svg>
