<svg width="60" height="61" viewBox="0 0 60 61" fill="none" xmlns="http://www.w3.org/2000/svg">
<path d="M5.41708 14.9467L1.27295 19.0908L39.4216 57.2395L43.5657 53.0954L5.41708 14.9467Z" fill="#303030"/>
<path d="M17.8512 2.5131L13.707 6.65723L51.8557 44.8059L55.9998 40.6618L17.8512 2.5131Z" fill="#303030"/>
<path d="M22.413 19.5216L1.27295 40.6616L5.41708 44.8058L26.5571 23.6657L22.413 19.5216Z" fill="#303030"/>
<path d="M51.8557 14.947L30.709 36.0938L34.8531 40.2379L55.9999 19.0911L51.8557 14.947Z" fill="#303030"/>
<path d="M39.4222 2.51331L30.7041 11.2314L34.8482 15.3756L43.5664 6.65744L39.4222 2.51331Z" fill="#303030"/>
<path d="M22.4209 44.3814L13.7065 53.0957L17.8507 57.2398L26.565 48.5255L22.4209 44.3814Z" fill="#303030"/>
</svg>
