<svg width="60" height="61" viewBox="0 0 60 61" fill="none" xmlns="http://www.w3.org/2000/svg">
<path d="M8.90074 42.0973H22.978C23.7766 42.0973 24.5022 41.7731 25.0273 41.251C25.5525 40.7289 25.8786 40.0076 25.8786 39.2135V31.4891H29.4817V49.25C29.4817 50.0441 29.8079 50.7656 30.3331 51.2876C30.8582 51.8096 31.5838 52.1339 32.3825 52.1339H39.4127C39.9663 52.1339 40.415 51.6878 40.415 51.1375C40.415 50.5871 39.9663 50.141 39.4127 50.141H32.3825C32.137 50.141 31.913 50.0404 31.7502 49.8786C31.6668 49.7962 31.6006 49.6983 31.5553 49.5905C31.51 49.4826 31.4866 49.3669 31.4864 49.25V31.4891H39.4199C39.9735 31.4891 40.4222 31.043 40.4222 30.4927C40.4222 29.9423 39.9735 29.4962 39.4199 29.4962H31.4864V11.7353C31.4866 11.6184 31.51 11.5028 31.5553 11.3949C31.6006 11.287 31.6668 11.1891 31.7502 11.1068L31.7483 11.1049C31.9167 10.938 32.1447 10.8443 32.3825 10.8444H39.4199C39.9735 10.8444 40.4222 10.3982 40.4222 9.8479C40.4222 9.29757 39.9735 8.85144 39.4199 8.85144H32.3825C31.5865 8.85144 30.8623 9.17572 30.3369 9.69777L30.3351 9.69976L30.3331 9.69777C29.8079 10.2199 29.4817 10.9413 29.4817 11.7353V29.4962H25.8786V19.6431C25.8786 18.8491 25.5525 18.1277 25.0273 17.6056C24.5022 17.0835 23.7766 16.7592 22.978 16.7592H8.90074C8.10208 16.7592 7.37647 17.0835 6.85127 17.6056C6.32618 18.1277 6 18.8491 6 19.6431V39.2135C6 40.0076 6.32618 40.7289 6.85127 41.251C7.37647 41.7731 8.10208 42.0973 8.90074 42.0973ZM42.8532 14.7026H52.8122C53.4655 14.7026 54 14.171 54 13.5217V6.18087C54 5.53171 53.4653 5 52.8122 5H42.8532C42.2002 5 41.6655 5.53141 41.6655 6.18087V13.5217C41.6655 14.1712 42.1999 14.7026 42.8532 14.7026ZM42.8532 35.344H52.8122C53.4655 35.344 54 34.8124 54 34.1631V26.8223C54 26.1731 53.4653 25.6414 52.8122 25.6414H42.8532C42.2002 25.6414 41.6655 26.1728 41.6655 26.8223V34.1631C41.6655 34.8126 42.1999 35.344 42.8532 35.344ZM42.8532 56H52.8122C53.4655 56 54 55.4684 54 54.8191V47.4784C54 46.8291 53.4653 46.2975 52.8122 46.2975H42.8532C42.2002 46.2975 41.6655 46.8288 41.6655 47.4784V54.8191C41.6655 55.4686 42.1999 56 42.8532 56ZM23.874 30.3922C23.8706 30.4256 23.869 30.4591 23.869 30.4927C23.869 30.5266 23.8706 30.5602 23.874 30.5932V39.2135C23.8738 39.3304 23.8504 39.4461 23.8051 39.554C23.7599 39.6618 23.6936 39.7597 23.6102 39.8421C23.5274 39.925 23.4289 39.9909 23.3204 40.0359C23.2119 40.0809 23.0955 40.1042 22.978 40.1044H8.90074C8.65523 40.1044 8.43127 40.0039 8.26843 39.8421C8.185 39.7597 8.11875 39.6618 8.07348 39.554C8.0282 39.4461 8.00479 39.3304 8.00458 39.2135V19.6431C8.00479 19.5262 8.0282 19.4106 8.07348 19.3027C8.11875 19.1948 8.185 19.0969 8.26843 19.0146C8.43127 18.8528 8.65523 18.7522 8.90074 18.7522H22.978C23.2235 18.7522 23.4474 18.8528 23.6102 19.0146C23.6936 19.0969 23.7599 19.1948 23.8051 19.3027C23.8504 19.4106 23.8738 19.5262 23.874 19.6431V30.3922Z" fill="#303030"/>
</svg>
