<svg width="60" height="61" viewBox="0 0 60 61" fill="none" xmlns="http://www.w3.org/2000/svg">
<g clip-path="url(#clip0_392_20179)">
<path d="M29.7634 59.8219C27.0133 59.8219 24.5476 58.1091 22.6323 54.8681C21.1633 52.3823 19.9806 48.9994 19.1162 44.8106L19.0839 44.6494C18.1665 39.7162 17.6673 34.47 17.6837 29.9058C17.6954 24.9117 18.1604 20.0559 19.1045 15.0638C19.9787 10.8173 21.1684 7.42031 22.6478 4.9275C24.5612 1.70391 27.0212 0 29.7634 0C32.5065 0 34.9675 1.70391 36.8786 4.9275C38.3434 7.39547 39.5242 10.7508 40.3895 14.902L40.4228 15.0633C41.3669 20.0625 41.8319 24.9178 41.8426 29.9072C41.8595 34.4695 41.3598 39.7158 40.4378 44.6766L40.4134 44.7975C39.5481 48.9919 38.3645 52.3791 36.8945 54.8677C34.9792 58.1091 32.5136 59.8219 29.7634 59.8219ZM22.0534 44.0944L22.0572 44.115C22.8554 48.0155 23.9242 51.1158 25.232 53.3292C26.1681 54.9131 27.7136 56.7998 29.7634 56.7998C31.8133 56.7998 33.3587 54.9131 34.2948 53.3292C35.6026 51.1158 36.6714 48.0155 37.4697 44.115L37.4767 44.0817C38.3626 39.2939 38.8384 34.2764 38.8225 29.9156C38.8117 25.1339 38.3683 20.4778 37.4669 15.6844L37.4551 15.6253C36.6578 11.7563 35.59 8.67375 34.2812 6.47016C33.3479 4.89703 31.8076 3.0225 29.7634 3.0225C27.7201 3.0225 26.1789 4.8975 25.2456 6.47016C23.9368 8.67375 22.869 11.7567 22.0698 15.6342C21.1633 20.4328 20.7161 25.1063 20.7043 29.9147C20.6884 34.2891 21.1675 39.3225 22.0534 44.0944ZM47.6162 48.5691C44.7648 48.5691 41.3092 47.902 37.3379 46.5867L37.1293 46.5159C32.3992 44.8383 27.6386 42.6591 23.7179 40.3758C19.4054 37.8694 15.4356 35.0391 11.5825 31.7222L11.5 31.6453C8.34201 28.838 5.99498 26.108 4.58029 23.5847C2.74748 20.318 2.50372 17.5055 3.87622 15.128C5.24872 12.7505 7.95248 11.5945 11.6954 11.5945H11.6964C14.5712 11.5945 18.0794 12.0478 22.1162 13.38L22.2433 13.3345C27.0381 15.0155 31.4734 16.9973 35.8004 19.4831C39.7567 21.7514 44.0486 24.7856 47.8829 28.0659L48.0306 28.1911C51.1679 30.9788 53.5108 33.6956 54.9306 36.2166C57.2645 40.358 56.6129 43.2042 55.6544 44.8655C54.2781 47.25 51.5622 48.5292 47.8004 48.5686C47.739 48.5705 47.6781 48.5691 47.6162 48.5691ZM38.1704 43.6791L38.2019 43.6898C41.9026 44.9222 45.0676 45.547 47.612 45.547C47.665 45.547 47.717 45.547 47.7686 45.5461C49.6061 45.5264 52.0122 45.1298 53.0383 43.3523C54.0615 41.5777 53.2014 39.2967 52.299 37.6959C51.0358 35.453 48.8865 32.9761 45.9095 30.3337L45.8467 30.2784C42.1708 27.1406 38.0715 24.2245 34.2972 22.0617C30.1473 19.6772 25.8929 17.7333 21.2926 16.1184L21.2542 16.1067C17.4995 14.8603 14.2881 14.2327 11.7329 14.2739C9.90716 14.2964 7.51513 14.6948 6.49138 16.4677C5.46904 18.2405 6.31935 20.5116 7.21326 22.1053C8.46482 24.3366 10.6004 26.8036 13.5615 29.438L13.5948 29.4684C17.2919 32.6466 21.1004 35.3597 25.2358 37.763C29.0101 39.9609 33.602 42.0609 38.1704 43.6791ZM11.9167 48.5691C11.8422 48.5691 11.769 48.5691 11.6954 48.5681C7.95248 48.5217 5.24873 47.2411 3.87716 44.8636C2.5056 42.4861 2.74841 39.5034 4.58029 36.2358C5.99591 33.7125 8.34294 30.983 11.5548 28.1241C15.4403 24.7795 19.4097 21.9492 23.7208 19.4447C27.6672 17.1469 32.4573 14.9559 37.2081 13.2769L37.3309 13.2366C41.304 11.9194 44.7629 11.2514 47.6162 11.2514C47.6772 11.2514 47.7381 11.2514 47.8 11.2523C51.5626 11.2917 54.2781 12.5733 55.6539 14.9569C56.6125 16.6172 57.2645 19.4663 54.9311 23.6086C53.5192 26.115 51.1961 28.8192 48.024 31.6495L47.8834 31.7756C44.0481 35.0564 39.7562 38.1127 35.7981 40.3809C31.4701 42.8677 27.0358 44.8922 22.2428 46.5712L22.119 46.6106C18.1806 47.9109 14.7489 48.5691 11.9167 48.5691ZM13.5822 30.3638L13.5625 30.3825C10.6009 33.0169 8.46576 35.4839 7.21419 37.7152C6.32123 39.3089 5.46997 41.58 6.49232 43.3528C7.51466 45.1256 9.90716 45.5241 11.7329 45.5466C14.3003 45.5822 17.4953 44.962 21.2551 43.7137L21.3161 43.6941C25.9037 42.083 30.1501 40.1409 34.2962 37.7592C38.0715 35.595 42.1708 32.6794 45.8486 29.5416L45.9104 29.4863C48.8875 26.8439 51.0367 24.367 52.3 22.1255C53.2014 20.5242 54.062 18.2428 53.0383 16.4681C52.0117 14.6897 49.6061 14.2941 47.7686 14.2744C45.1867 14.2223 41.9795 14.8725 38.2033 16.1306L38.155 16.1475C33.5959 17.7628 29.0111 19.8609 25.2376 22.0575C21.0995 24.4617 17.2867 27.1786 13.5822 30.3638Z" fill="#303030"/>
<circle cx="30.1562" cy="30.1562" r="5.15625" fill="#303030"/>
</g>
<defs>
<clipPath id="clip0_392_20179">
<rect width="60" height="60" fill="white" transform="translate(0 0.239258)"/>
</clipPath>
</defs>
</svg>
