<svg width="42" height="43" viewBox="0 0 42 43" fill="none" xmlns="http://www.w3.org/2000/svg">
<path d="M9.57227 15.9893C12.955 15.9893 15.6973 13.247 15.6973 9.86426C15.6973 6.48151 12.955 3.73926 9.57227 3.73926C6.18952 3.73926 3.44727 6.48151 3.44727 9.86426C3.44727 13.247 6.18952 15.9893 9.57227 15.9893Z" stroke="#292D32" stroke-width="1.5"/>
<path d="M29.6973 26.4893H34.9473C36.8723 26.4893 38.4473 28.0643 38.4473 29.9893V35.2393C38.4473 37.1643 36.8723 38.7393 34.9473 38.7393H29.6973C27.7723 38.7393 26.1973 37.1643 26.1973 35.2393V29.9893C26.1973 28.0643 27.7723 26.4893 29.6973 26.4893Z" stroke="#00B2C8" stroke-width="1.5"/>
<path d="M21 8.98926H25.69C28.9275 8.98926 30.4325 12.9968 28 15.1318L14.0175 27.3643C11.585 29.4818 13.09 33.4893 16.31 33.4893H21" stroke="#292D32" stroke-width="1.5" stroke-linecap="round" stroke-linejoin="round"/>
<path d="M9.601 9.86426H9.62122" stroke="#292D32" stroke-width="2" stroke-linecap="round" stroke-linejoin="round"/>
<path d="M32.351 32.6143H32.3712" stroke="#00B2C8" stroke-width="2" stroke-linecap="round" stroke-linejoin="round"/>
</svg>
