<svg width="200" height="201" viewBox="0 0 200 201" fill="none" xmlns="http://www.w3.org/2000/svg">
<path d="M113.145 48.3516C107.754 44.6797 103.867 40.793 101.406 37.9609C98.9453 40.793 95.0391 44.6602 89.6289 48.3516C79.5312 55.2266 67.9688 59.0156 55.1758 59.6602V105.148C55.1758 106.809 55.3906 108.742 55.8398 110.891C55.8398 110.891 61.4063 145.93 101.406 164.035C101.406 164.035 130.449 153.039 143.203 122.238C146.172 115.461 147.578 109.387 147.578 105.148V59.6602C134.785 59.0156 123.223 55.2266 113.145 48.3516Z" fill="white"/>
<path d="M120.859 98.293L129.551 79.6602H117.188L108.496 98.293H120.859ZM82.4609 79.6602L73.7695 98.293H86.1328L94.8242 79.6602H82.4609ZM112.188 79.6602H99.8242L91.1328 98.293H103.496L112.188 79.6602ZM58.457 79.6602V98.293H68.7695L77.4609 79.6602H58.457ZM144.316 98.293V79.6602H134.551L125.859 98.293H144.316Z" fill="#E4FAFC"/>
<path d="M101.387 164.035C85.6835 157.238 74.3163 146.242 66.7773 135.227C62.6952 133.859 58.7695 132.395 55.0195 130.891C56.6015 133.859 58.3788 136.828 60.3515 139.68C67.3242 149.816 79.8242 163.625 99.7656 171.809C100.293 172.023 100.84 172.141 101.387 172.141C101.934 172.141 102.48 172.043 103.008 171.828C117.519 165.852 128.086 156.926 135.449 148.586C132.187 148.43 128.828 148.176 125.41 147.844C118.945 154.172 110.976 159.895 101.387 164.035ZM174.082 108.547C172.637 107.258 170.976 105.949 169.101 104.66C165.293 101.984 160.664 99.3086 155.371 96.7305V56.2617C155.371 53.8789 153.457 51.9453 151.113 51.9453C138.516 51.8867 127.226 48.5078 117.539 41.9063C110.019 36.7891 105.976 31.3789 104.902 29.8359C104.101 28.6836 102.793 27.9805 101.387 27.9805C99.9999 27.9805 98.6718 28.6641 97.871 29.8164C96.7968 31.3594 92.7343 36.7695 85.2148 41.8867C75.5077 48.4883 64.1992 51.8672 51.621 51.9258C49.2773 51.9453 47.3632 53.8789 47.3632 56.2422V74.3281C44.9413 74.4844 42.6562 74.6992 40.5077 74.9922C35.6835 75.6367 31.582 76.6133 28.2421 77.9023C22.5781 80.1094 19.2773 83.1953 18.4179 87.082C17.5976 90.793 19.121 94.7774 22.9101 98.957L22.9296 98.9766C23.0077 99.0547 23.0663 99.1328 23.1445 99.2109C26.6796 103 32.0312 106.867 39.0624 110.715C39.5312 110.969 40.0195 111.242 40.5077 111.496C43.1249 112.883 45.9374 114.25 48.8867 115.559C49.746 118.801 50.957 122.18 52.4609 125.598C55.9374 127.102 59.6093 128.547 63.457 129.934C61.3867 126.34 59.707 122.805 58.4179 119.484C69.2187 123.605 81.4452 127.238 94.3163 130.09C108.769 133.293 122.91 135.246 135.547 135.852C133.574 138.684 131.367 141.496 128.887 144.23C132.226 144.504 135.488 144.699 138.633 144.797C140.039 143.02 141.289 141.301 142.402 139.68C143.223 138.488 144.004 137.277 144.766 136.047C147.48 136.027 150.078 135.949 152.598 135.773C159.141 135.344 164.687 134.426 169.121 133.039C170.098 132.727 171.016 132.414 171.875 132.062C173.574 131.379 175.059 130.598 176.309 129.758C175.664 128.664 174.844 127.609 173.945 126.613C172.656 127.473 171.035 128.234 169.121 128.898C164.883 130.383 159.18 131.418 152.344 131.867C150.644 131.984 148.887 132.062 147.07 132.102C152.305 122.57 155.391 112.746 155.391 105.129V101.086C160.859 103.859 165.508 106.711 169.121 109.504C169.98 110.168 170.762 110.812 171.504 111.477C174.687 114.309 178.301 118.469 177.48 122.219C177.344 122.805 177.109 123.352 176.777 123.898C177.773 124.973 178.613 126.047 179.277 127.102C180.293 125.871 180.957 124.523 181.289 123.059C182.266 118.566 179.844 113.684 174.082 108.547ZM40.9374 107.258C40.8007 107.18 40.6445 107.102 40.5077 107.023C33.8866 103.371 28.8671 99.6602 25.7616 96.2227C25.7421 96.2227 25.7421 96.2422 25.7226 96.2422C24.4921 94.9922 23.6913 93.625 23.3984 93.0977C22.3046 91.2031 21.8749 89.4648 22.2265 87.9023C23.164 83.625 29.8437 80.4219 40.5077 78.918C42.6366 78.625 44.9218 78.3906 47.3632 78.2344V105.148C47.3632 106.906 47.539 108.801 47.8515 110.773C45.4296 109.621 43.1054 108.449 40.9374 107.258ZM147.578 105.148C147.578 111.34 144.551 121.535 138.047 132.043C125.078 131.594 110.312 129.621 95.1757 126.262C81.2499 123.176 68.1054 119.191 56.7773 114.641C55.7031 110.969 55.1757 107.707 55.1757 105.148V59.6602C67.9687 59.0156 79.5312 55.2266 89.6288 48.3516C95.039 44.6797 98.9257 40.793 101.406 37.9609C103.867 40.793 107.754 44.6602 113.144 48.3516C123.223 55.2266 134.785 59.0156 147.578 59.6602V105.148Z" fill="#00B2C8"/>
<path d="M47.3047 87.0625C39.4727 87.5508 33.0469 88.7617 28.2422 90.6367C26.3672 91.3594 24.7461 92.1992 23.3984 93.1172C23.9844 94.1328 24.7852 95.168 25.7617 96.2617C29.9023 93.5273 37.3828 91.6719 47.3047 91.0078V87.0625Z" fill="#06F3FF"/>
<path d="M23.3791 93.0977C23.6721 93.625 24.4924 94.9922 25.7033 96.2422C25.7228 96.2422 25.7228 96.2227 25.7424 96.2227C24.7853 95.1484 23.9846 94.1133 23.3791 93.0977C23.3986 93.0977 23.3986 93.0977 23.3791 93.0977ZM179.258 127.102C178.574 126.047 177.735 124.973 176.758 123.898C175.957 123.039 175.078 122.16 174.082 121.281C169.629 117.316 163.125 113.234 155.137 109.348C155.059 109.875 154.707 112.219 154.473 113.391C161.66 116.965 167.481 120.656 171.485 124.211C172.305 124.934 173.145 125.754 173.926 126.613C174.824 127.59 175.645 128.664 176.289 129.758C177.285 131.457 177.832 133.254 177.461 134.953C176.328 140.051 166.934 143.664 152.344 144.621C148.086 144.895 143.477 144.953 138.633 144.797C135.488 144.699 132.227 144.504 128.887 144.23C118.301 143.352 106.856 141.594 95.176 138.996C83.9064 136.496 73.1642 133.41 63.4767 129.914C59.6291 128.527 55.9572 127.082 52.4807 125.578C48.34 123.781 44.4728 121.906 40.9572 119.992C28.1252 112.98 21.133 105.734 22.2463 100.637C22.383 100.051 22.6174 99.4844 22.9494 98.957L22.9299 98.9375C22.7541 98.7617 21.6408 97.6289 20.4299 95.7539C19.4142 96.9844 18.7502 98.332 18.4182 99.7969C17.5783 103.586 19.1799 107.668 23.1642 111.926C26.6994 115.715 32.051 119.582 39.0822 123.43C43.8478 126.027 49.2189 128.547 55.0588 130.891C58.7892 132.395 62.715 133.84 66.8166 135.227C75.4103 138.117 84.6877 140.695 94.3361 142.824C105.039 145.188 115.567 146.887 125.43 147.844C128.867 148.176 132.227 148.43 135.469 148.586C138.34 148.723 141.113 148.801 143.809 148.801C146.856 148.801 149.805 148.703 152.598 148.527C160.586 148 167.07 146.75 171.875 144.816C177.285 142.629 180.449 139.602 181.289 135.812C181.895 133.039 181.211 130.129 179.258 127.102Z" fill="#E4FAFC"/>
<path d="M22.9297 98.957C22.9297 98.957 22.9102 98.957 22.9102 98.9375C22.9102 98.9375 22.9297 98.9375 22.9297 98.957Z" fill="#06F3FF"/>
</svg>
