<svg width="84" height="84" viewBox="0 0 84 84" fill="none" xmlns="http://www.w3.org/2000/svg">
<mask id="mask0_2003_1129" style="mask-type:luminance" maskUnits="userSpaceOnUse" x="0" y="0" width="84" height="84">
<path d="M0 0H83.3467V83.6379H0V0Z" fill="white"/>
</mask>
<g mask="url(#mask0_2003_1129)">
<path d="M41.6734 82.5517C60.1534 82.5517 75.1334 68.6048 75.1334 51.3992C75.1334 34.1937 60.1534 20.2468 41.6734 20.2468C23.1934 20.2468 8.21338 34.1937 8.21338 51.3992C8.21338 68.6048 23.1934 82.5517 41.6734 82.5517Z" stroke="#17154B" stroke-width="1.5" stroke-miterlimit="10" stroke-linecap="round" stroke-linejoin="round"/>
<path d="M41.673 69.8069C52.593 69.8069 61.4441 61.5662 61.4441 51.3993C61.4441 41.2324 52.593 32.9917 41.673 32.9917C30.753 32.9917 21.9019 41.2324 21.9019 51.3993C21.9019 61.5662 30.753 69.8069 41.673 69.8069Z" stroke="#17154B" stroke-width="1.5" stroke-miterlimit="10" stroke-linecap="round" stroke-linejoin="round"/>
<path d="M41.6731 58.4814C43.6905 58.4814 45.6253 57.7352 47.0518 56.4071C48.4783 55.0789 49.2797 53.2776 49.2797 51.3993C49.2797 49.521 48.4783 47.7197 47.0518 46.3915C45.6253 45.0634 43.6905 44.3172 41.6731 44.3172C39.6557 44.3172 37.7209 45.0634 36.2943 46.3915C34.8678 47.7197 34.0664 49.521 34.0664 51.3993C34.0664 53.2776 34.8678 55.0789 36.2943 56.4071C37.7209 57.7352 39.6557 58.4814 41.6731 58.4814ZM41.6731 3.2731C41.9039 3.2731 42.1325 3.23077 42.3457 3.14853C42.559 3.06628 42.7528 2.94574 42.916 2.79377C43.0792 2.6418 43.2087 2.46139 43.297 2.26283C43.3854 2.06428 43.4309 1.85147 43.4309 1.63655C43.4309 1.42164 43.3854 1.20883 43.297 1.01027C43.2087 0.811715 43.0792 0.631303 42.916 0.479335C42.7528 0.327367 42.559 0.206819 42.3457 0.124575C42.1325 0.0423307 41.9039 -3.20248e-09 41.6731 0C41.2069 6.46771e-09 40.7598 0.172422 40.4301 0.479335C40.1005 0.786248 39.9153 1.20251 39.9153 1.63655C39.9153 2.07059 40.1005 2.48686 40.4301 2.79377C40.7598 3.10068 41.2069 3.2731 41.6731 3.2731Z" fill="#00B2C8"/>
<path d="M41.6732 82.5516V62.7247M41.6732 20.2323V38.6544M8.21317 51.3992H29.5087M75.1487 51.3992H55.3621M31.1109 15.3227H52.2509M38.1576 8.76196H45.2043M8.21317 36.6413H1.1665V64.5206H8.21317V36.6413ZM82.1954 36.6413H75.1487V64.5206H82.1954V36.6413Z" stroke="#17154B" stroke-width="1.5" stroke-miterlimit="10" stroke-linecap="round" stroke-linejoin="round"/>
</g>
</svg>
