<svg width="43" height="42" viewBox="0 0 43 42" fill="none" xmlns="http://www.w3.org/2000/svg">
<path d="M18.4358 25.0384L21.6666 19.3846L24.8974 25.0384M21.6262 33.9472V19.7884M21.6666 16.1538C23.3803 16.1538 25.0238 15.473 26.2356 14.2612C27.4474 13.0495 28.1282 11.406 28.1282 9.69225C28.1282 7.97854 27.4474 6.33503 26.2356 5.12325C25.0238 3.91148 23.3803 3.23071 21.6666 3.23071C19.9529 3.23071 18.3094 3.91148 17.0976 5.12325C15.8858 6.33503 15.2051 7.97854 15.2051 9.69225C15.2051 11.406 15.8858 13.0495 17.0976 14.2612C18.3094 15.473 19.9529 16.1538 21.6666 16.1538Z" stroke="#17154B" stroke-width="1.5" stroke-miterlimit="10" stroke-linecap="round" stroke-linejoin="round"/>
<path d="M21.6259 10.072C21.733 10.072 21.8357 10.0294 21.9115 9.95369C21.9872 9.87795 22.0297 9.77524 22.0297 9.66813C22.0297 9.56102 21.9872 9.4583 21.9115 9.38257C21.8357 9.30683 21.733 9.26428 21.6259 9.26428C21.5188 9.26428 21.4161 9.30683 21.3403 9.38257C21.2646 9.4583 21.222 9.56102 21.222 9.66813C21.222 9.77524 21.2646 9.87795 21.3403 9.95369C21.4161 10.0294 21.5188 10.072 21.6259 10.072ZM9.55089 37.9616C11.2646 37.9616 12.9081 37.2808 14.1199 36.069C15.3317 34.8573 16.0124 33.2138 16.0124 31.5001C16.0124 29.7863 15.3317 28.1428 14.1199 26.9311C12.9081 25.7193 11.2646 25.0385 9.55089 25.0385C7.83719 25.0385 6.19367 25.7193 4.9819 26.9311C3.77012 28.1428 3.08936 29.7863 3.08936 31.5001C3.08936 33.2138 3.77012 34.8573 4.9819 36.069C6.19367 37.2808 7.83719 37.9616 9.55089 37.9616Z" stroke="#17154B" stroke-width="1.5" stroke-miterlimit="10" stroke-linecap="round" stroke-linejoin="round"/>
<path d="M9.55108 34.7308C10.4079 34.7308 11.2297 34.3904 11.8356 33.7845C12.4415 33.1786 12.7819 32.3568 12.7819 31.5C12.7819 30.6431 12.4415 29.8214 11.8356 29.2155C11.2297 28.6096 10.4079 28.2692 9.55108 28.2692C8.69423 28.2692 7.87247 28.6096 7.26658 29.2155C6.6607 29.8214 6.32031 30.6431 6.32031 31.5C6.32031 32.3568 6.6607 33.1786 7.26658 33.7845C7.87247 34.3904 8.69423 34.7308 9.55108 34.7308ZM33.7819 37.9615C35.4956 37.9615 37.1391 37.2808 38.3508 36.069C39.5626 34.8572 40.2434 33.2137 40.2434 31.5C40.2434 29.7863 39.5626 28.1428 38.3508 26.931C37.1391 25.7192 35.4956 25.0385 33.7819 25.0385C32.0681 25.0385 30.4246 25.7192 29.2129 26.931C28.0011 28.1428 27.3203 29.7863 27.3203 31.5C27.3203 33.2137 28.0011 34.8572 29.2129 36.069C30.4246 37.2808 32.0681 37.9615 33.7819 37.9615Z" stroke="#17154B" stroke-width="1.5" stroke-miterlimit="10" stroke-linecap="round" stroke-linejoin="round"/>
<path d="M33.782 34.7308C34.6389 34.7308 35.4607 34.3904 36.0665 33.7846C36.6724 33.1787 37.0128 32.3569 37.0128 31.5001C37.0128 30.6432 36.6724 29.8214 36.0665 29.2156C35.4607 28.6097 34.6389 28.2693 33.782 28.2693C32.9252 28.2693 32.1034 28.6097 31.4975 29.2156C30.8917 29.8214 30.5513 30.6432 30.5513 31.5001C30.5513 32.3569 30.8917 33.1787 31.4975 33.7846C32.1034 34.3904 32.9252 34.7308 33.782 34.7308Z" stroke="#17154B" stroke-width="1.5" stroke-miterlimit="10" stroke-linecap="round" stroke-linejoin="round"/>
</svg>
