<svg width="60" height="60" viewBox="0 0 60 60" fill="none" xmlns="http://www.w3.org/2000/svg">
<path d="M26.2234 5.57502L13.7484 10.275C10.8734 11.35 8.52344 14.75 8.52344 17.8V36.375C8.52344 39.325 10.4734 43.2 12.8484 44.975L23.5984 53C27.1234 55.65 32.9234 55.65 36.4484 53L47.1984 44.975C49.5734 43.2 51.5234 39.325 51.5234 36.375V17.8C51.5234 14.725 49.1734 11.325 46.2984 10.25L33.8234 5.57502C31.6984 4.80002 28.2984 4.80002 26.2234 5.57502Z" stroke="#303030" stroke-width="3" stroke-linecap="round" stroke-linejoin="round"/>
<path d="M30 31.25C32.7614 31.25 35 29.0114 35 26.25C35 23.4886 32.7614 21.25 30 21.25C27.2386 21.25 25 23.4886 25 26.25C25 29.0114 27.2386 31.25 30 31.25Z" stroke="#00B2C8" stroke-width="3" stroke-miterlimit="10" stroke-linecap="round" stroke-linejoin="round"/>
<path d="M30 31.25V38.75" stroke="#00B2C8" stroke-width="3" stroke-miterlimit="10" stroke-linecap="round" stroke-linejoin="round"/>
</svg>
