<svg width="24" height="25" viewBox="0 0 24 25" fill="none" xmlns="http://www.w3.org/2000/svg">
<path d="M19.88 18.9333C20.32 18.2333 20.58 17.4233 20.58 16.5433C20.58 14.0533 18.57 12.0433 16.08 12.0433C13.59 12.0433 11.58 14.0533 11.58 16.5433C11.58 19.0333 13.59 21.0433 16.07 21.0433C16.95 21.0433 17.77 20.7833 18.46 20.3433L21.58 23.4633L23 22.0433L19.88 18.9333ZM16.08 19.0433C14.7 19.0433 13.58 17.9233 13.58 16.5433C13.58 15.1633 14.7 14.0433 16.08 14.0433C17.46 14.0433 18.58 15.1633 18.58 16.5433C18.58 17.9233 17.46 19.0433 16.08 19.0433ZM15.72 10.5433C14.98 10.5633 14.27 10.7233 13.62 10.9933L13.07 10.1633L9.27 16.3433L6.26 12.8233L2.63 18.6333L1 17.4633L6 9.46332L9 12.9633L13 6.46332L15.72 10.5433ZM18.31 11.0433C17.67 10.7633 16.98 10.5933 16.26 10.5533L21.38 2.46332L23 3.64332L18.31 11.0433Z" fill="#00B2C8"/>
</svg>
