<svg width="90" height="90" viewBox="0 0 90 90" fill="none" xmlns="http://www.w3.org/2000/svg">
<path d="M55.3846 34.5V6.9231M55.3846 34.5H60.5769V57H55.3846M55.3846 34.5H50.1923V45.75V57H55.3846M76.1538 57V70.9615M34.6153 57V83.0769M34.6153 6.9231V34.5M55.3846 57V83.0769M13.8461 57V70.9615M13.8461 34.5V28.25V20.5M76.1538 34.5H81.3461V57H70.9615V34.5H76.1538ZM76.1538 34.5V20.5M39.8077 34.5H29.423V57H39.8077V34.5ZM19.0384 34.5H8.65381V57H19.0384V45.75V34.5Z" stroke="#17154B" stroke-width="1.5" stroke-miterlimit="10" stroke-linecap="round" stroke-linejoin="round"/>
<path d="M60.9 56.9H50.1V34.1H60.9V56.9Z" stroke="#00B2C8" stroke-width="2.2"/>
<path d="M39.9 56.9H29.1V34.1H39.9V56.9Z" stroke="#00B2C8" stroke-width="2.2"/>
</svg>
