<svg width="42" height="42" viewBox="0 0 42 42" fill="none" xmlns="http://www.w3.org/2000/svg">
<path d="M2.21899 22.3327L11.379 14.2937C11.3902 14.2817 11.4056 14.2746 11.422 14.2737C11.438 14.2737 11.453 14.2817 11.465 14.2937L15.691 19.0987C15.695 19.1067 15.703 19.1107 15.711 19.1137C15.719 19.1177 15.731 19.1217 15.738 19.1217C15.746 19.1217 15.758 19.1177 15.766 19.1137C15.773 19.1107 15.781 19.1067 15.786 19.0987L23.762 12.1807C23.7778 12.1698 23.7967 12.1642 23.816 12.1647C23.832 12.1647 23.852 12.1687 23.867 12.1807L28.621 16.3607H28.719L37.781 7.78174" stroke="#00B2C8" stroke-width="1.33333" stroke-miterlimit="10" stroke-linecap="round"/>
<path d="M35.625 5.62976H4.37499C3.8038 5.6295 3.25586 5.85601 2.85159 6.25953C2.44732 6.66305 2.21979 7.21057 2.21899 7.78176V25.0248C2.21899 26.2158 3.18399 27.1808 4.37499 27.1808H35.625C36.1968 27.1808 36.7452 26.9536 37.1495 26.5493C37.5538 26.145 37.781 25.5966 37.781 25.0248V7.78176C37.7802 7.21057 37.5527 6.66305 37.1484 6.25953C36.7441 5.85601 36.1962 5.6295 35.625 5.62976ZM18.383 30.9428H4.37499V35.2548H18.383V30.9428Z" stroke="black" stroke-width="1.33333" stroke-miterlimit="10"/>
<path d="M5.45288 8.86078H11.9179M5.45288 11.0168H9.22288M34.5469 23.9468H25.9259M35.6249 30.9428H21.6169V35.2548H35.6249V30.9428Z" stroke="#00B2C8" stroke-width="1.33333" stroke-miterlimit="10" stroke-linecap="round"/>
</svg>
