<svg width="37" height="37" viewBox="0 0 21 20" fill="none" xmlns="http://www.w3.org/2000/svg">
<path d="M10.5 0C16.023 0 20.5 4.47696 20.5 10C20.5 15.523 16.023 20 10.5 20C4.97696 20 0.5 15.523 0.5 10C0.5 4.47696 4.97696 0 10.5 0ZM13.9496 14.0761C14.1335 13.5117 14.9952 7.88739 15.1017 6.77913C15.1339 6.44348 15.0278 6.22043 14.82 6.12087C14.5687 6 14.1965 6.06043 13.7648 6.21609C13.1726 6.42957 5.60217 9.64391 5.16478 9.83C4.75 10.0061 4.35783 10.1983 4.35783 10.4765C4.35783 10.6722 4.47391 10.7822 4.79391 10.8965C5.12696 11.0152 5.96565 11.2696 6.46087 11.4061C6.93783 11.5378 7.48087 11.4235 7.78522 11.2343C8.10783 11.0339 11.8309 8.54261 12.0983 8.32435C12.3652 8.10609 12.5783 8.38565 12.36 8.60435C12.1417 8.82261 9.58609 11.303 9.24913 11.6465C8.84 12.0635 9.13043 12.4957 9.40478 12.6687C9.71826 12.8661 11.9726 14.3783 12.3122 14.6209C12.6517 14.8635 12.9961 14.9735 13.3113 14.9735C13.6265 14.9735 13.7926 14.5583 13.9496 14.0761Z" fill="#279FDA"/>
</svg>
