<svg width="42" height="43" viewBox="0 0 42 43" fill="none" xmlns="http://www.w3.org/2000/svg">
<path d="M38.5 15.1143C38.5 21.3968 33.4075 26.4893 27.125 26.4893C26.8275 26.4893 26.5125 26.4718 26.215 26.4543C25.7775 20.9068 21.3325 16.4617 15.785 16.0242C15.7675 15.7267 15.75 15.4118 15.75 15.1143C15.75 8.83176 20.8425 3.73926 27.125 3.73926C33.4075 3.73926 38.5 8.83176 38.5 15.1143Z" stroke="#00B2C8" stroke-width="1.5" stroke-linecap="round" stroke-linejoin="round"/>
<path d="M26.25 27.3643C26.25 33.6468 21.1575 38.7393 14.875 38.7393C8.5925 38.7393 3.5 33.6468 3.5 27.3643C3.5 21.0818 8.5925 15.9893 14.875 15.9893C15.1725 15.9893 15.4875 16.0067 15.785 16.0242C21.3325 16.4617 25.7775 20.9068 26.215 26.4543C26.2325 26.7518 26.25 27.0668 26.25 27.3643Z" stroke="#292D32" stroke-width="1.5" stroke-linecap="round" stroke-linejoin="round"/>
<path d="M9.78249 3.73926H5.25C4.2875 3.73926 3.5 4.52676 3.5 5.48926V10.0218C3.5 11.5793 5.38999 12.3667 6.49249 11.2642L11.025 6.73174C12.11 5.62924 11.34 3.73926 9.78249 3.73926Z" stroke="#292D32" stroke-width="1.5" stroke-linecap="round" stroke-linejoin="round"/>
<path d="M32.2175 38.7392H36.75C37.7125 38.7392 38.5 37.9517 38.5 36.9892V32.4567C38.5 30.8992 36.61 30.1117 35.5075 31.2142L30.975 35.7467C29.89 36.8492 30.66 38.7392 32.2175 38.7392Z" stroke="#292D32" stroke-width="1.5" stroke-linecap="round" stroke-linejoin="round"/>
</svg>
