<svg width="42" height="42" viewBox="0 0 42 42" fill="none" xmlns="http://www.w3.org/2000/svg">
<path d="M35.168 5.5899V17.4599C35.1694 17.8066 35.1021 18.1502 34.97 18.4707C34.838 18.7913 34.6438 19.0826 34.3987 19.3278C34.1536 19.573 33.8624 19.7673 33.5418 19.8995C33.2213 20.0317 32.8778 20.0991 32.531 20.0979H23.957L20.172 26.6909C20.1547 26.7212 20.1297 26.7465 20.0995 26.764C20.0693 26.7816 20.035 26.7908 20 26.7908C19.9651 26.7908 19.9308 26.7816 19.9006 26.764C19.8704 26.7465 19.8454 26.7212 19.828 26.6909L16.043 20.0979H7.46905C7.12242 20.0991 6.77898 20.0317 6.45851 19.8996C6.13803 19.7675 5.84686 19.5733 5.60175 19.3282C5.35665 19.0831 5.16246 18.7919 5.03035 18.4714C4.89825 18.151 4.83086 17.8075 4.83205 17.4609V5.5899C4.83086 5.24327 4.89825 4.89983 5.03035 4.57936C5.16246 4.25888 5.35665 3.96771 5.60175 3.7226C5.84686 3.4775 6.13803 3.2833 6.45851 3.1512C6.77898 3.0191 7.12242 2.95171 7.46905 2.9529H32.53C32.8767 2.95171 33.2201 3.0191 33.5406 3.1512C33.8611 3.2833 34.1522 3.4775 34.3973 3.7226C34.6424 3.96771 34.8366 4.25888 34.9687 4.57936C35.1008 4.89983 35.1692 5.24327 35.168 5.5899Z" stroke="black" stroke-width="1.33333" stroke-miterlimit="10"/>
<path d="M27.016 10.3628C27.1604 10.4484 27.2801 10.5701 27.3633 10.716C27.4464 10.8619 27.4901 11.0269 27.4901 11.1948C27.4901 11.3627 27.4464 11.5277 27.3633 11.6736C27.2801 11.8195 27.1604 11.9412 27.016 12.0268C25.566 12.9098 22.969 14.1638 20 14.1638C17.031 14.1638 14.434 12.9098 12.984 12.0268C12.8395 11.9412 12.7198 11.8195 12.6366 11.6736C12.5535 11.5277 12.5098 11.3627 12.5098 11.1948C12.5098 11.0269 12.5535 10.8619 12.6366 10.716C12.7198 10.5701 12.8395 10.4484 12.984 10.3628C14.434 9.47981 17.031 8.22681 20 8.22681C22.969 8.22681 25.566 9.47981 27.016 10.3628Z" stroke="black" stroke-width="1.33333" stroke-miterlimit="10"/>
<path d="M19.9998 14.1639C20.3898 14.1637 20.776 14.0868 21.1363 13.9374C21.4966 13.788 21.8239 13.5692 22.0996 13.2933C22.3753 13.0174 22.594 12.6899 22.7431 12.3295C22.8922 11.9691 22.9689 11.5829 22.9688 11.1929C22.9687 10.8029 22.8917 10.4167 22.7423 10.0564C22.593 9.6961 22.3741 9.36876 22.0982 9.09306C21.8223 8.81737 21.4948 8.59871 21.1345 8.44957C20.7741 8.30044 20.3878 8.22375 19.9978 8.22388C19.2101 8.22414 18.4548 8.53731 17.898 9.09448C17.3412 9.65165 17.0285 10.4072 17.0288 11.1949C17.0291 11.9826 17.3422 12.7379 17.8994 13.2947C18.4566 13.8515 19.2121 14.1641 19.9998 14.1639Z" stroke="black" stroke-width="1.33333" stroke-miterlimit="10"/>
<path d="M20.0001 32.7768C20.442 32.7768 20.8657 32.6013 21.1782 32.2889C21.4906 31.9765 21.6661 31.5527 21.6661 31.1108C21.6661 30.669 21.4906 30.2452 21.1782 29.9328C20.8657 29.6204 20.442 29.4448 20.0001 29.4448C19.7765 29.4371 19.5536 29.4745 19.3447 29.5547C19.1358 29.6349 18.9452 29.7564 18.7842 29.9119C18.6233 30.0673 18.4953 30.2536 18.4079 30.4596C18.3204 30.6656 18.2754 30.8871 18.2754 31.1108C18.2754 31.3346 18.3204 31.5561 18.4079 31.7621C18.4953 31.9681 18.6233 32.1544 18.7842 32.3098C18.9452 32.4653 19.1358 32.5868 19.3447 32.667C19.5536 32.7472 19.7765 32.7846 20.0001 32.7768Z" stroke="black" stroke-width="1.33333" stroke-miterlimit="10"/>
<path d="M1.66797 33.887L2.77797 32.777C3.21544 32.3387 3.73505 31.991 4.30705 31.7537C4.87905 31.5165 5.49222 31.3944 6.11147 31.3944C6.73072 31.3944 7.34388 31.5165 7.91589 31.7537C8.48789 31.991 9.00749 32.3387 9.44497 32.777L10.555 33.887C10.9921 34.3261 11.5116 34.6746 12.0837 34.9123C12.6559 35.1501 13.2694 35.2725 13.889 35.2725C14.5086 35.2725 15.122 35.1501 15.6942 34.9123C16.2663 34.6746 16.7859 34.3261 17.223 33.887M23.332 28.332L23.891 27.777C24.3281 27.3387 24.8475 26.9909 25.4192 26.7536C25.991 26.5164 26.6039 26.3942 27.223 26.3942C27.842 26.3942 28.455 26.5164 29.0267 26.7536C29.5985 26.9909 30.1178 27.3387 30.555 27.777L31.668 28.887C32.1046 29.3261 32.6238 29.6746 33.1957 29.9124C33.7675 30.1502 34.3807 30.2726 35 30.2726C35.6193 30.2726 36.2325 30.1502 36.8043 29.9124C37.3761 29.6746 37.8953 29.3261 38.332 28.887M28.73 37.063C29.172 37.063 29.5958 36.8874 29.9084 36.5749C30.2209 36.2623 30.3965 35.8384 30.3965 35.3965C30.3965 34.9545 30.2209 34.5306 29.9084 34.2181C29.5958 33.9055 29.172 33.73 28.73 33.73C28.5077 33.7245 28.2866 33.7636 28.0796 33.8449C27.8727 33.9262 27.6841 34.0481 27.5249 34.2034C27.3658 34.3587 27.2393 34.5442 27.153 34.7491C27.0666 34.954 27.0221 35.1741 27.0221 35.3965C27.0221 35.6188 27.0666 35.8389 27.153 36.0438C27.2393 36.2487 27.3658 36.4343 27.5249 36.5896C27.6841 36.7448 27.8727 36.8667 28.0796 36.948C28.2866 37.0293 28.5077 37.0684 28.73 37.063ZM11.27 28.492C11.4889 28.492 11.7057 28.449 11.9079 28.3653C12.1102 28.2815 12.294 28.1588 12.4489 28.0041C12.6037 27.8493 12.7265 27.6656 12.8104 27.4634C12.8942 27.2611 12.9374 27.0444 12.9375 26.8255C12.9375 26.6065 12.8945 26.3898 12.8108 26.1875C12.7271 25.9852 12.6043 25.8014 12.4496 25.6466C12.2948 25.4917 12.1111 25.3689 11.9089 25.285C11.7066 25.2012 11.4899 25.158 11.271 25.158C10.8289 25.1578 10.4048 25.3333 10.0921 25.6459C9.77936 25.9584 9.6036 26.3823 9.60347 26.8245C9.60334 27.2666 9.77884 27.6906 10.0914 28.0034C10.4039 28.3161 10.8279 28.4918 11.27 28.492Z" stroke="#00B2C8" stroke-width="1.33333" stroke-miterlimit="10" stroke-linecap="round"/>
</svg>
