<svg width="81" height="41" viewBox="0 0 81 41" fill="none" xmlns="http://www.w3.org/2000/svg">
<path d="M21.9345 8.37435H29.8814V9.87141H26.7588V18.2871H25.0405V9.87141H21.9297V8.37435H21.9345ZM29.5419 11.1075H31.0107V12.4927H31.0384C31.0912 12.2879 31.183 12.0954 31.3086 11.926C31.4441 11.7366 31.605 11.5671 31.7867 11.4223C31.976 11.2694 32.186 11.1446 32.4103 11.0516C32.6327 10.9609 32.8701 10.9135 33.11 10.9117C33.2902 10.9117 33.4218 10.9187 33.4911 10.9257C33.5604 10.9326 33.6297 10.9466 33.7059 10.9536V12.4787C33.595 12.4577 33.4842 12.4437 33.3664 12.4297C33.2537 12.416 33.1404 12.409 33.0269 12.4087C32.769 12.4087 32.5141 12.4635 32.2786 12.5696C32.0431 12.6777 31.8348 12.8379 31.6689 13.0383C31.4843 13.2666 31.3434 13.5276 31.2532 13.8078C31.1453 14.1491 31.0938 14.506 31.1008 14.8642V18.278H29.535V11.1075H29.5419ZM40.9045 18.285H39.3684V17.2847H39.3407C39.1435 17.6517 38.8451 17.953 38.4816 18.1521C38.1286 18.3623 37.7274 18.4757 37.3176 18.4809C36.3823 18.4809 35.7033 18.2501 35.2876 17.7814C34.8719 17.3126 34.6641 16.6061 34.6641 15.6617V11.1075H36.2299V15.5078C36.2299 16.1374 36.3477 16.5851 36.5902 16.8439C36.8326 17.1028 37.1652 17.2357 37.5948 17.2357C37.8775 17.2462 38.1589 17.1936 38.4192 17.0818C38.6278 16.9903 38.811 16.8486 38.9527 16.6691C39.0953 16.4882 39.197 16.2781 39.2507 16.0534C39.3137 15.7996 39.344 15.5386 39.3407 15.2769V11.1145H40.9065L40.9045 18.285ZM43.5719 15.9835C43.6204 16.4452 43.7936 16.767 44.0915 16.9559C44.4222 17.1472 44.7982 17.244 45.1793 17.2357C45.3461 17.2331 45.5126 17.2214 45.6781 17.2007C45.8586 17.1797 46.0356 17.135 46.2047 17.0678C46.3625 17.008 46.503 16.9095 46.6135 16.781C46.7218 16.6423 46.7738 16.4673 46.7589 16.2913C46.7582 16.1975 46.738 16.1049 46.6999 16.0194C46.6617 15.9339 46.6063 15.8573 46.5372 15.7946C46.384 15.6556 46.2051 15.5486 46.0107 15.4798C45.771 15.3944 45.5256 15.3266 45.2763 15.2769C44.9991 15.221 44.722 15.158 44.4379 15.095C44.1521 15.0315 43.8699 14.9521 43.5927 14.8572C43.3318 14.7711 43.0863 14.6436 42.8652 14.4794C42.6487 14.3237 42.4727 14.1172 42.3525 13.8778C42.2209 13.633 42.1585 13.3321 42.1585 12.9684C42.1476 12.6197 42.2471 12.2766 42.4426 11.989C42.6304 11.7257 42.8742 11.5082 43.1562 11.3524C43.4577 11.1885 43.7826 11.0728 44.1192 11.0096C44.453 10.9475 44.7914 10.9147 45.1308 10.9117C45.4851 10.9112 45.8384 10.9511 46.1839 11.0306C46.5071 11.1019 46.8147 11.2323 47.0915 11.4153C47.3617 11.5925 47.5909 11.8263 47.7636 12.1009C47.9524 12.4108 48.0685 12.7601 48.1031 13.1223H46.468C46.3917 12.7445 46.2255 12.4857 45.9553 12.3598C45.6646 12.2238 45.3471 12.1568 45.0268 12.1639C44.8947 12.1642 44.7628 12.1735 44.6319 12.1919C44.4856 12.2119 44.3416 12.2471 44.2024 12.2968C44.0743 12.3453 43.9584 12.4218 43.8629 12.5207C43.7685 12.6256 43.7188 12.7638 43.7243 12.9054C43.7215 12.9937 43.738 13.0815 43.7727 13.1625C43.8075 13.2435 43.8596 13.3158 43.9252 13.3741C44.0792 13.505 44.2552 13.6069 44.4449 13.6749C44.6845 13.7603 44.93 13.8281 45.1793 13.8778C45.4564 13.9338 45.7405 13.9967 46.0315 14.0597C46.3225 14.1226 46.5927 14.2066 46.8698 14.2975C47.1334 14.3821 47.3815 14.5097 47.6042 14.6753C47.8177 14.8335 47.9949 15.0364 48.1238 15.2699C48.2646 15.544 48.3338 15.8498 48.3248 16.1584C48.3362 16.5409 48.235 16.9183 48.0338 17.2427C47.8417 17.537 47.5858 17.7834 47.2855 17.9632C46.9669 18.152 46.6209 18.2889 46.2601 18.369C45.8939 18.4519 45.5199 18.4941 45.1446 18.4949C44.724 18.4998 44.3046 18.448 43.8975 18.341C43.5424 18.2488 43.2067 18.0924 42.9068 17.8793C42.6322 17.6738 42.4072 17.4084 42.2486 17.1028C42.0819 16.7585 41.9943 16.3807 41.9922 15.9975H43.5719V15.9835ZM48.7405 11.1075H49.9252V8.95289H51.4931V11.1075H52.9065V12.2898H51.4931V16.1234C51.4921 16.2682 51.499 16.413 51.5139 16.5571C51.5251 16.6653 51.5581 16.7701 51.6109 16.8649C51.6635 16.9524 51.7442 17.019 51.8395 17.0538C51.9729 17.1012 52.114 17.1225 52.2552 17.1168C52.3661 17.1168 52.4769 17.1168 52.5878 17.1098C52.6999 17.1038 52.8112 17.0874 52.9204 17.0608V18.285C52.7472 18.306 52.5739 18.32 52.4146 18.341C52.2467 18.361 52.0778 18.3703 51.9088 18.369C51.5723 18.3779 51.2363 18.3379 50.9111 18.2501C50.6873 18.1888 50.484 18.068 50.3222 17.9003C50.1758 17.739 50.0753 17.5408 50.0312 17.3266C49.9771 17.0665 49.947 16.8019 49.9412 16.5361V12.3038H48.7564V11.1075H48.7405ZM54.013 11.1075H55.4956V12.0799H55.5234C55.7211 11.6846 56.046 11.3689 56.4448 11.1845C56.8473 11.0005 57.2848 10.9074 57.7266 10.9117C58.2878 10.9117 58.7728 11.0096 59.1885 11.2125C59.5933 11.3998 59.9492 11.6801 60.2277 12.031C60.5088 12.393 60.7181 12.8062 60.8444 13.2482C60.9855 13.7295 61.0556 14.2293 61.0522 14.7313C61.0537 15.2041 60.9907 15.6749 60.8651 16.1304C60.7507 16.5621 60.5606 16.9696 60.3039 17.3336C60.0533 17.6821 59.726 17.9671 59.3478 18.1661C58.9261 18.3846 58.4568 18.4928 57.9829 18.4809C57.7529 18.4808 57.5233 18.4597 57.297 18.418C57.0707 18.3759 56.8499 18.3078 56.6388 18.2151C56.4289 18.125 56.2329 18.0048 56.0568 17.8583C55.882 17.7148 55.7301 17.5449 55.6065 17.3546H55.5809V20.9364H54.015L54.013 11.1075ZM59.4864 14.7033C59.4868 14.3843 59.4448 14.0666 59.3617 13.7589C59.2854 13.4682 59.1587 13.1935 58.9875 12.9474C58.8259 12.7149 58.6154 12.5214 58.3709 12.3807C58.1101 12.2357 57.8165 12.161 57.5187 12.1639C56.8605 12.1639 56.3617 12.3947 56.0291 12.8564C55.6966 13.3182 55.5303 13.9338 55.5303 14.7033C55.526 15.0437 55.5704 15.383 55.6619 15.7107C55.7396 16.0004 55.8738 16.2716 56.0568 16.5082C56.2242 16.727 56.437 16.9061 56.6804 17.0328C56.9545 17.1663 57.2558 17.2333 57.5601 17.2285C57.8645 17.2236 58.1635 17.147 58.4333 17.0048C58.6757 16.8611 58.8839 16.6652 59.043 16.4312C59.2067 16.187 59.3242 15.9142 59.3894 15.6267C59.4532 15.3231 59.4857 15.0136 59.4864 14.7033ZM62.2508 8.37225H63.8166V9.86932H62.2508V8.37225ZM62.2508 11.1075H63.8166V18.285H62.2508V11.1075ZM65.2162 8.37225H66.782V18.285H65.2162V8.37435V8.37225ZM71.5834 18.4809C71.0636 18.4891 70.5476 18.3916 70.066 18.1941C69.6367 18.0185 69.2506 17.7504 68.9347 17.4084C68.6187 17.0665 68.3806 16.6589 68.2369 16.2143C68.0719 15.7233 67.9899 15.2078 67.9944 14.6893C67.9904 14.1754 68.0724 13.6645 68.2369 13.1782C68.3865 12.7353 68.6247 12.3281 68.9367 11.982C69.2525 11.6413 69.6379 11.374 70.066 11.1985C71.0421 10.8161 72.1246 10.8161 73.1007 11.1985C73.53 11.374 73.9161 11.6422 74.232 11.9841C74.548 12.3261 74.7861 12.7336 74.9298 13.1782C75.0943 13.6645 75.1763 14.1754 75.1723 14.6893C75.1768 15.2078 75.0948 15.7233 74.9298 16.2143C74.7802 16.6573 74.542 17.0645 74.23 17.4106C73.9142 17.7512 73.5289 18.0186 73.1007 18.1941C72.6191 18.3916 72.1031 18.4891 71.5834 18.4809ZM71.5834 17.2287C71.9001 17.2353 72.2129 17.1581 72.491 17.0048C72.7414 16.8612 72.9568 16.6628 73.1215 16.4242C73.2891 16.177 73.4134 15.9025 73.4887 15.6127C73.6457 15.0097 73.6457 14.3759 73.4887 13.7729C73.4177 13.4815 73.2932 13.2062 73.1215 12.9614C72.9565 12.7249 72.741 12.5288 72.491 12.3877C72.2106 12.2406 71.8993 12.1638 71.5834 12.1638C71.2674 12.1638 70.9561 12.2406 70.6757 12.3877C70.4272 12.5309 70.2121 12.7266 70.0453 12.9614C69.8763 13.2078 69.752 13.4826 69.678 13.7729C69.521 14.3759 69.521 15.0097 69.678 15.6127C69.7504 15.9036 69.8748 16.1786 70.0453 16.4242C70.2099 16.6628 70.4253 16.8612 70.6757 17.0048C70.9525 17.1613 71.2663 17.2387 71.5834 17.2287ZM75.6295 11.1075H76.8143V8.95289H78.3801V11.1075H79.7935V12.2898H78.3801V16.1234C78.3791 16.2682 78.386 16.413 78.4009 16.5571C78.4121 16.6653 78.4451 16.7701 78.4979 16.8649C78.5505 16.9524 78.6312 17.019 78.7265 17.0538C78.8599 17.1012 79.001 17.1225 79.1422 17.1168C79.2531 17.1168 79.3639 17.1168 79.4748 17.1098C79.5869 17.1038 79.6982 17.0874 79.8074 17.0608V18.285C79.6341 18.306 79.4609 18.32 79.3016 18.341C79.1337 18.361 78.9648 18.3703 78.7958 18.369C78.4593 18.3779 78.1233 18.3379 77.7981 18.2501C77.5743 18.1888 77.371 18.068 77.2092 17.9003C77.0628 17.739 76.9622 17.5408 76.9182 17.3266C76.8641 17.0665 76.834 16.8019 76.8281 16.5361V12.3038H75.6434V11.1075H75.6295Z" fill="#303030"/>
<path d="M20.1074 8.37436H12.9275L10.7104 1.47668L8.4864 8.37436L1.30859 8.36737L7.12151 12.6347L4.8975 19.5254L10.7104 15.265L16.5164 19.5254L14.2993 12.6347L20.1074 8.37436Z" fill="#00B67A"/>
<path d="M14.7987 14.1947L14.2998 12.6347L10.7109 15.2651L14.7987 14.1947Z" fill="#005128"/>
<path d="M1.30859 24.8071H16.0266V39.6686H1.30859V24.8071ZM17.2536 24.8071H31.9716V39.6686H17.2536V24.8071ZM33.1986 24.8071H47.9172V39.6686H33.202L33.1986 24.8071ZM49.1436 24.8071H63.8622V39.6686H49.1436V24.8071ZM65.0886 24.8071H79.8072V39.6686H65.0886V24.8071Z" fill="#00B67A"/>
<path d="M8.66757 34.8227L10.9054 34.2497L11.8408 37.1599L8.66757 34.8227ZM13.8188 31.0604H9.87865L8.66757 27.3143L7.4558 31.0611H3.51562L6.70268 33.3837L5.49368 37.1312L8.68074 34.8094L10.6429 33.3851L13.8188 31.0604ZM24.6105 34.8227L26.8483 34.2497L27.7837 37.1599L24.6105 34.8227ZM29.7617 31.0604H25.8236L24.6105 27.315L23.3987 31.0611H19.4606L22.6477 33.3837L21.4387 37.1312L24.6257 34.8094L26.5878 33.3851L29.7617 31.0604ZM40.5575 34.8227L42.7954 34.2497L43.7307 37.1599L40.5575 34.8227ZM45.7088 31.0604H41.7686L40.5575 27.3143L39.3458 31.0604H35.4056L38.5927 33.383L37.3837 37.1312L40.5707 34.8094L42.5328 33.3851L45.7088 31.0604ZM56.5025 34.8227L58.7411 34.2497L59.6757 37.1599L56.5025 34.8227ZM61.6538 31.0604H57.7136L56.5025 27.3143L55.2915 31.0604H51.354L54.5411 33.383L53.3286 37.1312L56.5157 34.8094L58.4778 33.3851L61.6538 31.0604ZM72.4475 34.8227L74.6861 34.2497L75.6207 37.1599L72.4475 34.8227ZM77.5988 31.0604H73.6586L72.4475 27.3143L71.2385 31.0611H67.2956L70.4826 33.3837L69.2736 37.1312L72.4607 34.8094L74.4256 33.3837L77.5988 31.0604Z" fill="white"/>
</svg>
