<svg width="50" height="50" viewBox="0 0 50 50" fill="none" xmlns="http://www.w3.org/2000/svg">
<g clip-path="url(#clip0_272_1978)">
<path d="M12.3916 12.6668H37.6092C37.6397 12.6668 37.6689 12.6789 37.6905 12.7004C37.712 12.722 37.7241 12.7512 37.7241 12.7817V18.8687C37.7241 18.8992 37.712 18.9284 37.6905 18.9499C37.6689 18.9715 37.6397 18.9836 37.6092 18.9836H28.8198C28.7893 18.9836 28.7601 18.9957 28.7386 19.0172C28.717 19.0387 28.7049 19.068 28.7049 19.0984V43.3651C28.7049 43.3956 28.6928 43.4248 28.6713 43.4463C28.6497 43.4678 28.6205 43.4799 28.5901 43.4799H21.4694C21.4389 43.4799 21.4097 43.4678 21.3881 43.4463C21.3666 43.4248 21.3545 43.3956 21.3545 43.3651V19.103C21.3545 19.0725 21.3424 19.0433 21.3209 19.0218C21.2993 19.0003 21.2701 18.9882 21.2397 18.9882H12.3962C12.3657 18.9882 12.3365 18.9761 12.315 18.9545C12.2934 18.933 12.2813 18.9038 12.2813 18.8733V12.7863C12.2807 12.7712 12.2831 12.7561 12.2883 12.7419C12.2935 12.7278 12.3015 12.7148 12.3117 12.7037C12.3219 12.6926 12.3343 12.6836 12.348 12.6773C12.3617 12.671 12.3765 12.6674 12.3916 12.6668Z" fill="#CECECE"/>
<path d="M25.0009 22.7886C15.4442 22.7886 7.69531 24.47 7.69531 26.5453C7.69531 28.6207 15.4408 30.3032 24.9975 30.3032C34.5542 30.3032 42.2985 28.6218 42.2985 26.5453C42.2985 24.4688 34.5565 22.7886 25.0009 22.7886ZM25.0009 29.0847C16.672 29.0847 9.91996 27.7937 9.91996 26.2042C9.91996 24.6147 16.672 23.3238 25.0009 23.3238C33.3299 23.3238 40.083 24.6147 40.083 26.2042C40.083 27.7937 33.3287 29.0847 25.0009 29.0847Z" fill="#CECECE"/>
<path d="M44.7352 11.5999C47.4247 15.5503 48.8594 20.2204 48.8514 24.9995C48.8514 38.1716 38.1704 48.8504 25.0005 48.8504C11.8306 48.8504 1.14844 38.1728 1.14844 25.0006C1.14844 11.8284 11.8295 1.14853 25.0005 1.14853C29.5379 1.14144 33.9823 2.43479 37.8074 4.87541" stroke="#CECECE" stroke-width="2" stroke-miterlimit="10" stroke-linecap="round"/>
<path d="M41.0469 7.32745L41.373 7.6008" stroke="#CECECE" stroke-width="2" stroke-linecap="round" stroke-linejoin="round"/>
</g>
<defs>
<clipPath id="clip0_272_1978">
<rect width="50" height="50" fill="white"/>
</clipPath>
</defs>
</svg>
