<svg width="24" height="25" viewBox="0 0 24 25" fill="none" xmlns="http://www.w3.org/2000/svg">
<path d="M18 13.25C17.06 13.25 16.19 13.58 15.5 14.13C14.58 14.86 14 15.99 14 17.25C14 18 14.21 18.71 14.58 19.31C15.27 20.47 16.54 21.25 18 21.25C19.01 21.25 19.93 20.88 20.63 20.25C20.94 19.99 21.21 19.67 21.42 19.31C21.79 18.71 22 18 22 17.25C22 15.04 20.21 13.25 18 13.25ZM20.07 16.82L17.94 18.79C17.8 18.92 17.61 18.99 17.43 18.99C17.24 18.99 17.05 18.92 16.9 18.77L15.91 17.78C15.62 17.49 15.62 17.01 15.91 16.72C16.2 16.43 16.68 16.43 16.97 16.72L17.45 17.2L19.05 15.72C19.35 15.44 19.83 15.46 20.11 15.76C20.39 16.06 20.37 16.53 20.07 16.82Z" fill="#00B2C8"/>
<path opacity="0.4" d="M21.0901 21.75C21.0901 22.03 20.8701 22.25 20.5901 22.25H3.41016C3.13016 22.25 2.91016 22.03 2.91016 21.75C2.91016 17.61 6.99015 14.25 12.0002 14.25C13.0302 14.25 14.0302 14.39 14.9502 14.66C14.3602 15.36 14.0002 16.27 14.0002 17.25C14.0002 18 14.2101 18.71 14.5801 19.31C14.7801 19.65 15.0401 19.96 15.3401 20.22C16.0401 20.86 16.9702 21.25 18.0002 21.25C19.1202 21.25 20.1302 20.79 20.8502 20.05C21.0102 20.59 21.0901 21.16 21.0901 21.75Z" fill="#292D32"/>
<path d="M12 12.25C14.7614 12.25 17 10.0114 17 7.25C17 4.48858 14.7614 2.25 12 2.25C9.23858 2.25 7 4.48858 7 7.25C7 10.0114 9.23858 12.25 12 12.25Z" fill="#00B2C8"/>
</svg>
