<svg width="37" height="37" viewBox="0 0 21 16" fill="none" xmlns="http://www.w3.org/2000/svg">
<g clip-path="url(#clip0_404_33782)">
<path d="M3.5 7C4.60313 7 5.5 6.10313 5.5 5C5.5 3.89687 4.60313 3 3.5 3C2.39688 3 1.5 3.89687 1.5 5C1.5 6.10313 2.39688 7 3.5 7ZM17.5 7C18.6031 7 19.5 6.10313 19.5 5C19.5 3.89687 18.6031 3 17.5 3C16.3969 3 15.5 3.89687 15.5 5C15.5 6.10313 16.3969 7 17.5 7ZM18.5 8H16.5C15.95 8 15.4531 8.22188 15.0906 8.58125C16.35 9.27188 17.2437 10.5188 17.4375 12H19.5C20.0531 12 20.5 11.5531 20.5 11V10C20.5 8.89687 19.6031 8 18.5 8ZM10.5 8C12.4344 8 14 6.43437 14 4.5C14 2.56562 12.4344 1 10.5 1C8.56563 1 7 2.56562 7 4.5C7 6.43437 8.56563 8 10.5 8ZM12.9 9H12.6406C11.9906 9.3125 11.2688 9.5 10.5 9.5C9.73125 9.5 9.0125 9.3125 8.35938 9H8.1C6.1125 9 4.5 10.6125 4.5 12.6V13.5C4.5 14.3281 5.17188 15 6 15H15C15.8281 15 16.5 14.3281 16.5 13.5V12.6C16.5 10.6125 14.8875 9 12.9 9ZM5.90938 8.58125C5.54688 8.22188 5.05 8 4.5 8H2.5C1.39688 8 0.5 8.89687 0.5 10V11C0.5 11.5531 0.946875 12 1.5 12H3.55938C3.75625 10.5188 4.65 9.27188 5.90938 8.58125Z" fill="#279FDA"/>
</g>
<defs>
<clipPath id="clip0_404_33782">
<rect width="20" height="16" fill="white" transform="translate(0.5)"/>
</clipPath>
</defs>
</svg>
