<svg width="42" height="43" viewBox="0 0 42 43" fill="none" xmlns="http://www.w3.org/2000/svg">
<path d="M18.8153 29.7451V33.2977C18.8153 36.3077 16.0153 38.7401 12.5678 38.7401C9.12026 38.7401 6.30273 36.3077 6.30273 33.2977V29.7451C6.30273 32.7551 9.10276 34.8901 12.5678 34.8901C16.0153 34.8901 18.8153 32.7376 18.8153 29.7451Z" stroke="#00B2C8" stroke-width="1.5" stroke-linecap="round" stroke-linejoin="round"/>
<path d="M18.8127 24.9318C18.8127 25.8068 18.5677 26.6118 18.1477 27.3118C17.1152 29.0093 14.9976 30.0768 12.5476 30.0768C10.0976 30.0768 7.98012 28.9918 6.94762 27.3118C6.52762 26.6118 6.28271 25.8068 6.28271 24.9318C6.28271 23.4268 6.98268 22.0793 8.10268 21.0993C9.24018 20.1018 10.7976 19.5068 12.5301 19.5068C14.2626 19.5068 15.8202 20.1193 16.9577 21.0993C18.1127 22.0618 18.8127 23.4268 18.8127 24.9318Z" stroke="#00B2C8" stroke-width="1.5" stroke-linecap="round" stroke-linejoin="round"/>
<path d="M18.8153 24.4425V29.255C18.8153 32.265 16.0153 34.4 12.5678 34.4C9.12026 34.4 6.30273 32.2475 6.30273 29.255V24.4425C6.30273 21.4325 9.10276 19 12.5678 19C14.3003 19 15.8578 19.6125 16.9953 20.5925C18.1153 21.5725 18.8153 22.9375 18.8153 24.4425Z" stroke="#00B2C8" stroke-width="1.5" stroke-linecap="round" stroke-linejoin="round"/>
<path d="M38.4999 19.4368V23.0419C38.4999 24.0044 37.7299 24.7918 36.7499 24.8268H33.3198C31.4298 24.8268 29.6974 23.4443 29.5399 21.5543C29.4349 20.4518 29.8549 19.4193 30.5899 18.7018C31.2374 18.0368 32.1299 17.6519 33.1099 17.6519H36.7499C37.7299 17.6869 38.4999 18.4743 38.4999 19.4368Z" stroke="#292D32" stroke-width="1.5" stroke-linecap="round" stroke-linejoin="round"/>
<path d="M3.5 18.6143V15.1143C3.5 10.3543 6.37 7.02925 10.8325 6.46925C11.2875 6.39925 11.76 6.36426 12.25 6.36426H28C28.455 6.36426 28.8925 6.38174 29.3125 6.45174C33.8275 6.97674 36.75 10.3193 36.75 15.1143V17.6518H33.11C32.13 17.6518 31.2375 18.0367 30.59 18.7017C29.855 19.4192 29.435 20.4517 29.54 21.5542C29.6975 23.4442 31.43 24.8267 33.32 24.8267H36.75V27.3643C36.75 32.6143 33.25 36.1143 28 36.1143H23.625" stroke="#292D32" stroke-width="1.5" stroke-linecap="round" stroke-linejoin="round"/>
</svg>
