<svg width="24" height="25" viewBox="0 0 24 25" fill="none" xmlns="http://www.w3.org/2000/svg">
<path d="M20.5 8.24332V5.96332C20.5 4.86332 19.6 3.96332 18.5 3.96332H4.5C3.39 3.96332 2.5 4.86332 2.5 5.96332V19.9633C2.5 21.0633 3.39 21.9633 4.5 21.9633H18.5C19.6 21.9633 20.5 21.0633 20.5 19.9633V17.6833C21.09 17.3333 21.5 16.7033 21.5 15.9633V9.96332C21.5 9.22332 21.09 8.59332 20.5 8.24332ZM19.5 9.96332V15.9633H12.5V9.96332H19.5ZM4.5 19.9633V5.96332H18.5V7.96332H12.5C11.4 7.96332 10.5 8.86332 10.5 9.96332V15.9633C10.5 17.0633 11.4 17.9633 12.5 17.9633H18.5V19.9633H4.5Z" fill="#00B2C8"/>
<path d="M15.5 14.4633C16.3284 14.4633 17 13.7917 17 12.9633C17 12.1349 16.3284 11.4633 15.5 11.4633C14.6716 11.4633 14 12.1349 14 12.9633C14 13.7917 14.6716 14.4633 15.5 14.4633Z" fill="#00B2C8"/>
</svg>
