<svg width="37" height="37" viewBox="0 0 21 20" fill="none" xmlns="http://www.w3.org/2000/svg">
<path d="M2.31818 0C1.31364 0 0.5 0.813636 0.5 1.81818V18.1818C0.5 19.1864 1.31364 20 2.31818 20H18.6818C19.6864 20 20.5 19.1864 20.5 18.1818V1.81818C20.5 0.813636 19.6864 0 18.6818 0H2.31818ZM4.72585 4.54545H8.91797L11.3647 8.04332L14.392 4.54545H15.7113L11.9577 8.89205L16.5494 15.4545H12.3572L9.6424 11.5732L6.29013 15.4545H4.94957L9.04581 10.7227L4.72585 4.54545ZM6.75355 5.62145L12.8935 14.3732H14.5199L8.3782 5.62145H6.75355Z" fill="#303030"/>
</svg>
