<svg width="158" height="107" viewBox="0 0 158 107" fill="none" xmlns="http://www.w3.org/2000/svg">
<path fill-rule="evenodd" clip-rule="evenodd" d="M61.8 44.6001V57.6001H65H68.2V52.6001C68.2 49.3001 68.2 47.5001 68.2 47.3001C68.3 46.8001 68.4 46.3001 68.7 45.9001C69.1 45.2001 69.8 44.9001 70.6 45.0001C71.7 45.1001 72.4 45.7001 72.6 47.0001C72.6 47.2001 72.6 49.2001 72.6 52.4001V57.5001H75.8H79V51.5001C79 46.4001 79 45.4001 78.9 44.9001C78.7 43.1001 78.1 41.7001 77 40.7001C76.1 39.8001 75 39.3001 73.7 39.1001C73.2 39.0001 71.8 39.1001 71.4 39.2001C70.2 39.5001 69.3 39.9001 68.5 40.8001L68 41.2001V36.4001V31.6001H64.8H61.6V44.6001H61.8ZM129.8 31.8001C129.6 32.2001 123.1 47.9001 123.1 47.9001C123.1 47.9001 124.8 47.9001 126.9 47.9001H130.7L134.1 39.8001C136 35.3001 137.5 31.6001 137.5 31.6001C137.5 31.6001 135.8 31.6001 133.7 31.6001H129.9L129.8 31.8001ZM47.8 39.2001C46.4 39.4001 45.3 39.8001 44.2 40.5001C42 41.9001 40.6 44.3001 40.2 47.1001C40 48.4001 40.1 50.0001 40.4 51.2001C41.2 54.3001 43.3 56.7001 46 57.6001C47 57.9001 47.4 58.0001 48.6 58.0001C49.5 58.0001 49.8 58.0001 50.1 57.9001C51.4 57.6001 52.3 57.1001 53.1 56.3001L53.5 55.9001V56.7001V57.5001H56.6H59.7V48.5001V39.5001H56.6H53.5V40.3001V41.1001L53.2 40.8001C52.5 40.0001 51.5 39.5001 50.2 39.2001C49.8 39.1001 49.6 39.1001 48.8 39.1001C48.3 39.2001 47.9 39.2001 47.8 39.2001ZM88.6 39.2001C86.9 39.4001 85.1 40.2001 83.8 41.2001C81.3 43.3001 80 46.6001 80.5 50.0001C81 53.8001 83.7 56.7001 87.5 57.7001C88.3 57.9001 89.1 58.0001 90.1 58.0001C91.9 58.0001 93.2 57.7001 94.6 57.0001C97.4 55.6001 99.2 53.1001 99.6 50.0001C99.7 49.2001 99.7 47.9001 99.6 47.2001C99.4 45.7001 98.8 44.2001 97.9 43.0001C97.5 42.5001 96.7 41.6001 96.2 41.2001C94.8 40.1001 93.2 39.4001 91.4 39.2001C90.7 39.1001 89.3 39.1001 88.6 39.2001ZM109 39.2001C107.3 39.4001 105.6 40.1001 104.3 41.2001C103.8 41.6001 102.9 42.5001 102.6 43.0001C101.7 44.2001 101.2 45.7001 100.9 47.2001C100.8 47.9001 100.8 49.3001 100.9 50.0001C101.5 54.0001 104.4 57.1001 108.4 57.9001C109.2 58.1001 109.6 58.1001 110.5 58.1001C112.2 58.1001 113.7 57.8001 115.1 57.0001C118.8 55.1001 120.8 50.9001 119.9 46.6001C119.1 42.6001 115.9 39.7001 111.8 39.2001C111.1 39.1001 109.7 39.1001 109 39.2001ZM19.5 39.6001C19.5 39.6001 21.2 43.7001 23.3 48.7001C25.4 53.7001 27.1 57.8001 27.1 57.8001C27.1 57.8001 26.5 59.3001 25.7 61.1001C24.9 62.9001 24.3 64.3001 24.3 64.4001C24.3 64.5001 25.8 64.4001 27.7 64.4001H31.1L36.2 52.1001C39 45.3001 41.3 39.8001 41.3 39.7001C41.3 39.7001 40.6 39.6001 37.9 39.7001H34.5L32.4 44.9001C31.5 47.7001 30.6 50.1001 30.6 50.1001C30.6 50.1001 29.7 47.7001 28.5 44.9001L26.5 39.7001H23C21.1 39.6001 19.5 39.6001 19.5 39.6001ZM50.9 45.0001C52.2 45.3001 53.2 46.3001 53.6 47.6001C53.7 48.1001 53.7 49.0001 53.6 49.5001C53.3 50.8001 52.3 51.8001 51 52.1001C50.5 52.2001 49.6 52.2001 49.1 52.1001C48 51.8001 47 51.0001 46.6 50.0001C46.1 48.9001 46.3 47.5001 46.9 46.5001C47.8 45.2001 49.3 44.7001 50.9 45.0001ZM90.8 45.1001C92.2 45.3001 93.3 46.4001 93.6 47.8001C93.7 48.3001 93.7 49.1001 93.6 49.6001C93.3 50.9001 92.3 51.8001 91.1 52.2001C90.7 52.3001 89.6 52.3001 89.2 52.2001C88.2 51.9001 87.4 51.2001 86.9 50.3001C86.6 49.7001 86.6 49.4001 86.6 48.7001C86.6 48.1001 86.7 47.8001 86.9 47.3001C87.2 46.7001 87.6 46.1001 88.2 45.7001C88.8 45.1001 89.8 44.9001 90.8 45.1001ZM111.1 45.1001C112.3 45.3001 113.3 46.1001 113.7 47.2001C113.9 47.7001 114 48.0001 114 48.6001C114 49.3001 113.9 49.6001 113.7 50.2001C113.3 51.1001 112.4 51.8001 111.4 52.1001C111 52.2001 109.9 52.2001 109.5 52.1001C108.3 51.8001 107.3 50.8001 107 49.5001C106.9 49.0001 106.9 48.1001 107 47.6001C107.4 46.0001 108.8 44.9001 110.4 44.9001C110.6 45.0001 110.9 45.0001 111.1 45.1001ZM124.7 49.5001C122.8 49.7001 121.4 51.1001 121 52.9001C120.9 53.4001 120.9 54.3001 121 54.8001C121.4 56.4001 122.6 57.5001 124.2 57.9001C124.4 57.9001 124.8 58.0001 125.1 58.0001C126.3 58.0001 127.3 57.6001 128.1 56.8001C129 55.9001 129.3 55.0001 129.3 53.8001C129.3 52.3001 128.6 51.0001 127.4 50.3001C126.6 49.6001 125.5 49.4001 124.7 49.5001ZM72 59.3001C70.7 59.7001 70.1 61.2001 70.8 62.3001C71 62.6001 71.4 63.0001 71.7 63.1001C72 63.2001 72 63.2001 72.6 63.2001C73.1 63.2001 73.2 63.2001 73.5 63.1001C73.9 62.9001 74.3 62.5001 74.5 62.1001C75 61.1001 74.5 59.9001 73.5 59.4001C73.2 59.2001 73.1 59.2001 72.7 59.2001C72.3 59.2001 72.2 59.2001 72 59.3001ZM66.6 59.4001C64.9 59.7001 63.8 60.8001 63.3 62.6001C63.2 62.9001 63.2 63.2001 63.2 63.6001V64.3001H62.5H61.8V65.8001V67.3001H62.5H63.2V70.9001V74.5001H65.1H67V70.9001V67.3001H68.3H69.6V65.8001V64.3001H68.3H67V64.0001C67.1 63.3001 67.4 62.8001 68 62.7001C68.4 62.6001 69 62.6001 69.4 62.8001C69.6 62.9001 69.7 62.9001 69.7 62.9001C69.7 62.9001 69.7 62.2001 69.7 61.3001V59.7001L69.4 59.6001C69 59.4001 68.5 59.4001 67.8 59.4001C67.3 59.3001 66.9 59.4001 66.6 59.4001ZM81.8 64.1001C81 64.3001 80.4 64.7001 80 65.2001L79.8 65.5001V64.9001V64.3001H77.9H76V69.4001V74.5001H77.9H79.8V71.7001C79.8 70.1001 79.8 68.8001 79.8 68.6001C79.9 68.2001 80.1 67.8001 80.3 67.6001C80.8 67.2001 81.7 67.3001 82.1 67.8001C82.4 68.2001 82.4 68.2001 82.4 71.4001V74.4001H84.3H86.2V71.0001C86.2 67.4001 86.2 67.0001 86 66.3001C85.8 65.7001 85.6 65.2001 85.1 64.8001C84.7 64.4001 84.3 64.1001 83.7 64.0001C83.2 64.0001 82.2 64.0001 81.8 64.1001ZM91.3 64.0001C90.7 64.1001 89.8 64.4001 89.3 64.8001C88.2 65.6001 87.5 66.8001 87.2 68.3001C87.1 68.9001 87.1 70.0001 87.2 70.6001C87.4 71.5001 87.7 72.4001 88.2 73.0001C88.9 73.9001 89.8 74.5001 90.9 74.7001C91.5 74.8001 92.5 74.8001 93 74.6001C93.6 74.4001 94 74.2001 94.5 73.8001L94.9 73.4001V73.9001V74.4001H96.8H98.7V69.3001V64.2001H96.8H94.9V64.7001V65.2001L94.6 65.1001C94.1 64.6001 93.4 64.2001 92.6 64.1001C92.3 64.0001 91.6 64.0001 91.3 64.0001ZM105.8 64.1001C105.1 64.2001 104.4 64.7001 104 65.2001L103.8 65.4001V64.8001V64.2001H101.9H100V69.3001V74.4001H101.9H103.8V71.5001C103.8 68.4001 103.8 68.4001 104 67.9001C104.2 67.5001 104.6 67.3001 105 67.3001C105.4 67.3001 105.6 67.4001 105.9 67.6001C106.3 68.0001 106.3 67.9001 106.3 71.3001V74.3001H108.2H110.1V70.6001C110.1 66.9001 110.1 66.9001 110 66.5001C109.9 66.3001 109.8 65.9001 109.7 65.6001C109.5 65.2001 109.4 65.1001 109.1 64.8001C108.7 64.4001 108.4 64.2001 108 64.0001C107.3 64.0001 106.5 63.9001 105.8 64.1001ZM115.7 64.1001C114 64.4001 112.7 65.2001 111.9 66.6001C111.7 67.0001 111.5 67.5001 111.3 68.0001C111.2 68.5001 111.2 68.6001 111.2 69.4001C111.2 70.3001 111.2 70.6001 111.5 71.3001C112.1 73.0001 113.5 74.3001 115.4 74.7001C115.7 74.8001 116 74.8001 116.7 74.8001C117.7 74.8001 118.1 74.7001 118.8 74.4001L119.2 74.2001V72.5001V70.8001L118.9 71.0001C118.4 71.3001 118.1 71.4001 117.5 71.4001C116.9 71.4001 116.6 71.4001 116.2 71.2001C115.8 71.0001 115.5 70.7001 115.3 70.3001C115.2 70.0001 115.2 70.0001 115.2 69.5001C115.2 69.1001 115.2 69.0001 115.3 68.7001C115.6 67.9001 116.3 67.5001 117.3 67.4001C118 67.4001 118.3 67.4001 119.3 67.9001C119.3 67.9001 119.3 67.1001 119.3 66.2001V64.5001L119 64.4001C117.9 64.0001 116.7 63.9001 115.7 64.1001ZM124.3 64.1001C121.4 64.6001 119.6 67.1001 119.8 70.0001C119.9 71.0001 120.2 71.9001 120.7 72.6001C121.4 73.7001 122.5 74.4001 123.9 74.7001C124.5 74.8001 126.1 74.8001 126.8 74.7001C127.8 74.5001 128.7 74.0001 129.4 73.3001C129.7 73.0001 130.2 72.3001 130.2 72.3001C130.2 72.3001 129.5 72.0001 128.6 71.7001L127 71.1001L126.8 71.3001C126.5 71.6001 126.3 71.7001 125.9 71.8001C124.8 72.1001 123.7 71.5001 123.5 70.5001V70.3001H127H130.5V69.4001C130.5 68.8001 130.5 68.4001 130.4 68.2001C130.2 67.0001 129.7 66.2001 129 65.4001C128.3 64.7001 127.5 64.3001 126.4 64.1001C126 64.0001 124.8 64.0001 124.3 64.1001ZM70.7 69.4001V74.5001H72.6H74.5V69.4001V64.3001H72.6H70.7V69.4001ZM125.8 66.9001C126.1 67.0001 126.2 67.1001 126.5 67.3001C126.7 67.5001 126.9 67.7001 126.9 68.0001V68.2001H125.2C123.3 68.2001 123.4 68.2001 123.6 67.8001C123.9 67.1001 124.8 66.7001 125.8 66.9001ZM93.5 67.4001C94 67.5001 94.6 68.0001 94.8 68.5001C95.3 69.6001 94.8 70.9001 93.6 71.3001C93.2 71.4001 92.6 71.4001 92.2 71.3001C91.6 71.1001 91 70.6001 90.9 70.0001C90.8 69.7001 90.8 69.6001 90.8 69.3001C90.8 68.9001 90.8 68.8001 91 68.5001C91.4 67.6001 92.4 67.2001 93.5 67.4001Z" fill="#C5C5C5"/>
</svg>
