<svg width="37" height="37" viewBox="0 0 21 20" fill="none" xmlns="http://www.w3.org/2000/svg">
<path d="M18.4586 5.8001C18.2992 4.92041 17.5398 4.27979 16.6586 4.07979C15.3398 3.8001 12.8992 3.6001 10.2586 3.6001C7.61953 3.6001 5.13984 3.8001 3.81953 4.07979C2.93984 4.27979 2.17891 4.87979 2.01953 5.8001C1.85859 6.8001 1.69922 8.2001 1.69922 10.0001C1.69922 11.8001 1.85859 13.2001 2.05859 14.2001C2.21953 15.0798 2.97891 15.7204 3.85859 15.9204C5.25859 16.2001 7.65859 16.4001 10.2992 16.4001C12.9398 16.4001 15.3398 16.2001 16.7398 15.9204C17.6195 15.7204 18.3789 15.1204 18.5398 14.2001C18.6992 13.2001 18.8992 11.7595 18.9398 10.0001C18.8586 8.2001 18.6586 6.8001 18.4586 5.8001ZM8.09922 12.8001V7.2001L12.9789 10.0001L8.09922 12.8001Z" fill="#FF0101"/>
</svg>
